<svg xmlns="http://www.w3.org/2000/svg" width="32.003" height="36.444" viewBox="0 0 32.003 36.444">
  <path id="Icon_material-event-note" data-name="Icon material-event-note" d="M29.391,17.9H11.612v3.644h17.78ZM32.947,5.144H31.169V1.5H27.613V5.144H13.39V1.5H9.834V5.144H8.056A3.585,3.585,0,0,0,4.518,8.789L4.5,34.3a3.6,3.6,0,0,0,3.556,3.644H32.947A3.612,3.612,0,0,0,36.5,34.3V8.789A3.612,3.612,0,0,0,32.947,5.144Zm0,29.155H8.056V14.255H32.947Zm-8.89-9.111H11.612v3.644H24.057Z" transform="translate(-4.5 -1.5)" fill="#dba200"/>
</svg>
