<svg xmlns="http://www.w3.org/2000/svg" width="26" height="26" viewBox="0 0 26 26"><rect width="26" height="26" fill="#012a51"/><path d="M8.523,6.391a4.371,4.371,0,1,0,4.371,4.371A4.364,4.364,0,0,0,8.523,6.391Zm0,7.212a2.842,2.842,0,1,1,2.842-2.842A2.847,2.847,0,0,1,8.523,13.6Zm5.569-7.391a1.02,1.02,0,1,1-1.02-1.019A1.017,1.017,0,0,1,14.092,6.212Zm2.9,1.035A5.045,5.045,0,0,0,15.61,3.675,5.079,5.079,0,0,0,12.038,2.3c-1.408-.08-5.626-.08-7.034,0A5.071,5.071,0,0,0,1.432,3.671,5.062,5.062,0,0,0,.055,7.243c-.08,1.407-.08,5.626,0,7.034a5.045,5.045,0,0,0,1.377,3.572A5.085,5.085,0,0,0,5,19.226c1.408.08,5.626.08,7.034,0a5.046,5.046,0,0,0,3.572-1.377,5.078,5.078,0,0,0,1.377-3.572c.08-1.407.08-5.622,0-7.03Zm-1.818,8.54a2.877,2.877,0,0,1-1.621,1.621c-1.122.445-3.785.342-5.025.342s-3.907.1-5.025-.342a2.877,2.877,0,0,1-1.621-1.621c-.445-1.122-.342-3.785-.342-5.025s-.1-3.907.342-5.025A2.877,2.877,0,0,1,3.5,4.116c1.122-.445,3.785-.342,5.025-.342s3.907-.1,5.025.342a2.877,2.877,0,0,1,1.621,1.621c.445,1.122.342,3.785.342,5.025S15.614,14.668,15.169,15.787Z" transform="translate(4.316 2.075)" fill="#fff"/></svg>