<svg xmlns="http://www.w3.org/2000/svg" width="10.703" height="10.692" viewBox="0 0 10.703 10.692">
  <path id="magnifier" d="M10.5,10.494a.669.669,0,0,1-.951,0L7.484,8.424a4.667,4.667,0,0,1-4.62.559A4.614,4.614,0,0,1,.371,6.5a4.655,4.655,0,0,1,0-3.643,4.663,4.663,0,0,1,1-1.489A4.722,4.722,0,0,1,2.864.371,4.643,4.643,0,0,1,6.5.371,4.767,4.767,0,0,1,8,1.364a4.634,4.634,0,0,1,1,1.489,4.575,4.575,0,0,1,.371,1.819,4.56,4.56,0,0,1-.93,2.8L10.5,9.543a.669.669,0,0,1,0,.951ZM4.682,1.338a3.334,3.334,0,0,0-3.345,3.34A3.329,3.329,0,0,0,4.682,8.017a3.334,3.334,0,0,0,3.345-3.34A3.328,3.328,0,0,0,4.682,1.338Z" transform="translate(0 0)" fill="#000c17"/>
</svg>
