<svg xmlns="http://www.w3.org/2000/svg" width="26" height="26" viewBox="0 0 26 26"><g transform="translate(-94 -707)"><rect width="26" height="26" transform="translate(94 707)" fill="#012a51"/><path d="M14.255,6.6c.01.141.01.282.01.423A9.2,9.2,0,0,1,5,16.284a9.2,9.2,0,0,1-5-1.462,6.736,6.736,0,0,0,.786.04,6.521,6.521,0,0,0,4.042-1.391,3.262,3.262,0,0,1-3.044-2.258,4.106,4.106,0,0,0,.615.05,3.444,3.444,0,0,0,.857-.111,3.257,3.257,0,0,1-2.611-3.2v-.04a3.279,3.279,0,0,0,1.472.413A3.261,3.261,0,0,1,1.109,3.976,9.256,9.256,0,0,0,7.823,7.383a3.676,3.676,0,0,1-.081-.746,3.259,3.259,0,0,1,5.635-2.228,6.411,6.411,0,0,0,2.067-.786,3.247,3.247,0,0,1-1.432,1.794,6.528,6.528,0,0,0,1.875-.5A7,7,0,0,1,14.255,6.6Z" transform="translate(99.056 710.167)" fill="#fff"/></g></svg>