<svg xmlns="http://www.w3.org/2000/svg" width="25" height="25" viewBox="0 0 25 25"><g transform="translate(-147 -502)"><circle cx="12.5" cy="12.5" r="12.5" transform="translate(147 502)" fill="#fff"/><g transform="translate(153.226 507.698)" fill="none"><path d="M0,14.3V1.341A1.411,1.411,0,0,1,1.472,0H10.3a1.411,1.411,0,0,1,1.472,1.341V14.3L5.887,11.174Z" stroke="none"/><path d="M 9.774277687072754 10.97450160980225 L 9.774277687072754 2.000004053115845 L 1.999997854232788 2.000004053115845 L 1.999997854232788 10.97450160980225 L 5.887137889862061 8.908754348754883 L 9.774277687072754 10.97450160980225 M 11.77427768707275 14.30224418640137 L 5.887137889862061 11.17363357543945 L -2.110137984345783e-06 14.30224418640137 L -2.110137984345783e-06 1.340834021568298 C -2.110137984345783e-06 0.6003040075302124 0.6589279174804688 4.000549324700842e-06 1.471787929534912 4.000549324700842e-06 L 10.30248832702637 4.000549324700842e-06 C 11.11534786224365 4.000549324700842e-06 11.77427768707275 0.6003040075302124 11.77427768707275 1.340834021568298 L 11.77427768707275 14.30224418640137 Z" stroke="none" fill="#022b52"/></g></g></svg>