<?xml version="1.0" encoding="utf-8"?>
<!-- Generator: Adobe Illustrator 24.3.0, SVG Export Plug-In . SVG Version: 6.00 Build 0)  -->
<svg version="1.1" xmlns="http://www.w3.org/2000/svg" xmlns:xlink="http://www.w3.org/1999/xlink" x="0px" y="0px"
	 viewBox="0 0 841.89 595.28" style="enable-background:new 0 0 841.89 595.28;" xml:space="preserve">
<style type="text/css">
	.st0{display:none;}
	.st1{display:inline;}
	.st2{fill:#A9D5B8;}
	.st3{fill:#067655;}
	.st4{font-family:'VisitDenmark-Regular';}
	.st5{font-size:14.8085px;}
	.st6{fill:none;stroke:#067655;stroke-width:2;stroke-linejoin:round;stroke-miterlimit:10;}
	.st7{fill:#C4E7FB;}
	.st8{fill:#06597B;}
	.st9{font-size:14.5583px;}
	.st10{fill:none;stroke:#06597B;stroke-width:2;stroke-linecap:round;stroke-linejoin:round;stroke-miterlimit:10;}
	.st11{fill:#F8C5CB;}
	.st12{fill:#9A1639;}
	.st13{fill:none;stroke:#9A1639;stroke-width:2;stroke-miterlimit:10;}
	.st14{fill:none;stroke:#9A1639;stroke-width:2;stroke-linecap:round;stroke-miterlimit:10;}
	.st15{fill:#FFE984;}
	.st16{fill:#DBA304;}
	.st17{fill:none;stroke:#DCA404;stroke-width:2;stroke-linecap:round;stroke-linejoin:round;stroke-miterlimit:10;}
</style>
<g id="Vrstva_1" class="st0">
	<g class="st1">
		<rect id="Rectangle_149-3_6_" x="376.5" y="239.09" class="st2" width="116" height="116"/>
		<text transform="matrix(1 0 0 1 393.557 329.3119)" class="st3 st4 st5">Attractions</text>
		<g>
			<rect x="408.94" y="304.57" class="st6" width="51.12" height="3.39"/>
			<rect x="412.24" y="301.76" class="st6" width="44.53" height="2.81"/>
			<polygon class="st6" points="456.41,273.12 412.59,273.12 414.88,272.38 434.5,266.01 454.12,272.38 			"/>
			<rect x="412.5" y="273.12" class="st6" width="44" height="3.93"/>
			<g>
				<rect x="416.27" y="279.33" class="st6" width="2.76" height="21.29"/>
				<rect x="414.87" y="277.05" class="st6" width="5.55" height="1.14"/>
				<rect x="414.87" y="300.62" class="st6" width="5.55" height="1.14"/>
				<rect x="415.51" y="278.19" class="st6" width="4.28" height="1.14"/>
			</g>
			<g>
				<rect x="427.56" y="279.33" class="st6" width="2.76" height="21.29"/>
				<rect x="426.17" y="277.05" class="st6" width="5.55" height="1.14"/>
				<rect x="437.46" y="300.62" class="st6" width="5.55" height="1.14"/>
				<rect x="448.76" y="300.62" class="st6" width="5.55" height="1.14"/>
				<rect x="426.17" y="300.62" class="st6" width="5.55" height="1.14"/>
				<rect x="426.81" y="278.19" class="st6" width="4.28" height="1.14"/>
			</g>
			<g>
				<rect x="438.86" y="279.33" class="st6" width="2.76" height="21.29"/>
				<rect x="437.46" y="277.05" class="st6" width="5.55" height="1.14"/>
				<rect x="449.39" y="278.19" class="st6" width="4.27" height="1.14"/>
				<rect x="438.1" y="278.19" class="st6" width="4.27" height="1.14"/>
			</g>
			<g>
				<rect x="450.15" y="279.33" class="st6" width="2.76" height="21.29"/>
				<rect x="448.76" y="277.05" class="st6" width="5.55" height="1.14"/>
			</g>
			<g>
				<path class="st3" d="M434.5,267.76c-1,0-1.81,0.81-1.81,1.81c0,1,0.81,1.81,1.81,1.81c1,0,1.81-0.81,1.81-1.81
					C436.31,268.57,435.5,267.76,434.5,267.76L434.5,267.76z"/>
			</g>
		</g>
	</g>
</g>
<g id="Vrstva_2">
	<g>
		<rect id="Rectangle_149-2_2_" x="376.5" y="239.09" class="st7" width="116" height="116"/>
		<text transform="matrix(1.0016 0 0 1 401.4462 329.0991)" class="st8 st4 st9">Activities</text>
		<g>
			<path class="st10" d="M432.4,275.98v6.86h-13.59c-0.15,0-0.29-0.05-0.42-0.13c-1.13-0.78-2.27-1.56-3.4-2.34
				c-0.51-0.35-0.53-1.19-0.04-1.57c1.14-0.88,2.28-1.77,3.42-2.66c0.14-0.1,0.29-0.16,0.46-0.16H432.4z"/>
			<line class="st10" x1="436.8" y1="309.75" x2="436.8" y2="281.91"/>
			<path class="st10" d="M436.8,267.7v-3.49h-4.4v4.42v4.99c0,0.78,0,1.57,0,2.35"/>
			<path class="st10" d="M436.8,281.91c0-1.67,0-3.33,0-5c0-0.78,0-1.57,0-2.35"/>
			<line class="st10" x1="432.4" y1="309.75" x2="432.4" y2="282.84"/>
			<path class="st10" d="M438.5,309.75c0.04-0.52,0.27-2.57,1.97-4.15c1.07-0.99,2.23-1.34,2.83-1.47"/>
			<path class="st10" d="M427.32,305.64c0.34,0.2,1.08,0.68,1.61,1.61c0.61,1.08,0.58,2.11,0.55,2.5"/>
			<path class="st10" d="M450.23,274.56h-17.02c-0.45,0-0.81-0.42-0.81-0.93v-4.99c0-0.52,0.36-0.93,0.81-0.93h16.99
				c0.16,0,0.32,0.06,0.45,0.16c1.13,0.89,2.26,1.77,3.39,2.66c0.49,0.38,0.47,1.22-0.04,1.57c-1.12,0.78-2.24,1.56-3.37,2.34
				C450.52,274.51,450.38,274.56,450.23,274.56z"/>
		</g>
	</g>
</g>
<g id="Vrstva_3" class="st0">
	<g class="st1">
		<rect id="Rectangle_149-4_7_" x="376.5" y="239.09" class="st11" width="116" height="116"/>
		<text transform="matrix(1 0 0 1 409.6169 329.3071)" class="st12 st4 st5">Events</text>
		<g>
			<path class="st13" d="M459.92,271.71v34.04c0,0.03-0.03,0.06-0.06,0.06h-50.72c-0.03,0-0.06-0.03-0.06-0.06v-34.04
				c0-0.03,0.03-0.06,0.06-0.06h5.58v2.59c0,0.06,0.05,0.12,0.12,0.12h3c0.06,0,0.11-0.05,0.11-0.11v-2.59h8.88v2.59
				c0,0.06,0.05,0.12,0.12,0.12h3c0.06,0,0.11-0.05,0.11-0.11v-2.59h8.88v2.59c0,0.06,0.05,0.12,0.12,0.12h3
				c0.06,0,0.12-0.05,0.12-0.12v-2.59h8.88v2.59c0,0.06,0.05,0.12,0.12,0.12h3c0.06,0,0.11-0.05,0.11-0.11v-2.59h5.58
				C459.9,271.66,459.92,271.68,459.92,271.71z"/>
			<g>
				<path class="st14" d="M454.29,269.59v4.13c0,0.35-0.28,0.64-0.63,0.64h-1.96c-0.35,0-0.63-0.29-0.63-0.64v-4.13
					c0-0.35,0.29-0.63,0.63-0.63h1.96C454,268.96,454.29,269.24,454.29,269.59z"/>
				<path class="st14" d="M417.95,269.59v4.13c0,0.35-0.28,0.64-0.63,0.64h-1.96c-0.35,0-0.63-0.29-0.63-0.64v-4.13
					c0-0.35,0.29-0.63,0.63-0.63h1.96C417.67,268.96,417.95,269.24,417.95,269.59z"/>
				<path class="st14" d="M430.06,269.59v4.13c0,0.35-0.29,0.64-0.63,0.64h-1.96c-0.35,0-0.63-0.29-0.63-0.64v-4.13
					c0-0.35,0.28-0.63,0.63-0.63h1.96C429.78,268.96,430.06,269.24,430.06,269.59z"/>
				<path class="st14" d="M442.18,269.59v4.13c0,0.35-0.29,0.64-0.64,0.64h-1.96c-0.35,0-0.64-0.29-0.64-0.64v-4.13
					c0-0.35,0.29-0.63,0.64-0.63h1.96C441.89,268.96,442.18,269.24,442.18,269.59z"/>
			</g>
			<line class="st13" x1="409.08" y1="280.2" x2="459.93" y2="280.2"/>
			<line class="st13" x1="409.08" y1="277.31" x2="459.93" y2="277.31"/>
			<g>
				<path class="st13" d="M417.58,287.54h-2.92c-0.39,0-0.71-0.32-0.71-0.71v-2.92c0-0.39,0.32-0.71,0.71-0.71h2.92
					c0.39,0,0.71,0.32,0.71,0.71v2.92C418.29,287.22,417.97,287.54,417.58,287.54z"/>
				<path class="st13" d="M417.58,294.7h-2.92c-0.39,0-0.71-0.32-0.71-0.71v-2.92c0-0.39,0.32-0.71,0.71-0.71h2.92
					c0.39,0,0.71,0.32,0.71,0.71v2.92C418.29,294.38,417.97,294.7,417.58,294.7z"/>
				<path class="st13" d="M417.58,301.85h-2.92c-0.39,0-0.71-0.32-0.71-0.71v-2.92c0-0.39,0.32-0.71,0.71-0.71h2.92
					c0.39,0,0.71,0.32,0.71,0.71v2.92C418.29,301.53,417.97,301.85,417.58,301.85z"/>
			</g>
			<g>
				<path class="st13" d="M426.77,287.54h-2.92c-0.39,0-0.71-0.32-0.71-0.71v-2.92c0-0.39,0.32-0.71,0.71-0.71h2.92
					c0.39,0,0.71,0.32,0.71,0.71v2.92C427.49,287.22,427.17,287.54,426.77,287.54z"/>
				<path class="st13" d="M426.77,294.7h-2.92c-0.39,0-0.71-0.32-0.71-0.71v-2.92c0-0.39,0.32-0.71,0.71-0.71h2.92
					c0.39,0,0.71,0.32,0.71,0.71v2.92C427.49,294.38,427.17,294.7,426.77,294.7z"/>
				<path class="st13" d="M426.77,301.85h-2.92c-0.39,0-0.71-0.32-0.71-0.71v-2.92c0-0.39,0.32-0.71,0.71-0.71h2.92
					c0.39,0,0.71,0.32,0.71,0.71v2.92C427.49,301.53,427.17,301.85,426.77,301.85z"/>
			</g>
			<g>
				<path class="st13" d="M435.96,287.54h-2.92c-0.39,0-0.71-0.32-0.71-0.71v-2.92c0-0.39,0.32-0.71,0.71-0.71h2.92
					c0.39,0,0.71,0.32,0.71,0.71v2.92C436.68,287.22,436.36,287.54,435.96,287.54z"/>
				<path class="st13" d="M435.96,294.7h-2.92c-0.39,0-0.71-0.32-0.71-0.71v-2.92c0-0.39,0.32-0.71,0.71-0.71h2.92
					c0.39,0,0.71,0.32,0.71,0.71v2.92C436.68,294.38,436.36,294.7,435.96,294.7z"/>
				<path class="st13" d="M435.96,301.85h-2.92c-0.39,0-0.71-0.32-0.71-0.71v-2.92c0-0.39,0.32-0.71,0.71-0.71h2.92
					c0.39,0,0.71,0.32,0.71,0.71v2.92C436.68,301.53,436.36,301.85,435.96,301.85z"/>
			</g>
			<g>
				<path class="st13" d="M445.15,287.54h-2.92c-0.39,0-0.71-0.32-0.71-0.71v-2.92c0-0.39,0.32-0.71,0.71-0.71h2.92
					c0.39,0,0.71,0.32,0.71,0.71v2.92C445.87,287.22,445.55,287.54,445.15,287.54z"/>
				<path class="st13" d="M445.15,294.7h-2.92c-0.39,0-0.71-0.32-0.71-0.71v-2.92c0-0.39,0.32-0.71,0.71-0.71h2.92
					c0.39,0,0.71,0.32,0.71,0.71v2.92C445.87,294.38,445.55,294.7,445.15,294.7z"/>
				<path class="st13" d="M445.15,301.85h-2.92c-0.39,0-0.71-0.32-0.71-0.71v-2.92c0-0.39,0.32-0.71,0.71-0.71h2.92
					c0.39,0,0.71,0.32,0.71,0.71v2.92C445.87,301.53,445.55,301.85,445.15,301.85z"/>
			</g>
			<g>
				<path class="st13" d="M454.35,287.54h-2.92c-0.39,0-0.71-0.32-0.71-0.71v-2.92c0-0.39,0.32-0.71,0.71-0.71h2.92
					c0.39,0,0.71,0.32,0.71,0.71v2.92C455.06,287.22,454.74,287.54,454.35,287.54z"/>
				<path class="st13" d="M454.35,294.7h-2.92c-0.39,0-0.71-0.32-0.71-0.71v-2.92c0-0.39,0.32-0.71,0.71-0.71h2.92
					c0.39,0,0.71,0.32,0.71,0.71v2.92C455.06,294.38,454.74,294.7,454.35,294.7z"/>
				<path class="st13" d="M454.35,301.85h-2.92c-0.39,0-0.71-0.32-0.71-0.71v-2.92c0-0.39,0.32-0.71,0.71-0.71h2.92
					c0.39,0,0.71,0.32,0.71,0.71v2.92C455.06,301.53,454.74,301.85,454.35,301.85z"/>
			</g>
		</g>
	</g>
</g>
<g id="Vrstva_4" class="st0">
	<g class="st1">
		<rect id="Rectangle_149_2_" x="376.5" y="239.09" class="st15" width="116" height="116"/>
		<text transform="matrix(1 0 0 1 387.4261 331.78)" class="st16 st4 st5">Places to eat</text>
		<g>
			<path class="st17" d="M436.86,273.45c0,0.36-0.08,0.69-0.22,0.99c-0.71-0.04-1.43-0.06-2.14-0.06s-1.43,0.02-2.14,0.06
				c-0.14-0.3-0.22-0.64-0.22-0.99c0-1.3,1.06-2.36,2.36-2.36S436.86,272.14,436.86,273.45z"/>
			<path class="st17" d="M459.42,299.44h-49.84c0-13.27,10.6-24.25,23.72-24.89c0.4-0.02,0.8-0.03,1.2-0.03s0.81,0.01,1.2,0.03
				C448.91,275.18,459.42,286.09,459.42,299.44z"/>
			<path class="st17" d="M462.23,302.29c-0.33,0.59-1,1.62-2.2,2.47c-0.95,0.67-1.86,0.95-2.44,1.09h-46.18
				c-0.59-0.13-1.5-0.42-2.44-1.09c-1.2-0.84-1.87-1.88-2.2-2.47C425.26,302.29,443.75,302.29,462.23,302.29z"/>
		</g>
	</g>
</g>
</svg>
