<svg id="Vrstva_4" data-name="Vrstva 4" xmlns="http://www.w3.org/2000/svg" viewBox="0 0 116 116"><defs><style>.cls-1{fill:#ffe984;}.cls-2,.cls-3{isolation:isolate;}.cls-3{font-size:14.81px;fill:#dba304;font-family:VisitDenmark-Regular, VisitDenmark;}.cls-4{letter-spacing:0em;}.cls-5{letter-spacing:0em;}.cls-6{letter-spacing:-0.02em;}.cls-7{letter-spacing:0em;}.cls-8{letter-spacing:-0.01em;}.cls-9{fill:none;stroke:#dca404;stroke-linecap:round;stroke-linejoin:round;stroke-width:2px;}</style></defs><rect id="Rectangle_149" data-name="Rectangle 149" class="cls-1" width="116" height="116"/><g id="Places_to_eat" data-name="Places to eat" class="cls-2"><text class="cls-3" transform="translate(10.92 92.69)">Pl<tspan class="cls-4" x="14.62" y="0">a</tspan><tspan class="cls-5" x="23.38" y="0">ces </tspan><tspan class="cls-6" x="51.78" y="0">t</tspan><tspan class="cls-7" x="57.52" y="0">o </tspan><tspan class="cls-8" x="70.68" y="0">e</tspan><tspan class="cls-7" x="79.4" y="0">at</tspan></text></g><path class="cls-9" d="M436.86,273.45a2.34,2.34,0,0,1-.21,1c-.71,0-1.43-.06-2.15-.06s-1.43,0-2.14.06a2.36,2.36,0,1,1,4.5-1Z" transform="translate(-376.5 -239.09)"/><path class="cls-9" d="M459.42,299.44H409.58a25.06,25.06,0,0,1,23.72-24.89q.6,0,1.2,0c.41,0,.81,0,1.21,0A24.92,24.92,0,0,1,459.42,299.44Z" transform="translate(-376.5 -239.09)"/><path class="cls-9" d="M462.23,302.29a7.3,7.3,0,0,1-2.2,2.47,6.89,6.89,0,0,1-2.44,1.09H411.41a7,7,0,0,1-2.44-1.09,7.41,7.41,0,0,1-2.2-2.47Z" transform="translate(-376.5 -239.09)"/></svg>