<?xml version="1.0" encoding="utf-8"?>
<!-- Generator: Adobe Illustrator 24.3.0, SVG Export Plug-In . SVG Version: 6.00 Build 0)  -->
<svg version="1.1" xmlns="http://www.w3.org/2000/svg" xmlns:xlink="http://www.w3.org/1999/xlink" x="0px" y="0px"
	 viewBox="0 0 70.87 70.87" style="enable-background:new 0 0 70.87 70.87;" xml:space="preserve">
<style type="text/css">
	.st0{display:none;}
	.st1{display:inline;}
	.st2{fill:#9A1639;}
	.st3{fill:none;}
	.st4{display:none;fill:none;}
	.st5{display:inline;enable-background:new    ;}
	.st6{enable-background:new    ;}
	.st7{fill:#067655;}
	.st8{fill:#06597B;}
	.st9{fill:#DBA304;}
	.st10{fill:#DCA404;}
</style>
<g id="Vrstva_1" class="st0">
	<g class="st1">
		<g>
			<g>
				<path class="st2" d="M44.57,38.94H25.93l-0.02-0.38V25.93l0.38-0.02h2.37v0.97h0.44v-0.97h3.92v0.97h0.44v-0.97h3.92v0.97h0.45
					v-0.97h3.92v0.97h0.44v-0.97h2.73l0.02,0.38v12.63L44.57,38.94z M26.63,38.22h17.6V26.63h-1.31v0.57c0,0.22-0.18,0.4-0.4,0.4
					h-1.08c-0.22,0-0.4-0.18-0.4-0.4v-0.57h-2.48v0.57c0,0.22-0.18,0.4-0.4,0.4h-1.08c-0.22,0-0.4-0.18-0.4-0.4v-0.57h-2.48v0.57
					c0,0.22-0.18,0.4-0.4,0.4h-1.08c-0.22,0-0.4-0.18-0.4-0.4v-0.57h-2.48v0.57c0,0.22-0.18,0.4-0.4,0.4h-1.08
					c-0.22,0-0.4-0.18-0.4-0.4v-0.57h-1.31V38.22z"/>
			</g>
			<g>
				<g>
					<path class="st2" d="M42.33,27.6h-0.71c-0.32,0-0.59-0.26-0.59-0.59v-1.49c0-0.32,0.26-0.59,0.59-0.59h0.71
						c0.32,0,0.59,0.26,0.59,0.59v1.49C42.92,27.34,42.66,27.6,42.33,27.6z M41.76,26.88h0.44v-1.23h-0.44V26.88z"/>
				</g>
				<g>
					<path class="st2" d="M29.24,27.6h-0.71c-0.32,0-0.59-0.26-0.59-0.59v-1.49c0-0.32,0.26-0.59,0.59-0.59h0.71
						c0.32,0,0.59,0.26,0.59,0.59v1.49C29.83,27.34,29.56,27.6,29.24,27.6z M28.66,26.88h0.44v-1.23h-0.44V26.88z"/>
				</g>
				<g>
					<path class="st2" d="M33.6,27.6H32.9c-0.32,0-0.59-0.26-0.59-0.59v-1.49c0-0.32,0.26-0.59,0.59-0.59h0.71
						c0.32,0,0.59,0.26,0.59,0.59v1.49C34.19,27.34,33.93,27.6,33.6,27.6z M33.03,26.88h0.44v-1.23h-0.44V26.88z"/>
				</g>
				<g>
					<path class="st2" d="M37.97,27.6h-0.71c-0.33,0-0.59-0.26-0.59-0.59v-1.49c0-0.32,0.26-0.59,0.59-0.59h0.71
						c0.33,0,0.59,0.26,0.59,0.59v1.49C38.56,27.34,38.29,27.6,37.97,27.6z M37.39,26.88h0.45v-1.23h-0.45V26.88z"/>
				</g>
			</g>
			<g>
				<rect x="26.27" y="28.99" class="st2" width="18.32" height="0.72"/>
			</g>
			<g>
				<rect x="26.27" y="27.95" class="st2" width="18.32" height="0.72"/>
			</g>
			<g>
				<g>
					<path class="st2" d="M29.34,32.36h-1.05c-0.34,0-0.62-0.28-0.62-0.62v-1.05c0-0.34,0.28-0.62,0.62-0.62h1.05
						c0.34,0,0.62,0.28,0.62,0.62v1.05C29.95,32.08,29.68,32.36,29.34,32.36z M28.39,31.63h0.85v-0.85h-0.85V31.63z"/>
				</g>
				<g>
					<path class="st2" d="M29.34,34.93h-1.05c-0.34,0-0.62-0.28-0.62-0.62v-1.05c0-0.34,0.28-0.62,0.62-0.62h1.05
						c0.34,0,0.62,0.28,0.62,0.62v1.05C29.95,34.66,29.68,34.93,29.34,34.93z M28.39,34.21h0.85v-0.85h-0.85V34.21z"/>
				</g>
				<g>
					<path class="st2" d="M29.34,37.51h-1.05c-0.34,0-0.62-0.28-0.62-0.62v-1.05c0-0.34,0.28-0.62,0.62-0.62h1.05
						c0.34,0,0.62,0.28,0.62,0.62v1.05C29.95,37.23,29.68,37.51,29.34,37.51z M28.39,36.79h0.85v-0.85h-0.85V36.79z"/>
				</g>
			</g>
			<g>
				<g>
					<path class="st2" d="M32.65,32.36h-1.05c-0.34,0-0.62-0.28-0.62-0.62v-1.05c0-0.34,0.28-0.62,0.62-0.62h1.05
						c0.34,0,0.62,0.28,0.62,0.62v1.05C33.27,32.08,32.99,32.36,32.65,32.36z M31.7,31.63h0.85v-0.85H31.7V31.63z"/>
				</g>
				<g>
					<path class="st2" d="M32.65,34.93h-1.05c-0.34,0-0.62-0.28-0.62-0.62v-1.05c0-0.34,0.28-0.62,0.62-0.62h1.05
						c0.34,0,0.62,0.28,0.62,0.62v1.05C33.27,34.66,32.99,34.93,32.65,34.93z M31.7,34.21h0.85v-0.85H31.7V34.21z"/>
				</g>
				<g>
					<path class="st2" d="M32.65,37.51h-1.05c-0.34,0-0.62-0.28-0.62-0.62v-1.05c0-0.34,0.28-0.62,0.62-0.62h1.05
						c0.34,0,0.62,0.28,0.62,0.62v1.05C33.27,37.23,32.99,37.51,32.65,37.51z M31.7,36.79h0.85v-0.85H31.7V36.79z"/>
				</g>
			</g>
			<g>
				<g>
					<path class="st2" d="M35.96,32.36h-1.05c-0.34,0-0.62-0.28-0.62-0.62v-1.05c0-0.34,0.28-0.62,0.62-0.62h1.05
						c0.34,0,0.62,0.28,0.62,0.62v1.05C36.58,32.08,36.3,32.36,35.96,32.36z M35.01,31.63h0.85v-0.85h-0.85V31.63z"/>
				</g>
				<g>
					<path class="st2" d="M35.96,34.93h-1.05c-0.34,0-0.62-0.28-0.62-0.62v-1.05c0-0.34,0.28-0.62,0.62-0.62h1.05
						c0.34,0,0.62,0.28,0.62,0.62v1.05C36.58,34.66,36.3,34.93,35.96,34.93z M35.01,34.21h0.85v-0.85h-0.85V34.21z"/>
				</g>
				<g>
					<path class="st2" d="M35.96,37.51h-1.05c-0.34,0-0.62-0.28-0.62-0.62v-1.05c0-0.34,0.28-0.62,0.62-0.62h1.05
						c0.34,0,0.62,0.28,0.62,0.62v1.05C36.58,37.23,36.3,37.51,35.96,37.51z M35.01,36.79h0.85v-0.85h-0.85V36.79z"/>
				</g>
			</g>
			<g>
				<g>
					<path class="st2" d="M39.27,32.36h-1.05c-0.34,0-0.62-0.28-0.62-0.62v-1.05c0-0.34,0.28-0.62,0.62-0.62h1.05
						c0.34,0,0.62,0.28,0.62,0.62v1.05C39.89,32.08,39.61,32.36,39.27,32.36z M38.32,31.63h0.85v-0.85h-0.85V31.63z"/>
				</g>
				<g>
					<path class="st2" d="M39.27,34.93h-1.05c-0.34,0-0.62-0.28-0.62-0.62v-1.05c0-0.34,0.28-0.62,0.62-0.62h1.05
						c0.34,0,0.62,0.28,0.62,0.62v1.05C39.89,34.66,39.61,34.93,39.27,34.93z M38.32,34.21h0.85v-0.85h-0.85V34.21z"/>
				</g>
				<g>
					<path class="st2" d="M39.27,37.51h-1.05c-0.34,0-0.62-0.28-0.62-0.62v-1.05c0-0.34,0.28-0.62,0.62-0.62h1.05
						c0.34,0,0.62,0.28,0.62,0.62v1.05C39.89,37.23,39.61,37.51,39.27,37.51z M38.32,36.79h0.85v-0.85h-0.85V36.79z"/>
				</g>
			</g>
			<g>
				<g>
					<path class="st2" d="M42.58,32.36h-1.05c-0.34,0-0.62-0.28-0.62-0.62v-1.05c0-0.34,0.28-0.62,0.62-0.62h1.05
						c0.34,0,0.62,0.28,0.62,0.62v1.05C43.2,32.08,42.92,32.36,42.58,32.36z M41.63,31.63h0.85v-0.85h-0.85V31.63z"/>
				</g>
				<g>
					<path class="st2" d="M42.58,34.93h-1.05c-0.34,0-0.62-0.28-0.62-0.62v-1.05c0-0.34,0.28-0.62,0.62-0.62h1.05
						c0.34,0,0.62,0.28,0.62,0.62v1.05C43.2,34.66,42.92,34.93,42.58,34.93z M41.63,34.21h0.85v-0.85h-0.85V34.21z"/>
				</g>
				<g>
					<path class="st2" d="M42.58,37.51h-1.05c-0.34,0-0.62-0.28-0.62-0.62v-1.05c0-0.34,0.28-0.62,0.62-0.62h1.05
						c0.34,0,0.62,0.28,0.62,0.62v1.05C43.2,37.23,42.92,37.51,42.58,37.51z M41.63,36.79h0.85v-0.85h-0.85V36.79z"/>
				</g>
			</g>
		</g>
	</g>
</g>
<g id="Vrstva_5" class="st0">
	<g id="Rectangle_149-4_8_" class="st1">
		<rect x="14.53" y="14.53" class="st3" width="41.8" height="41.8"/>
		<path class="st4" d="M56.69,56.69H14.17V14.17h42.52V56.69z M14.89,55.97h41.08V14.89H14.89V55.97z"/>
	</g>
	<g class="st5">
		<path class="st2" d="M27.07,43.31h2.56v0.34h-2.17v1.33h1.93v0.34h-1.93v1.39h2.25v0.34h-2.64V43.31z"/>
		<path class="st2" d="M29.98,44.24h0.39l1.05,2.39l1.06-2.39h0.37l-1.25,2.81h-0.39L29.98,44.24z"/>
		<path class="st2" d="M35.76,45.76h-2.35c0.04,0.61,0.51,0.98,1.1,0.98c0.35,0,0.65-0.13,0.86-0.37l0.21,0.25
			c-0.25,0.3-0.63,0.46-1.08,0.46c-0.86,0-1.47-0.6-1.47-1.43c0-0.79,0.55-1.42,1.37-1.42c0.78,0,1.36,0.59,1.36,1.42L35.76,45.76z
			 M33.41,45.48h1.99c-0.05-0.55-0.43-0.93-1-0.93C33.84,44.54,33.47,44.93,33.41,45.48z"/>
		<path class="st2" d="M36.54,47.04v-2.81h0.36v0.52c0.21-0.34,0.58-0.54,1.07-0.54c0.7,0,1.15,0.42,1.15,1.2v1.63h-0.38v-1.59
			c0-0.58-0.3-0.9-0.84-0.9c-0.6,0-0.98,0.38-0.98,1.01v1.47H36.54z"/>
		<path class="st2" d="M39.72,44.56v-0.32h0.5v-0.61h0.38v0.61h0.85v0.32h-0.85v1.67c0,0.34,0.17,0.51,0.49,0.51
			c0.15,0,0.31-0.05,0.42-0.14l0.13,0.27c-0.14,0.13-0.36,0.2-0.59,0.2c-0.53,0-0.82-0.3-0.82-0.82v-1.7H39.72z"/>
		<path class="st2" d="M41.93,46.72l0.17-0.3c0.23,0.19,0.61,0.31,1,0.31c0.51,0,0.75-0.17,0.75-0.46c0-0.1-0.03-0.19-0.1-0.25
			c-0.13-0.12-0.33-0.16-0.67-0.22c-0.23-0.04-0.41-0.09-0.55-0.13c-0.28-0.09-0.5-0.29-0.5-0.67c0-0.47,0.41-0.8,1.11-0.8
			c0.36,0,0.76,0.11,0.99,0.26l-0.17,0.3c-0.23-0.16-0.51-0.24-0.83-0.24c-0.49,0-0.73,0.19-0.73,0.46c0,0.11,0.04,0.19,0.11,0.26
			c0.14,0.13,0.32,0.17,0.68,0.23c0.22,0.04,0.41,0.09,0.54,0.13c0.27,0.09,0.49,0.28,0.49,0.65c0,0.49-0.43,0.8-1.16,0.8
			C42.62,47.07,42.16,46.92,41.93,46.72z"/>
	</g>
	<g id="Rectangle_149-3_7_" class="st1">
		<g class="st6">
			<path class="st7" d="M20.69,47.05l1.71-3.73h0.39l1.71,3.73h-0.42l-0.45-1h-2.08l-0.45,1H20.69z M21.69,45.73h1.79l-0.9-2.01
				L21.69,45.73z"/>
			<path class="st7" d="M24.6,44.56v-0.32h0.5v-0.61h0.38v0.61h0.85v0.32h-0.85v1.67c0,0.34,0.17,0.51,0.49,0.51
				c0.15,0,0.31-0.05,0.42-0.14l0.13,0.27c-0.14,0.13-0.36,0.2-0.59,0.2c-0.53,0-0.82-0.3-0.82-0.82v-1.7H24.6z"/>
			<path class="st7" d="M26.69,44.56v-0.32h0.5v-0.61h0.38v0.61h0.85v0.32h-0.85v1.67c0,0.34,0.17,0.51,0.49,0.51
				c0.15,0,0.31-0.05,0.42-0.14l0.13,0.27c-0.14,0.13-0.36,0.2-0.59,0.2c-0.53,0-0.82-0.3-0.82-0.82v-1.7H26.69z"/>
			<path class="st7" d="M29.65,44.79c0.18-0.38,0.53-0.57,1.05-0.57v0.37l-0.09-0.01c-0.59,0-0.94,0.38-0.94,1.03v1.43h-0.38v-2.81
				h0.36V44.79z"/>
			<path class="st7" d="M31.15,46.26c0-0.47,0.33-0.79,1.08-0.79h0.89v-0.17c0-0.49-0.28-0.74-0.79-0.74c-0.36,0-0.7,0.12-0.93,0.33
				l-0.17-0.28c0.28-0.24,0.7-0.38,1.14-0.38c0.73,0,1.14,0.37,1.14,1.09v1.74h-0.36v-0.44c-0.17,0.29-0.51,0.46-0.97,0.46
				C31.55,47.07,31.15,46.75,31.15,46.26z M32.23,46.77c0.43,0,0.74-0.2,0.89-0.57v-0.46h-0.88c-0.48,0-0.72,0.17-0.72,0.5
				C31.52,46.57,31.78,46.77,32.23,46.77z"/>
			<path class="st7" d="M34.26,45.64c0-0.83,0.6-1.42,1.45-1.42c0.49,0,0.88,0.19,1.1,0.55l-0.28,0.19
				c-0.19-0.28-0.48-0.42-0.82-0.42c-0.61,0-1.06,0.44-1.06,1.09c0,0.66,0.45,1.09,1.06,1.09c0.34,0,0.63-0.13,0.82-0.41l0.28,0.19
				c-0.22,0.36-0.62,0.55-1.1,0.55C34.88,47.07,34.26,46.49,34.26,45.64z"/>
			<path class="st7" d="M37.11,44.56v-0.32h0.5v-0.61h0.38v0.61h0.85v0.32h-0.85v1.67c0,0.34,0.17,0.51,0.49,0.51
				c0.15,0,0.31-0.05,0.42-0.14l0.13,0.27c-0.14,0.13-0.36,0.2-0.59,0.2c-0.53,0-0.82-0.3-0.82-0.82v-1.7H37.11z"/>
			<path class="st7" d="M39.63,43.35c0-0.14,0.12-0.27,0.28-0.27c0.15,0,0.28,0.12,0.28,0.26c0,0.15-0.12,0.28-0.28,0.28
				C39.75,43.63,39.63,43.5,39.63,43.35z M39.71,44.24h0.38v2.81h-0.38V44.24z"/>
			<path class="st7" d="M40.86,45.64c0-0.82,0.6-1.42,1.43-1.42c0.82,0,1.42,0.59,1.42,1.42c0,0.82-0.59,1.43-1.42,1.43
				C41.49,47.07,40.86,46.46,40.86,45.64z M43.33,45.64c0-0.65-0.44-1.09-1.04-1.09c-0.6,0-1.05,0.44-1.05,1.09s0.45,1.09,1.05,1.09
				C42.9,46.74,43.33,46.29,43.33,45.64z"/>
			<path class="st7" d="M44.49,47.05v-2.81h0.36v0.52c0.21-0.34,0.58-0.54,1.07-0.54c0.7,0,1.15,0.42,1.15,1.2v1.63H46.7v-1.59
				c0-0.58-0.3-0.9-0.84-0.9c-0.6,0-0.98,0.38-0.98,1.01v1.47H44.49z"/>
			<path class="st7" d="M47.72,46.73l0.17-0.3c0.23,0.19,0.61,0.31,1,0.31c0.51,0,0.75-0.17,0.75-0.46c0-0.1-0.03-0.19-0.1-0.25
				c-0.13-0.12-0.33-0.16-0.67-0.22c-0.23-0.04-0.41-0.09-0.55-0.13c-0.28-0.09-0.5-0.29-0.5-0.67c0-0.47,0.41-0.8,1.11-0.8
				c0.36,0,0.76,0.11,0.99,0.26l-0.17,0.3c-0.23-0.16-0.51-0.24-0.83-0.24c-0.49,0-0.73,0.19-0.73,0.46c0,0.11,0.04,0.19,0.11,0.26
				c0.14,0.13,0.32,0.17,0.68,0.23c0.22,0.04,0.41,0.09,0.54,0.13c0.27,0.09,0.49,0.28,0.49,0.65c0,0.49-0.43,0.8-1.16,0.8
				C48.4,47.07,47.95,46.92,47.72,46.73z"/>
		</g>
		<path class="st3" d="M56.69,56.69H14.17V14.17h42.52V56.69z M14.89,55.97h41.08V14.89H14.89V55.97z"/>
	</g>
	<g id="Rectangle_149-2_6_" class="st1">
		<rect x="14.53" y="14.53" class="st3" width="41.8" height="41.8"/>
		<g class="st6">
			<path class="st8" d="M23.53,46.97l1.68-3.67h0.38l1.68,3.67h-0.41l-0.44-0.98h-2.05l-0.44,0.98H23.53z M24.52,45.67h1.77
				L25.4,43.7L24.52,45.67z"/>
			<path class="st8" d="M27.53,45.59c0-0.81,0.59-1.4,1.42-1.4c0.48,0,0.87,0.19,1.08,0.55l-0.28,0.19
				c-0.18-0.27-0.47-0.41-0.8-0.41c-0.6,0-1.05,0.44-1.05,1.08c0,0.65,0.44,1.08,1.05,1.08c0.33,0,0.62-0.13,0.8-0.4l0.28,0.19
				c-0.22,0.36-0.61,0.55-1.08,0.55C28.14,46.99,27.53,46.42,27.53,45.59z"/>
			<path class="st8" d="M30.34,44.52v-0.31h0.49v-0.6h0.37v0.6h0.84v0.31H31.2v1.65c0,0.33,0.17,0.5,0.48,0.5
				c0.15,0,0.3-0.05,0.41-0.14l0.13,0.27c-0.14,0.13-0.36,0.19-0.58,0.19c-0.52,0-0.81-0.29-0.81-0.8v-1.67H30.34z"/>
			<path class="st8" d="M32.82,43.34c0-0.14,0.12-0.26,0.27-0.26c0.15,0,0.27,0.12,0.27,0.26c0,0.15-0.12,0.27-0.27,0.27
				C32.94,43.61,32.82,43.49,32.82,43.34z M32.9,44.21h0.37v2.76H32.9V44.21z"/>
			<path class="st8" d="M33.8,44.21h0.39l1.04,2.35l1.05-2.35h0.37l-1.23,2.76h-0.38L33.8,44.21z"/>
			<path class="st8" d="M37.08,43.34c0-0.14,0.12-0.26,0.27-0.26c0.15,0,0.27,0.12,0.27,0.26c0,0.15-0.12,0.27-0.27,0.27
				C37.2,43.61,37.08,43.49,37.08,43.34z M37.16,44.21h0.37v2.76h-0.37V44.21z"/>
			<path class="st8" d="M38.14,44.52v-0.31h0.49v-0.6h0.37v0.6h0.84v0.31h-0.84v1.65c0,0.33,0.17,0.5,0.48,0.5
				c0.15,0,0.3-0.05,0.41-0.14l0.13,0.27c-0.14,0.13-0.36,0.19-0.58,0.19c-0.52,0-0.81-0.29-0.81-0.8v-1.67H38.14z"/>
			<path class="st8" d="M40.62,43.34c0-0.14,0.12-0.26,0.27-0.26c0.15,0,0.27,0.12,0.27,0.26c0,0.15-0.12,0.27-0.27,0.27
				C40.75,43.61,40.62,43.49,40.62,43.34z M40.71,44.21h0.37v2.76h-0.37V44.21z"/>
			<path class="st8" d="M44.53,45.7h-2.31c0.04,0.6,0.5,0.96,1.09,0.96c0.34,0,0.64-0.13,0.85-0.36l0.21,0.24
				c-0.25,0.29-0.63,0.45-1.07,0.45c-0.85,0-1.45-0.59-1.45-1.41c0-0.78,0.54-1.4,1.35-1.4c0.77,0,1.34,0.58,1.34,1.4L44.53,45.7z
				 M42.22,45.43h1.96c-0.05-0.55-0.43-0.92-0.98-0.92C42.64,44.51,42.27,44.89,42.22,45.43z"/>
			<path class="st8" d="M44.91,46.65l0.17-0.29c0.23,0.18,0.6,0.31,0.98,0.31c0.5,0,0.74-0.16,0.74-0.45c0-0.1-0.03-0.18-0.1-0.24
				c-0.13-0.12-0.32-0.16-0.66-0.22c-0.23-0.04-0.4-0.08-0.54-0.13c-0.27-0.08-0.49-0.28-0.49-0.66c0-0.46,0.4-0.79,1.09-0.79
				c0.36,0,0.75,0.11,0.98,0.26l-0.16,0.3c-0.23-0.16-0.5-0.24-0.81-0.24c-0.48,0-0.72,0.18-0.72,0.46c0,0.1,0.04,0.19,0.11,0.25
				c0.14,0.13,0.32,0.17,0.67,0.23c0.22,0.04,0.4,0.08,0.53,0.13c0.27,0.08,0.48,0.28,0.48,0.63c0,0.48-0.43,0.79-1.14,0.79
				C45.59,46.99,45.14,46.85,44.91,46.65z"/>
		</g>
		<path class="st3" d="M56.69,56.69H14.17V14.17h42.52V56.69z M14.89,55.97h41.08V14.89H14.89V55.97z"/>
	</g>
	<g class="st5">
		<path class="st9" d="M19.08,44.2h1.4c0.82,0,1.53,0.37,1.53,1.28c0,0.9-0.71,1.27-1.53,1.27h-1v1.18h-0.39V44.2z M19.47,46.41
			h0.99c0.74,0,1.14-0.34,1.14-0.93c0-0.6-0.4-0.94-1.14-0.94h-0.99V46.41z"/>
		<path class="st9" d="M22.83,43.98h0.38v3.96h-0.38V43.98z"/>
		<path class="st9" d="M24.03,47.15c0-0.47,0.33-0.79,1.08-0.79H26v-0.17c0-0.49-0.28-0.74-0.79-0.74c-0.36,0-0.7,0.12-0.93,0.33
			l-0.17-0.28c0.28-0.24,0.7-0.38,1.14-0.38c0.73,0,1.14,0.37,1.14,1.09v1.74h-0.36V47.5c-0.17,0.29-0.51,0.46-0.97,0.46
			C24.43,47.96,24.03,47.64,24.03,47.15z M25.11,47.66c0.43,0,0.74-0.2,0.89-0.57v-0.46h-0.88c-0.48,0-0.72,0.17-0.72,0.5
			C24.4,47.46,24.66,47.66,25.11,47.66z"/>
		<path class="st9" d="M27.14,46.53c0-0.83,0.6-1.42,1.45-1.42c0.49,0,0.88,0.19,1.1,0.55l-0.28,0.19
			c-0.19-0.28-0.48-0.42-0.82-0.42c-0.61,0-1.06,0.44-1.06,1.09c0,0.66,0.45,1.09,1.06,1.09c0.34,0,0.63-0.13,0.82-0.41l0.28,0.19
			c-0.22,0.36-0.62,0.55-1.1,0.55C27.76,47.96,27.14,47.38,27.14,46.53z"/>
		<path class="st9" d="M32.87,46.65h-2.35c0.04,0.61,0.51,0.98,1.1,0.98c0.35,0,0.65-0.13,0.86-0.37l0.21,0.25
			c-0.25,0.3-0.63,0.46-1.08,0.46c-0.86,0-1.47-0.6-1.47-1.43c0-0.79,0.55-1.42,1.37-1.42c0.78,0,1.36,0.59,1.36,1.42L32.87,46.65z
			 M30.52,46.37h1.99c-0.05-0.55-0.43-0.93-1-0.93C30.96,45.43,30.58,45.82,30.52,46.37z"/>
		<path class="st9" d="M33.26,47.61l0.17-0.3c0.23,0.19,0.61,0.31,1,0.31c0.51,0,0.75-0.17,0.75-0.46c0-0.1-0.03-0.19-0.1-0.25
			c-0.13-0.12-0.33-0.16-0.67-0.22c-0.23-0.04-0.41-0.09-0.55-0.13c-0.28-0.09-0.5-0.29-0.5-0.67c0-0.47,0.41-0.8,1.11-0.8
			c0.36,0,0.76,0.11,0.99,0.26l-0.17,0.3c-0.23-0.16-0.51-0.24-0.83-0.24c-0.49,0-0.73,0.19-0.73,0.46c0,0.11,0.04,0.19,0.11,0.26
			c0.14,0.13,0.32,0.17,0.68,0.23c0.22,0.04,0.41,0.09,0.54,0.13c0.27,0.09,0.49,0.28,0.49,0.65c0,0.49-0.43,0.8-1.16,0.8
			C33.95,47.96,33.5,47.81,33.26,47.61z"/>
		<path class="st9" d="M37.22,45.45v-0.32h0.5v-0.61h0.38v0.61h0.85v0.32H38.1v1.67c0,0.34,0.17,0.51,0.49,0.51
			c0.15,0,0.31-0.05,0.42-0.14l0.13,0.27c-0.14,0.13-0.36,0.2-0.59,0.2c-0.53,0-0.82-0.3-0.82-0.82v-1.7H37.22z"/>
		<path class="st9" d="M39.44,46.53c0-0.82,0.6-1.42,1.43-1.42c0.82,0,1.42,0.59,1.42,1.42c0,0.82-0.59,1.43-1.42,1.43
			C40.06,47.96,39.44,47.35,39.44,46.53z M41.91,46.53c0-0.65-0.44-1.09-1.04-1.09c-0.6,0-1.05,0.44-1.05,1.09s0.45,1.09,1.05,1.09
			C41.47,47.63,41.91,47.18,41.91,46.53z"/>
		<path class="st9" d="M46.91,46.65h-2.35c0.04,0.61,0.51,0.98,1.1,0.98c0.35,0,0.65-0.13,0.86-0.37l0.21,0.25
			c-0.25,0.3-0.63,0.46-1.08,0.46c-0.86,0-1.47-0.6-1.47-1.43c0-0.79,0.55-1.42,1.37-1.42c0.78,0,1.36,0.59,1.36,1.42L46.91,46.65z
			 M44.56,46.37h1.99c-0.05-0.55-0.43-0.93-1-0.93C44.99,45.43,44.62,45.82,44.56,46.37z"/>
		<path class="st9" d="M47.37,47.15c0-0.47,0.33-0.79,1.08-0.79h0.89v-0.17c0-0.49-0.28-0.74-0.79-0.74c-0.36,0-0.7,0.12-0.93,0.33
			l-0.17-0.28c0.28-0.24,0.7-0.38,1.14-0.38c0.73,0,1.14,0.37,1.14,1.09v1.74h-0.36V47.5c-0.17,0.29-0.51,0.46-0.97,0.46
			C47.77,47.96,47.37,47.64,47.37,47.15z M48.46,47.66c0.43,0,0.74-0.2,0.89-0.57v-0.46h-0.88c-0.48,0-0.72,0.17-0.72,0.5
			C47.75,47.46,48.01,47.66,48.46,47.66z"/>
		<path class="st9" d="M50.32,45.45v-0.32h0.5v-0.61h0.38v0.61h0.85v0.32H51.2v1.67c0,0.34,0.17,0.51,0.49,0.51
			c0.15,0,0.31-0.05,0.42-0.14l0.13,0.27c-0.14,0.13-0.36,0.2-0.59,0.2c-0.53,0-0.82-0.3-0.82-0.82v-1.7H50.32z"/>
	</g>
	<g id="Rectangle_149_7_" class="st1">
		<path class="st3" d="M56.69,56.69H14.17V14.17h42.52V56.69z M14.89,55.97h41.08V14.89H14.89V55.97z"/>
	</g>
</g>
<g id="Vrstva_2" class="st0">
	<g class="st1">
		<g>
			<g>
				<path class="st7" d="M44.64,39.71H26.22c-0.2,0-0.36-0.16-0.36-0.36v-1.22c0-0.2,0.16-0.36,0.36-0.36h18.42
					c0.2,0,0.36,0.16,0.36,0.36v1.22C45,39.55,44.84,39.71,44.64,39.71z M26.58,38.99h17.7v-0.5h-17.7V38.99z"/>
			</g>
			<g>
				<path class="st7" d="M43.46,38.49H27.41c-0.2,0-0.36-0.16-0.36-0.36v-1.01c0-0.2,0.16-0.36,0.36-0.36h16.05
					c0.2,0,0.36,0.16,0.36,0.36v1.01C43.82,38.33,43.66,38.49,43.46,38.49z M27.77,37.77H43.1v-0.29H27.77V37.77z"/>
			</g>
			<g>
				<path class="st7" d="M43.33,27.16H27.54c-0.18,0-0.33-0.13-0.36-0.3c-0.03-0.18,0.08-0.34,0.24-0.4l7.89-2.56
					c0.07-0.02,0.15-0.02,0.22,0l7.89,2.56c0.17,0.05,0.27,0.22,0.24,0.4C43.66,27.03,43.51,27.16,43.33,27.16z M29.81,26.44h11.24
					l-5.62-1.82L29.81,26.44z"/>
			</g>
			<g>
				<path class="st7" d="M43.36,28.57H27.51c-0.2,0-0.36-0.16-0.36-0.36V26.8c0-0.2,0.16-0.36,0.36-0.36h15.85
					c0.2,0,0.36,0.16,0.36,0.36v1.42C43.72,28.41,43.56,28.57,43.36,28.57z M27.87,27.85H43v-0.7H27.87V27.85z"/>
			</g>
			<g>
				<g>
					<path class="st7" d="M29.86,37.07h-1c-0.2,0-0.36-0.16-0.36-0.36v-7.67c0-0.2,0.16-0.36,0.36-0.36h1c0.2,0,0.36,0.16,0.36,0.36
						v7.67C30.22,36.91,30.06,37.07,29.86,37.07z M29.22,36.35h0.27V29.4h-0.27V36.35z"/>
				</g>
				<g>
					<path class="st7" d="M30.36,28.98h-2c-0.2,0-0.36-0.16-0.36-0.36v-0.41c0-0.2,0.16-0.36,0.36-0.36h2c0.2,0,0.36,0.16,0.36,0.36
						v0.41C30.72,28.82,30.56,28.98,30.36,28.98z"/>
				</g>
				<g>
					<path class="st7" d="M30.36,37.48h-2c-0.2,0-0.36-0.16-0.36-0.36v-0.41c0-0.2,0.16-0.36,0.36-0.36h2c0.2,0,0.36,0.16,0.36,0.36
						v0.41C30.72,37.32,30.56,37.48,30.36,37.48z"/>
				</g>
				<g>
					<path class="st7" d="M30.13,29.4h-1.54c-0.2,0-0.36-0.16-0.36-0.36v-0.41c0-0.2,0.16-0.36,0.36-0.36h1.54
						c0.2,0,0.36,0.16,0.36,0.36v0.41C30.49,29.23,30.33,29.4,30.13,29.4z"/>
				</g>
			</g>
			<g>
				<g>
					<path class="st7" d="M33.93,37.07h-1c-0.2,0-0.36-0.16-0.36-0.36v-7.67c0-0.2,0.16-0.36,0.36-0.36h1c0.2,0,0.36,0.16,0.36,0.36
						v7.67C34.29,36.91,34.13,37.07,33.93,37.07z M33.29,36.35h0.27V29.4h-0.27V36.35z"/>
				</g>
				<g>
					<path class="st7" d="M34.43,28.98h-2c-0.2,0-0.36-0.16-0.36-0.36v-0.41c0-0.2,0.16-0.36,0.36-0.36h2c0.2,0,0.36,0.16,0.36,0.36
						v0.41C34.79,28.82,34.63,28.98,34.43,28.98z"/>
				</g>
				<g>
					<path class="st7" d="M38.5,37.48h-2c-0.2,0-0.36-0.16-0.36-0.36v-0.41c0-0.2,0.16-0.36,0.36-0.36h2c0.2,0,0.36,0.16,0.36,0.36
						v0.41C38.86,37.32,38.7,37.48,38.5,37.48z"/>
				</g>
				<g>
					<path class="st7" d="M42.57,37.48h-2c-0.2,0-0.36-0.16-0.36-0.36v-0.41c0-0.2,0.16-0.36,0.36-0.36h2c0.2,0,0.36,0.16,0.36,0.36
						v0.41C42.93,37.32,42.77,37.48,42.57,37.48z"/>
				</g>
				<g>
					<path class="st7" d="M34.43,37.48h-2c-0.2,0-0.36-0.16-0.36-0.36v-0.41c0-0.2,0.16-0.36,0.36-0.36h2c0.2,0,0.36,0.16,0.36,0.36
						v0.41C34.79,37.32,34.63,37.48,34.43,37.48z"/>
				</g>
				<g>
					<path class="st7" d="M34.2,29.4h-1.54c-0.2,0-0.36-0.16-0.36-0.36v-0.41c0-0.2,0.16-0.36,0.36-0.36h1.54
						c0.2,0,0.36,0.16,0.36,0.36v0.41C34.56,29.23,34.4,29.4,34.2,29.4z"/>
				</g>
			</g>
			<g>
				<g>
					<path class="st7" d="M38,37.07H37c-0.2,0-0.36-0.16-0.36-0.36v-7.67c0-0.2,0.16-0.36,0.36-0.36H38c0.2,0,0.36,0.16,0.36,0.36
						v7.67C38.36,36.91,38.2,37.07,38,37.07z M37.36,36.35h0.27V29.4h-0.27V36.35z"/>
				</g>
				<g>
					<path class="st7" d="M38.5,28.98h-2c-0.2,0-0.36-0.16-0.36-0.36v-0.41c0-0.2,0.16-0.36,0.36-0.36h2c0.2,0,0.36,0.16,0.36,0.36
						v0.41C38.86,28.82,38.7,28.98,38.5,28.98z"/>
				</g>
				<g>
					<path class="st7" d="M42.34,29.4H40.8c-0.2,0-0.36-0.16-0.36-0.36v-0.41c0-0.2,0.16-0.36,0.36-0.36h1.54
						c0.2,0,0.36,0.16,0.36,0.36v0.41C42.7,29.23,42.54,29.4,42.34,29.4z"/>
				</g>
				<g>
					<path class="st7" d="M38.27,29.4h-1.54c-0.2,0-0.36-0.16-0.36-0.36v-0.41c0-0.2,0.16-0.36,0.36-0.36h1.54
						c0.2,0,0.36,0.16,0.36,0.36v0.41C38.63,29.23,38.47,29.4,38.27,29.4z"/>
				</g>
			</g>
			<g>
				<g>
					<path class="st7" d="M42.07,37.07h-1c-0.2,0-0.36-0.16-0.36-0.36v-7.67c0-0.2,0.16-0.36,0.36-0.36h1c0.2,0,0.36,0.16,0.36,0.36
						v7.67C42.43,36.91,42.27,37.07,42.07,37.07z M41.43,36.35h0.27V29.4h-0.27V36.35z"/>
				</g>
				<g>
					<path class="st7" d="M42.57,28.98h-2c-0.2,0-0.36-0.16-0.36-0.36v-0.41c0-0.2,0.16-0.36,0.36-0.36h2c0.2,0,0.36,0.16,0.36,0.36
						v0.41C42.93,28.82,42.77,28.98,42.57,28.98z"/>
				</g>
			</g>
			<g>
				<path class="st7" d="M35.43,24.87c-0.36,0-0.65,0.29-0.65,0.65c0,0.36,0.29,0.65,0.65,0.65c0.36,0,0.65-0.29,0.65-0.65
					C36.08,25.16,35.79,24.87,35.43,24.87L35.43,24.87z"/>
			</g>
		</g>
	</g>
</g>
<g id="Vrstva_3" class="st0">
	<g class="st1">
		<g>
			<g>
				<path class="st8" d="M34.68,30.66h-4.9c-0.12,0-0.25-0.04-0.35-0.11l-1.23-0.84c-0.18-0.13-0.29-0.34-0.3-0.57
					c-0.01-0.23,0.09-0.45,0.27-0.58l1.23-0.96c0.11-0.09,0.24-0.13,0.38-0.13h4.89c0.2,0,0.36,0.16,0.36,0.36v2.47
					C35.04,30.5,34.88,30.66,34.68,30.66z M29.81,29.94h4.51v-1.75h-4.5l-1.21,0.94L29.81,29.94z"/>
			</g>
			<g>
				<path class="st8" d="M36.26,40.36c-0.2,0-0.36-0.16-0.36-0.36V29.96c0-0.2,0.16-0.36,0.36-0.36c0.2,0,0.36,0.16,0.36,0.36V40
					C36.62,40.2,36.46,40.36,36.26,40.36z"/>
			</g>
			<g>
				<path class="st8" d="M34.68,28.19c-0.2,0-0.36-0.16-0.36-0.36v-4.24c0-0.2,0.16-0.36,0.36-0.36h1.58c0.2,0,0.36,0.16,0.36,0.36
					v1.26c0,0.2-0.16,0.36-0.36,0.36c-0.2,0-0.36-0.16-0.36-0.36v-0.9h-0.86v3.88C35.04,28.03,34.88,28.19,34.68,28.19z"/>
			</g>
			<g>
				<path class="st8" d="M36.26,30.32c-0.2,0-0.36-0.16-0.36-0.36v-2.65c0-0.2,0.16-0.36,0.36-0.36c0.2,0,0.36,0.16,0.36,0.36v2.65
					C36.62,30.16,36.46,30.32,36.26,30.32z"/>
			</g>
			<g>
				<path class="st8" d="M34.68,40.36c-0.2,0-0.36-0.16-0.36-0.36v-9.7c0-0.2,0.16-0.36,0.36-0.36s0.36,0.16,0.36,0.36V40
					C35.04,40.2,34.88,40.36,34.68,40.36z"/>
			</g>
			<g>
				<path class="st8" d="M36.87,40.36c-0.01,0-0.02,0-0.03,0c-0.2-0.02-0.35-0.19-0.33-0.39c0.03-0.31,0.16-1.11,0.83-1.73
					c0.33-0.3,0.74-0.52,1.18-0.62c0.2-0.04,0.39,0.08,0.43,0.27c0.04,0.19-0.08,0.39-0.27,0.43c-0.23,0.05-0.56,0.17-0.85,0.44
					c-0.48,0.45-0.58,1.03-0.6,1.26C37.22,40.21,37.06,40.36,36.87,40.36z"/>
			</g>
			<g>
				<path class="st8" d="M33.62,40.36c-0.01,0-0.02,0-0.03,0c-0.2-0.02-0.35-0.19-0.33-0.39c0.01-0.14,0.01-0.41-0.15-0.69
					c-0.13-0.23-0.32-0.37-0.45-0.45c-0.17-0.1-0.23-0.32-0.13-0.49c0.1-0.17,0.32-0.23,0.49-0.13c0.21,0.12,0.5,0.34,0.71,0.71
					c0.26,0.45,0.26,0.89,0.24,1.11C33.96,40.22,33.81,40.36,33.62,40.36z"/>
			</g>
			<g>
				<path class="st8" d="M41.1,27.68h-6.13c-0.36,0-0.65-0.31-0.65-0.7v-1.8c0-0.38,0.29-0.7,0.65-0.7h6.12
					c0.14,0,0.28,0.05,0.39,0.14l1.22,0.96c0.17,0.14,0.27,0.35,0.27,0.58c-0.01,0.23-0.12,0.44-0.3,0.56l-1.21,0.84
					C41.35,27.64,41.23,27.68,41.1,27.68z M35.04,26.96h6.03l1.19-0.83l-1.2-0.93h-6.02L35.04,26.96z M41.03,25.19
					C41.03,25.19,41.03,25.19,41.03,25.19L41.03,25.19z"/>
			</g>
		</g>
	</g>
</g>
<g id="Vrstva_4">
	<g>
		<g>
			<g>
				<path class="st10" d="M36.21,27.63c-0.01,0-0.01,0-0.02,0c-0.5-0.03-1.01-0.03-1.5,0c-0.15,0.01-0.28-0.07-0.35-0.21
					c-0.08-0.16-0.11-0.33-0.11-0.51c0-0.67,0.54-1.21,1.21-1.21s1.21,0.54,1.21,1.21c0,0.18-0.04,0.35-0.11,0.51
					C36.47,27.55,36.35,27.63,36.21,27.63z M35.43,26.42c-0.27,0-0.48,0.21-0.49,0.48c0.33-0.01,0.65-0.01,0.98,0
					C35.92,26.64,35.7,26.42,35.43,26.42z"/>
			</g>
			<g>
				<path class="st10" d="M44.41,36.64H26.45c-0.2,0-0.36-0.16-0.36-0.36c0-4.99,3.9-9.09,8.89-9.33c0.3-0.02,0.6-0.02,0.9,0
					c4.98,0.24,8.89,4.33,8.89,9.33C44.77,36.48,44.61,36.64,44.41,36.64z M26.82,35.92h17.22c-0.18-4.44-3.72-8.04-8.19-8.25
					c-0.28-0.02-0.56-0.02-0.83,0C30.61,27.89,27.01,31.55,26.82,35.92z"/>
			</g>
			<g>
				<path class="st10" d="M43.75,38.95H27.11c-0.03,0-0.05,0-0.08-0.01c-0.36-0.08-0.7-0.23-1.01-0.45
					c-0.46-0.33-0.75-0.73-0.9-1.01c-0.06-0.11-0.06-0.25,0.01-0.36c0.07-0.11,0.18-0.18,0.31-0.18h19.98
					c0.13,0,0.25,0.07,0.31,0.18s0.07,0.25,0,0.36c-0.22,0.4-0.53,0.75-0.9,1.01c-0.3,0.21-0.64,0.37-1.01,0.45
					C43.81,38.95,43.78,38.95,43.75,38.95z M27.16,38.23h16.55c0.26-0.06,0.5-0.17,0.72-0.33c0.1-0.07,0.19-0.15,0.28-0.23H26.16
					c0.08,0.08,0.17,0.16,0.28,0.23C26.66,38.06,26.9,38.17,27.16,38.23z"/>
			</g>
		</g>
	</g>
</g>
</svg>
