<?xml version="1.0" encoding="utf-8"?>
<!-- Generator: Adobe Illustrator 24.3.0, SVG Export Plug-In . SVG Version: 6.00 Build 0)  -->
<svg version="1.1" xmlns="http://www.w3.org/2000/svg" xmlns:xlink="http://www.w3.org/1999/xlink" x="0px" y="0px"
	 viewBox="0 0 56.69 56.69" style="enable-background:new 0 0 56.69 56.69;" xml:space="preserve">
<style type="text/css">
	.st0{display:none;}
	.st1{display:inline;}
</style>
<g id="Vrstva_2" class="st0">
	<g class="st1">
		<path d="M46.42,3.45v52.49L28.35,39.87L10.27,55.94V3.45c0-1.49,1.21-2.7,2.7-2.7h30.75C45.21,0.75,46.42,1.96,46.42,3.45z"/>
	</g>
</g>
<g id="Vrstva_3" class="st0">
	<g id="Vrstva_1" class="st1">
		<g>
			<polygon points="48.58,26.58 48.58,55.62 35.04,55.62 35.04,42.23 21.65,42.23 21.65,55.62 8.11,55.62 8.11,26.58 18.23,17.46 
				28.35,8.34 38.47,17.46 			"/>
			<path d="M54.44,24.73l-2.18,2.4L28.35,5.44L4.42,27.13l-2.17-2.4L25.99,3.21c0.79-0.71,1.57-1.42,2.36-2.14
				c0.78,0.71,1.57,1.42,2.35,2.13L54.44,24.73z"/>
			<polygon points="16.25,7.47 16.25,9.68 9.9,15.44 9.9,7.47 			"/>
		</g>
	</g>
</g>
<g id="Vrstva_4">
	<g>
		<circle cx="28.36" cy="13.71" r="11.77"/>
		<path d="M48.61,54.75c-13.51,0-27.02,0-40.53,0c-0.16-3.29-0.37-9.12-0.22-14.88c0.03-1.04,0.09-2.62,0.7-4.58
			c0.74-2.35,2.04-4.45,3.74-6.14c2.21-2.21,5.09-3.74,8.31-4.25c2.04,1.7,4.66,2.72,7.52,2.72c0.06,0,0.13,0,0.19,0h0.02
			c0.07,0,0.13,0,0.19,0c2.86,0,5.48-1.02,7.52-2.72c3.22,0.51,6.11,2.04,8.31,4.25c1.7,1.7,3,3.8,3.74,6.14
			c0.62,1.95,0.67,3.54,0.7,4.58C48.99,45.62,48.77,51.45,48.61,54.75z"/>
	</g>
</g>
</svg>
