<?xml version="1.0" encoding="utf-8"?>
<!-- Generator: Adobe Illustrator 24.3.0, SVG Export Plug-In . SVG Version: 6.00 Build 0)  -->
<svg version="1.1" xmlns="http://www.w3.org/2000/svg" xmlns:xlink="http://www.w3.org/1999/xlink" x="0px" y="0px"
	 viewBox="0 0 85.04 85.04" style="enable-background:new 0 0 85.04 85.04;" xml:space="preserve">
<style type="text/css">
	.st0{fill:#1D1D1B;}
	.st1{clip-path:url(#SVGID_2_);}
	.st2{fill:#1D1E1B;}
	.st3{fill:none;stroke:#1D1E1B;stroke-width:3;stroke-linecap:round;stroke-linejoin:round;stroke-miterlimit:10;}
	.st4{fill:none;stroke:#1D1D1B;stroke-width:3;stroke-miterlimit:10;}
	.st5{fill:#DF041F;}
	.st6{display:none;fill:none;stroke:#000000;stroke-width:0.5;stroke-miterlimit:10;}
	.st7{fill:none;}
	.st8{display:none;}
	.st9{font-family:'VisitDenmark-Bold';}
	.st10{font-size:4px;}
	.st11{display:inline;}
	.st12{fill:none;stroke:#000000;stroke-width:2;stroke-miterlimit:10;}
	.st13{fill:none;stroke:#1D1D1B;stroke-width:3;stroke-linecap:round;stroke-linejoin:round;stroke-miterlimit:10;}
	.st14{fill:none;stroke:#000000;stroke-width:3;stroke-linecap:round;stroke-linejoin:round;stroke-miterlimit:10;}
	.st15{fill:none;stroke:#000000;stroke-width:3;stroke-miterlimit:10;}
	
		.st16{clip-path:url(#SVGID_4_);fill:none;stroke:#000000;stroke-width:3;stroke-linecap:round;stroke-linejoin:round;stroke-miterlimit:10;}
	.st17{fill:#DF041F;stroke:#1D1D1B;stroke-width:3;stroke-miterlimit:10;}
	.st18{fill:none;stroke:#1D1E1B;stroke-width:3;stroke-miterlimit:10;}
	.st19{display:inline;fill:none;stroke:#1D1D1B;stroke-width:3;stroke-miterlimit:10;}
</style>
<g id="Vrstva_1">
	<g>
		<g>
			<g>
				<path d="M38.93,5.5c-0.07,0-0.14-0.03-0.19-0.08c-0.12-0.13-0.24-0.26-0.36-0.41c-0.09,0.08-0.18,0.15-0.27,0.22
					c-0.08,0.06-0.16,0.12-0.23,0.19c-0.09,0.08-0.21,0.09-0.32,0.03c-0.1-0.06-0.15-0.17-0.12-0.29l0.02-0.11
					c0.04-0.2,0.08-0.42,0.16-0.62c-0.17-0.13-0.33-0.29-0.5-0.46c-0.07-0.07-0.09-0.18-0.06-0.27c0.04-0.1,0.13-0.17,0.23-0.18
					c0.17-0.02,0.35-0.03,0.56-0.02c0.07-0.2,0.18-0.4,0.29-0.58c0.05-0.09,0.15-0.14,0.25-0.13c0.1,0,0.18,0.06,0.22,0.15
					c0.09,0.21,0.17,0.39,0.22,0.57c0.12,0.01,0.25,0.02,0.4,0.03l0,0c0.11,0.01,0.2,0.08,0.24,0.18c0.04,0.1,0.01,0.21-0.06,0.28
					c-0.1,0.1-0.2,0.2-0.33,0.3l0.01,0.05c0.03,0.16,0.06,0.32,0.09,0.48c0,0.03,0.01,0.05,0.02,0.08c0.03,0.15,0.08,0.35-0.07,0.52
					c-0.05,0.05-0.11,0.08-0.18,0.09C38.94,5.5,38.93,5.5,38.93,5.5z M37.75,5.22L37.75,5.22C37.75,5.22,37.75,5.22,37.75,5.22z
					 M38.42,4.52l0.11,0.15c0.12,0.17,0.24,0.31,0.37,0.45c0-0.04-0.01-0.09-0.02-0.16c-0.01-0.03-0.01-0.06-0.02-0.09
					c-0.03-0.16-0.06-0.32-0.09-0.47l-0.05-0.24L38.8,4.1c0.11-0.09,0.21-0.17,0.3-0.26c-0.13-0.01-0.24-0.02-0.36-0.02L38.58,3.8
					l-0.03-0.11c-0.04-0.16-0.1-0.34-0.19-0.53c-0.1,0.18-0.19,0.36-0.24,0.54l-0.04,0.12l-0.13-0.01c-0.19-0.01-0.36-0.01-0.52,0
					c0.16,0.16,0.32,0.3,0.48,0.42l0.1,0.08l-0.05,0.12c-0.09,0.19-0.13,0.41-0.18,0.63c0.04-0.03,0.09-0.07,0.13-0.1
					c0.13-0.1,0.26-0.2,0.38-0.31L38.42,4.52z M39.2,3.84C39.2,3.84,39.2,3.84,39.2,3.84C39.2,3.84,39.2,3.84,39.2,3.84z
					 M38.41,3.07L38.41,3.07L38.41,3.07z"/>
			</g>
		</g>
	</g>
	<g>
		<g>
			<g>
				<path class="st0" d="M15.74,71c-0.93,0-1.95-0.15-2.99-0.58c-3.41-1.4-4.56-4.74-4.94-5.83c-0.91-2.63-0.59-5.01-0.17-6.55
					l0.04-0.15l0.15-0.03c1.73-0.29,4.37-0.36,7.1,0.9c1.2,0.56,4.85,2.24,5.67,5.99c0.47,2.13-0.15,4.01-0.76,5.22l-0.04,0.07
					l-0.07,0.04C19.17,70.36,17.64,71,15.74,71z M8.07,58.32c-0.38,1.47-0.63,3.68,0.2,6.11c0.36,1.04,1.45,4.22,4.66,5.54
					c2.89,1.18,5.63,0.13,6.52-0.29c0.56-1.14,1.11-2.87,0.68-4.82c-0.77-3.51-4.13-5.06-5.4-5.65
					C12.19,58.04,9.73,58.07,8.07,58.32z"/>
			</g>
		</g>
	</g>
	<g>
		<g>
			<g>
				<path class="st0" d="M18.91,77.13L18.76,77c-1.33-1.15-1.93-2.94-1.51-4.55c0.45-1.73,1.85-2.58,2.28-2.8l0.17-0.09l0.13,0.14
					c0.43,0.49,1.18,1.52,1.28,2.96c0.17,2.54-1.8,4.17-2.02,4.35L18.91,77.13z M19.58,70.17c-0.49,0.29-1.51,1.05-1.86,2.4
					c-0.35,1.37,0.12,2.89,1.21,3.92c0.49-0.43,1.82-1.81,1.68-3.8C20.53,71.53,19.97,70.66,19.58,70.17z"/>
			</g>
		</g>
	</g>
	<g>
		<g>
			<g>
				<path class="st0" d="M23.01,71.85c-1.32,0-2.64-0.61-3.55-1.69L19.33,70l0.13-0.16c0.18-0.22,1.84-2.17,4.38-1.96
					c1.44,0.12,2.46,0.88,2.94,1.32l0.14,0.13l-0.09,0.17c-0.23,0.42-1.1,1.81-2.84,2.23C23.66,71.81,23.34,71.85,23.01,71.85z
					 M19.97,70c1.02,1.1,2.53,1.6,3.9,1.26c1.36-0.33,2.13-1.34,2.43-1.83c-0.48-0.4-1.34-0.97-2.51-1.06
					C21.81,68.21,20.41,69.52,19.97,70z"/>
			</g>
		</g>
	</g>
	<g>
		<g>
			<g>
				<path class="st0" d="M8.52,65.93l-0.06-0.48c1.01-0.13,2.95-0.61,4.53-2.32c1.23-1.33,1.7-2.8,1.87-3.8l0.48,0.08
					c-0.19,1.06-0.68,2.63-1.99,4.04C11.66,65.28,9.6,65.79,8.52,65.93z"/>
			</g>
		</g>
	</g>
	<g>
		<g>
			<g>
				<path class="st0" d="M10.49,61.97c-0.61,0-1.1-0.49-1.1-1.1c0-0.61,0.49-1.1,1.1-1.1c0.61,0,1.1,0.49,1.1,1.1
					C11.59,61.48,11.1,61.97,10.49,61.97z M10.49,60.26c-0.34,0-0.61,0.27-0.61,0.61c0,0.34,0.27,0.61,0.61,0.61
					s0.61-0.27,0.61-0.61C11.11,60.53,10.83,60.26,10.49,60.26z"/>
			</g>
		</g>
	</g>
	<g>
		<g>
			<g>
				<path class="st0" d="M16.8,68.25c-0.56,0-2.1-0.12-3.26-1.35c-0.2-0.21-0.37-0.44-0.52-0.68c-0.07-0.11-0.04-0.26,0.08-0.33
					c0.11-0.07,0.26-0.04,0.33,0.08c0.13,0.22,0.29,0.42,0.46,0.6c0.96,1.01,2.22,1.18,2.79,1.19c0.11-0.61,0.17-1.64-0.33-2.7
					c-0.09-0.2-0.2-0.38-0.32-0.56c-0.08-0.11-0.05-0.26,0.06-0.34c0.11-0.08,0.26-0.05,0.34,0.06c0.13,0.2,0.26,0.41,0.36,0.63
					c0.62,1.31,0.47,2.57,0.32,3.21c-0.02,0.11-0.12,0.19-0.23,0.19C16.86,68.25,16.83,68.25,16.8,68.25z"/>
			</g>
		</g>
	</g>
	<g>
		<g>
			<g>
				<g>
					<path class="st0" d="M33.78,67.27c-0.12,0-0.23-0.1-0.24-0.22c-0.01-0.13,0.09-0.25,0.22-0.26l4.98-0.45
						c0.13-0.01,0.25,0.09,0.26,0.22s-0.09,0.25-0.22,0.26l-4.98,0.45C33.79,67.27,33.79,67.27,33.78,67.27z"/>
				</g>
			</g>
		</g>
		<g>
			<g>
				<g>
					<path class="st0" d="M37.39,79.54c-0.12,0-0.23-0.1-0.24-0.22L35.52,61.1c-0.01-0.13,0.09-0.25,0.22-0.26
						c0.13-0.01,0.25,0.09,0.26,0.22l1.63,18.22c0.01,0.13-0.09,0.25-0.22,0.26C37.4,79.54,37.4,79.54,37.39,79.54z"/>
				</g>
			</g>
		</g>
		<g>
			<g>
				<g>
					<path class="st0" d="M35.69,61.36c-0.53,0-0.99-0.41-1.03-0.95c-0.02-0.28,0.06-0.55,0.24-0.76c0.18-0.21,0.43-0.34,0.7-0.37
						c0.28-0.02,0.55,0.06,0.76,0.24c0.21,0.18,0.34,0.43,0.37,0.7c0.05,0.57-0.37,1.08-0.94,1.13
						C35.75,61.36,35.72,61.36,35.69,61.36z M35.69,59.76c-0.02,0-0.03,0-0.05,0c-0.15,0.01-0.28,0.08-0.37,0.2
						c-0.09,0.11-0.14,0.26-0.13,0.4c0.03,0.3,0.3,0.53,0.6,0.5c0.3-0.03,0.53-0.3,0.5-0.6l0,0c-0.01-0.15-0.08-0.28-0.2-0.38
						C35.94,59.81,35.82,59.76,35.69,59.76z"/>
				</g>
			</g>
		</g>
		<g>
			<g>
				<g>
					<path class="st0" d="M37.26,78.06c-0.12,0-0.22-0.09-0.24-0.21c-0.02-0.13,0.07-0.26,0.21-0.27c0.74-0.1,2.15-0.42,3.37-1.44
						c1.17-0.98,1.52-2.07,1.62-2.64c0.02-0.13,0.15-0.22,0.28-0.2c0.13,0.02,0.22,0.15,0.2,0.28c-0.11,0.63-0.5,1.85-1.79,2.92
						c-1.31,1.09-2.83,1.44-3.62,1.54C37.28,78.06,37.27,78.06,37.26,78.06z"/>
				</g>
			</g>
		</g>
		<g>
			<g>
				<g>
					<path class="st0" d="M37,78.07c-0.85,0-2.21-0.14-3.52-0.88c-1.46-0.83-2.05-1.96-2.28-2.56c-0.05-0.13,0.02-0.27,0.14-0.31
						c0.13-0.05,0.27,0.02,0.31,0.14c0.2,0.54,0.74,1.55,2.06,2.31c1.38,0.78,2.83,0.85,3.57,0.81c0.13-0.01,0.25,0.1,0.25,0.23
						c0.01,0.13-0.1,0.25-0.23,0.25C37.22,78.06,37.11,78.07,37,78.07z"/>
				</g>
			</g>
		</g>
	</g>
	<g>
		<g>
			<g>
				<path class="st0" d="M23.9,9.2l-0.47-1.73c-0.14-0.5,0.16-1.02,0.66-1.15l0,0c0.5-0.14,1.02,0.16,1.15,0.66l0.46,1.72"/>
			</g>
		</g>
	</g>
	<g>
		<g>
			<g>
				<path class="st0" d="M23.93,9.29c0,0-0.01,0-0.01,0c-1.31-0.07-2.42-0.97-2.76-2.24c-0.21-0.78-0.1-1.6,0.3-2.3
					c0.4-0.7,1.06-1.2,1.84-1.42c0.78-0.21,1.6-0.11,2.3,0.3c0.7,0.4,1.2,1.06,1.42,1.84c0.35,1.29-0.17,2.63-1.3,3.35
					c-0.11,0.07-0.26,0.04-0.34-0.08c-0.07-0.11-0.04-0.26,0.08-0.34c0.95-0.6,1.38-1.73,1.09-2.81c-0.18-0.66-0.6-1.2-1.19-1.54
					c-0.59-0.34-1.27-0.43-1.93-0.25c-0.66,0.18-1.2,0.6-1.54,1.19c-0.34,0.59-0.43,1.27-0.25,1.93c0.29,1.06,1.22,1.82,2.32,1.88
					c0.13,0.01,0.24,0.12,0.23,0.26C24.16,9.19,24.06,9.29,23.93,9.29z"/>
			</g>
		</g>
	</g>
	<g>
		<g>
			<g>
				<path class="st0" d="M27.12,24.42c-1.18,0-2.34-0.31-3.4-0.91c-1.58-0.91-2.72-2.38-3.19-4.14c-0.98-3.64,1.18-7.4,4.82-8.38
					c1.76-0.48,3.61-0.24,5.19,0.67c1.58,0.91,2.72,2.38,3.19,4.14l0,0c0.48,1.76,0.24,3.61-0.67,5.19
					c-0.91,1.58-2.38,2.72-4.14,3.19C28.32,24.34,27.72,24.42,27.12,24.42z M27.15,11.23c-0.56,0-1.11,0.07-1.67,0.22
					c-3.38,0.91-5.39,4.4-4.47,7.79c0.44,1.64,1.5,3,2.97,3.85c1.47,0.85,3.18,1.07,4.82,0.63c1.64-0.44,3-1.5,3.85-2.97
					c0.85-1.47,1.07-3.18,0.63-4.82c-0.44-1.64-1.5-3-2.97-3.85C29.32,11.52,28.24,11.23,27.15,11.23z"/>
			</g>
		</g>
	</g>
	<g>
		<g>
			<g>
				<path class="st0" d="M28.64,17.28c-0.1,0-0.19-0.06-0.23-0.16c-0.24-0.66-0.96-1.03-1.63-0.85c-0.22,0.06-0.42,0.17-0.59,0.33
					c-0.09,0.09-0.23,0.09-0.32,0.01c-0.1-0.08-0.12-0.22-0.05-0.32l2.49-3.82c0.06-0.09,0.17-0.13,0.27-0.1
					c0.1,0.03,0.17,0.12,0.18,0.23l0.12,4.43c0,0.12-0.08,0.22-0.2,0.25C28.67,17.28,28.66,17.28,28.64,17.28z M27.13,15.74
					c0.46,0,0.91,0.18,1.25,0.48l-0.08-2.83l-1.56,2.39C26.87,15.75,27,15.74,27.13,15.74z"/>
			</g>
		</g>
	</g>
	<g>
		<g>
			<g>
				<path class="st0" d="M25.73,22.73c-0.02,0-0.04,0-0.07-0.01c-0.1-0.03-0.17-0.12-0.18-0.23l-0.12-4.42
					c0-0.12,0.08-0.23,0.2-0.25c0.12-0.02,0.24,0.05,0.27,0.17c0.22,0.7,0.94,1.1,1.65,0.9c0.17-0.05,0.32-0.12,0.45-0.21
					c0.09-0.07,0.23-0.06,0.31,0.02c0.09,0.08,0.1,0.21,0.04,0.31l-2.35,3.6C25.89,22.69,25.81,22.73,25.73,22.73z M25.87,18.94
					l0.08,2.76l1.5-2.29C26.86,19.51,26.29,19.32,25.87,18.94z"/>
			</g>
		</g>
	</g>
	<g>
		<g>
			<g>
				<path class="st0" d="M27.13,19.43c-0.79,0-1.51-0.51-1.76-1.29c-0.01-0.01-0.01-0.04-0.02-0.07c-0.08-0.31-0.09-0.63-0.01-0.94
					c0.01-0.03,0.02-0.06,0.03-0.09c0.01-0.02,0.02-0.06,0.03-0.1c0.1-0.26,0.25-0.5,0.45-0.69c0.22-0.21,0.5-0.37,0.8-0.45
					c0.92-0.25,1.89,0.26,2.22,1.15c0.02,0.05,0.04,0.1,0.05,0.15c0.2,0.73-0.08,1.52-0.7,1.97c-0.18,0.13-0.38,0.23-0.61,0.29
					C27.45,19.41,27.29,19.43,27.13,19.43z M27.13,16.22c-0.12,0-0.23,0.02-0.35,0.05c-0.22,0.06-0.42,0.17-0.59,0.33
					c-0.15,0.14-0.26,0.32-0.34,0.51c-0.01,0.02-0.02,0.05-0.02,0.07c-0.01,0.03-0.02,0.05-0.02,0.07c-0.06,0.23-0.06,0.46,0,0.69
					c0,0.01,0.01,0.03,0.01,0.04c0.22,0.71,0.95,1.11,1.66,0.92c0.17-0.05,0.32-0.12,0.45-0.21c0,0,0,0,0,0
					c0.46-0.34,0.66-0.91,0.51-1.46c-0.01-0.04-0.02-0.07-0.03-0.11C28.22,16.57,27.69,16.22,27.13,16.22z"/>
			</g>
		</g>
	</g>
	<g>
		<g>
			<g>
				<circle cx="22.22" cy="18.94" r="0.35"/>
			</g>
		</g>
	</g>
	<g>
		<g>
			<g>
				<circle cx="28.41" cy="22.47" r="0.35"/>
			</g>
		</g>
	</g>
	<g>
		<g>
			<g>
				<circle cx="25.8" cy="12.68" r="0.35"/>
			</g>
		</g>
	</g>
	<g>
		<g>
			<g>
				<circle cx="32.06" cy="16.26" r="0.35"/>
			</g>
		</g>
	</g>
	<g>
		<g>
			<g>
				<path d="M13.03,33.04c-0.27,0-0.5-0.03-0.78-0.07c-0.33-0.04-0.74-0.1-1.38-0.13c-0.67-0.03-0.99,0-1.25,0.03
					c-0.29,0.03-0.52,0.05-1.03-0.03c-0.3-0.05-0.54-0.1-0.76-0.15c-0.35-0.08-0.66-0.16-1.16-0.16c-0.44-0.01-0.73,0.04-1.06,0.1
					c-0.08,0.01-0.16,0.03-0.24,0.04c-0.96,0.15-1.99,0.17-3.06,0.07c-0.08-0.01-0.14-0.05-0.18-0.11c-0.15-0.24-0.2-0.46-0.15-0.68
					l0,0c0.11-0.46,0.57-0.61,1.57-0.92c0.25-0.08,0.53-0.17,0.86-0.28c1.45-0.48,1.59-0.64,1.7-0.75c0.1-0.1,0.17-0.2,0.24-0.3
					c0.14-0.2,0.29-0.4,0.61-0.56c0.25-0.13,0.67-0.26,1.24-0.16c0.42,0.07,0.7,0.24,0.99,0.43c0.05,0.03,0.1,0.06,0.15,0.1
					c0.56,0.34,1.14,0.7,1.75,0.82c0.42,0.08,0.67,0.01,0.96-0.07c0.33-0.09,0.7-0.19,1.32-0.04c0.46,0.11,0.91,0.33,1.21,0.48
					c0.34,0.17,0.52,0.28,0.65,0.36c0.13,0.08,0.2,0.13,0.38,0.19c0.38,0.13,0.74,0.14,0.99,0.15c0.3,0.01,0.59,0.02,0.68,0.29
					c0.07,0.2-0.04,0.42-0.32,0.65c-0.39,0.32-0.81,0.32-1.3,0.32c-0.21,0-0.42,0-0.67,0.02c-0.32,0.03-0.45,0.08-0.62,0.13
					c-0.16,0.06-0.34,0.12-0.71,0.18C13.42,33.02,13.21,33.04,13.03,33.04z M10.39,32.35c0.14,0,0.31,0,0.5,0.01
					c0.66,0.03,1.08,0.08,1.42,0.13c0.46,0.06,0.74,0.1,1.28,0.01c0.32-0.05,0.47-0.11,0.62-0.16c0.18-0.06,0.35-0.13,0.74-0.16
					c0.27-0.02,0.5-0.02,0.71-0.02c0.44,0,0.74,0,0.99-0.21c0.03-0.03,0.06-0.05,0.08-0.07c-0.05,0-0.1,0-0.14-0.01
					c-0.29-0.01-0.68-0.02-1.14-0.18c-0.24-0.08-0.35-0.15-0.49-0.24c-0.12-0.08-0.28-0.18-0.6-0.33c-0.28-0.14-0.71-0.34-1.12-0.44
					c-0.49-0.12-0.76-0.05-1.08,0.03c-0.3,0.08-0.64,0.17-1.17,0.07c-0.71-0.13-1.32-0.51-1.92-0.88c-0.06-0.03-0.11-0.07-0.16-0.1
					c-0.28-0.18-0.48-0.31-0.81-0.36c-0.36-0.06-0.68-0.02-0.95,0.12c-0.21,0.11-0.31,0.24-0.43,0.41c-0.07,0.1-0.16,0.22-0.28,0.35
					c-0.2,0.21-0.45,0.39-1.9,0.88c-0.33,0.11-0.62,0.2-0.87,0.28c-0.75,0.24-1.2,0.38-1.24,0.57c0,0,0,0,0,0
					c-0.01,0.06,0,0.13,0.03,0.21c0.99,0.08,1.93,0.06,2.81-0.08c0.08-0.01,0.16-0.03,0.24-0.04c0.34-0.06,0.66-0.11,1.15-0.11
					c0.55,0.01,0.9,0.09,1.26,0.18c0.21,0.05,0.44,0.1,0.72,0.15c0.45,0.07,0.63,0.05,0.91,0.03C9.77,32.37,10.01,32.35,10.39,32.35
					z M2.22,32L2.22,32L2.22,32z"/>
			</g>
		</g>
	</g>
	<g>
		<g>
			<g>
				<path d="M49.39,61.36c-0.05,0-0.1,0-0.14,0c-0.87-0.05-1.34-0.28-1.84-0.53c-0.51-0.26-1.04-0.52-2.14-0.64
					c-0.14-0.01-0.27-0.03-0.4-0.04c-0.45-0.04-0.92-0.07-1.59-0.25c-0.89-0.23-1.89-0.5-2.08-1.25c-0.14-0.56,0.25-1.16,0.63-1.5
					c0.57-0.51,1.18-0.49,1.78-0.47c0.52,0.02,1.06,0.04,1.68-0.27c0.43-0.22,0.63-0.46,0.84-0.72c0.26-0.32,0.52-0.65,1.19-0.92
					c0.95-0.38,1.84-0.26,2.19-0.2c0.79,0.15,1.15,0.49,1.47,0.79c0.27,0.26,0.51,0.48,1.02,0.61c0.51,0.13,0.85,0.04,1.36-0.09
					c0.57-0.14,1.27-0.32,2.5-0.29l0,0.24l0-0.24c0.5,0.01,0.78,0.02,1.12,0.1c0.67,0.16,1.03,0.44,1.38,0.72
					c0.32,0.24,0.61,0.47,1.15,0.64c0.3,0.09,0.5,0.11,0.68,0.13c0.26,0.03,0.5,0.05,0.83,0.27c0.45,0.31,1.06,1.01,0.89,1.66
					c-0.31,1.22-3.09,1.26-3.64,1.25c-0.71-0.01-1.12-0.1-1.49-0.19c-0.39-0.09-0.73-0.17-1.38-0.14c-0.52,0.03-0.77,0.1-1.32,0.26
					c-0.34,0.1-0.75,0.22-1.39,0.38C50.96,61.13,50.04,61.36,49.39,61.36z M43.22,57.17c-0.4,0-0.74,0.06-1.07,0.35
					c-0.29,0.26-0.57,0.69-0.49,1.02c0.12,0.47,1.02,0.71,1.74,0.9c0.63,0.17,1.08,0.2,1.51,0.24c0.14,0.01,0.27,0.02,0.41,0.04
					c1.18,0.12,1.78,0.42,2.3,0.68c0.47,0.23,0.87,0.44,1.65,0.48c0.59,0.03,1.49-0.19,3.28-0.65c0.63-0.16,1.04-0.28,1.37-0.38
					c0.55-0.16,0.85-0.25,1.43-0.28c0.72-0.04,1.11,0.05,1.52,0.15c0.36,0.08,0.73,0.17,1.38,0.18c1.42,0.01,3.01-0.3,3.16-0.89
					c0.09-0.33-0.29-0.86-0.69-1.14c-0.22-0.15-0.36-0.17-0.6-0.19c-0.19-0.02-0.44-0.04-0.78-0.15c-0.62-0.19-0.98-0.47-1.3-0.72
					c-0.34-0.26-0.63-0.49-1.2-0.63c-0.3-0.07-0.52-0.08-1.02-0.09l0,0c-1.17-0.03-1.84,0.14-2.37,0.28
					c-0.54,0.14-0.97,0.24-1.6,0.09c-0.63-0.16-0.95-0.46-1.23-0.72c-0.3-0.28-0.57-0.54-1.23-0.67c-0.3-0.06-1.09-0.16-1.91,0.17
					c-0.55,0.22-0.75,0.47-0.99,0.77c-0.22,0.27-0.47,0.59-1,0.85c-0.73,0.37-1.36,0.34-1.92,0.32
					C43.46,57.17,43.34,57.17,43.22,57.17z"/>
			</g>
		</g>
	</g>
	<g>
		<g>
			<g>
				<path d="M57.09,8.88c-0.01,0-0.03,0-0.04,0L48.42,7.4c-0.13-0.02-0.22-0.15-0.2-0.28l0.05-0.31c0.16-0.92,1.03-1.54,1.95-1.38
					l5.79,0.99c0.44,0.08,0.83,0.32,1.09,0.69c0.26,0.37,0.36,0.81,0.29,1.26l-0.05,0.31c-0.01,0.06-0.05,0.12-0.1,0.16
					C57.19,8.86,57.14,8.88,57.09,8.88z M48.74,6.96l8.15,1.4l0.01-0.07c0,0,0,0,0,0c0.05-0.32-0.02-0.63-0.2-0.89
					c-0.19-0.26-0.46-0.44-0.78-0.49L50.14,5.9c-0.65-0.11-1.27,0.33-1.38,0.98L48.74,6.96z"/>
			</g>
		</g>
	</g>
	<g>
		<g>
			<g>
				<path d="M58.7,21.54c-0.09,0-0.18-0.01-0.26-0.02l-15.52-2.66c-0.41-0.07-0.77-0.3-1.02-0.64c-0.24-0.34-0.34-0.76-0.27-1.17
					l1.62-9.44c0.07-0.41,0.3-0.78,0.64-1.02c0.34-0.24,0.76-0.34,1.17-0.27l15.52,2.66c0.85,0.15,1.43,0.96,1.29,1.81c0,0,0,0,0,0
					l-1.62,9.43C60.12,21,59.45,21.54,58.7,21.54z M44.79,6.79c-0.22,0-0.44,0.07-0.63,0.2c-0.24,0.17-0.39,0.42-0.44,0.7
					l-1.62,9.44c-0.05,0.29,0.02,0.57,0.18,0.81c0.17,0.24,0.42,0.39,0.7,0.44l15.52,2.66c0.59,0.1,1.15-0.3,1.25-0.89l1.62-9.43v0
					c0.05-0.29-0.02-0.57-0.18-0.81c-0.17-0.24-0.42-0.39-0.7-0.44L44.98,6.81C44.91,6.8,44.85,6.79,44.79,6.79z M61.62,10.76
					L61.62,10.76L61.62,10.76z"/>
			</g>
		</g>
	</g>
	<g>
		<g>
			<g>
				<g>
					<path d="M44.85,19.12c-0.01,0-0.03,0-0.04,0c-0.13-0.02-0.22-0.15-0.2-0.28l2.05-11.99c0.02-0.13,0.15-0.22,0.28-0.2
						c0.13,0.02,0.22,0.15,0.2,0.28l-2.05,11.99C45.07,19.04,44.97,19.12,44.85,19.12z"/>
				</g>
			</g>
		</g>
		<g>
			<g>
				<g>
					<path d="M56.6,21.16c-0.01,0-0.03,0-0.04,0c-0.13-0.02-0.22-0.15-0.2-0.28l2.05-11.99c0.02-0.13,0.15-0.22,0.28-0.2
						c0.13,0.02,0.22,0.15,0.2,0.28l-2.05,11.99C56.82,21.08,56.71,21.16,56.6,21.16z"/>
				</g>
			</g>
		</g>
	</g>
	<g>
		<g>
			<g>
				<g>
					<path d="M73.82,51.2l-0.11-0.11c-2.13-2.09-4.7-5.41-4.86-9.38c-0.03-0.66,0.02-1.2,0.14-1.71c0.02-0.08,0.04-0.15,0.05-0.19
						c0.78-2.89,4.19-6.35,8.54-5.36c1.86,0.42,3.44,1.55,4.45,3.16c1.01,1.61,1.34,3.53,0.91,5.38l-0.01,0.05
						c-0.04,0.19-0.14,0.63-0.38,1.17c-0.09,0.2-0.18,0.4-0.29,0.6c-1.88,3.48-5.55,5.37-8.31,6.34L73.82,51.2z M76.06,34.76
						c-3.37,0-5.91,2.8-6.55,5.17c-0.01,0.04-0.03,0.1-0.04,0.18c-0.11,0.47-0.15,0.97-0.13,1.58c0.16,3.75,2.57,6.92,4.61,8.95
						c2.66-0.96,6.13-2.77,7.9-6.06c0.1-0.19,0.19-0.37,0.27-0.56c0.22-0.5,0.3-0.89,0.35-1.09l0.01-0.05
						c0.4-1.73,0.09-3.51-0.85-5.02c-0.94-1.5-2.42-2.55-4.15-2.95C76.99,34.81,76.52,34.76,76.06,34.76z"/>
				</g>
			</g>
		</g>
		<g>
			<g>
				<g>
					<path d="M75.99,45.27c-0.29,0-0.58-0.03-0.86-0.1c-1-0.23-1.85-0.83-2.39-1.7c-0.54-0.87-0.72-1.89-0.49-2.89
						c0.23-1,0.83-1.85,1.7-2.39c0.87-0.54,1.89-0.72,2.89-0.49c1,0.23,1.85,0.83,2.39,1.7c0.54,0.87,0.72,1.89,0.49,2.89
						c-0.23,1-0.83,1.85-1.7,2.39C77.4,45.07,76.7,45.27,75.99,45.27z M75.98,38.09c-1.52,0-2.91,1.05-3.26,2.6
						c-0.41,1.8,0.72,3.59,2.51,4.01c0.87,0.2,1.77,0.05,2.52-0.43c0.76-0.48,1.28-1.22,1.48-2.09l0,0c0.2-0.87,0.05-1.77-0.43-2.52
						c-0.47-0.76-1.22-1.28-2.09-1.48C76.48,38.12,76.23,38.09,75.98,38.09z"/>
				</g>
			</g>
		</g>
	</g>
	<g>
		<g>
			<g>
				<g>
					<path d="M57.97,53.82l-0.08-0.19c-0.52-1.25-0.52-2.63,0-3.89c0.52-1.26,1.49-2.24,2.74-2.76c1.25-0.52,2.64-0.52,3.89-0.01
						c1.26,0.52,2.24,1.5,2.76,2.75l0.08,0.19l-0.18,0.11c-1.37,0.85-2.82,1.6-4.3,2.22c-1.52,0.64-3.11,1.15-4.72,1.53L57.97,53.82
						z M62.59,47.08c-0.6,0-1.2,0.12-1.77,0.36c-1.13,0.47-2.01,1.36-2.48,2.5c-0.44,1.08-0.47,2.25-0.08,3.33
						c1.51-0.37,3-0.86,4.44-1.46c1.4-0.58,2.76-1.28,4.05-2.07c-0.49-1.04-1.34-1.86-2.41-2.3C63.78,47.19,63.18,47.08,62.59,47.08
						z"/>
				</g>
			</g>
		</g>
		<g>
			<g>
				<g>
					<path d="M65.63,48.15c-0.01,0-0.02,0-0.03,0c-0.13-0.02-0.23-0.14-0.21-0.28c0.11-0.75,0.14-1.93-0.31-3.22
						c-0.32-0.92-0.8-1.65-1.27-2.18c0.15,0.71,0.2,1.63-0.08,2.63c-0.19,0.68-0.51,1.32-0.96,1.89c-0.08,0.11-0.24,0.13-0.34,0.04
						c-0.11-0.08-0.13-0.24-0.04-0.34c0.4-0.52,0.7-1.1,0.87-1.72c0.39-1.41,0.05-2.65-0.19-3.26c-0.04-0.1,0-0.22,0.09-0.29
						c0.09-0.06,0.22-0.06,0.3,0.02c0.66,0.58,1.55,1.58,2.07,3.06c0.49,1.39,0.45,2.64,0.34,3.45
						C65.86,48.07,65.75,48.15,65.63,48.15z"/>
				</g>
			</g>
		</g>
		<g>
			<g>
				<g>
					<path d="M57.7,51.45c-0.05,0-0.1-0.02-0.15-0.05c-0.65-0.49-1.57-1.35-2.21-2.67c-0.69-1.42-0.77-2.75-0.71-3.63
						c0.01-0.11,0.09-0.2,0.2-0.22c0.11-0.02,0.22,0.04,0.27,0.14c0.27,0.6,0.9,1.72,2.18,2.43c0.56,0.31,1.18,0.52,1.83,0.6
						c0.13,0.02,0.23,0.14,0.21,0.27c-0.02,0.13-0.14,0.23-0.27,0.21c-0.72-0.09-1.4-0.31-2.01-0.65c-0.91-0.51-1.52-1.2-1.92-1.8
						c0.05,0.71,0.23,1.56,0.66,2.44c0.6,1.24,1.45,2.04,2.06,2.5c0.11,0.08,0.13,0.23,0.05,0.34
						C57.84,51.42,57.77,51.45,57.7,51.45z"/>
				</g>
			</g>
		</g>
		<g>
			<g>
				<g>
					<path d="M57.89,52.33c-0.11,0-0.2-0.07-0.23-0.18c-0.04-0.13,0.04-0.26,0.17-0.3c1.46-0.42,2.9-0.93,4.3-1.52
						c1.38-0.58,2.74-1.26,4.04-2.01c0.12-0.07,0.27-0.03,0.33,0.09c0.07,0.12,0.03,0.27-0.09,0.33c-1.32,0.76-2.69,1.44-4.09,2.03
						c-1.41,0.6-2.88,1.12-4.35,1.54C57.93,52.33,57.91,52.33,57.89,52.33z"/>
				</g>
			</g>
		</g>
		<g>
			<defs>
				<path id="SVGID_1_" d="M67.06,49.82c-1.17,0.73-2.59,1.5-4.27,2.2c-1.72,0.72-3.31,1.2-4.68,1.52
					c-1.02-2.45,0.16-5.31,2.61-6.33C63.2,46.18,66.04,47.35,67.06,49.82z"/>
			</defs>
			<clipPath id="SVGID_2_">
				<use xlink:href="#SVGID_1_"  style="overflow:visible;"/>
			</clipPath>
			<g class="st1">
				<g>
					<g>
						<path d="M61.67,51.03c-0.1,0-0.19-0.06-0.22-0.15l-1.48-3.57c-0.02-0.06-0.02-0.13,0-0.19c0.02-0.06,0.07-0.11,0.13-0.13
							l1.04-0.43c0.12-0.05,0.27,0.01,0.32,0.13l1.48,3.57c0.05,0.12-0.01,0.27-0.13,0.32c-0.12,0.05-0.27-0.01-0.32-0.13L61.1,47.1
							l-0.59,0.25l1.39,3.34c0.05,0.12-0.01,0.27-0.13,0.32C61.73,51.02,61.7,51.03,61.67,51.03z"/>
					</g>
				</g>
			</g>
		</g>
		<g>
			<g>
				<g>
					<path d="M62.5,51.85c-0.07,0-0.14-0.01-0.21-0.04c-0.13-0.06-0.24-0.16-0.3-0.3c-0.12-0.28,0.02-0.6,0.29-0.71
						c0.28-0.12,0.6,0.02,0.72,0.3v0c0.06,0.13,0.06,0.28,0,0.42c-0.06,0.14-0.16,0.24-0.3,0.3C62.64,51.84,62.57,51.85,62.5,51.85z
						 M62.5,51.25c-0.01,0-0.02,0-0.02,0c-0.03,0.01-0.05,0.05-0.03,0.08c0.01,0.02,0.02,0.03,0.03,0.03c0.01,0,0.03,0.01,0.05,0
						c0.02-0.01,0.03-0.02,0.03-0.03c0-0.01,0.01-0.03,0-0.05C62.54,51.26,62.52,51.25,62.5,51.25z"/>
				</g>
			</g>
		</g>
		<g>
			<g>
				<g>
					<path d="M64.19,51.1c-0.07,0-0.14-0.01-0.21-0.04c-0.14-0.06-0.24-0.16-0.3-0.3c-0.06-0.13-0.06-0.28,0-0.42
						c0.06-0.14,0.16-0.24,0.3-0.3c0.28-0.12,0.6,0.02,0.71,0.29l0,0c0.12,0.28-0.02,0.6-0.3,0.71
						C64.34,51.08,64.27,51.1,64.19,51.1z M64.19,50.49c-0.01,0-0.02,0-0.02,0c-0.03,0.01-0.05,0.05-0.03,0.08
						c0.01,0.03,0.05,0.04,0.08,0.03c0.03-0.01,0.05-0.05,0.03-0.08C64.24,50.5,64.22,50.49,64.19,50.49z"/>
				</g>
			</g>
		</g>
		<g>
			<g>
				<g>
					<path d="M65.7,50.31c-0.21,0-0.42-0.13-0.51-0.34c-0.12-0.28,0.02-0.6,0.29-0.72c0.28-0.12,0.6,0.02,0.72,0.29l0,0
						c0.12,0.28-0.02,0.6-0.29,0.71C65.84,50.3,65.77,50.31,65.7,50.31z M65.69,49.71c-0.01,0-0.02,0-0.02,0
						c-0.03,0.01-0.05,0.05-0.03,0.08c0.01,0.03,0.05,0.05,0.08,0.03c0.03-0.01,0.05-0.05,0.03-0.08
						C65.74,49.72,65.72,49.71,65.69,49.71z"/>
				</g>
			</g>
		</g>
		<g>
			<g>
				<g>
					<path d="M60.75,52.55c-0.21,0-0.42-0.13-0.51-0.34c-0.12-0.28,0.02-0.6,0.29-0.71c0.28-0.12,0.6,0.02,0.71,0.3
						c0.06,0.13,0.06,0.28,0,0.42c-0.06,0.14-0.16,0.24-0.3,0.3C60.9,52.53,60.82,52.55,60.75,52.55z M60.75,51.94
						c-0.01,0-0.02,0-0.02,0c-0.03,0.01-0.05,0.05-0.03,0.08v0c0.01,0.03,0.05,0.05,0.08,0.03c0.03-0.01,0.05-0.05,0.03-0.08
						C60.8,51.95,60.78,51.94,60.75,51.94z"/>
				</g>
			</g>
		</g>
		<g>
			<g>
				<g>
					<path d="M59.14,53.06c-0.21,0-0.42-0.13-0.51-0.34v0c-0.12-0.28,0.02-0.6,0.3-0.71c0.13-0.06,0.28-0.06,0.42,0
						c0.13,0.06,0.24,0.16,0.3,0.3c0.12,0.28-0.02,0.6-0.29,0.72C59.28,53.05,59.21,53.06,59.14,53.06z M59.08,52.54
						c0.01,0.03,0.05,0.05,0.08,0.03c0.03-0.01,0.05-0.05,0.03-0.08c-0.01-0.02-0.02-0.03-0.03-0.03c-0.01,0-0.03-0.01-0.05,0
						C59.09,52.47,59.07,52.51,59.08,52.54L59.08,52.54z"/>
				</g>
			</g>
		</g>
		<g>
			<g>
				<g>
					<path d="M57.74,53.34c-0.07,0-0.15-0.02-0.23-0.05c-0.18-0.08-0.3-0.23-0.33-0.41l0,0c-0.04-0.27,0.14-0.54,0.42-0.62
						l0.11-0.03l0.09,0.06c0.14,0.09,0.24,0.22,0.29,0.37c0.05,0.16,0.08,0.48-0.14,0.62C57.89,53.32,57.82,53.34,57.74,53.34z"/>
				</g>
			</g>
		</g>
		<g>
			<g>
				<g>
					<path d="M66.99,49.5c-0.22,0-0.39-0.21-0.46-0.35c-0.07-0.14-0.09-0.31-0.06-0.47l0.02-0.11l0.1-0.05
						c0.26-0.15,0.58-0.09,0.74,0.14c0.11,0.14,0.13,0.34,0.06,0.52c-0.06,0.16-0.18,0.28-0.32,0.31
						C67.04,49.5,67.01,49.5,66.99,49.5z"/>
				</g>
			</g>
		</g>
	</g>
	<g>
		<g>
			<g>
				<g>
					<path class="st2" d="M56.5,78.97c-0.36,0-0.71-0.04-1.09-0.14c-0.03-0.01-0.1-0.03-0.19-0.05c-0.87-0.26-2.42-0.91-3.07-2.4
						c-0.33-0.75-0.42-1.5-0.26-2.21c0.09-0.39,0.25-0.76,0.47-1.1c0.06-0.09,0.17-0.13,0.27-0.1c0.1,0.03,0.17,0.12,0.18,0.23
						c0,0.22,0.07,1.38,0.94,2.03c0.53,0.4,1.26,0.54,1.89,0.38c0.82-0.21,1.23-0.89,1.76-1.75c0.55-0.9,1.24-2.03,2.62-2.97
						c0.34-0.23,0.69-0.43,1.06-0.6c0.12-0.06,0.27,0,0.32,0.12c0.06,0.12,0,0.27-0.12,0.32c-0.35,0.16-0.68,0.35-0.99,0.56
						c-1.3,0.88-1.92,1.91-2.48,2.82c-0.56,0.92-1.05,1.72-2.06,1.97c-0.77,0.19-1.65,0.02-2.3-0.46c-0.61-0.45-0.89-1.08-1.03-1.59
						c-0.03,0.08-0.05,0.17-0.07,0.25c-0.21,0.92,0.12,1.66,0.23,1.91c0.6,1.36,2.13,1.94,2.76,2.13c0.08,0.02,0.15,0.04,0.17,0.05
						c0.66,0.17,1.23,0.14,2,0.04c1.17-0.16,1.76-0.24,2.25-0.48c0.28-0.14,0.66-0.36,1.21-0.91c0.97-0.96,1.82-2.3,2.48-3.87
						c0.05-0.12,0.19-0.18,0.32-0.13c0.12,0.05,0.18,0.19,0.13,0.32c-0.68,1.63-1.57,3.03-2.58,4.03c-0.6,0.6-1.03,0.85-1.34,1
						c-0.56,0.28-1.18,0.36-2.4,0.53C57.19,78.93,56.84,78.97,56.5,78.97z"/>
				</g>
			</g>
		</g>
		<g>
			<g>
				<g>
					<path class="st2" d="M65.74,74.56c-0.3,0-0.6-0.03-0.89-0.08c-0.03-0.01-0.06-0.02-0.08-0.03l-0.69-0.42
						c-0.02-0.01-0.05-0.03-0.06-0.06c-0.21-0.27-0.45-0.52-0.7-0.77c-0.43-0.42-0.8-0.69-1.13-0.93c-0.53-0.39-0.96-0.7-1.17-1.33
						c-0.01-0.03-0.01-0.05-0.03-0.14c-0.01-0.09-0.04-0.3-0.11-0.78c-0.07-0.49-0.12-0.82-0.16-1.06
						c-0.07-0.45-0.08-0.55-0.09-0.77c-0.03-0.82-0.05-1.32,0.26-1.83c0.2-0.32,0.51-0.57,1.14-1.05c0.38-0.3,0.57-0.44,0.82-0.58
						c0.12-0.06,0.27-0.02,0.33,0.1c0.06,0.12,0.02,0.27-0.1,0.33c-0.22,0.12-0.39,0.25-0.75,0.53c-0.58,0.45-0.87,0.68-1.02,0.92
						c-0.24,0.39-0.22,0.78-0.19,1.56c0.01,0.19,0.02,0.27,0.09,0.71c0.04,0.23,0.09,0.56,0.16,1.06c0.07,0.48,0.1,0.69,0.11,0.78
						c0,0.03,0.01,0.04,0.01,0.05c0.16,0.47,0.49,0.71,0.99,1.08c0.33,0.24,0.73,0.54,1.19,0.97c0.25,0.25,0.49,0.51,0.71,0.78
						L64.99,74c0.28,0.05,0.56,0.07,0.85,0.07c0.21,0,0.41-0.02,0.62-0.06c-0.09-0.09-0.18-0.17-0.29-0.24
						c-0.46-0.3-0.94-0.29-1.19-0.26c-0.08,0.01-0.16-0.02-0.21-0.08l-2.51-2.71c-0.04-0.04-0.06-0.09-0.06-0.14l-0.27-2.87
						c-0.01-0.13,0.09-0.25,0.22-0.26c0.13-0.01,0.25,0.09,0.26,0.22l0.26,2.79l2.37,2.56c0.34-0.02,0.87,0.01,1.39,0.35
						c0.26,0.17,0.48,0.4,0.65,0.67c0.04,0.07,0.05,0.15,0.02,0.22c-0.03,0.07-0.09,0.13-0.16,0.14c-0.36,0.09-0.73,0.15-1.1,0.15
						C65.81,74.55,65.78,74.56,65.74,74.56z M61.49,70.81L61.49,70.81L61.49,70.81z"/>
				</g>
			</g>
		</g>
		<g>
			<g>
				<g>
					<path class="st3" d="M62.97,64.96"/>
				</g>
			</g>
		</g>
		<g>
			<g>
				<g>
					<path class="st2" d="M68.61,74.07c-0.05,0-0.09,0-0.14,0c-0.6-0.02-1.21-0.04-1.52-0.5c-0.14-0.21-0.18-0.47-0.14-0.77
						c-0.19-0.64-0.36-1.29-0.51-1.95c-0.13-0.58-0.24-1.17-0.33-1.76c-0.02-0.13,0.07-0.26,0.2-0.28c0.13-0.02,0.26,0.07,0.28,0.2
						c0.09,0.57,0.2,1.15,0.33,1.72c0.15,0.66,0.32,1.32,0.52,1.97c0.01,0.04,0.01,0.08,0.01,0.12c-0.03,0.14-0.04,0.33,0.06,0.47
						c0.16,0.25,0.63,0.26,1.12,0.28c0.23,0.01,0.47-0.01,0.7-0.04c-0.04-0.05-0.09-0.1-0.14-0.14c-0.07-0.05-0.14-0.1-0.53-0.25
						c-0.23-0.09-0.47-0.17-0.71-0.25c-0.08-0.03-0.14-0.09-0.16-0.18c-0.12-0.55-0.23-1.11-0.3-1.67
						c-0.15-1.06-0.19-2.02-0.23-2.86c-0.07-1.47-0.12-2.54-0.64-2.92c-0.41-0.31-0.85-0.4-0.9-0.41c-0.03,0-0.09-0.01-0.17-0.01
						l-0.92-0.08c-0.13-0.01-0.23-0.13-0.22-0.26c0.01-0.13,0.13-0.23,0.26-0.22l1.1,0.1c0.01,0,0.02,0,0.03,0
						c0.04,0.01,0.58,0.12,1.1,0.5c0.7,0.52,0.76,1.68,0.83,3.28c0.04,0.84,0.09,1.78,0.23,2.82c0.07,0.5,0.16,1,0.27,1.49
						c0.2,0.07,0.41,0.14,0.6,0.21c0.42,0.16,0.55,0.23,0.67,0.32c0.19,0.15,0.34,0.35,0.45,0.59c0.03,0.07,0.03,0.14-0.01,0.21
						c-0.03,0.06-0.09,0.11-0.16,0.13C69.29,74.03,68.95,74.07,68.61,74.07z"/>
				</g>
			</g>
		</g>
		<g>
			<g>
				<g>
					<path class="st2" d="M63.75,72.21c-0.03,0-0.05,0-0.08-0.01c-0.13-0.04-0.19-0.18-0.15-0.31c0.11-0.31,0.25-0.6,0.43-0.86
						c0.41-0.61,0.91-0.95,1.31-1.23c0.43-0.3,0.67-0.48,0.7-0.77c0-0.05-0.05-0.38-0.1-0.77c-0.04-0.28-0.08-0.55-0.13-0.82
						c-0.02-0.13,0.07-0.26,0.2-0.28c0.13-0.02,0.26,0.07,0.28,0.2c0.05,0.27,0.09,0.55,0.13,0.83c0.09,0.68,0.11,0.81,0.1,0.88
						c-0.05,0.53-0.47,0.82-0.91,1.12c-0.39,0.27-0.82,0.57-1.18,1.1c-0.15,0.23-0.28,0.48-0.37,0.75
						C63.95,72.15,63.85,72.21,63.75,72.21z"/>
				</g>
			</g>
		</g>
		<g>
			<g>
				<g>
					<path class="st2" d="M63.27,65.34c-0.01,0-0.02,0-0.03,0c-0.05,0-0.1-0.02-0.14-0.05c-0.29-0.21-0.68-0.59-0.9-1.19
						c-0.13-0.35-0.18-0.74-0.15-1.12c0.01-0.13,0.13-0.23,0.26-0.22c0.13,0.01,0.23,0.13,0.22,0.26c-0.03,0.31,0.01,0.62,0.12,0.91
						c0.16,0.45,0.45,0.74,0.67,0.92c0.19-0.01,0.65-0.07,0.98-0.47c0.43-0.51,0.3-1.12,0.28-1.19c-0.03-0.13,0.05-0.26,0.18-0.29
						c0.13-0.03,0.26,0.05,0.29,0.18c0.02,0.09,0.21,0.93-0.38,1.62C64.17,65.29,63.47,65.34,63.27,65.34z"/>
				</g>
			</g>
		</g>
		<g>
			<g>
				<g>
					<path class="st0" d="M52.45,73.42l-0.09-0.17C52.16,72.84,51.84,72,52.03,71c0.34-1.76,1.98-2.52,2.16-2.6l0.18-0.08l0.11,0.17
						c0.7,1.03,0.78,2.36,0.21,3.38c-0.62,1.1-1.73,1.43-2.06,1.51L52.45,73.42z M54.2,68.94c-0.44,0.23-1.45,0.9-1.69,2.15
						c-0.14,0.73,0.04,1.37,0.21,1.76c0.39-0.12,1.12-0.44,1.56-1.22C54.73,70.82,54.69,69.79,54.2,68.94z"/>
				</g>
			</g>
		</g>
		<g>
			<g>
				<g>
					<path class="st0" d="M50.46,74.03c-0.34,0-0.71-0.05-1.09-0.19c-0.96-0.34-1.52-1.04-1.77-1.43l-0.1-0.16l0.13-0.14
						c0.23-0.24,1.09-1.04,2.34-1.01c1.17,0.02,2.28,0.77,2.81,1.9l0.09,0.18l-0.16,0.12C52.58,73.39,51.66,74.03,50.46,74.03z
						 M48.13,72.31c0.25,0.34,0.7,0.82,1.41,1.07c1.2,0.43,2.29-0.11,2.71-0.36c-0.48-0.86-1.36-1.41-2.28-1.43
						C49.08,71.56,48.43,72.04,48.13,72.31z"/>
				</g>
			</g>
		</g>
		<g>
			<g>
				<g>
					<path class="st4" d="M64.45,68.72"/>
				</g>
			</g>
		</g>
		<g>
			<g>
				<g>
					<path class="st2" d="M60.46,70.42c-0.23,0-0.43-0.06-0.58-0.18c-0.15-0.12-0.19-0.25-0.23-0.37c-0.03-0.09-0.06-0.21-0.16-0.39
						c-0.18-0.33-0.42-0.6-0.57-0.76c-0.08-0.09-0.12-0.13-0.16-0.16c-0.04-0.04-0.08-0.07-0.13-0.15
						c-0.28-0.39-0.32-0.85-0.29-1.05c0.05-0.53,0.56-0.77,1.05-1c0.48-0.22,0.97-0.45,1.22-0.93c0.11-0.21,0.1-0.31,0.08-0.55
						c-0.02-0.21-0.05-0.5,0.01-0.98c0.19-1.62,0.83-2.76,1.79-3.22c0.6-0.29,1.59-0.42,2.41,0.12c0.77,0.52,0.94,1.39,1.03,1.86
						c0.12,0.64,0.07,1.3-0.15,1.94c-0.04,0.13-0.18,0.19-0.31,0.15c-0.13-0.04-0.19-0.18-0.15-0.31c0.13-0.38,0.26-0.99,0.13-1.68
						c-0.08-0.43-0.22-1.14-0.82-1.55c-0.6-0.41-1.4-0.34-1.92-0.09c-0.81,0.38-1.35,1.39-1.52,2.84c-0.05,0.42-0.03,0.68-0.01,0.88
						c0.03,0.27,0.04,0.48-0.13,0.82c-0.33,0.63-0.95,0.92-1.45,1.15c-0.46,0.21-0.75,0.36-0.77,0.6c-0.01,0.14,0.03,0.47,0.21,0.72
						c0.03,0.04,0.03,0.04,0.07,0.08c0.04,0.04,0.09,0.08,0.18,0.18c0.16,0.18,0.43,0.47,0.64,0.85c0.12,0.22,0.17,0.37,0.2,0.48
						c0.03,0.11,0.04,0.11,0.07,0.14c0.12,0.1,0.34,0.1,0.65,0.02c0.13-0.04,0.26,0.04,0.3,0.17c0.04,0.13-0.04,0.26-0.17,0.3
						C60.78,70.4,60.61,70.42,60.46,70.42z"/>
				</g>
			</g>
		</g>
		<g>
			<g>
				<g>
					<path class="st2" d="M61.68,63.62c-0.07,0-0.15-0.03-0.2-0.1c-0.08-0.11-0.06-0.26,0.05-0.34c0.11-0.08,0.23-0.16,0.35-0.24
						c0.25-0.15,0.45-0.24,0.61-0.31c0.21-0.09,0.34-0.15,0.49-0.29c0.11-0.1,0.2-0.22,0.27-0.37c0.06-0.12,0.21-0.17,0.33-0.11
						c0.12,0.06,0.17,0.21,0.11,0.33c-0.1,0.2-0.22,0.37-0.37,0.51c-0.2,0.19-0.4,0.28-0.62,0.38c-0.16,0.07-0.33,0.15-0.56,0.28
						c-0.11,0.07-0.22,0.14-0.32,0.21C61.78,63.61,61.73,63.62,61.68,63.62z"/>
				</g>
			</g>
		</g>
		<g>
			<g>
				<g>
					<path class="st2" d="M65.13,63.51c-0.03,0-0.05,0-0.08-0.01c-0.31-0.1-0.59-0.26-0.85-0.45c-0.21-0.16-0.39-0.35-0.55-0.56
						c-0.08-0.11-0.06-0.26,0.05-0.34c0.11-0.08,0.26-0.06,0.34,0.05c0.13,0.18,0.29,0.34,0.46,0.47c0.21,0.16,0.45,0.29,0.71,0.38
						c0.13,0.04,0.2,0.18,0.15,0.31C65.33,63.45,65.23,63.51,65.13,63.51z"/>
				</g>
			</g>
		</g>
		<g>
			<g>
				<g>
					<path class="st2" d="M65.47,70c-0.05,0-0.1,0-0.15-0.01c-0.43-0.05-0.71-0.29-0.84-0.43c-0.09-0.1-0.09-0.25,0.01-0.34
						s0.25-0.09,0.34,0.01c0.09,0.09,0.27,0.25,0.54,0.28c0.12,0.01,0.24,0,0.36-0.04c0.13-0.04,0.27,0.03,0.31,0.15
						c0.04,0.13-0.03,0.27-0.15,0.31C65.75,69.98,65.61,70,65.47,70z"/>
				</g>
			</g>
		</g>
		<g>
			<g>
				<g>
					<path class="st2" d="M63.01,70.03c-0.02,0-0.04,0-0.07,0c-0.23-0.01-0.45-0.09-0.64-0.22c-0.11-0.07-0.14-0.23-0.07-0.34
						c0.07-0.11,0.23-0.14,0.34-0.07c0.09,0.06,0.22,0.13,0.4,0.14c0.37,0.02,0.62-0.25,0.67-0.3c0.09-0.1,0.24-0.11,0.34-0.02
						c0.1,0.09,0.11,0.24,0.02,0.34C63.9,69.68,63.55,70.03,63.01,70.03z"/>
				</g>
			</g>
		</g>
	</g>
	<g>
		<g>
			<g>
				<path class="st5" d="M58.97,32.11c-0.55-1.29-1.56-2.26-2.83-2.76c-0.57-0.22-1.16-0.33-1.77-0.33c-1.69,0-3.28,0.88-4.27,2.28
					c-0.2-0.15-0.36-0.25-0.4-0.27l-0.02-0.01c-1.19-0.7-2.62-0.82-3.87-0.34c-2.31,0.9-3.47,3.47-2.66,5.85
					c0.01,0.04,0.31,0.94,0.79,1.72c0.7,1.16,1.73,2.22,3.04,3.17c0.02,0.02,0.54,0.4,1.21,0.8c0.58,0.34,1.24,0.68,1.97,1.01
					c0.05,0.02,0.21,0.09,0.42,0.09c0.14,0,0.3-0.03,0.43-0.1c3.19-1.3,5.51-2.96,6.91-4.94c0.59-0.88,0.87-1.56,0.92-1.69
					c0.05-0.11,0.17-0.44,0.17-0.44C59.55,34.83,59.53,33.39,58.97,32.11z"/>
			</g>
		</g>
		<g>
			<g>
				<path class="st0" d="M50.6,43.56c-0.17,0-0.35-0.04-0.52-0.11c-0.74-0.33-1.41-0.68-2-1.03c-0.69-0.41-1.21-0.8-1.24-0.81
					c-1.34-0.96-2.39-2.05-3.11-3.24c-0.51-0.82-0.81-1.76-0.82-1.77c-0.85-2.5,0.38-5.21,2.81-6.15c1.31-0.51,2.84-0.38,4.08,0.35
					l0.02,0.01c0.04,0.02,0.12,0.07,0.22,0.14c1.06-1.37,2.65-2.19,4.32-2.19c0.64,0,1.26,0.12,1.85,0.35
					c1.34,0.52,2.39,1.54,2.97,2.89l0,0c0.58,1.35,0.6,2.85,0.07,4.23l0,0c0,0-0.13,0.34-0.18,0.44c-0.05,0.13-0.34,0.83-0.94,1.73
					c-1.43,2.02-3.79,3.71-7.02,5.03C50.96,43.52,50.78,43.56,50.6,43.56z M47.39,30.63c-0.5,0-1.01,0.09-1.48,0.27
					c-2.18,0.85-3.29,3.28-2.52,5.54c0,0.01,0.29,0.9,0.77,1.67c0.68,1.13,1.68,2.17,2.98,3.1c0.01,0.01,0.53,0.39,1.2,0.79
					c0.57,0.34,1.23,0.68,1.95,1c0.04,0.02,0.16,0.07,0.32,0.07c0.11,0,0.23-0.03,0.33-0.07c3.16-1.29,5.45-2.92,6.81-4.86
					c0.57-0.85,0.85-1.52,0.89-1.64c0.05-0.11,0.17-0.43,0.17-0.43c0.49-1.26,0.47-2.63-0.06-3.86l0,0
					c-0.52-1.22-1.48-2.16-2.7-2.63c-0.54-0.21-1.1-0.31-1.68-0.31c-1.59,0-3.11,0.81-4.07,2.18l-0.14,0.2l-0.2-0.15
					c-0.18-0.14-0.33-0.23-0.38-0.26l-0.02-0.01C48.9,30.83,48.14,30.63,47.39,30.63z"/>
			</g>
		</g>
	</g>
	<g>
		<g>
			<g>
				<path d="M72.6,66.84c-0.04,0-0.08-0.01-0.12-0.02c-0.11-0.04-0.19-0.13-0.22-0.24c-0.06-0.2-0.12-0.4-0.18-0.6l-0.01-0.04
					c-0.41,0-0.82-0.01-1.21-0.03c-0.14-0.01-0.26-0.1-0.31-0.24c-0.05-0.14-0.01-0.29,0.1-0.38c0.22-0.2,0.47-0.31,0.71-0.42
					c0.04-0.02,0.08-0.04,0.12-0.06c-0.07-0.2-0.14-0.43-0.21-0.7c-0.04-0.13,0.01-0.27,0.12-0.35c0.12-0.09,0.27-0.09,0.39-0.02
					c0.15,0.09,0.34,0.23,0.51,0.39c0.06-0.04,0.12-0.07,0.18-0.11c0.02-0.01,0.04-0.03,0.07-0.04c0.11-0.08,0.28-0.19,0.47-0.17
					c0.05-0.01,0.1,0,0.14,0.01c0.08,0.03,0.14,0.08,0.17,0.16c0.09,0.19,0.07,0.4,0.06,0.56l0,0.06c-0.01,0.09-0.01,0.18-0.02,0.26
					c0.12,0.06,0.24,0.12,0.36,0.18c0.12,0.06,0.23,0.12,0.35,0.18c0.14,0.07,0.21,0.22,0.18,0.37c-0.04,0.16-0.18,0.29-0.35,0.3
					c-0.11,0-0.23,0.01-0.35,0.02c-0.14,0.01-0.29,0.03-0.43,0.03c0,0.01,0,0.01,0,0.02c-0.01,0.07-0.03,0.14-0.04,0.2
					c0,0.03-0.01,0.05-0.01,0.08c-0.02,0.16-0.06,0.39-0.26,0.53C72.74,66.82,72.67,66.84,72.6,66.84z M72.43,65.45l0.12,0.39
					c0.02,0.06,0.04,0.13,0.06,0.19c0.01-0.05,0.02-0.11,0.03-0.17c0.01-0.07,0.03-0.14,0.04-0.21l0.04-0.21l0.21,0.01
					c0.15,0.01,0.31,0,0.48-0.02c-0.14-0.07-0.28-0.14-0.43-0.21l-0.16-0.08l0.03-0.18c0.02-0.11,0.03-0.24,0.04-0.39l0-0.06
					c0-0.06,0.01-0.13,0.01-0.19c-0.03,0.02-0.07,0.05-0.1,0.07c-0.03,0.02-0.06,0.04-0.09,0.06c-0.11,0.07-0.22,0.14-0.33,0.21
					l-0.19,0.13l-0.14-0.18c-0.05-0.07-0.12-0.13-0.2-0.2c0.05,0.17,0.1,0.31,0.15,0.45l0.07,0.2l-0.18,0.1
					c-0.11,0.06-0.23,0.11-0.34,0.16c-0.09,0.04-0.19,0.08-0.27,0.13c0.32,0.01,0.64,0.01,0.97,0.01L72.43,65.45z M71.73,63.99
					C71.73,63.99,71.73,63.99,71.73,63.99C71.73,63.99,71.73,63.99,71.73,63.99z"/>
			</g>
		</g>
	</g>
	<g>
		<g>
			<g>
				<path d="M42.13,26.23c-0.06,0-0.12-0.01-0.17-0.04c-0.1-0.06-0.17-0.16-0.18-0.27c-0.03-0.22-0.06-0.44-0.09-0.66l0-0.03
					c-0.43-0.06-0.85-0.14-1.25-0.22c-0.14-0.03-0.25-0.14-0.27-0.28c-0.03-0.14,0.03-0.29,0.15-0.37c0.25-0.17,0.53-0.24,0.79-0.32
					c0.05-0.01,0.1-0.03,0.14-0.04c-0.05-0.28-0.08-0.55-0.11-0.76c-0.02-0.14,0.05-0.27,0.18-0.33c0.13-0.07,0.29-0.05,0.39,0.04
					c0.14,0.12,0.32,0.29,0.47,0.49c0.07-0.03,0.14-0.06,0.21-0.09c0.03-0.01,0.05-0.02,0.08-0.04c0.13-0.06,0.31-0.15,0.5-0.1
					c0.13,0,0.25,0.08,0.29,0.22c0.06,0.21,0.01,0.42-0.02,0.59l-0.01,0.06c-0.02,0.1-0.04,0.19-0.07,0.27
					c0.12,0.08,0.23,0.16,0.34,0.25c0.11,0.08,0.23,0.16,0.34,0.24l0,0c0.13,0.09,0.18,0.25,0.12,0.39
					c-0.06,0.16-0.23,0.26-0.39,0.24c-0.12-0.01-0.24-0.02-0.36-0.03c-0.15-0.01-0.3-0.02-0.46-0.04c0,0.01-0.01,0.02-0.01,0.03
					c-0.02,0.07-0.05,0.13-0.07,0.2c-0.01,0.02-0.02,0.05-0.03,0.08c-0.05,0.16-0.12,0.39-0.34,0.5
					C42.24,26.22,42.19,26.23,42.13,26.23z M42.26,25.85C42.26,25.85,42.26,25.85,42.26,25.85C42.26,25.85,42.26,25.85,42.26,25.85z
					 M40.9,24.6c0.34,0.07,0.69,0.12,1.04,0.17l0.18,0.02l0.05,0.4c0.01,0.09,0.02,0.18,0.04,0.27c0.02-0.07,0.05-0.13,0.07-0.2
					c0.03-0.07,0.05-0.15,0.08-0.22l0.07-0.2l0.21,0.04c0.17,0.03,0.35,0.05,0.53,0.06c-0.15-0.1-0.29-0.21-0.44-0.31l-0.15-0.1
					l0.06-0.17c0.04-0.12,0.07-0.24,0.1-0.39l0.01-0.06c0.02-0.07,0.03-0.15,0.04-0.22c-0.04,0.02-0.1,0.04-0.13,0.06
					c-0.03,0.02-0.07,0.03-0.1,0.04c-0.13,0.05-0.25,0.11-0.38,0.17l-0.21,0.1l-0.11-0.2c-0.05-0.09-0.12-0.19-0.2-0.27
					c0.02,0.17,0.05,0.35,0.09,0.52l0.04,0.21l-0.2,0.07c-0.13,0.04-0.25,0.08-0.37,0.11C41.12,24.53,41,24.56,40.9,24.6z
					 M40.54,24.52C40.54,24.52,40.54,24.52,40.54,24.52C40.54,24.52,40.54,24.52,40.54,24.52z"/>
			</g>
		</g>
	</g>
	<g>
		<g>
			<g>
				<path d="M48.42,82.2c-0.05,0.03-0.1,0.06-0.16,0.06c-0.11,0.01-0.23-0.03-0.31-0.12c-0.15-0.16-0.3-0.33-0.46-0.49l-0.02-0.02
					c-0.38,0.2-0.77,0.38-1.15,0.54c-0.13,0.06-0.28,0.03-0.39-0.07c-0.11-0.1-0.14-0.26-0.09-0.39c0.11-0.28,0.29-0.5,0.46-0.72
					c0.03-0.04,0.06-0.08,0.09-0.12c-0.2-0.2-0.39-0.4-0.53-0.56c-0.09-0.1-0.11-0.25-0.05-0.37c0.07-0.13,0.2-0.21,0.35-0.19
					c0.18,0.02,0.43,0.05,0.67,0.13c0.04-0.06,0.08-0.13,0.12-0.19c0.01-0.02,0.03-0.05,0.04-0.07c0.07-0.13,0.17-0.3,0.35-0.37
					c0.11-0.08,0.26-0.08,0.37,0.01c0.17,0.13,0.25,0.33,0.32,0.49l0.02,0.05c0.04,0.09,0.07,0.18,0.1,0.26c0.14,0,0.28,0,0.42,0
					c0.14,0,0.28,0,0.42,0l0,0c0.16,0,0.29,0.1,0.33,0.25c0.04,0.16-0.04,0.35-0.18,0.43c-0.1,0.06-0.21,0.12-0.31,0.19
					c-0.13,0.08-0.26,0.16-0.4,0.23c0,0.01,0.01,0.02,0.01,0.03c0.02,0.07,0.04,0.13,0.05,0.2c0.01,0.03,0.02,0.05,0.03,0.08
					c0.05,0.15,0.13,0.39,0.01,0.61C48.5,82.12,48.46,82.17,48.42,82.2z M48.31,81.81C48.31,81.81,48.31,81.81,48.31,81.81
					C48.31,81.81,48.31,81.81,48.31,81.81z M46.46,81.58c0.32-0.14,0.63-0.3,0.94-0.46l0.16-0.09l0.27,0.29
					c0.06,0.07,0.12,0.13,0.18,0.2c-0.02-0.07-0.04-0.13-0.06-0.2c-0.02-0.07-0.04-0.15-0.06-0.22l-0.06-0.21l0.2-0.08
					c0.16-0.07,0.31-0.16,0.47-0.26c-0.18,0-0.36,0-0.54,0l-0.18,0l-0.05-0.17c-0.04-0.12-0.08-0.24-0.14-0.38l-0.02-0.06
					c-0.03-0.07-0.06-0.14-0.09-0.2c-0.03,0.04-0.05,0.09-0.07,0.12c-0.02,0.03-0.04,0.06-0.05,0.09c-0.07,0.12-0.14,0.24-0.21,0.36
					l-0.11,0.2l-0.21-0.1c-0.1-0.05-0.21-0.08-0.32-0.11c0.12,0.12,0.24,0.25,0.37,0.38l0.15,0.14l-0.12,0.17
					c-0.08,0.11-0.16,0.21-0.24,0.31C46.6,81.39,46.53,81.48,46.46,81.58z M46.13,81.73C46.13,81.72,46.13,81.72,46.13,81.73
					C46.13,81.72,46.13,81.72,46.13,81.73z"/>
			</g>
		</g>
	</g>
	<g>
		<g>
			<g>
				<path d="M44.79,70.41c-0.03,0-0.06,0-0.08-0.01c-0.12-0.02-0.21-0.11-0.23-0.23c-0.02-0.12-0.04-0.25-0.06-0.37
					c-0.02-0.12-0.04-0.24-0.06-0.35c-0.05-0.25-0.13-0.33-0.37-0.35l0,0c-0.17-0.01-0.3-0.15-0.31-0.31
					c-0.01-0.16,0.08-0.3,0.23-0.35c0.05-0.02,0.1-0.04,0.14-0.05c0.04-0.01,0.07-0.02,0.1-0.04c0.1-0.05,0.1-0.07,0.13-0.24
					c0.05-0.3,0.05-0.6,0.05-0.86c0-0.11,0.05-0.21,0.13-0.27c0.06-0.08,0.15-0.14,0.26-0.14c0.16-0.01,0.29,0.1,0.32,0.26
					c0.02,0.13,0.04,0.27,0.05,0.39c0.02,0.18,0.04,0.34,0.08,0.5c0.01,0.03,0.01,0.05,0.02,0.08c0.02,0.08,0.05,0.22,0.09,0.24
					c0.03,0.02,0.08,0.03,0.13,0.05l0.02,0c0.02,0,0.05,0,0.07,0c0.18,0.02,0.31,0.17,0.31,0.35c-0.01,0.18-0.15,0.31-0.33,0.32
					c-0.23,0.01-0.29,0.15-0.34,0.7c-0.01,0.15-0.03,0.29-0.06,0.42l-0.01,0.05c-0.03,0.09-0.09,0.16-0.17,0.19
					C44.85,70.41,44.82,70.41,44.79,70.41z M44.44,68.73c0.13,0.08,0.23,0.2,0.3,0.35c0.05-0.14,0.13-0.28,0.24-0.37
					c-0.16-0.11-0.22-0.29-0.26-0.44C44.7,68.44,44.64,68.6,44.44,68.73z M45.43,68.85C45.43,68.85,45.43,68.85,45.43,68.85
					C45.43,68.85,45.43,68.85,45.43,68.85z M44.8,67.24C44.8,67.24,44.8,67.24,44.8,67.24C44.8,67.24,44.8,67.24,44.8,67.24z"/>
			</g>
		</g>
	</g>
	<g>
		<g>
			<g>
				<path d="M28.68,62.15c-0.18,0-0.32-0.12-0.35-0.3c-0.04-0.21-0.06-0.43-0.09-0.63c-0.03-0.29-0.07-0.57-0.13-0.84
					c-0.01-0.04-0.02-0.09-0.03-0.13c-0.04-0.2-0.09-0.42-0.21-0.5c-0.06-0.04-0.15-0.06-0.25-0.09l-0.05-0.01
					c-0.04,0-0.08,0-0.12-0.01c-0.22-0.02-0.37-0.2-0.37-0.42c0.01-0.21,0.17-0.37,0.38-0.38c0.56-0.02,0.64-0.5,0.71-1.29
					c0.02-0.24,0.04-0.47,0.09-0.67c0-0.01,0.01-0.03,0.01-0.05l0-0.02c0.03-0.1,0.1-0.17,0.19-0.2c0.06-0.02,0.13-0.02,0.19,0
					c0.13,0.02,0.24,0.12,0.27,0.26c0.04,0.2,0.07,0.4,0.1,0.6c0.03,0.19,0.06,0.39,0.1,0.59c0.09,0.48,0.28,0.66,0.75,0.7l0,0
					c0.2,0.02,0.35,0.17,0.37,0.37c0.02,0.19-0.1,0.35-0.28,0.41c-0.08,0.04-0.15,0.06-0.22,0.08c-0.07,0.02-0.13,0.04-0.19,0.07
					c-0.22,0.12-0.24,0.22-0.29,0.5c-0.09,0.5-0.08,1-0.08,1.44c0,0.14-0.07,0.26-0.17,0.33c-0.07,0.11-0.19,0.18-0.32,0.19
					C28.69,62.15,28.68,62.15,28.68,62.15z M27.92,59.25c0.07,0.02,0.14,0.05,0.2,0.09c0.31,0.18,0.38,0.55,0.44,0.82
					c0.01,0.04,0.02,0.08,0.03,0.12c0.06,0.26,0.1,0.52,0.13,0.78c0.01-0.3,0.03-0.62,0.08-0.94c0.06-0.33,0.11-0.62,0.54-0.86
					c0.06-0.03,0.12-0.05,0.17-0.07c-0.47-0.13-0.74-0.46-0.85-1.03c-0.01-0.06-0.02-0.11-0.03-0.17
					C28.56,58.5,28.41,59.04,27.92,59.25z M29.84,59.24C29.84,59.24,29.84,59.24,29.84,59.24C29.84,59.24,29.84,59.24,29.84,59.24z
					 M28.45,56.97C28.45,56.97,28.45,56.97,28.45,56.97C28.45,56.97,28.45,56.97,28.45,56.97z"/>
			</g>
		</g>
	</g>
	<g>
		<g>
			<g>
				<path d="M69.93,58.16c-0.12,0-0.23-0.07-0.29-0.17c-0.13-0.24-0.07-0.48-0.03-0.68c0.01-0.05,0.02-0.11,0.03-0.16
					c0.02-0.15,0-0.2-0.03-0.23c-0.02-0.02-0.04-0.03-0.07-0.05c-0.03-0.02-0.08-0.05-0.12-0.08c-0.13-0.07-0.19-0.23-0.16-0.38
					c0.03-0.18,0.19-0.3,0.36-0.29c0.14,0.01,0.28-0.02,0.38-0.52c0.03-0.12,0.12-0.22,0.25-0.24c0.09-0.02,0.19,0.01,0.25,0.07
					c0.1,0.07,0.15,0.18,0.13,0.31c-0.01,0.08-0.02,0.15-0.03,0.23c-0.01,0.05-0.01,0.11-0.02,0.16l-0.01,0.06
					c-0.01,0.05-0.02,0.14-0.01,0.17c0.01,0,0.06,0.02,0.09,0.03c0.09,0.02,0.19,0.05,0.28,0.13c0.08,0.07,0.12,0.17,0.11,0.28
					c-0.01,0.1-0.08,0.2-0.17,0.25c-0.04,0.03-0.09,0.05-0.14,0.06c-0.05,0.01-0.1,0.01-0.14,0.02c-0.03,0-0.08,0.01-0.09,0.01
					c0,0-0.01,0.02-0.01,0.04c-0.03,0.1-0.06,0.2-0.08,0.3c-0.03,0.11-0.06,0.23-0.09,0.34c-0.02,0.06-0.05,0.11-0.09,0.15
					c-0.05,0.12-0.16,0.2-0.29,0.21C69.95,58.16,69.94,58.16,69.93,58.16z M70.65,56.87C70.65,56.87,70.65,56.87,70.65,56.87
					l0.1-0.11l0,0L70.65,56.87L70.65,56.87z M69.92,56.55c0.01,0.01,0.02,0.02,0.03,0.03c0.09,0.09,0.13,0.19,0.16,0.28
					c0.04-0.07,0.1-0.12,0.15-0.16c-0.06-0.05-0.11-0.11-0.14-0.2c-0.01-0.02-0.01-0.04-0.02-0.06
					C70.05,56.49,69.99,56.52,69.92,56.55z M70.75,56.75L70.75,56.75l0.05-0.06L70.75,56.75z M70.67,56.61
					C70.67,56.61,70.67,56.61,70.67,56.61C70.67,56.61,70.67,56.61,70.67,56.61z M69.59,56.59C69.59,56.59,69.59,56.59,69.59,56.59
					C69.59,56.59,69.59,56.59,69.59,56.59z"/>
			</g>
		</g>
	</g>
	<g>
		<g>
			<g>
				<path d="M65.7,14.27c-0.1,0-0.2-0.04-0.27-0.13c-0.23-0.26-0.23-0.58-0.23-0.87c0-0.09,0-0.17-0.01-0.24
					c-0.02-0.22-0.07-0.33-0.16-0.39c-0.04-0.02-0.08-0.04-0.13-0.06c-0.06-0.02-0.12-0.04-0.18-0.08c-0.16-0.05-0.28-0.2-0.29-0.39
					c-0.01-0.21,0.13-0.39,0.33-0.42c0.29-0.05,0.48-0.23,0.46-0.96c0-0.14,0.08-0.26,0.2-0.31c0.1-0.04,0.21-0.03,0.3,0.02
					c0.12,0.04,0.21,0.16,0.22,0.3c0.01,0.11,0.02,0.22,0.04,0.34c0.01,0.07,0.02,0.15,0.03,0.22c0,0.03,0.01,0.05,0.01,0.08
					c0.01,0.1,0.02,0.23,0.05,0.28c0.02,0.04,0.06,0.05,0.22,0.05c0.12,0.01,0.26,0.01,0.4,0.08c0.11,0.05,0.18,0.16,0.19,0.27
					c0.01,0.12-0.04,0.24-0.13,0.32c-0.03,0.05-0.08,0.08-0.13,0.11c-0.07,0.03-0.13,0.05-0.19,0.07c-0.19,0.06-0.2,0.07-0.2,0.2
					c-0.01,0.15-0.01,0.3-0.02,0.46c-0.01,0.16-0.01,0.33-0.02,0.49c-0.01,0.08-0.03,0.15-0.07,0.21c-0.02,0.15-0.12,0.28-0.27,0.33
					C65.78,14.26,65.74,14.27,65.7,14.27z M65.04,12.11c0,0,0.01,0,0.01,0c0.06,0.02,0.15,0.05,0.23,0.11
					c0.3,0.19,0.36,0.51,0.39,0.76c0.01,0.1,0.01,0.19,0.01,0.28c0,0.06,0,0.12,0,0.18c0-0.08,0.01-0.16,0.01-0.24
					c0.01-0.16,0.01-0.31,0.02-0.47c0.02-0.33,0.17-0.47,0.34-0.55c-0.14-0.03-0.3-0.09-0.4-0.26c-0.05-0.08-0.08-0.17-0.1-0.26
					C65.45,11.85,65.29,12.02,65.04,12.11z M66.66,12.43L66.66,12.43C66.66,12.43,66.66,12.43,66.66,12.43z M66.45,11.99
					C66.45,11.99,66.45,12,66.45,11.99L66.45,11.99z"/>
			</g>
		</g>
	</g>
	<g>
		<g>
			<g>
				<path d="M34.22,35.22c-0.09,0-0.17-0.03-0.24-0.09c-0.1-0.09-0.14-0.22-0.12-0.36c0.05-0.28,0.11-0.57,0.2-0.87
					c-0.25-0.11-0.51-0.22-0.76-0.33c-0.15-0.06-0.23-0.21-0.2-0.37c0.03-0.17,0.17-0.31,0.34-0.32c0.19-0.02,0.45-0.04,0.7-0.09
					c0.05-0.01,0.11-0.02,0.16-0.04c0.02-0.01,0.04-0.01,0.07-0.02c0-0.02,0.01-0.03,0.01-0.05c0.01-0.05,0.02-0.09,0.03-0.14
					l0.01-0.07c0.05-0.32,0.1-0.64,0.26-0.95c0.06-0.13,0.2-0.19,0.34-0.16c0.13,0.03,0.23,0.13,0.25,0.25
					c0.01,0.02,0.02,0.04,0.02,0.06c0.06,0.18,0.12,0.37,0.18,0.56c0.07,0.2,0.13,0.41,0.2,0.61c0.26,0,0.52,0,0.77-0.02h0
					c0.17-0.01,0.32,0.09,0.37,0.25c0.06,0.17-0.01,0.36-0.16,0.45c-0.19,0.11-0.37,0.23-0.54,0.35c-0.01,0.01-0.05,0.03-0.09,0.06
					c-0.03,0.02-0.06,0.04-0.1,0.06c0.01,0.03,0.03,0.05,0.04,0.08c0.11,0.21,0.23,0.43,0.28,0.68c0.03,0.14-0.03,0.3-0.16,0.38
					c-0.12,0.08-0.27,0.08-0.39,0l-0.06-0.04c-0.21-0.14-0.46-0.31-0.66-0.51l-0.21,0.27c-0.09,0.12-0.21,0.27-0.42,0.33
					C34.29,35.22,34.26,35.22,34.22,35.22z M34.97,33.82l0.19,0.27c0.11,0.16,0.28,0.3,0.46,0.43c-0.03-0.07-0.07-0.14-0.11-0.21
					c-0.05-0.1-0.11-0.2-0.15-0.3l-0.08-0.18l0.17-0.12c0.1-0.07,0.22-0.14,0.3-0.19c0.03-0.02,0.06-0.03,0.07-0.04
					c0.07-0.05,0.14-0.09,0.21-0.14c-0.13,0-0.26,0-0.39,0l-0.34,0l-0.05-0.17c-0.08-0.26-0.16-0.52-0.25-0.78
					c-0.02-0.05-0.03-0.1-0.05-0.15c-0.02,0.11-0.04,0.22-0.06,0.33l-0.01,0.07c-0.01,0.05-0.02,0.1-0.03,0.15
					c-0.01,0.06-0.03,0.13-0.03,0.19l-0.02,0.18l-0.18,0.03c-0.07,0.01-0.14,0.03-0.21,0.04c-0.06,0.01-0.12,0.03-0.18,0.04
					c-0.1,0.02-0.2,0.04-0.29,0.05c0.17,0.08,0.35,0.15,0.52,0.23l0.21,0.09l-0.07,0.21c-0.08,0.22-0.13,0.44-0.18,0.66L34.97,33.82
					z M33.48,33.37C33.48,33.37,33.48,33.37,33.48,33.37C33.48,33.37,33.48,33.37,33.48,33.37z"/>
			</g>
		</g>
	</g>
	<g>
		<g>
			<g>
				<path d="M25.91,81.36c-0.01,0-0.01,0-0.02,0c-0.08-0.01-0.15-0.05-0.19-0.12c-0.08-0.15-0.16-0.31-0.22-0.48
					c-0.16,0.04-0.32,0.08-0.48,0.13c-0.09,0.02-0.19-0.01-0.23-0.1c-0.05-0.09-0.03-0.21,0.04-0.28c0.08-0.08,0.19-0.18,0.29-0.3
					c0.02-0.02,0.04-0.05,0.06-0.07c0.01-0.01,0.02-0.02,0.03-0.03c0-0.01-0.01-0.02-0.01-0.02c-0.01-0.03-0.03-0.05-0.04-0.07
					l-0.02-0.04c-0.09-0.17-0.19-0.34-0.23-0.54c-0.02-0.08,0.02-0.16,0.1-0.2c0.07-0.04,0.15-0.02,0.21,0.03
					c0.01,0,0.02,0.01,0.03,0.02c0.09,0.07,0.19,0.13,0.29,0.2c0.11,0.07,0.21,0.14,0.32,0.21c0.12-0.09,0.24-0.19,0.35-0.29l0,0
					c0.07-0.07,0.18-0.08,0.27-0.02c0.09,0.06,0.13,0.17,0.09,0.27c-0.05,0.12-0.09,0.24-0.13,0.36c0,0.01-0.01,0.03-0.02,0.06
					c-0.01,0.02-0.02,0.04-0.02,0.06c0.02,0.01,0.03,0.01,0.05,0.02c0.13,0.06,0.26,0.11,0.38,0.22c0.07,0.06,0.09,0.15,0.07,0.24
					c-0.03,0.08-0.1,0.14-0.18,0.14l-0.04,0c-0.15,0.01-0.33,0.02-0.49,0.01l0,0.2c0,0.09,0,0.2-0.08,0.31
					C26.04,81.33,25.98,81.36,25.91,81.36z M25.67,80.41l0.04,0.13c0.04,0.13,0.1,0.25,0.16,0.38l0.01-0.53l0.19,0.06
					c0.11,0.03,0.24,0.04,0.38,0.03c-0.04-0.02-0.08-0.04-0.13-0.06c-0.06-0.03-0.12-0.05-0.18-0.08l-0.11-0.06l0.03-0.12
					c0.02-0.07,0.05-0.15,0.07-0.2c0.01-0.02,0.01-0.04,0.02-0.05c0.02-0.05,0.03-0.09,0.05-0.14c-0.06,0.05-0.12,0.1-0.19,0.14
					l-0.16,0.12l-0.09-0.06c-0.13-0.09-0.27-0.18-0.4-0.27c-0.03-0.02-0.05-0.04-0.08-0.05c0.03,0.06,0.06,0.12,0.09,0.17l0.02,0.04
					c0.01,0.03,0.03,0.05,0.04,0.08c0.02,0.03,0.03,0.07,0.05,0.1l0.05,0.09l-0.07,0.08c-0.03,0.03-0.05,0.06-0.08,0.1
					c-0.02,0.03-0.04,0.06-0.07,0.08c-0.04,0.05-0.08,0.09-0.12,0.13c0.11-0.03,0.22-0.06,0.33-0.09L25.67,80.41z M25.02,80.72
					C25.02,80.72,25.02,80.72,25.02,80.72C25.02,80.72,25.02,80.72,25.02,80.72z M26.28,79.54C26.28,79.54,26.28,79.54,26.28,79.54
					C26.28,79.54,26.28,79.54,26.28,79.54z"/>
			</g>
		</g>
	</g>
	<g>
		<g>
			<g>
				<path d="M64.66,37.47c-0.03,0-0.07-0.01-0.1-0.02c-0.12-0.04-0.22-0.14-0.25-0.26c-0.06-0.24-0.12-0.5-0.17-0.76
					c-0.24,0.01-0.48,0.01-0.73,0.02c-0.16,0.01-0.29-0.09-0.33-0.24c-0.05-0.16,0.02-0.34,0.17-0.42c0.15-0.09,0.35-0.2,0.53-0.34
					c0.04-0.03,0.08-0.06,0.11-0.09c0.01-0.01,0.02-0.02,0.04-0.03c0-0.01,0-0.02-0.01-0.02c-0.01-0.04-0.02-0.08-0.03-0.12
					l-0.02-0.07c-0.08-0.28-0.16-0.57-0.15-0.88c0-0.14,0.1-0.25,0.23-0.29c0.12-0.03,0.25,0.02,0.33,0.12
					c0.01,0.01,0.03,0.02,0.04,0.04c0.12,0.13,0.24,0.26,0.36,0.39c0.13,0.14,0.26,0.27,0.38,0.41c0.2-0.09,0.41-0.19,0.6-0.3h0
					c0.14-0.08,0.31-0.06,0.43,0.07c0.12,0.13,0.14,0.31,0.04,0.45c-0.1,0.16-0.21,0.32-0.31,0.49c-0.01,0.01-0.03,0.05-0.06,0.08
					c-0.01,0.02-0.03,0.04-0.04,0.07c0.02,0.01,0.03,0.02,0.05,0.04c0.17,0.13,0.35,0.26,0.5,0.45c0.09,0.11,0.1,0.27,0.02,0.4
					c-0.07,0.12-0.2,0.18-0.34,0.16l-0.06-0.01c-0.22-0.03-0.47-0.07-0.71-0.15l-0.07,0.27c-0.03,0.14-0.07,0.3-0.23,0.44
					C64.83,37.44,64.75,37.47,64.66,37.47z M64.58,35.94l0.02,0.22c0.02,0.17,0.05,0.34,0.08,0.5l0.17-0.71l0.28,0.16
					c0.12,0.07,0.27,0.12,0.43,0.15c-0.03-0.02-0.05-0.04-0.08-0.06c-0.08-0.06-0.16-0.12-0.24-0.19l-0.15-0.13l0.1-0.18
					c0.05-0.1,0.13-0.2,0.17-0.27c0.02-0.03,0.03-0.05,0.04-0.06c0.02-0.04,0.05-0.08,0.07-0.12c-0.08,0.04-0.17,0.08-0.25,0.11
					l-0.29,0.14l-0.12-0.13c-0.16-0.18-0.33-0.36-0.5-0.53c-0.01-0.01-0.02-0.03-0.04-0.04c0.02,0.06,0.03,0.13,0.05,0.19l0.02,0.07
					c0.01,0.04,0.02,0.09,0.04,0.14c0.01,0.05,0.03,0.11,0.04,0.17l0.05,0.17l-0.15,0.1c-0.05,0.04-0.1,0.08-0.15,0.12
					c-0.04,0.03-0.08,0.07-0.13,0.1c-0.05,0.04-0.1,0.07-0.15,0.1c0.14,0,0.29-0.01,0.43-0.01L64.58,35.94z M65.89,36.56
					C65.89,36.56,65.89,36.56,65.89,36.56C65.89,36.56,65.89,36.56,65.89,36.56z M66.03,36.35L66.03,36.35
					C66.03,36.35,66.03,36.35,66.03,36.35z M63.5,36.22C63.5,36.22,63.5,36.22,63.5,36.22C63.5,36.22,63.5,36.22,63.5,36.22z"/>
			</g>
		</g>
	</g>
	<g>
		<g>
			<g>
				<path d="M3.64,51.08c-0.09,0-0.17-0.03-0.24-0.1c-0.09-0.09-0.17-0.18-0.25-0.28c-0.05,0.04-0.1,0.08-0.16,0.12
					c-0.07,0.05-0.13,0.1-0.2,0.16c-0.11,0.09-0.27,0.11-0.39,0.04c-0.12-0.07-0.19-0.21-0.16-0.36l0.02-0.1
					c0.03-0.15,0.06-0.32,0.11-0.48C2.26,49.98,2.13,49.86,2,49.73c-0.09-0.09-0.12-0.22-0.07-0.34c0.04-0.12,0.16-0.21,0.29-0.22
					c0.13-0.02,0.27-0.02,0.42-0.02c0.06-0.16,0.15-0.31,0.22-0.44c0.06-0.11,0.18-0.17,0.31-0.17c0.12,0.01,0.23,0.08,0.28,0.19
					c0.07,0.15,0.13,0.3,0.17,0.43c0.09,0.01,0.18,0.01,0.27,0.02l0,0c0.13,0.01,0.25,0.1,0.3,0.22c0.05,0.12,0.02,0.26-0.07,0.35
					c-0.07,0.08-0.15,0.15-0.24,0.23c0.02,0.13,0.05,0.26,0.07,0.4c0,0.02,0.01,0.04,0.01,0.06c0.03,0.13,0.08,0.35-0.08,0.54
					c-0.06,0.07-0.14,0.11-0.23,0.11C3.64,51.08,3.64,51.08,3.64,51.08z M2.73,50.76L2.73,50.76C2.73,50.76,2.73,50.76,2.73,50.76z
					 M2.6,49.63c0.07,0.06,0.14,0.12,0.22,0.18l0.16,0.12L2.9,50.11c-0.03,0.07-0.06,0.15-0.08,0.24c0.07-0.06,0.14-0.11,0.19-0.17
					l0.2-0.2l0.17,0.23c0.02,0.03,0.04,0.06,0.07,0.09c-0.02-0.09-0.03-0.18-0.05-0.27l-0.05-0.24l0.11-0.09
					c0.02-0.02,0.04-0.04,0.07-0.05c-0.02,0-0.04,0-0.06,0l-0.22-0.01l-0.05-0.17c-0.02-0.07-0.04-0.15-0.07-0.23
					c-0.04,0.08-0.07,0.16-0.1,0.24l-0.05,0.19l-0.19-0.01C2.72,49.64,2.66,49.64,2.6,49.63z M3.28,48.95
					C3.28,48.95,3.28,48.95,3.28,48.95C3.28,48.95,3.28,48.95,3.28,48.95z"/>
			</g>
		</g>
	</g>
	<g>
		<g>
			<g>
				<path d="M14.32,24.78c-0.17,0-0.3-0.11-0.33-0.28c-0.03-0.17-0.05-0.35-0.07-0.52c-0.03-0.24-0.05-0.46-0.11-0.68
					c-0.01-0.03-0.02-0.07-0.02-0.11c-0.03-0.15-0.07-0.33-0.15-0.38c-0.05-0.03-0.12-0.05-0.19-0.07l-0.03-0.01
					c-0.03,0-0.06,0-0.09-0.01c-0.2-0.02-0.35-0.19-0.34-0.39c0.01-0.2,0.16-0.34,0.36-0.35c0.4-0.01,0.47-0.33,0.53-1.01
					c0.02-0.2,0.03-0.39,0.07-0.55c0-0.01,0.01-0.03,0.01-0.04l0-0.01c0.03-0.09,0.09-0.16,0.18-0.19c0.06-0.02,0.13-0.02,0.19,0
					c0.13,0.02,0.22,0.12,0.25,0.25c0.03,0.16,0.06,0.32,0.08,0.49c0.02,0.16,0.05,0.32,0.08,0.47c0.07,0.37,0.21,0.5,0.57,0.53h0
					c0.18,0.02,0.33,0.16,0.34,0.34c0.02,0.17-0.09,0.33-0.26,0.38c-0.06,0.03-0.12,0.05-0.18,0.07c-0.06,0.02-0.1,0.03-0.15,0.06
					c-0.16,0.09-0.17,0.15-0.21,0.37c-0.07,0.4-0.07,0.81-0.07,1.17c0,0.13-0.06,0.24-0.15,0.3c-0.06,0.1-0.17,0.16-0.29,0.17
					C14.33,24.78,14.33,24.78,14.32,24.78z M13.81,22.36c0.03,0.01,0.05,0.03,0.08,0.04c0.27,0.16,0.33,0.47,0.38,0.69
					c0.01,0.03,0.01,0.06,0.02,0.1c0.02,0.07,0.03,0.13,0.04,0.2c0.01-0.11,0.02-0.21,0.04-0.32c0.05-0.27,0.09-0.53,0.46-0.73
					c0.01-0.01,0.02-0.01,0.03-0.02c-0.3-0.12-0.49-0.36-0.59-0.73C14.22,21.9,14.09,22.2,13.81,22.36z M14.09,20.52
					C14.09,20.52,14.09,20.53,14.09,20.52C14.09,20.53,14.09,20.52,14.09,20.52z"/>
			</g>
		</g>
	</g>
	<g>
		<g>
			<g>
				<g>
					<path d="M13.48,40.15h-1.59c-0.07,0-0.13-0.03-0.18-0.08c-0.05-0.05-0.07-0.12-0.06-0.19c0.01-0.14,0.07-0.29,0.16-0.39
						c0.2-0.24,0.5-0.24,0.99-0.23c0.46,0.01,0.62,0.08,0.73,0.2c0.11,0.11,0.18,0.27,0.19,0.43c0,0.07-0.02,0.13-0.06,0.18
						C13.61,40.13,13.55,40.15,13.48,40.15z"/>
				</g>
			</g>
		</g>
		<g>
			<g>
				<g>
					<path d="M14.06,41.24h-2.71c-0.05,0-0.1-0.02-0.15-0.05c-0.16-0.12-0.24-0.29-0.26-0.37c-0.01-0.04-0.01-0.08-0.01-0.11
						c0.02-0.1,0.04-0.23,0.06-0.39c0.04-0.23,0.07-0.37,0.19-0.49c0.06-0.06,0.18-0.14,0.38-0.16c0.01,0,0.02,0,0.02,0h2.23
						c0.02,0,0.03,0,0.05,0.01c0.11,0.02,0.22,0.07,0.31,0.13c0.1,0.06,0.18,0.15,0.25,0.24c0.01,0.02,0.02,0.04,0.03,0.06
						l0.23,0.66c0.04,0.12-0.02,0.26-0.14,0.31c-0.13,0.05-0.27,0.1-0.4,0.15C14.12,41.24,14.09,41.24,14.06,41.24z M11.45,40.76
						h2.56c0.05-0.02,0.1-0.04,0.15-0.06l-0.14-0.4c-0.03-0.04-0.07-0.07-0.1-0.09c-0.04-0.03-0.08-0.05-0.13-0.06H11.6
						c-0.03,0-0.06,0.01-0.07,0.03c-0.01,0.02-0.04,0.14-0.05,0.23c-0.02,0.12-0.04,0.23-0.05,0.31
						C11.43,40.73,11.44,40.74,11.45,40.76z"/>
				</g>
			</g>
		</g>
		<g>
			<g>
				<g>
					<path d="M26.98,41.24h-2.3c-0.07,0-0.14-0.03-0.19-0.09c-0.09-0.1-0.12-0.25-0.09-0.39l0.12-0.65
						c0.03-0.18,0.16-0.32,0.33-0.35c0.32-0.06,0.65-0.09,0.97-0.08c0.31,0.01,0.63,0.05,0.95,0.12c0.15,0.03,0.27,0.16,0.31,0.32
						l0.16,0.66c0.03,0.11,0.01,0.22-0.03,0.32C27.16,41.19,27.07,41.24,26.98,41.24z M24.9,40.76h1.83l-0.12-0.49
						c-0.26-0.06-0.53-0.09-0.8-0.1c-0.27-0.01-0.55,0.01-0.82,0.06L24.9,40.76z M26.66,40.28C26.66,40.28,26.66,40.28,26.66,40.28
						C26.66,40.28,26.66,40.28,26.66,40.28z M24.94,40.25C24.94,40.25,24.94,40.25,24.94,40.25C24.94,40.25,24.94,40.25,24.94,40.25
						z"/>
				</g>
			</g>
		</g>
		<g>
			<g>
				<g>
					<path d="M24.41,41.24h-1.54c-0.04,0-0.08-0.01-0.12-0.03c-0.74-0.42-1.59-0.64-2.45-0.64c-0.86,0-1.7,0.22-2.45,0.64
						c-0.04,0.02-0.08,0.03-0.12,0.03H16c-0.08,0-0.15-0.04-0.19-0.1c-0.05-0.06-0.06-0.14-0.04-0.21c0.02-0.06,0.04-0.12,0.07-0.18
						l1.2-2.34c0.11-0.22,0.29-0.34,0.49-0.34h5.37c0.2,0,0.38,0.12,0.49,0.34c0.4,0.78,0.8,1.56,1.2,2.34
						c0.03,0.05,0.05,0.11,0.07,0.18c0.02,0.07,0.01,0.15-0.04,0.21C24.56,41.21,24.49,41.24,24.41,41.24z M22.93,40.76h1.09
						c-0.36-0.71-0.72-1.41-1.08-2.11c-0.03-0.05-0.05-0.07-0.06-0.08l-5.36,0c0,0-0.03,0.02-0.05,0.08l-1.08,2.11h1.29
						c0.8-0.44,1.71-0.67,2.63-0.67C21.22,40.08,22.13,40.32,22.93,40.76z"/>
				</g>
			</g>
		</g>
		<g>
			<g>
				<g>
					<path d="M21.8,39.8h-3.12c-0.29,0-0.53-0.24-0.53-0.53c0-0.29,0.24-0.53,0.53-0.53h3.12c0.29,0,0.53,0.24,0.53,0.53
						C22.33,39.56,22.09,39.8,21.8,39.8z M18.68,39.23c-0.02,0-0.04,0.02-0.04,0.04c0,0.02,0.02,0.04,0.04,0.04h3.12
						c0.02,0,0.04-0.02,0.04-0.04c0-0.02-0.02-0.04-0.04-0.04H18.68z"/>
				</g>
			</g>
		</g>
		<g>
			<g>
				<g>
					<path d="M18.61,38.57h-0.62c-0.09,0-0.18-0.05-0.22-0.14c-0.05-0.1-0.19-0.47-0.01-0.81c0.2-0.36,0.63-0.4,0.91-0.42
						c0.15-0.01,0.62-0.05,0.77,0.27c0.05,0.1,0.04,0.2,0.03,0.25c-0.06,0.24-0.31,0.29-0.47,0.32c-0.06,0.01-0.17,0.04-0.2,0.06
						c0,0,0.01,0.04,0.04,0.12c0.03,0.08,0.03,0.16-0.02,0.23C18.77,38.53,18.69,38.57,18.61,38.57z M18.17,38.08h0.14
						c0-0.08,0.02-0.15,0.06-0.22c0.04-0.07,0.09-0.12,0.14-0.15c-0.16,0.02-0.27,0.06-0.32,0.15
						C18.15,37.93,18.15,38.01,18.17,38.08z"/>
				</g>
			</g>
		</g>
		<g>
			<g>
				<g>
					<path d="M22.48,38.57h-0.62c-0.08,0-0.16-0.04-0.2-0.11c-0.04-0.07-0.05-0.16-0.02-0.23c0.04-0.09,0.04-0.13,0.04-0.13
						c-0.02-0.01-0.13-0.04-0.2-0.05c-0.16-0.03-0.41-0.09-0.47-0.32c-0.01-0.06-0.02-0.15,0.03-0.25c0.14-0.31,0.61-0.28,0.76-0.27
						c0.28,0.02,0.7,0.05,0.91,0.42c0.19,0.33,0.04,0.7-0.01,0.81C22.66,38.51,22.57,38.57,22.48,38.57z M22.16,38.08h0.14
						c0.01-0.07,0.02-0.15-0.02-0.22c-0.05-0.09-0.17-0.13-0.32-0.15c0.06,0.04,0.1,0.09,0.14,0.15
						C22.14,37.93,22.16,38,22.16,38.08z"/>
				</g>
			</g>
		</g>
		<g>
			<g>
				<g>
					<g>
						<path d="M27.1,51.98H10.63c-0.66,0-1.21-0.54-1.21-1.21v-8.81c0-0.66,0.54-1.21,1.21-1.21h7.1c0.11,0,0.21,0.07,0.24,0.18
							c0.03,0.11-0.02,0.22-0.12,0.27c-1.56,0.88-2.53,2.54-2.53,4.33c0,2.74,2.23,4.97,4.97,4.97s4.97-2.23,4.97-4.97
							c0-1.79-0.97-3.45-2.53-4.33c-0.1-0.05-0.14-0.17-0.12-0.27c0.03-0.11,0.12-0.18,0.24-0.18h4.23c0.66,0,1.21,0.54,1.21,1.21
							v8.81C28.31,51.44,27.76,51.98,27.1,51.98z M10.63,41.24c-0.4,0-0.72,0.32-0.72,0.72v8.81c0,0.4,0.32,0.72,0.72,0.72H27.1
							c0.4,0,0.72-0.32,0.72-0.72v-8.81c0-0.4-0.32-0.72-0.72-0.72h-3.43c1.31,1.03,2.09,2.61,2.09,4.3c0,3.01-2.45,5.46-5.46,5.46
							s-5.46-2.45-5.46-5.46c0-1.69,0.79-3.27,2.09-4.3H10.63z"/>
					</g>
				</g>
			</g>
			<g>
				<g>
					<g>
						<path d="M20.3,51c-3.01,0-5.46-2.45-5.46-5.46c0-1.96,1.06-3.78,2.77-4.75c0.81-0.46,1.74-0.71,2.69-0.71
							c0.94,0,1.87,0.24,2.69,0.71c1.71,0.97,2.77,2.79,2.77,4.75C25.76,48.55,23.31,51,20.3,51z M20.3,40.57
							c-0.86,0-1.7,0.22-2.45,0.64c-1.56,0.88-2.53,2.54-2.53,4.33c0,2.74,2.23,4.97,4.97,4.97s4.97-2.23,4.97-4.97
							c0-1.79-0.97-3.45-2.53-4.33C22.01,40.79,21.16,40.57,20.3,40.57z"/>
					</g>
				</g>
			</g>
			<g>
				<g>
					<g>
						<path d="M20.3,49.8c-2.35,0-4.25-1.91-4.25-4.25c0-2.35,1.91-4.25,4.25-4.25s4.25,1.91,4.25,4.25
							C24.56,47.89,22.65,49.8,20.3,49.8z M20.3,41.78c-2.08,0-3.77,1.69-3.77,3.77c0,2.08,1.69,3.77,3.77,3.77s3.77-1.69,3.77-3.77
							C24.07,43.47,22.38,41.78,20.3,41.78z"/>
					</g>
				</g>
			</g>
			<g>
				<g>
					<g>
						<path d="M20.3,47.95c-1.33,0-2.41-1.08-2.41-2.41c0-1.33,1.08-2.41,2.41-2.41c1.33,0,2.41,1.08,2.41,2.41
							C22.71,46.87,21.63,47.95,20.3,47.95z M20.3,43.62c-1.06,0-1.92,0.86-1.92,1.92c0,1.06,0.86,1.92,1.92,1.92
							c1.06,0,1.92-0.86,1.92-1.92C22.22,44.48,21.36,43.62,20.3,43.62z"/>
					</g>
				</g>
			</g>
			<g>
				<g>
					<g>
						<path d="M25.33,50.58c-0.42,0-0.76-0.34-0.76-0.76s0.34-0.76,0.76-0.76c0.42,0,0.76,0.34,0.76,0.76S25.75,50.58,25.33,50.58z
							 M25.33,49.56c-0.15,0-0.27,0.12-0.27,0.27s0.12,0.27,0.27,0.27c0.15,0,0.27-0.12,0.27-0.27S25.48,49.56,25.33,49.56z"/>
					</g>
				</g>
			</g>
			<g>
				<g>
					<g>
						<path d="M12.26,42.78h-0.98c-0.29,0-0.53-0.24-0.53-0.53c0-0.29,0.24-0.53,0.53-0.53h0.98c0.29,0,0.53,0.24,0.53,0.53
							C12.79,42.54,12.55,42.78,12.26,42.78z M11.28,42.21c-0.02,0-0.04,0.02-0.04,0.04c0,0.02,0.02,0.04,0.04,0.04h0.98
							c0.02,0,0.04-0.02,0.04-0.04c0-0.02-0.02-0.04-0.04-0.04H11.28z"/>
					</g>
				</g>
			</g>
			<g>
				<g>
					<g>
						<path d="M13.48,49.08c-0.13,0-0.24-0.11-0.24-0.24v-5.4c0-0.13,0.11-0.24,0.24-0.24s0.24,0.11,0.24,0.24v5.4
							C13.72,48.97,13.62,49.08,13.48,49.08z"/>
					</g>
				</g>
			</g>
		</g>
	</g>
	<g>
		<g>
			<g>
				<g>
					<path d="M66.51,24.4c-0.03,0-0.05,0-0.08-0.01l-3.19-1.14c-0.1-0.03-0.16-0.13-0.16-0.23c0-0.1,0.06-0.19,0.16-0.23l3.19-1.13
						c0.08-0.03,0.18-0.01,0.24,0.05c0.07,0.06,0.09,0.15,0.07,0.24c-0.08,0.35-0.13,0.71-0.13,1.08c0,0.37,0.04,0.73,0.13,1.08
						c0.02,0.09-0.01,0.18-0.07,0.24C66.62,24.38,66.57,24.4,66.51,24.4z M64.04,23.03l2.15,0.76c-0.04-0.25-0.06-0.51-0.06-0.76
						s0.02-0.51,0.06-0.76L64.04,23.03z"/>
				</g>
			</g>
		</g>
		<g>
			<g>
				<g>
					<path d="M65.64,28.89c-0.06,0-0.13-0.02-0.17-0.07c-0.07-0.07-0.09-0.18-0.05-0.28l1.45-3.06c0.04-0.08,0.12-0.13,0.21-0.14
						c0.09-0.01,0.17,0.04,0.22,0.12c0.38,0.62,0.91,1.15,1.53,1.53c0.08,0.05,0.12,0.13,0.12,0.22c0,0.09-0.06,0.17-0.14,0.21
						l-3.06,1.45C65.71,28.88,65.68,28.89,65.64,28.89z M67.13,26.08l-0.98,2.06l2.06-0.98C67.8,26.85,67.44,26.49,67.13,26.08z"/>
				</g>
			</g>
		</g>
		<g>
			<g>
				<g>
					<path d="M67.1,20.71c0,0-0.01,0-0.01,0c-0.09,0-0.17-0.06-0.21-0.14l-1.45-3.06c-0.04-0.09-0.03-0.2,0.05-0.28
						c0.07-0.07,0.18-0.09,0.28-0.05l3.06,1.46c0.08,0.04,0.13,0.12,0.14,0.21c0,0.09-0.04,0.17-0.12,0.22
						c-0.62,0.38-1.15,0.91-1.53,1.52C67.26,20.67,67.18,20.71,67.1,20.71z M66.16,17.92l0.98,2.06c0.3-0.41,0.67-0.78,1.08-1.08
						L66.16,17.92z"/>
				</g>
			</g>
		</g>
		<g>
			<g>
				<g>
					<path d="M71.26,31.22L71.26,31.22c-0.1,0-0.19-0.06-0.23-0.16l-1.14-3.19c-0.03-0.08-0.01-0.18,0.05-0.24
						c0.06-0.07,0.15-0.09,0.24-0.07c0.69,0.17,1.46,0.17,2.16,0c0.09-0.02,0.18,0.01,0.24,0.07c0.06,0.07,0.08,0.16,0.05,0.24
						l-1.14,3.19C71.46,31.15,71.37,31.22,71.26,31.22z M70.5,28.1l0.76,2.15l0.76-2.15C71.52,28.18,71,28.18,70.5,28.1z"/>
				</g>
			</g>
		</g>
		<g>
			<g>
				<g>
					<path d="M70.13,18.51c-0.07,0-0.13-0.03-0.18-0.08c-0.06-0.07-0.08-0.16-0.05-0.24L71.03,15c0.03-0.1,0.13-0.16,0.23-0.16
						c0.1,0,0.19,0.06,0.23,0.16l1.14,3.19c0.03,0.08,0.01,0.18-0.05,0.24c-0.06,0.07-0.15,0.09-0.24,0.07
						c-0.7-0.17-1.46-0.17-2.16,0C70.17,18.51,70.15,18.51,70.13,18.51z M71.26,15.8l-0.76,2.15c0.5-0.08,1.02-0.08,1.53,0
						L71.26,15.8z"/>
				</g>
			</g>
		</g>
		<g>
			<g>
				<g>
					<path d="M76.88,28.89c-0.04,0-0.07-0.01-0.1-0.02l-3.06-1.45c-0.08-0.04-0.13-0.12-0.14-0.21c0-0.09,0.04-0.17,0.12-0.22
						c0.62-0.38,1.14-0.91,1.53-1.53c0.05-0.08,0.13-0.12,0.22-0.12c0.09,0,0.17,0.06,0.21,0.14l1.45,3.06
						c0.04,0.09,0.03,0.2-0.05,0.28C77.01,28.87,76.95,28.89,76.88,28.89z M74.31,27.16l2.06,0.98l-0.98-2.06
						C75.09,26.49,74.72,26.85,74.31,27.16z"/>
				</g>
			</g>
		</g>
		<g>
			<g>
				<g>
					<path d="M75.43,20.71c-0.08,0-0.16-0.04-0.21-0.12c-0.38-0.62-0.91-1.15-1.53-1.53c-0.08-0.05-0.12-0.13-0.12-0.22
						c0-0.09,0.06-0.17,0.14-0.21l3.06-1.45c0.09-0.04,0.2-0.03,0.28,0.05c0.07,0.07,0.09,0.18,0.05,0.28l-1.45,3.06
						c-0.04,0.08-0.12,0.13-0.21,0.14C75.44,20.71,75.43,20.71,75.43,20.71z M74.31,18.9c0.41,0.3,0.78,0.67,1.08,1.08l0.98-2.06
						L74.31,18.9z"/>
				</g>
			</g>
		</g>
		<g>
			<g>
				<g>
					<path d="M76.02,24.4c-0.06,0-0.12-0.02-0.16-0.06c-0.07-0.06-0.09-0.15-0.07-0.24c0.08-0.35,0.13-0.71,0.13-1.08
						c0-0.37-0.04-0.73-0.13-1.08c-0.02-0.09,0.01-0.18,0.07-0.24c0.07-0.06,0.16-0.08,0.24-0.05l3.19,1.13
						c0.1,0.03,0.16,0.13,0.16,0.23c0,0.1-0.06,0.19-0.16,0.23l-3.19,1.14C76.07,24.4,76.05,24.4,76.02,24.4z M76.34,22.26
						c0.04,0.25,0.06,0.5,0.06,0.76c0,0.26-0.02,0.51-0.06,0.76l2.15-0.76L76.34,22.26z"/>
				</g>
			</g>
		</g>
		<g>
			<g>
				<g>
					<path d="M71.26,28.16c-2.83,0-5.14-2.3-5.14-5.14c0-2.83,2.3-5.14,5.14-5.14c2.83,0,5.14,2.3,5.14,5.14
						C76.4,25.86,74.1,28.16,71.26,28.16z M71.26,18.38c-2.56,0-4.65,2.09-4.65,4.65c0,2.56,2.09,4.65,4.65,4.65
						s4.65-2.09,4.65-4.65C75.91,20.46,73.83,18.38,71.26,18.38z"/>
				</g>
			</g>
		</g>
	</g>
	<g>
		<g>
			<g>
				<g>
					<g>
						<path class="st0" d="M36.53,51.55c-1.21,0-2.2-0.97-2.2-2.16c0-1.19,0.99-2.16,2.2-2.16c1.21,0,2.2,0.97,2.2,2.16
							C38.73,50.58,37.75,51.55,36.53,51.55z M36.53,47.72c-0.95,0-1.72,0.75-1.72,1.67s0.77,1.67,1.72,1.67s1.72-0.75,1.72-1.67
							S37.48,47.72,36.53,47.72z"/>
					</g>
				</g>
			</g>
			<g>
				<g>
					<g>
						<ellipse class="st0" cx="36.53" cy="49.39" rx="0.33" ry="0.32"/>
					</g>
				</g>
			</g>
		</g>
		<g>
			<g>
				<g>
					<g>
						<path class="st0" d="M45.36,51.4c-1.21,0-2.2-0.97-2.2-2.16c0-1.19,0.99-2.16,2.2-2.16c1.21,0,2.2,0.97,2.2,2.16
							C47.56,50.43,46.57,51.4,45.36,51.4z M45.36,47.56c-0.95,0-1.72,0.75-1.72,1.67c0,0.92,0.77,1.67,1.72,1.67
							c0.95,0,1.72-0.75,1.72-1.67C47.07,48.32,46.3,47.56,45.36,47.56z"/>
					</g>
				</g>
			</g>
			<g>
				<g>
					<g>
						<ellipse class="st0" cx="45.36" cy="49.24" rx="0.33" ry="0.32"/>
					</g>
				</g>
			</g>
		</g>
		<g>
			<g>
				<g>
					<path class="st2" d="M36.51,49.7c-0.03,0-0.06-0.01-0.09-0.02c-0.12-0.05-0.18-0.19-0.13-0.32l2.13-5.28
						c0.05-0.12,0.19-0.18,0.32-0.13c0.12,0.05,0.18,0.19,0.13,0.32l-2.13,5.28C36.7,49.64,36.61,49.7,36.51,49.7z"/>
				</g>
			</g>
		</g>
		<g>
			<g>
				<g>
					<path class="st2" d="M41.29,49.39c-0.02,0-0.04,0-0.06-0.01c-0.13-0.03-0.21-0.16-0.18-0.29l1.23-4.95
						c0.03-0.13,0.16-0.21,0.29-0.18c0.13,0.03,0.21,0.16,0.18,0.29l-1.23,4.95C41.5,49.31,41.4,49.39,41.29,49.39z"/>
				</g>
			</g>
		</g>
		<g>
			<g>
				<g>
					<path class="st2" d="M41.22,49.54c-0.06,0-0.13-0.03-0.18-0.08l-3.16-3.31c-0.09-0.1-0.09-0.25,0.01-0.34
						c0.1-0.09,0.25-0.09,0.34,0.01l3.16,3.31c0.09,0.1,0.09,0.25-0.01,0.34C41.34,49.51,41.28,49.54,41.22,49.54z"/>
				</g>
			</g>
		</g>
		<g>
			<g>
				<g>
					<path class="st2" d="M41.22,49.54c-0.13,0-0.24-0.11-0.24-0.24c0-0.13,0.11-0.24,0.24-0.25L45.37,49
						c0.13,0.01,0.24,0.11,0.25,0.24c0,0.13-0.11,0.24-0.24,0.25L41.22,49.54C41.23,49.54,41.22,49.54,41.22,49.54z"/>
				</g>
			</g>
		</g>
		<g>
			<g>
				<g>
					<path class="st2" d="M42.28,45.48h-3.86c-0.13,0-0.24-0.11-0.24-0.24s0.11-0.24,0.24-0.24h3.86c0.13,0,0.24,0.11,0.24,0.24
						S42.41,45.48,42.28,45.48z"/>
				</g>
			</g>
		</g>
		<g>
			<g>
				<g>
					<path class="st2" d="M45.36,49.48c-0.07,0-0.14-0.03-0.19-0.09l-3.08-4c-0.08-0.11-0.06-0.26,0.04-0.34
						c0.11-0.08,0.26-0.06,0.34,0.04l3.08,4c0.08,0.11,0.06,0.26-0.04,0.34C45.46,49.47,45.41,49.48,45.36,49.48z"/>
				</g>
			</g>
		</g>
		<g>
			<g>
				<g>
					<path class="st2" d="M37.19,44.78c-0.05,0-0.09-0.01-0.13-0.04c-0.11-0.07-0.14-0.22-0.07-0.34l0.22-0.34
						c0.07-0.11,0.22-0.14,0.34-0.07c0.11,0.07,0.14,0.22,0.07,0.34l-0.22,0.34C37.35,44.74,37.27,44.78,37.19,44.78z"/>
				</g>
			</g>
		</g>
		<g>
			<g>
				<g>
					<path class="st2" d="M37.42,44.44c-0.13,0-0.24-0.11-0.24-0.24c0-0.13,0.11-0.24,0.24-0.25l1.24-0.01
						c0.13,0,0.24,0.11,0.25,0.24c0,0.13-0.11,0.24-0.24,0.25L37.42,44.44C37.42,44.44,37.42,44.44,37.42,44.44z"/>
				</g>
			</g>
		</g>
		<g>
			<g>
				<g>
					<path class="st2" d="M43.21,44.41h-1.38c-0.13,0-0.24-0.11-0.24-0.24s0.11-0.24,0.24-0.24h1.38c0.13,0,0.24,0.11,0.24,0.24
						S43.34,44.41,43.21,44.41z"/>
				</g>
			</g>
		</g>
	</g>
	<g>
		<g>
			<g>
				<circle class="st0" cx="41.22" cy="49.31" r="0.68"/>
			</g>
		</g>
	</g>
	<g>
		<g>
			<g>
				<path class="st2" d="M27.14,26.92c-5.15,0-9.34-4.19-9.34-9.34s4.19-9.34,9.34-9.34s9.34,4.19,9.34,9.34
					S32.28,26.92,27.14,26.92z M27.14,8.73c-4.88,0-8.85,3.97-8.85,8.85s3.97,8.85,8.85,8.85c4.88,0,8.85-3.97,8.85-8.85
					S32.02,8.73,27.14,8.73z"/>
			</g>
		</g>
	</g>
</g>
<g id="Vrstva_3">
	<circle class="st6" cx="42.52" cy="42.52" r="25.78"/>
	<rect x="19.82" y="71.8" class="st7" width="45.81" height="4.43"/>
	<text transform="matrix(1 0 0 1 23.0666 74.765)" class="st8 st9 st10">City Break Planner</text>
</g>
<g id="Vrstva_2" class="st8">
	<g class="st11">
		<path class="st12" d="M14.4-183.67c-0.96-0.08-1.91-0.16-2.87-0.19c-0.09,0-0.17-0.01-0.26-0.01c-0.37-1.4-0.9-2.76-1.5-4.07
			c-0.21-0.47-0.93-0.4-1.16,0c-0.69,1.2-1.49,2.67-1.92,4.13c-1.35-0.09-2.67-0.1-4.04,0.06c-0.54,0.06-0.87,0.67-0.46,1.1
			c1.1,1.16,2.29,2.25,3.57,3.22c-0.71,1.55-1.01,3.39-1.34,5.04c-0.13,0.65,0.59,1.06,1.09,0.63c1.24-1.05,2.72-2.03,3.89-3.2
			c0.87,1.17,1.78,2.27,2.82,3.32c0.23,0.23,0.67,0.26,0.89,0c0.7-0.81,0.28-1.89,0.11-2.85c-0.23-1.29-0.47-2.57-0.7-3.85
			c0.83-0.67,1.63-1.37,2.38-2.15C15.31-182.96,14.98-183.62,14.4-183.67"/>
		<path class="st4" d="M-178.85,151.96c7.97-1.31,24.89-2.88,42.89,5.45c7.62,3.52,29.25,13.53,34.15,35.88
			c3.09,14.11-2.02,26.15-4.54,31.18c-3.38,1.64-21.94,10.22-41.87,2.04c-20.43-8.38-27.25-28.2-29.62-35.06
			C-183.92,173.77-180.59,158.29-178.85,151.96z"/>
		<path class="st4" d="M-110.77,267.36c-7.83-6.78-11.29-17.09-8.85-26.55c2.74-10.63,11.73-15.53,13.28-16.34
			c1.91,2.13,6.87,8.27,7.49,17.36C-97.84,256.86-109.62,266.46-110.77,267.36z"/>
		<path class="st4" d="M-106.27,225.32c6.67,7.93,16.92,11.54,26.42,9.24c10.66-2.58,15.7-11.5,16.54-13.03
			c-2.1-1.94-8.17-7-17.25-7.75C-95.58,212.55-105.35,224.18-106.27,225.32z"/>
		<path class="st4" d="M-175.05,198.72c4.01-0.52,17.79-2.82,28.87-14.76c8.73-9.41,11.16-19.81,11.92-24.17"/>
		<circle class="st4" cx="-162.71" cy="169" r="5.28"/>
		<path class="st13" d="M-145.93,201.23c0.87,1.41,1.89,2.73,3.05,3.95c7.56,7.96,17.79,7.88,19.54,7.83
			c0.63-2.79,1.99-10.57-1.89-18.81c-0.62-1.32-1.33-2.54-2.09-3.67"/>
		<path class="st13" d="M342,122.34"/>
		<g>
			<line class="st13" x1="-19.1" y1="206.96" x2="11.63" y2="204.21"/>
			<line class="st13" x1="3.16" y1="282.63" x2="-6.89" y2="170.3"/>
			<circle class="st13" cx="-7.31" cy="165.6" r="4.91"/>
			<path class="st13" d="M2.35,273.54c3.11-0.42,13.04-2.1,21.54-9.19c8.25-6.88,10.05-14.62,10.51-17.15"/>
			<path class="st13" d="M2.63,273.51c-3.13,0.13-13.21,0.25-22.83-5.22c-9.34-5.31-12.49-12.6-13.39-15.01"/>
		</g>
		<path class="st0" d="M-80.05-149.68l-2.89-10.69c-0.83-3.09,0.99-6.27,4.09-7.11l0,0c3.09-0.83,6.27,0.99,7.11,4.09l2.86,10.61"/>
		<path class="st13" d="M-79.86-150.57c-7.21-0.39-13.67-5.34-15.65-12.69c-2.47-9.16,2.95-18.6,12.11-21.07
			c9.16-2.47,18.6,2.95,21.07,12.11c2.01,7.45-1.19,15.07-7.38,18.99"/>
		<circle class="st13" cx="-60.07" cy="-97.94" r="40.66"/>
		<path class="st13" d="M-50.78-101.34c-1.73-4.78-6.88-7.52-11.88-6.17c-1.66,0.45-3.1,1.29-4.26,2.4l6.31-9.66l9.06-13.88
			l0.47,16.57L-50.78-101.34z"/>
		<path class="st13" d="M-54.24-89.95l-5.44,8.33l-9.06,13.88l-0.47-16.58l-0.3-10.65c1.58,5.04,6.87,7.97,12.01,6.58
			C-56.29-88.72-55.18-89.25-54.24-89.95z"/>
		<path class="st13" d="M-54.24-89.95c-0.95,0.7-2.05,1.23-3.26,1.56c-5.14,1.39-10.43-1.54-12.01-6.58
			c-0.05-0.13-0.09-0.26-0.13-0.4c-0.46-1.71-0.44-3.43-0.03-5.03c0.04-0.15,0.08-0.3,0.13-0.45c0.05-0.18,0.11-0.36,0.18-0.54
			c0.52-1.4,1.35-2.67,2.43-3.71l0.01-0.01c1.16-1.11,2.6-1.95,4.26-2.4c5-1.35,10.15,1.39,11.88,6.17c0.1,0.26,0.19,0.53,0.26,0.81
			C-49.42-96.46-51.02-92.3-54.24-89.95z"/>
		<circle cx="-90.37" cy="-89.59" r="2.17"/>
		<circle cx="-52.22" cy="-67.78" r="2.17"/>
		<circle cx="-68.32" cy="-128.18" r="2.17"/>
		<circle cx="-29.73" cy="-106.13" r="2.17"/>
		<path class="st14" d="M-213.74-9.04c0.6-2.58,4.58-3.18,14.01-6.32c8.84-2.95,10.15-4.02,11.1-5.02c1.91-2.03,2.29-3.72,4.8-5
			c2.87-1.46,5.83-1.02,6.75-0.87c2.72,0.44,4.26,1.65,6.53,3.05c3.53,2.18,7.24,4.47,11.33,5.23c6.13,1.13,7.44-2.26,13.94-0.65
			c2.68,0.66,5.37,1.96,7.19,2.83c4.2,2.02,4.04,2.63,6.53,3.48c5,1.71,8.92,0.38,9.37,1.74c0.3,0.9-1.22,2.15-1.52,2.4
			c-2.86,2.34-6.23,1.28-11.33,1.74c-4.12,0.37-3.81,1.23-8.28,1.96c-6.08,0.99-7.38-0.49-16.99-0.87
			c-8.8-0.35-8.29,0.87-13.91,0.01c-4.86-0.74-6.88-1.91-12.01-1.97c-3.48-0.04-5.59,0.46-8.28,0.87
			c-4.21,0.65-10.41,1.19-18.51,0.44C-213.49-6.75-214.01-7.88-213.74-9.04z"/>
		<path class="st14" d="M116.9,138.02c-14.46-0.29-16.96,4.08-24.14,2.3c-7.38-1.83-6.79-6.97-15.24-8.61
			c-1.46-0.28-6.84-1.17-12.64,1.14c-7.05,2.8-6.04,6.88-12.36,10.06c-8.65,4.36-15.06-1-20.98,4.31c-1.96,1.76-4.16,4.95-3.45,7.76
			c0.96,3.78,6.77,5.3,11.78,6.61c5.24,1.37,8.44,1.34,12.07,1.72c13.6,1.43,13.9,6.6,24.43,7.19c3.88,0.21,9.49-1.2,20.69-4.02
			c10.47-2.64,11.62-3.74,16.96-4.02c8.16-0.44,9.03,1.94,17.82,2.01c6.56,0.05,19.59-1.16,20.98-6.61c0.79-3.07-2.3-6.83-4.89-8.62
			c-2.94-2.04-4.3-0.87-8.91-2.3c-7.35-2.28-8.16-6.55-15.52-8.33C121.52,138.11,119.98,138.08,116.9,138.02z"/>
		<path class="st14" d="M125.02-155.08l-0.33,1.94l-53.24-9.11l0.33-1.94c0.83-4.84,5.43-8.1,10.27-7.27l35.7,6.11
			C122.6-164.52,125.85-159.92,125.02-155.08z"/>
		<path class="st14" d="M152.63-140.04l-9.96,58.18c-0.77,4.46-5,7.46-9.46,6.7L37.48-91.55c-4.46-0.76-7.45-5-6.69-9.46l9.96-58.19
			c0.76-4.46,5-7.45,9.46-6.69l21.24,3.64l53.24,9.11l21.24,3.64C150.39-148.74,153.39-144.5,152.63-140.04z"/>
		<g>
			<line class="st14" x1="49.17" y1="-89.98" x2="61.83" y2="-163.9"/>
			<line class="st14" x1="121.62" y1="-77.37" x2="134.27" y2="-151.29"/>
		</g>
		<g>
			<path class="st15" d="M282.66,58.44c5.23-22.89-9.08-45.68-31.96-50.91c-25.94-5.93-46.33,15.05-50.91,31.96
				c-0.07,0.27-0.18,0.66-0.29,1.15c-0.62,2.6-1,5.71-0.81,10.14c1.08,25.6,18.79,46.3,29.55,56.87
				c14.41-5.07,38.41-16.14,50.41-38.39c0.7-1.29,1.26-2.47,1.73-3.57C281.89,62.21,282.44,59.44,282.66,58.44z"/>
			<circle class="st14" cx="241.18" cy="49.16" r="22.12"/>
		</g>
		<g>
			<path class="st15" d="M186.17,100.85c-7.21,4.48-15.99,9.25-26.32,13.57c-10.61,4.44-20.43,7.38-28.86,9.37
				c-6.29-15.14,0.98-32.77,16.12-39.06C162.34,78.4,179.83,85.62,186.17,100.85z"/>
			<path class="st14" d="M158.58,82.44c1.82-2.35,4.22-6.07,5.64-11.13c2.72-9.73,0-17.98-1.2-21.07c2.96,2.6,8.93,8.56,12.33,18.25
				c3.15,8.96,2.56,16.71,2.01,20.58"/>
			<path class="st14" d="M136.94,91.44c-2.95-0.36-7.28-1.29-11.86-3.85c-8.82-4.93-12.75-12.68-14.09-15.71
				c-0.24,3.93-0.23,12.36,4.25,21.62c4.13,8.55,10.04,13.6,13.18,15.94"/>
			<path class="st14" d="M129.6,114.83c8.1-2.32,17.1-5.37,26.68-9.43c9.46-4.01,17.82-8.29,25.06-12.45"/>
			<g>
				<defs>
					<path id="SVGID_3_" d="M186.17,100.85c-7.21,4.48-15.99,9.25-26.32,13.57c-10.61,4.44-20.43,7.38-28.86,9.37
						c-6.29-15.14,0.98-32.77,16.12-39.06C162.34,78.4,179.83,85.62,186.17,100.85z"/>
				</defs>
				<clipPath id="SVGID_4_">
					<use xlink:href="#SVGID_3_"  style="overflow:visible;"/>
				</clipPath>
				<polyline class="st16" points="152.9,106.81 143.75,84.8 150.18,82.12 159.33,104.13 				"/>
			</g>
			<circle class="st15" cx="158.01" cy="110.02" r="1.87"/>
			<circle class="st15" cx="168.48" cy="105.36" r="1.87"/>
			<circle class="st15" cx="177.73" cy="100.53" r="1.87"/>
			<circle class="st15" cx="147.26" cy="114.31" r="1.87"/>
			<circle class="st15" cx="137.31" cy="117.46" r="1.87"/>
			<path class="st15" d="M126.68,119.48c0.19,1.22,1.83,1.88,2.49,1.45c0.55-0.35,0.46-1.46,0.25-2.11
				c-0.29-0.87-0.94-1.34-1.19-1.49C127.17,117.63,126.54,118.61,126.68,119.48z"/>
			<path class="st15" d="M186.57,94.58c0.73,1,0.04,2.62-0.72,2.79c-0.63,0.14-1.36-0.7-1.67-1.31c-0.41-0.82-0.28-1.61-0.22-1.9
				C184.91,93.62,186.05,93.86,186.57,94.58z"/>
		</g>
		<g>
			<path class="st3" d="M165.36,245.17c-2.64,6.36-7.57,16.4-15.6,24.38c-3.26,3.24-5.71,4.83-7.87,5.91
				c-3.25,1.62-6.94,2.12-14.32,3.13c-4.84,0.66-8.58,0.85-12.87-0.26c-0.04-0.01-0.54-0.14-1.09-0.31
				c-3.75-1.12-13.95-4.78-17.98-13.98c-0.67-1.54-2.87-6.55-1.5-12.7c0.63-2.82,1.81-4.96,2.69-6.29c0.02,1.22,0.28,9.14,6.43,13.7
				c3.52,2.61,8.48,3.74,12.94,2.61c11.32-2.84,11-18.2,27.5-29.32c2.58-1.74,4.86-2.89,6.34-3.58"/>
			<path class="st3" d="M160.93,194.22c-1.44,0.77-2.57,1.65-4.84,3.41c-3.73,2.89-5.59,4.33-6.66,6.09
				c-1.69,2.8-1.58,5.56-1.37,10.47c0.08,1.9,0.24,2.23,1.52,11.09c0.78,5.39,0.71,5.2,0.77,5.38c1.87,5.57,6.78,6.5,13.81,13.31
				c2.11,2.05,3.62,3.85,4.43,4.86c1.41,0.86,2.83,1.72,4.25,2.58c1.56,0.3,3.53,0.54,5.8,0.48c2.57-0.06,4.75-0.46,6.41-0.9
				c-0.6-0.98-1.71-2.48-3.56-3.69c-3.51-2.31-7.2-1.98-8.33-1.83c-5.15-5.57-10.3-11.13-15.46-16.7c-0.56-5.9-1.12-11.8-1.67-17.71
				"/>
			<path class="st3" d="M160.93,194.22"/>
			<path class="st3" d="M180.89,219.5c0.54,3.4,1.21,6.99,2.05,10.73c0.98,4.37,2.08,8.46,3.22,12.25c-0.2,1.08-0.31,2.7,0.58,4.02
				c1.45,2.18,4.7,2.28,8.15,2.39c1.61,0.05,3.94-0.02,6.73-0.64c-0.37-0.83-1.06-2.08-2.34-3.1c-0.6-0.47-1.24-0.84-3.69-1.75
				c-1.12-0.42-2.63-0.96-4.46-1.54c-0.51-2.27-1.24-5.8-1.85-10.16c-2.54-18.34-0.2-32.37-5.97-36.64
				c-2.99-2.22-6.17-2.81-6.17-2.81c0,0,0,0-0.01,0c0,0-2.19-0.2-6.8-0.6"/>
			<path class="st3" d="M165.76,237.46c0.42-1.19,1.16-3,2.48-4.96c4.95-7.32,12.18-8.06,12.65-13.01c0.03-0.33-0.19-1.92-0.63-5.11
				c-0.3-2.17-0.58-3.94-0.78-5.09"/>
			<path class="st3" d="M156.75,182.15c-0.12,1.33-0.13,3.63,0.83,6.24c1.38,3.74,3.95,5.86,5.06,6.68c0.55,0.01,4.75,0.04,7.7-3.43
				c3.15-3.71,2.14-8.21,2.03-8.66"/>
			<path class="st4" d="M107.4,216.82c4.03,5.91,4.51,13.4,1.21,19.27c-3.71,6.6-10.56,8.28-11.74,8.55
				c-0.89-1.76-3.12-6.73-1.93-12.9C96.92,221.55,106.47,217.23,107.4,216.82z"/>
			<path class="st4" d="M96.75,244.43c-3.04-6.47-9.25-10.69-15.99-10.83c-7.57-0.16-12.5,4.89-13.33,5.77
				c1.06,1.66,4.21,6.11,10.14,8.21C87.36,251.06,95.93,245.03,96.75,244.43z"/>
			<path class="st4" d="M170.07,217.42"/>
			<path class="st3" d="M176.77,191.54c0.69-2,1.83-6.13,0.86-11.16c-0.52-2.73-1.46-7.66-5.72-10.53
				c-4.11-2.78-9.57-2.45-13.35-0.66c-8.48,4.02-9.89,16.08-10.19,18.68c-0.71,6.12,0.91,6.87-0.68,9.96
				c-3.48,6.75-13.33,6.37-13.84,11.35c-0.12,1.17,0.19,3.54,1.55,5.46c0.45,0.64,0.52,0.53,1.64,1.76
				c0.94,1.03,2.51,2.77,3.72,4.96c1.43,2.61,0.96,3.38,2.03,4.24c1.42,1.15,3.59,0.87,5.35,0.38"/>
			<path class="st3" d="M163.98,176.5c-0.65,1.32-1.41,2.17-1.96,2.7c-1.89,1.79-3.63,1.86-7.01,3.91
				c-0.91,0.55-1.62,1.05-2.06,1.38"/>
			<path class="st3" d="M166.34,178.05c0.7,0.92,1.72,2.08,3.14,3.18c1.8,1.39,3.55,2.15,4.78,2.56"/>
			<path class="st3" d="M171.33,221.58c0.44,0.47,1.91,1.93,4.26,2.2c1.25,0.14,2.27-0.11,2.88-0.32"/>
			<path class="st3" d="M157.65,222.91c0.57,0.38,1.69,1.01,3.21,1.09c3.03,0.16,5.04-2.01,5.33-2.34"/>
		</g>
		<path class="st17" d="M136.28-8.38c-3.4-7.92-9.6-13.96-17.47-17c-3.49-1.35-7.15-2.04-10.89-2.04c-10.4,0-20.24,5.43-26.32,14.07
			c-1.26-0.94-2.22-1.55-2.44-1.69l-0.14-0.08c-7.33-4.29-16.15-5.08-23.87-2.08c-14.22,5.53-21.42,21.4-16.43,36.06
			c0.08,0.24,1.91,5.8,4.89,10.61C47.94,36.59,54.27,43.18,62.39,49c0.13,0.1,3.34,2.46,7.49,4.92c3.59,2.12,7.64,4.21,12.16,6.25
			c0.32,0.14,1.3,0.56,2.61,0.56c0.89,0,1.82-0.21,2.65-0.59c19.68-8.04,33.99-18.25,42.63-30.47c3.62-5.42,5.37-9.63,5.69-10.43
			c0.28-0.65,1.06-2.69,1.06-2.69C139.82,8.41,139.69-0.45,136.28-8.38z"/>
		<path class="st15" d="M228.69,197.24c-1.79-0.89-3.56-1.82-5.36-2.7c0.14-0.84,0.22-1.69,0.28-2.55c0.06-0.98,0.21-2.17-0.22-3.08
			c-0.11-0.23-0.35-0.27-0.54-0.18c-0.9-0.21-1.84,0.62-2.6,1.08c-0.72,0.44-1.42,0.89-2.12,1.36c-0.96-1.26-2.43-2.32-3.7-3.13
			c-0.4-0.26-1.05,0.09-0.91,0.6c0.51,1.85,1.04,3.67,1.7,5.47c-2,1.08-4.24,1.72-5.96,3.28c-0.44,0.4-0.21,1.18,0.41,1.22
			c2.84,0.18,5.67,0.23,8.51,0.17c0.5,1.67,1,3.35,1.48,5.03c0.14,0.51,0.65,0.66,1.08,0.37c0.86-0.58,0.86-1.84,1.04-2.78
			c0.16-0.86,0.35-1.73,0.52-2.59c1.96,0.11,4.04-0.24,5.97-0.31C228.85,198.47,229.37,197.58,228.69,197.24"/>
		<path class="st15" d="M42.09-52.12c-1.7-1.2-3.39-2.44-5.1-3.63c0.28-0.84,0.5-1.71,0.68-2.58c0.22-1,0.56-2.21,0.25-3.21
			c-0.08-0.25-0.32-0.33-0.53-0.27c-0.9-0.36-1.99,0.35-2.85,0.71c-0.81,0.34-1.6,0.7-2.4,1.07c-0.79-1.45-2.14-2.77-3.32-3.81
			c-0.37-0.33-1.09-0.07-1.03,0.48c0.23,1.99,0.5,3.95,0.89,5.91c-2.23,0.8-4.65,1.1-6.67,2.44c-0.52,0.35-0.4,1.19,0.23,1.32
			c2.89,0.63,5.81,1.13,8.74,1.52c0.25,1.81,0.51,3.61,0.74,5.42c0.07,0.54,0.57,0.79,1.05,0.56c0.98-0.47,1.18-1.77,1.51-2.71
			c0.31-0.86,0.64-1.72,0.94-2.59c2,0.42,4.21,0.38,6.21,0.62C42.06-50.82,42.73-51.66,42.09-52.12"/>
		<path class="st15" d="M43.92,218.24c2.2,0.2,3.22,1.22,3.64,3.38c0.29,1.48,0.47,2.98,0.76,4.46c0.04,0.18,0.18,0.26,0.34,0.25
			c0.11,0.08,0.27,0.05,0.32-0.1c0.01-0.03,0.02-0.06,0.02-0.1c0.01-0.03,0.02-0.06,0.02-0.09c0.7-2.83-0.21-8,3.88-8.14
			c0.76-0.03,0.73-1.09,0-1.16c-0.17-0.02-0.32-0.02-0.48-0.02c-0.51-0.16-1.05-0.28-1.46-0.53c-0.95-0.57-1.09-1.96-1.32-2.94
			c-0.44-1.85-0.51-3.74-0.84-5.6c-0.11-0.59-0.94-0.4-0.99,0.12c-0.24,0.04-0.45,0.22-0.45,0.56c0.01,1.87,0.01,3.71-0.31,5.56
			c-0.2,1.15-0.32,1.9-1.58,2.58c-0.55,0.29-1.1,0.36-1.65,0.64c-0.02,0-0.04,0.01-0.05,0.01C43.11,217.29,43.3,218.18,43.92,218.24
			"/>
		<path class="st15" d="M-43.27,157.48c-3.6-0.32-5.26-2-5.95-5.52c-0.48-2.42-0.77-4.88-1.24-7.3c-0.06-0.3-0.3-0.42-0.55-0.42
			c-0.17-0.13-0.45-0.08-0.52,0.17c-0.01,0.05-0.03,0.11-0.04,0.16c-0.02,0.04-0.03,0.09-0.04,0.14
			c-1.14,4.62,0.34,13.09-6.35,13.32c-1.25,0.04-1.2,1.78,0,1.9c0.27,0.03,0.53,0.04,0.79,0.03c0.84,0.26,1.71,0.46,2.38,0.87
			c1.56,0.94,1.79,3.21,2.16,4.82c0.71,3.03,0.83,6.11,1.38,9.16c0.17,0.96,1.53,0.66,1.62-0.2c0.4-0.07,0.74-0.37,0.74-0.92
			c-0.02-3.06-0.02-6.06,0.51-9.09c0.33-1.87,0.52-3.11,2.58-4.21c0.89-0.48,1.8-0.6,2.69-1.04c0.03-0.01,0.06-0.01,0.09-0.02
			C-41.94,159.03-42.25,157.57-43.27,157.48"/>
		<path class="st15" d="M209.22,143.18c-0.83-0.69-2.34-0.41-2.77-1.61c-0.23-0.63-0.04-1.45,0.03-2.08
			c0.1-0.81,0.15-1.63,0.27-2.44c0.04-0.24-0.09-0.39-0.25-0.45c-0.15-0.26-0.63-0.24-0.7,0.11c-0.44,2.21-1.25,4.6-3.93,4.43
			c-0.78-0.05-0.94,1.22-0.27,1.44c0.38,0.41,0.88,0.55,1.33,1c0.73,0.73,0.73,1.71,0.61,2.68c-0.18,1.4-0.87,2.93-0.16,4.26
			c0.26,0.49,0.96,0.27,1.09-0.19c0.02-0.08,0.03-0.16,0.05-0.24c0.18-0.08,0.33-0.23,0.4-0.48c0.38-1.31,0.7-2.63,1.08-3.94
			c0.45-1.55,1.43-1.25,2.71-1.49c0.12-0.02,0.2-0.09,0.25-0.17c0.03-0.01,0.06-0.01,0.09-0.02
			C209.35,143.85,209.53,143.43,209.22,143.18"/>
		<path class="st15" d="M183.08-132.3c-1.38-0.71-3.41,0.17-4.39-1.37c-0.52-0.8-0.52-2.02-0.61-2.93c-0.12-1.16-0.31-2.33-0.39-3.5
			c-0.02-0.35-0.25-0.52-0.5-0.55c-0.29-0.31-0.96-0.14-0.95,0.37c0.08,3.23-0.3,6.83-4.1,7.45c-1.1,0.18-0.94,2,0.08,2.1
			c0.66,0.46,1.4,0.5,2.17,0.98c1.25,0.8,1.57,2.16,1.7,3.56c0.19,2.02-0.29,4.37,1.12,6.01c0.52,0.6,1.43,0.08,1.47-0.61
			c0.01-0.11,0-0.23,0-0.35c0.23-0.17,0.39-0.43,0.41-0.79c0.12-1.95,0.14-3.91,0.26-5.86c0.13-2.31,1.6-2.2,3.33-2.95
			c0.16-0.07,0.25-0.19,0.29-0.32c0.04-0.02,0.08-0.04,0.11-0.06C183.47-131.39,183.59-132.04,183.08-132.3"/>
		<path class="st15" d="M-2.66-2.34c-1.98,0.16-3.99,0.1-5.98,0.09c-0.84-2.77-1.79-5.54-2.66-8.3c-0.03-0.11-0.09-0.19-0.16-0.25
			c0-0.06,0-0.12,0-0.18c-0.03-0.41-0.62-0.65-0.84-0.23c-0.91,1.81-1.19,3.88-1.52,5.87c-0.11,0.68-0.29,1.42-0.39,2.15
			c-0.8,0.14-1.59,0.36-2.4,0.52c-1.48,0.3-2.97,0.46-4.46,0.58c-0.65,0.05-1.13,1.07-0.38,1.39c1.99,0.85,3.98,1.71,5.96,2.59
			c-0.74,2.09-1.18,4.27-1.6,6.45c-0.11,0.55,0.35,1.13,0.95,0.95c0.99-0.29,1.46-1.04,2.09-1.83c0.74-0.93,1.49-1.85,2.23-2.78
			c1.28,1.84,3.56,3.3,5.31,4.47c0.55,0.37,1.17-0.24,1.05-0.81c-0.44-2.03-1.65-3.71-2.5-5.56c0.86-0.6,2.04-1.27,2.3-1.44
			c1.12-0.76,2.26-1.46,3.41-2.17C-1.6-1.22-1.81-2.41-2.66-2.34"/>
		<path class="st15" d="M-63.23,280.62c-1.46,1.34-3.07,2.54-4.65,3.77c-2.37-1.66-4.83-3.25-7.21-4.89
			c-0.1-0.07-0.19-0.09-0.28-0.1c-0.04-0.04-0.07-0.09-0.11-0.14c-0.27-0.31-0.89-0.13-0.8,0.34c0.41,1.99,1.46,3.79,2.43,5.55
			c0.33,0.61,0.65,1.29,1.02,1.93c-0.55,0.61-1.03,1.27-1.57,1.89c-0.98,1.14-2.05,2.19-3.15,3.22c-0.48,0.44-0.23,1.53,0.56,1.32
			c2.09-0.56,4.19-1.11,6.29-1.65c0.71,2.1,1.7,4.09,2.72,6.06c0.26,0.5,0.97,0.67,1.33,0.16c0.6-0.84,0.51-1.73,0.52-2.73
			c0.01-1.19,0.03-2.37,0.04-3.56c2.14,0.66,4.83,0.4,6.94,0.24c0.66-0.05,0.78-0.91,0.33-1.28c-1.6-1.33-3.59-1.9-5.4-2.83
			c0.3-1,0.83-2.26,0.92-2.55c0.41-1.28,0.88-2.55,1.34-3.81C-61.7,280.85-62.61,280.04-63.23,280.62"/>
		<path class="st15" d="M178.32,8.42c-1.55,0.88-3.2,1.61-4.83,2.36c-1.74-1.93-3.57-3.82-5.33-5.73c-0.07-0.08-0.15-0.12-0.23-0.14
			c-0.03-0.05-0.05-0.09-0.07-0.14c-0.18-0.32-0.76-0.29-0.77,0.14c-0.04,1.82,0.51,3.61,1.01,5.35c0.17,0.6,0.31,1.26,0.5,1.89
			c-0.6,0.42-1.16,0.9-1.75,1.34c-1.09,0.81-2.24,1.51-3.41,2.18c-0.51,0.29-0.51,1.3,0.23,1.27c1.95-0.07,3.89-0.13,5.84-0.18
			c0.2,1.98,0.67,3.93,1.16,5.85c0.13,0.49,0.71,0.78,1.14,0.41c0.69-0.62,0.79-1.41,1-2.29c0.25-1.04,0.5-2.07,0.75-3.11
			c1.74,1.01,4.16,1.32,6.03,1.61c0.59,0.09,0.86-0.64,0.55-1.06c-1.13-1.49-2.76-2.39-4.16-3.57c0.47-0.81,1.18-1.81,1.32-2.05
			c0.62-1.04,1.28-2.06,1.95-3.07C179.61,8.93,178.98,8.05,178.32,8.42"/>
		<path class="st15" d="M-203.52,98.39c-0.82-0.07-1.64-0.13-2.46-0.17c-0.07,0-0.15-0.01-0.22-0.01c-0.32-1.2-0.78-2.36-1.29-3.49
			c-0.18-0.4-0.8-0.35-1,0c-0.59,1.03-1.27,2.29-1.64,3.54c-1.16-0.08-2.29-0.08-3.47,0.05c-0.46,0.05-0.74,0.57-0.39,0.94
			c0.95,0.99,1.96,1.93,3.06,2.76c-0.61,1.33-0.86,2.91-1.15,4.32c-0.11,0.56,0.5,0.9,0.93,0.54c1.07-0.9,2.33-1.74,3.33-2.74
			c0.74,1,1.53,1.95,2.42,2.84c0.19,0.19,0.57,0.22,0.76,0c0.6-0.69,0.24-1.62,0.09-2.44c-0.19-1.1-0.4-2.2-0.6-3.3
			c0.71-0.57,1.4-1.17,2.04-1.85C-202.73,99-203.02,98.43-203.52,98.39"/>
		<path class="st15" d="M-133.17-69.66c-2.93-0.26-4.28-1.63-4.85-4.49c-0.39-1.97-0.62-3.97-1.01-5.94
			c-0.05-0.24-0.25-0.34-0.45-0.34c-0.14-0.1-0.37-0.06-0.42,0.14c-0.01,0.04-0.02,0.09-0.03,0.13c-0.02,0.04-0.02,0.08-0.03,0.12
			c-0.93,3.76,0.27,10.65-5.17,10.84c-1.01,0.03-0.97,1.45,0,1.55c0.22,0.02,0.43,0.03,0.64,0.03c0.68,0.21,1.39,0.38,1.94,0.71
			c1.27,0.76,1.45,2.61,1.76,3.92c0.58,2.47,0.68,4.97,1.12,7.45c0.14,0.78,1.25,0.54,1.32-0.16c0.32-0.05,0.6-0.3,0.6-0.75
			c-0.02-2.49-0.02-4.93,0.42-7.4c0.27-1.52,0.42-2.53,2.1-3.43c0.73-0.39,1.47-0.48,2.19-0.85c0.02-0.01,0.05-0.01,0.07-0.02
			C-132.09-68.4-132.34-69.59-133.17-69.66"/>
		<g>
			<path class="st14" d="M-144.28,39.74h-9.83c0.05-0.59,0.3-1.18,0.64-1.58c0.79-0.95,2.18-0.92,4.97-0.87
				c2.63,0.04,3.18,0.48,3.44,0.75C-144.64,38.46-144.33,39.11-144.28,39.74z"/>
			<path class="st14" d="M-138.22,45.5c-0.82,0.3-1.67,0.62-2.51,0.97h-16.68c-0.74-0.56-1.01-1.28-1.1-1.55
				c0.1-0.6,0.23-1.41,0.39-2.37c0.25-1.37,0.34-1.82,0.74-2.2c0.45-0.44,1.03-0.56,1.42-0.6h13.74c0.34,0.07,0.87,0.23,1.43,0.6
				c0.59,0.38,0.96,0.83,1.17,1.12C-139.16,42.8-138.69,44.16-138.22,45.5z"/>
			<path class="st14" d="M-61.02,46.47h-14.15c-0.24-0.29-0.35-0.72-0.27-1.16c0.25-1.35,0.51-2.68,0.76-4.03
				c0.09-0.49,0.41-0.86,0.81-0.94c1.61-0.31,3.53-0.53,5.69-0.48c2.1,0.04,3.96,0.33,5.53,0.7c0.36,0.08,0.66,0.42,0.77,0.86
				c0.32,1.36,0.64,2.71,0.96,4.07C-60.85,45.84-60.89,46.19-61.02,46.47z"/>
			<path class="st14" d="M-76.88,46.47h-9.5c-4.67-2.65-10.08-4.16-15.83-4.16c-5.75,0-11.16,1.51-15.83,4.16h-10.68
				c0.08-0.28,0.19-0.56,0.32-0.82l7.39-14.41c0.42-0.81,1.03-1.28,1.67-1.28h33.09c0.64,0,1.25,0.47,1.67,1.28
				c2.46,4.8,4.92,9.6,7.39,14.41C-77.07,45.91-76.96,46.19-76.88,46.47z"/>
			<path class="st14" d="M-93,37.57h-19.23c-0.97,0-1.76-0.79-1.76-1.76v0c0-0.97,0.79-1.76,1.76-1.76H-93
				c0.97,0,1.76,0.79,1.76,1.76v0C-91.24,36.78-92.02,37.57-93,37.57z"/>
			<path class="st14" d="M-116.45,29.97c-0.14-0.29-0.94-2.08-0.1-3.6c0.86-1.54,2.79-1.69,4.4-1.81c0.6-0.05,2.79-0.21,3.24,0.78
				c0.03,0.07,0.14,0.3,0.07,0.56c-0.29,1.15-3.21,0.62-3.98,1.97c-0.21,0.37-0.32,1,0.17,2.11
				C-113.92,29.97-115.18,29.97-116.45,29.97z"/>
			<path class="st14" d="M-88.81,29.97c0.14-0.29,0.94-2.08,0.1-3.6c-0.86-1.54-2.79-1.69-4.4-1.81c-0.6-0.05-2.79-0.21-3.24,0.78
				c-0.03,0.07-0.14,0.3-0.07,0.56c0.29,1.15,3.21,0.62,3.98,1.97c0.21,0.37,0.32,1-0.17,2.11C-91.34,29.97-90.07,29.97-88.81,29.97
				z"/>
			<g>
				<path class="st14" d="M-54.35,52.4v54.35c0,3.28-2.66,5.94-5.94,5.94h-101.55c-3.28,0-5.94-2.66-5.94-5.94V52.4
					c0-3.28,2.66-5.94,5.94-5.94h43.81c-9.76,5.53-16.34,16-16.34,28.01c0,17.77,14.4,32.17,32.17,32.17s32.17-14.4,32.17-32.17
					c0-12.01-6.58-22.48-16.34-28.01h26.09C-57.01,46.47-54.35,49.12-54.35,52.4z"/>
				<path class="st14" d="M-70.04,74.48c0,17.77-14.4,32.17-32.17,32.17s-32.17-14.4-32.17-32.17c0-12.01,6.58-22.48,16.34-28.01
					c4.67-2.65,10.08-4.16,15.83-4.16c5.75,0,11.16,1.51,15.83,4.16C-76.62,51.99-70.04,62.47-70.04,74.48z"/>
				<circle class="st14" cx="-102.21" cy="74.48" r="24.74"/>
				<circle class="st14" cx="-102.21" cy="74.48" r="13.34"/>
				<circle class="st14" cx="-71.19" cy="100.9" r="3.18"/>
				<path class="st14" d="M-151.82,55.94h-6.02c-0.97,0-1.76-0.79-1.76-1.76v0c0-0.97,0.79-1.76,1.76-1.76h6.02
					c0.97,0,1.76,0.79,1.76,1.76v0C-150.06,55.15-150.84,55.94-151.82,55.94z"/>
				<path class="st14" d="M-144.28,94.78V61.45V94.78z"/>
			</g>
		</g>
		<g>
			<path class="st14" d="M182.73-71.38c-0.54,2.24-0.82,4.58-0.82,6.99c0,2.41,0.28,4.75,0.82,7l-19.69-7L182.73-71.38z"/>
			<path class="st14" d="M196.28-38.69l-18.87,8.97l8.97-18.87C188.85-44.57,192.25-41.17,196.28-38.69z"/>
			<path class="st14" d="M177.4-99.05l18.88,8.98c-4.03,2.47-7.43,5.86-9.91,9.89L177.4-99.05z"/>
			<path class="st14" d="M212.07-34.23c2.41,0,4.75-0.28,7-0.82l-7,19.69l-7-19.7C207.32-34.51,209.65-34.23,212.07-34.23z"/>
			<path class="st14" d="M212.07-113.41l7,19.69c-2.25-0.54-4.59-0.82-7-0.82c-2.41,0-4.75,0.28-7,0.83L212.07-113.41z"/>
			<path class="st14" d="M237.76-48.6l8.97,18.88l-18.87-8.97C231.89-41.17,235.28-44.57,237.76-48.6z"/>
			<path class="st14" d="M227.85-90.08l18.88-8.97l-8.97,18.88C235.28-84.2,231.88-87.6,227.85-90.08z"/>
			<path class="st14" d="M241.4-57.39c0.54-2.25,0.82-4.59,0.82-7c0-2.41-0.28-4.75-0.82-6.99l19.69,6.99L241.4-57.39z"/>
			<circle class="st14" cx="212.07" cy="-64.38" r="30.19"/>
		</g>
		<g>
			<g>
				<ellipse class="st13" cx="-2.13" cy="98.2" rx="12.09" ry="11.82"/>
				<ellipse class="st0" cx="-2.13" cy="98.2" rx="2.03" ry="1.99"/>
			</g>
			<g>
				<ellipse class="st13" cx="52.3" cy="97.27" rx="12.09" ry="11.82"/>
				<ellipse class="st0" cx="52.3" cy="97.27" rx="2.03" ry="1.99"/>
			</g>
			<path class="st3" d="M-2.24,98.6c4.38-10.86,8.77-21.71,13.15-32.57"/>
			<path class="st3" d="M27.22,96.68c2.52-10.18,5.04-20.35,7.57-30.53"/>
			<path class="st3" d="M7.34,77.16c6.49,6.81,12.98,13.63,19.47,20.44"/>
			<line class="st3" x1="26.82" y1="97.61" x2="52.38" y2="97.27"/>
			<line class="st3" x1="9.48" y1="72.59" x2="33.3" y2="72.59"/>
			<path class="st3" d="M33.3,72.59c6.33,8.23,12.66,16.45,19,24.68"/>
			<line class="st3" x1="3.34" y1="66.15" x2="1.97" y2="68.25"/>
			<path class="st3" d="M3.34,66.15c2.55-0.03,5.11-0.05,7.66-0.08"/>
			<path class="st3" d="M30.54,65.99c2.83,0,5.67,0,8.5,0"/>
		</g>
		<circle class="st0" cx="26.82" cy="97.72" r="4.19"/>
		<circle class="st18" cx="-60.07" cy="-97.94" r="56.09"/>
	</g>
	<circle class="st19" cx="35.69" cy="45.3" r="297.48"/>
</g>
</svg>
