<?xml version="1.0" encoding="utf-8"?>
<!-- Generator: Adobe Illustrator 24.3.0, SVG Export Plug-In . SVG Version: 6.00 Build 0)  -->
<svg version="1.1" xmlns="http://www.w3.org/2000/svg" xmlns:xlink="http://www.w3.org/1999/xlink" x="0px" y="0px"
	 viewBox="0 0 1125 2436" style="enable-background:new 0 0 1125 2436;" xml:space="preserve">
<style type="text/css">
	.st0{display:none;}
	.st1{display:inline;}
	.st2{fill:#FAC5CC;}
	.st3{enable-background:new    ;}
	.st4{fill:#9A0035;}
	.st5{fill:#A3EABF;}
	.st6{fill:#007554;}
	.st7{fill:#FFE882;}
	.st8{fill:#DBA200;}
	.st9{fill:#DBA300;}
	.st10{fill:#C3EBFF;}
	.st11{fill:#00587A;}
	
		.st12{display:inline;fill:#FFFFFF;stroke:#000000;stroke-width:2;stroke-linecap:round;stroke-linejoin:round;stroke-miterlimit:10;}
	.st13{display:inline;fill:#999999;stroke:#000000;stroke-miterlimit:10;}
	
		.st14{display:inline;fill:#F4DFCC;stroke:#000000;stroke-width:2;stroke-linecap:round;stroke-linejoin:round;stroke-miterlimit:10;}
	.st15{fill:#F4DFCC;stroke:#000000;stroke-width:2;stroke-linecap:round;stroke-linejoin:round;stroke-miterlimit:10;}
	.st16{fill:#C3EBFF;stroke:#000000;stroke-width:2;stroke-linecap:round;stroke-linejoin:round;stroke-miterlimit:10;}
	.st17{fill:none;stroke:#000000;stroke-width:2;stroke-linecap:round;stroke-linejoin:round;stroke-miterlimit:10;}
	
		.st18{display:inline;fill:#C3EBFF;stroke:#000000;stroke-width:2;stroke-linecap:round;stroke-linejoin:round;stroke-miterlimit:10;}
	.st19{fill:#FFFFFF;stroke:#000000;stroke-width:2;stroke-linecap:round;stroke-linejoin:round;stroke-miterlimit:10;}
	.st20{fill:none;stroke:#FFFFFF;stroke-width:2;stroke-linecap:round;stroke-linejoin:round;stroke-miterlimit:10;}
	.st21{display:inline;fill:#C3EBFF;}
	.st22{display:inline;fill:#F4DFCC;}
	.st23{display:inline;fill:#FFE882;stroke:#000000;stroke-width:2;stroke-miterlimit:10;}
	.st24{display:inline;fill:#DBA200;stroke:#000000;stroke-width:2;stroke-miterlimit:10;}
	.st25{display:inline;fill:#FF32B9;stroke:#000000;stroke-width:2;stroke-miterlimit:10;}
	.st26{display:inline;stroke:#000000;stroke-width:2;stroke-miterlimit:10;}
	.st27{display:inline;fill:#DBA200;stroke:#1D1D1B;stroke-width:2;stroke-miterlimit:10;}
	.st28{display:inline;fill:#B1FBFF;stroke:#000000;stroke-width:2;stroke-linecap:round;stroke-miterlimit:10;}
	.st29{fill:#FFE882;stroke:#000000;stroke-width:2;stroke-miterlimit:10;}
	.st30{font-family:'VisitDenmark-Regular';}
	.st31{font-size:14.8085px;}
	.st32{fill:#A3EABF;stroke:#000000;stroke-width:2;stroke-miterlimit:10;}
	.st33{display:inline;fill:none;stroke:#000000;stroke-width:2;stroke-linecap:round;stroke-linejoin:round;stroke-miterlimit:10;}
	.st34{fill:#FAC5CC;stroke:#000000;stroke-width:2;stroke-linecap:round;stroke-miterlimit:10;}
	.st35{display:inline;fill:#F4DFCC;stroke:#000000;stroke-width:2;stroke-linecap:round;stroke-miterlimit:10;}
	.st36{fill:#C3EBFF;stroke:#000000;stroke-width:2;stroke-linecap:round;stroke-miterlimit:10;}
	.st37{font-size:14.5583px;}
	.st38{display:inline;fill:#DBA200;}
	.st39{display:inline;fill:#DF041F;stroke:#1D1D1B;stroke-width:3;stroke-miterlimit:10;}
	.st40{fill:#F4DFCC;}
	.st41{fill:#E6E6E6;stroke:#000000;stroke-width:2;stroke-linecap:round;stroke-linejoin:round;stroke-miterlimit:10;}
	.st42{fill:#EEFBFF;stroke:#000000;stroke-width:2;stroke-linecap:round;stroke-linejoin:round;stroke-miterlimit:10;}
	.st43{clip-path:url(#SVGID_2_);fill:#FFFFFF;}
	.st44{fill:#FFFFFF;stroke:#000000;stroke-width:2;stroke-linecap:round;stroke-miterlimit:10;}
	.st45{fill:#F4DFCC;stroke:#000000;stroke-width:2;stroke-linecap:round;stroke-miterlimit:10;}
	.st46{fill:#C3EBFF;stroke:#000000;stroke-width:2;stroke-miterlimit:10;}
	.st47{fill:#000C17;}
	.st48{font-family:'Montserrat-Regular';}
	.st49{font-size:19.2637px;}
	.st50{font-size:12.8425px;}
	.st51{fill:#022B52;}
	.st52{font-family:'VisitDenmark-Medium';}
	.st53{font-size:25.685px;}
	.st54{fill:none;stroke:#022B52;}
	.st55{fill:#DF041F;stroke:#1D1D1B;stroke-width:2;stroke-miterlimit:10;}
</style>
<g id="Vrstva_1" class="st0">
	<g class="st1">
		<g id="Rectangle_149-4_9_">
			<rect x="102.89" y="1041.33" class="st2" width="77.31" height="77.31"/>
			<path d="M180.86,1119.3h-78.64v-78.64h78.64V1119.3z M103.56,1117.97h75.97v-75.97h-75.97V1117.97z"/>
		</g>
		<g class="st3">
			<path class="st4" d="M126.09,1094.55h4.73v0.63h-4.01v2.46h3.57v0.62h-3.57v2.56h4.15v0.63h-4.88V1094.55z"/>
			<path class="st4" d="M131.46,1096.26h0.73l1.94,4.42l1.96-4.42h0.69l-2.31,5.19h-0.72L131.46,1096.26z"/>
			<path class="st4" d="M142.15,1099.07h-4.34c0.08,1.12,0.95,1.81,2.04,1.81c0.64,0,1.19-0.24,1.59-0.68l0.39,0.45
				c-0.46,0.55-1.17,0.85-2,0.85c-1.6,0-2.72-1.11-2.72-2.64c0-1.46,1.02-2.63,2.53-2.63c1.45,0,2.52,1.09,2.52,2.63L142.15,1099.07
				z M137.81,1098.55h3.68c-0.1-1.03-0.8-1.73-1.85-1.73C138.61,1096.83,137.91,1097.55,137.81,1098.55z"/>
			<path class="st4" d="M143.59,1101.45v-5.19h0.67v0.96c0.38-0.63,1.08-1,1.97-1c1.3,0,2.13,0.77,2.13,2.22v3.01h-0.7v-2.94
				c0-1.08-0.56-1.66-1.56-1.66c-1.11,0-1.81,0.7-1.81,1.87v2.72H143.59z"/>
			<path class="st4" d="M149.47,1096.86v-0.59h0.93v-1.13h0.7v1.13h1.58v0.59h-1.58v3.1c0,0.62,0.32,0.95,0.9,0.95
				c0.29,0,0.57-0.1,0.77-0.27l0.25,0.5c-0.27,0.24-0.67,0.37-1.1,0.37c-0.98,0-1.52-0.55-1.52-1.51v-3.14H149.47z"/>
			<path class="st4" d="M153.56,1100.86l0.32-0.55c0.43,0.35,1.13,0.58,1.84,0.58c0.95,0,1.39-0.31,1.39-0.85
				c0-0.19-0.06-0.35-0.19-0.45c-0.25-0.22-0.6-0.3-1.23-0.4c-0.42-0.08-0.76-0.16-1.02-0.25c-0.51-0.16-0.93-0.53-0.93-1.23
				c0-0.87,0.76-1.48,2.05-1.48c0.67,0,1.4,0.2,1.83,0.48l-0.31,0.56c-0.42-0.3-0.94-0.44-1.53-0.44c-0.9,0-1.35,0.35-1.35,0.86
				c0,0.2,0.07,0.35,0.2,0.47c0.26,0.24,0.59,0.32,1.26,0.43c0.41,0.08,0.75,0.16,1,0.24c0.5,0.16,0.91,0.52,0.91,1.19
				c0,0.91-0.8,1.48-2.14,1.48C154.83,1101.5,153.99,1101.22,153.56,1100.86z"/>
		</g>
		<g>
			<g>
				<path class="st4" d="M158.45,1086.46h-34.47l-0.04-0.71v-23.35l0.71-0.04h4.38v1.8h0.82v-1.8h7.25v1.8h0.82v-1.8h7.25v1.8h0.82
					v-1.8h7.25v1.8h0.82v-1.8h5.05l0.04,0.71v23.35L158.45,1086.46z M125.27,1085.13h32.55v-21.43h-2.42v1.06
					c0,0.41-0.33,0.74-0.74,0.74h-2c-0.41,0-0.74-0.33-0.74-0.74v-1.06h-4.58v1.06c0,0.41-0.33,0.74-0.74,0.74h-2
					c-0.41,0-0.74-0.33-0.74-0.74v-1.06h-4.58v1.06c0,0.41-0.33,0.74-0.74,0.74h-2c-0.41,0-0.74-0.33-0.74-0.74v-1.06h-4.59v1.06
					c0,0.41-0.33,0.74-0.74,0.74h-2c-0.41,0-0.74-0.33-0.74-0.74v-1.06h-2.42V1085.13z"/>
			</g>
			<g>
				<g>
					<path class="st4" d="M154.31,1065.5H153c-0.6,0-1.09-0.49-1.09-1.09v-2.75c0-0.6,0.49-1.09,1.09-1.09h1.31
						c0.6,0,1.09,0.49,1.09,1.09v2.75C155.4,1065.01,154.91,1065.5,154.31,1065.5z M153.24,1064.17h0.82v-2.27h-0.82V1064.17z"/>
				</g>
				<g>
					<path class="st4" d="M130.09,1065.5h-1.31c-0.6,0-1.09-0.49-1.09-1.09v-2.75c0-0.6,0.49-1.09,1.09-1.09h1.31
						c0.6,0,1.09,0.49,1.09,1.09v2.75C131.18,1065.01,130.69,1065.5,130.09,1065.5z M129.03,1064.17h0.82v-2.27h-0.82V1064.17z"/>
				</g>
				<g>
					<path class="st4" d="M138.16,1065.5h-1.31c-0.6,0-1.09-0.49-1.09-1.09v-2.75c0-0.6,0.49-1.09,1.09-1.09h1.31
						c0.6,0,1.09,0.49,1.09,1.09v2.75C139.25,1065.01,138.76,1065.5,138.16,1065.5z M137.1,1064.17h0.82v-2.27h-0.82V1064.17z"/>
				</g>
				<g>
					<path class="st4" d="M146.24,1065.5h-1.31c-0.6,0-1.09-0.49-1.09-1.09v-2.75c0-0.6,0.49-1.09,1.09-1.09h1.31
						c0.6,0,1.09,0.49,1.09,1.09v2.75C147.33,1065.01,146.84,1065.5,146.24,1065.5z M145.17,1064.17h0.82v-2.27h-0.82V1064.17z"/>
				</g>
			</g>
			<g>
				<rect x="124.6" y="1068.06" class="st4" width="33.88" height="1.33"/>
			</g>
			<g>
				<rect x="124.6" y="1066.14" class="st4" width="33.88" height="1.33"/>
			</g>
			<g>
				<g>
					<path class="st4" d="M130.27,1074.29h-1.95c-0.63,0-1.14-0.51-1.14-1.14v-1.95c0-0.63,0.51-1.14,1.14-1.14h1.95
						c0.63,0,1.14,0.51,1.14,1.14v1.95C131.41,1073.77,130.9,1074.29,130.27,1074.29z M128.51,1072.95h1.57v-1.57h-1.57V1072.95z"/>
				</g>
				<g>
					<path class="st4" d="M130.27,1079.05h-1.95c-0.63,0-1.14-0.51-1.14-1.14v-1.95c0-0.63,0.51-1.14,1.14-1.14h1.95
						c0.63,0,1.14,0.51,1.14,1.14v1.95C131.41,1078.54,130.9,1079.05,130.27,1079.05z M128.51,1077.72h1.57v-1.57h-1.57V1077.72z"/>
				</g>
				<g>
					<path class="st4" d="M130.27,1083.82h-1.95c-0.63,0-1.14-0.51-1.14-1.14v-1.95c0-0.63,0.51-1.14,1.14-1.14h1.95
						c0.63,0,1.14,0.51,1.14,1.14v1.95C131.41,1083.31,130.9,1083.82,130.27,1083.82z M128.51,1082.49h1.57v-1.57h-1.57V1082.49z"/>
				</g>
			</g>
			<g>
				<g>
					<path class="st4" d="M136.39,1074.29h-1.95c-0.63,0-1.14-0.51-1.14-1.14v-1.95c0-0.63,0.51-1.14,1.14-1.14h1.95
						c0.63,0,1.14,0.51,1.14,1.14v1.95C137.54,1073.77,137.02,1074.29,136.39,1074.29z M134.64,1072.95h1.57v-1.57h-1.57V1072.95z"
						/>
				</g>
				<g>
					<path class="st4" d="M136.39,1079.05h-1.95c-0.63,0-1.14-0.51-1.14-1.14v-1.95c0-0.63,0.51-1.14,1.14-1.14h1.95
						c0.63,0,1.14,0.51,1.14,1.14v1.95C137.54,1078.54,137.02,1079.05,136.39,1079.05z M134.64,1077.72h1.57v-1.57h-1.57V1077.72z"
						/>
				</g>
				<g>
					<path class="st4" d="M136.39,1083.82h-1.95c-0.63,0-1.14-0.51-1.14-1.14v-1.95c0-0.63,0.51-1.14,1.14-1.14h1.95
						c0.63,0,1.14,0.51,1.14,1.14v1.95C137.54,1083.31,137.02,1083.82,136.39,1083.82z M134.64,1082.49h1.57v-1.57h-1.57V1082.49z"
						/>
				</g>
			</g>
			<g>
				<g>
					<path class="st4" d="M142.52,1074.29h-1.95c-0.63,0-1.14-0.51-1.14-1.14v-1.95c0-0.63,0.51-1.14,1.14-1.14h1.95
						c0.63,0,1.14,0.51,1.14,1.14v1.95C143.66,1073.77,143.15,1074.29,142.52,1074.29z M140.76,1072.95h1.57v-1.57h-1.57V1072.95z"
						/>
				</g>
				<g>
					<path class="st4" d="M142.52,1079.05h-1.95c-0.63,0-1.14-0.51-1.14-1.14v-1.95c0-0.63,0.51-1.14,1.14-1.14h1.95
						c0.63,0,1.14,0.51,1.14,1.14v1.95C143.66,1078.54,143.15,1079.05,142.52,1079.05z M140.76,1077.72h1.57v-1.57h-1.57V1077.72z"
						/>
				</g>
				<g>
					<path class="st4" d="M142.52,1083.82h-1.95c-0.63,0-1.14-0.51-1.14-1.14v-1.95c0-0.63,0.51-1.14,1.14-1.14h1.95
						c0.63,0,1.14,0.51,1.14,1.14v1.95C143.66,1083.31,143.15,1083.82,142.52,1083.82z M140.76,1082.49h1.57v-1.57h-1.57V1082.49z"
						/>
				</g>
			</g>
			<g>
				<g>
					<path class="st4" d="M148.64,1074.29h-1.95c-0.63,0-1.14-0.51-1.14-1.14v-1.95c0-0.63,0.51-1.14,1.14-1.14h1.95
						c0.63,0,1.14,0.51,1.14,1.14v1.95C149.79,1073.77,149.27,1074.29,148.64,1074.29z M146.89,1072.95h1.57v-1.57h-1.57V1072.95z"
						/>
				</g>
				<g>
					<path class="st4" d="M148.64,1079.05h-1.95c-0.63,0-1.14-0.51-1.14-1.14v-1.95c0-0.63,0.51-1.14,1.14-1.14h1.95
						c0.63,0,1.14,0.51,1.14,1.14v1.95C149.79,1078.54,149.27,1079.05,148.64,1079.05z M146.89,1077.72h1.57v-1.57h-1.57V1077.72z"
						/>
				</g>
				<g>
					<path class="st4" d="M148.64,1083.82h-1.95c-0.63,0-1.14-0.51-1.14-1.14v-1.95c0-0.63,0.51-1.14,1.14-1.14h1.95
						c0.63,0,1.14,0.51,1.14,1.14v1.95C149.79,1083.31,149.27,1083.82,148.64,1083.82z M146.89,1082.49h1.57v-1.57h-1.57V1082.49z"
						/>
				</g>
			</g>
			<g>
				<g>
					<path class="st4" d="M154.77,1074.29h-1.95c-0.63,0-1.14-0.51-1.14-1.14v-1.95c0-0.63,0.51-1.14,1.14-1.14h1.95
						c0.63,0,1.14,0.51,1.14,1.14v1.95C155.91,1073.77,155.4,1074.29,154.77,1074.29z M153.01,1072.95h1.57v-1.57h-1.57V1072.95z"/>
				</g>
				<g>
					<path class="st4" d="M154.77,1079.05h-1.95c-0.63,0-1.14-0.51-1.14-1.14v-1.95c0-0.63,0.51-1.14,1.14-1.14h1.95
						c0.63,0,1.14,0.51,1.14,1.14v1.95C155.91,1078.54,155.4,1079.05,154.77,1079.05z M153.01,1077.72h1.57v-1.57h-1.57V1077.72z"/>
				</g>
				<g>
					<path class="st4" d="M154.77,1083.82h-1.95c-0.63,0-1.14-0.51-1.14-1.14v-1.95c0-0.63,0.51-1.14,1.14-1.14h1.95
						c0.63,0,1.14,0.51,1.14,1.14v1.95C155.91,1083.31,155.4,1083.82,154.77,1083.82z M153.01,1082.49h1.57v-1.57h-1.57V1082.49z"/>
				</g>
			</g>
		</g>
	</g>
	<g class="st1">
		<g id="Rectangle_149-3_8_">
			
				<rect x="733.67" y="746.24" transform="matrix(0.3544 -0.9351 0.9351 0.3544 -235.3227 1228.9485)" class="st5" width="77.31" height="77.31"/>
			<path d="M823.02,762.06l-27.87,73.54l-73.54-27.87l27.87-73.53L823.02,762.06z M794.38,833.87l26.92-71.04l-71.04-26.92
				l-26.92,71.04L794.38,833.87z"/>
		</g>
		<g class="st3">
			<path class="st6" d="M782.74,818l-5.34-5.4l0.26-0.67l7.58-0.5l-0.27,0.72l-2.02,0.12l-1.36,3.6l1.43,1.43L782.74,818z
				 M781.12,815.4l1.17-3.1l-4.06,0.24L781.12,815.4z"/>
			<path class="st6" d="M781,809.62l-0.55-0.21l0.33-0.87l-1.06-0.4l0.25-0.65l1.06,0.4l0.56-1.48l0.55,0.21l-0.56,1.48l2.9,1.1
				c0.58,0.22,1,0.04,1.2-0.5c0.1-0.27,0.11-0.57,0.02-0.81l0.56-0.05c0.13,0.33,0.1,0.76-0.05,1.15c-0.35,0.91-1.05,1.22-1.95,0.89
				l-2.93-1.11L781,809.62z"/>
			<path class="st6" d="M782.37,806l-0.55-0.21l0.33-0.87l-1.06-0.4l0.25-0.65l1.06,0.4l0.56-1.48l0.55,0.21l-0.56,1.48l2.9,1.1
				c0.58,0.22,1,0.04,1.2-0.5c0.1-0.27,0.11-0.57,0.02-0.81l0.56-0.05c0.13,0.33,0.1,0.76-0.05,1.15c-0.35,0.91-1.05,1.22-1.95,0.89
				l-2.93-1.11L782.37,806z"/>
			<path class="st6" d="M784.71,801.02c-0.54-0.55-0.64-1.3-0.3-2.19l0.64,0.24l-0.07,0.15c-0.39,1.02,0.04,1.88,1.17,2.31
				l2.47,0.94l-0.25,0.66l-4.85-1.84l0.24-0.63L784.71,801.02z"/>
			<path class="st6" d="M788.23,799.39c-0.82-0.31-1.16-1.09-0.67-2.39l0.58-1.54l-0.3-0.11c-0.84-0.32-1.46-0.01-1.8,0.89
				c-0.23,0.62-0.25,1.29-0.04,1.83l-0.6,0.11c-0.23-0.65-0.2-1.46,0.09-2.22c0.48-1.26,1.38-1.72,2.63-1.25l3.01,1.14l-0.24,0.63
				l-0.76-0.29c0.4,0.49,0.47,1.19,0.17,1.97C789.9,799.24,789.08,799.72,788.23,799.39z M789.83,797.86
				c0.28-0.74,0.14-1.42-0.4-1.91l-0.79-0.3l-0.58,1.52c-0.31,0.83-0.19,1.35,0.4,1.57C789.02,798.96,789.54,798.64,789.83,797.86z"
				/>
			<path class="st6" d="M789.21,793.61c-1.43-0.54-2.07-1.98-1.52-3.43c0.32-0.84,0.91-1.4,1.68-1.54l0.15,0.62
				c-0.6,0.14-1.03,0.56-1.25,1.14c-0.4,1.06,0.07,2.13,1.2,2.55c1.13,0.43,2.18-0.06,2.59-1.12c0.22-0.58,0.18-1.18-0.18-1.68
				l0.52-0.36c0.48,0.62,0.55,1.44,0.24,2.26C792.09,793.48,790.67,794.17,789.21,793.61z"/>
			<path class="st6" d="M789.2,787.98l-0.55-0.21l0.33-0.87l-1.06-0.4l0.25-0.65l1.06,0.4l0.56-1.48l0.55,0.21l-0.56,1.48l2.9,1.1
				c0.58,0.22,1,0.04,1.2-0.5c0.1-0.27,0.11-0.57,0.02-0.81l0.56-0.05c0.13,0.33,0.1,0.76-0.05,1.15c-0.35,0.91-1.05,1.22-1.95,0.89
				l-2.93-1.11L789.2,787.98z"/>
			<path class="st6" d="M788.77,782.83c-0.25-0.09-0.38-0.39-0.28-0.65c0.1-0.27,0.38-0.4,0.63-0.31c0.27,0.1,0.4,0.39,0.3,0.66
				C789.32,782.8,789.03,782.93,788.77,782.83z M790.36,783.26l0.25-0.66l4.85,1.84l-0.25,0.66L790.36,783.26z"/>
			<path class="st6" d="M793.54,782.19c-1.41-0.53-2.07-1.97-1.53-3.41c0.54-1.42,1.95-2.08,3.4-1.53c1.42,0.54,2.09,1.95,1.54,3.4
				C796.42,782.05,794.95,782.72,793.54,782.19z M795.16,777.92c-1.13-0.43-2.18,0.04-2.57,1.08c-0.39,1.03,0.08,2.1,1.21,2.52
				c1.13,0.43,2.18-0.06,2.58-1.09C796.76,779.39,796.28,778.34,795.16,777.92z"/>
			<path class="st6" d="M798.34,776.83l-4.85-1.84l0.24-0.63l0.89,0.34c-0.45-0.58-0.55-1.36-0.23-2.2
				c0.46-1.22,1.47-1.72,2.83-1.21l2.81,1.07l-0.25,0.65l-2.75-1.04c-1.01-0.38-1.75-0.06-2.1,0.87c-0.39,1.04,0.01,1.94,1.11,2.36
				l2.55,0.96L798.34,776.83z"/>
			<path class="st6" d="M799.9,771.05l-0.4-0.49c0.48-0.28,0.95-0.85,1.2-1.52c0.34-0.89,0.21-1.41-0.3-1.6
				c-0.18-0.07-0.34-0.07-0.49,0.01c-0.29,0.15-0.49,0.46-0.82,1.01c-0.22,0.37-0.42,0.65-0.59,0.86c-0.33,0.42-0.83,0.68-1.48,0.43
				c-0.81-0.31-1.11-1.23-0.66-2.44c0.24-0.63,0.68-1.24,1.1-1.54l0.42,0.49c-0.43,0.29-0.75,0.72-0.96,1.27
				c-0.32,0.84-0.16,1.39,0.32,1.57c0.18,0.07,0.36,0.06,0.51-0.02c0.31-0.16,0.51-0.44,0.85-1.03c0.22-0.36,0.41-0.65,0.57-0.85
				c0.33-0.41,0.81-0.66,1.44-0.43c0.85,0.32,1.1,1.27,0.63,2.53C800.95,770.09,800.4,770.77,799.9,771.05z"/>
		</g>
		<g>
			<g>
				<path class="st6" d="M785.76,771.77l-12.07,31.85c-0.13,0.34-0.52,0.52-0.86,0.39l-2.11-0.8c-0.34-0.13-0.52-0.51-0.39-0.86
					l12.07-31.85c0.13-0.34,0.52-0.52,0.86-0.39l2.11,0.8C785.71,771.04,785.89,771.42,785.76,771.77z M772.67,802.53l11.6-30.61
					l-0.87-0.33l-11.6,30.61L772.67,802.53z"/>
			</g>
			<g>
				<path class="st6" d="M782.87,773.02l-10.52,27.75c-0.13,0.34-0.52,0.52-0.86,0.39l-1.75-0.66c-0.34-0.13-0.52-0.51-0.39-0.86
					l10.52-27.75c0.13-0.34,0.52-0.52,0.86-0.39l1.75,0.66C782.82,772.29,783,772.67,782.87,773.02z M771.34,799.67l10.04-26.5
					l-0.5-0.19l-10.04,26.5L771.34,799.67z"/>
			</g>
			<g>
				<path class="st6" d="M763.18,765.81l-10.35,27.31c-0.12,0.31-0.44,0.48-0.76,0.42c-0.32-0.07-0.55-0.36-0.53-0.68l0.74-15.33
					c0.01-0.14,0.06-0.27,0.15-0.38l9.61-11.97c0.21-0.26,0.57-0.32,0.85-0.16C763.18,765.16,763.3,765.51,763.18,765.81z
					 M753.08,788.71l7.36-19.43l-6.84,8.52L753.08,788.71z"/>
			</g>
			<g>
				<path class="st6" d="M765.66,766.69l-10.39,27.42c-0.13,0.34-0.52,0.52-0.86,0.39l-2.45-0.93c-0.34-0.13-0.52-0.51-0.39-0.86
					l10.39-27.42c0.13-0.34,0.52-0.52,0.86-0.39l2.45,0.93C765.61,765.96,765.79,766.34,765.66,766.69z M754.25,793.01l9.92-26.17
					l-1.2-0.46l-9.92,26.17L754.25,793.01z"/>
			</g>
			<g>
				<g>
					<path class="st6" d="M771.49,795.6l-0.65,1.72c-0.13,0.34-0.52,0.52-0.86,0.39l-13.27-5.03c-0.34-0.13-0.52-0.51-0.39-0.86
						l0.65-1.72c0.13-0.34,0.52-0.52,0.86-0.39l13.27,5.03C771.45,794.87,771.62,795.26,771.49,795.6z M769.83,796.23l0.18-0.47
						l-12.02-4.56l-0.18,0.47L769.83,796.23z"/>
				</g>
				<g>
					<path class="st6" d="M757.84,789.44l-1.31,3.46c-0.13,0.34-0.52,0.52-0.86,0.39l-0.71-0.27c-0.34-0.13-0.52-0.51-0.39-0.86
						l1.31-3.46c0.13-0.34,0.52-0.52,0.86-0.39l0.71,0.27C757.8,788.71,757.98,789.09,757.84,789.44z"/>
				</g>
				<g>
					<path class="st6" d="M772.53,795l-1.31,3.46c-0.13,0.34-0.52,0.52-0.86,0.39l-0.71-0.27c-0.34-0.13-0.52-0.51-0.39-0.86
						l1.31-3.46c0.13-0.34,0.52-0.52,0.86-0.39l0.71,0.27C772.49,794.28,772.67,794.66,772.53,795z"/>
				</g>
				<g>
					<path class="st6" d="M758.41,790.1l-1.01,2.67c-0.13,0.34-0.52,0.52-0.86,0.39l-0.71-0.27c-0.34-0.13-0.52-0.51-0.39-0.86
						l1.01-2.67c0.13-0.34,0.52-0.52,0.86-0.39l0.71,0.27C758.36,789.37,758.54,789.76,758.41,790.1z"/>
				</g>
			</g>
			<g>
				<g>
					<path class="st6" d="M774.16,788.56l-0.65,1.72c-0.13,0.34-0.52,0.52-0.86,0.39l-13.27-5.03c-0.34-0.13-0.52-0.51-0.39-0.86
						l0.65-1.72c0.13-0.34,0.52-0.52,0.86-0.39l13.27,5.03C774.12,787.84,774.29,788.22,774.16,788.56z M772.5,789.19l0.18-0.47
						l-12.02-4.56l-0.18,0.47L772.5,789.19z"/>
				</g>
				<g>
					<path class="st6" d="M760.51,782.4l-1.31,3.46c-0.13,0.34-0.52,0.52-0.86,0.39l-0.71-0.27c-0.34-0.13-0.52-0.51-0.39-0.86
						l1.31-3.46c0.13-0.34,0.52-0.52,0.86-0.39l0.71,0.27C760.47,781.67,760.64,782.05,760.51,782.4z"/>
				</g>
				<g>
					<path class="st6" d="M777.87,780.93l-1.31,3.46c-0.13,0.34-0.52,0.52-0.86,0.39l-0.71-0.27c-0.34-0.13-0.52-0.51-0.39-0.86
						l1.31-3.46c0.13-0.34,0.52-0.52,0.86-0.39l0.71,0.27C777.83,780.2,778,780.58,777.87,780.93z"/>
				</g>
				<g>
					<path class="st6" d="M780.54,773.89l-1.31,3.46c-0.13,0.34-0.52,0.52-0.86,0.39l-0.71-0.27c-0.34-0.13-0.52-0.51-0.39-0.86
						l1.31-3.46c0.13-0.34,0.52-0.52,0.86-0.39l0.71,0.27C780.49,773.16,780.67,773.54,780.54,773.89z"/>
				</g>
				<g>
					<path class="st6" d="M775.2,787.97l-1.31,3.46c-0.13,0.34-0.52,0.52-0.86,0.39l-0.71-0.27c-0.34-0.13-0.52-0.51-0.39-0.86
						l1.31-3.46c0.13-0.34,0.52-0.52,0.86-0.39l0.71,0.27C775.16,787.24,775.33,787.62,775.2,787.97z"/>
				</g>
				<g>
					<path class="st6" d="M761.07,783.07l-1.01,2.67c-0.13,0.34-0.52,0.52-0.86,0.39l-0.71-0.27c-0.34-0.13-0.52-0.51-0.39-0.86
						l1.01-2.67c0.13-0.34,0.52-0.52,0.86-0.39l0.71,0.27C761.03,782.34,761.2,782.72,761.07,783.07z"/>
				</g>
			</g>
			<g>
				<g>
					<path class="st6" d="M776.83,781.53l-0.65,1.72c-0.13,0.34-0.52,0.52-0.86,0.39l-13.27-5.03c-0.34-0.13-0.52-0.51-0.39-0.86
						l0.65-1.72c0.13-0.34,0.52-0.52,0.86-0.39l13.27,5.03C776.79,780.8,776.96,781.18,776.83,781.53z M775.17,782.15l0.18-0.47
						l-12.02-4.56l-0.18,0.47L775.17,782.15z"/>
				</g>
				<g>
					<path class="st6" d="M763.18,775.36l-1.31,3.46c-0.13,0.34-0.52,0.52-0.86,0.39l-0.71-0.27c-0.34-0.13-0.52-0.51-0.39-0.86
						l1.31-3.46c0.13-0.34,0.52-0.52,0.86-0.39l0.71,0.27C763.14,774.63,763.31,775.02,763.18,775.36z"/>
				</g>
				<g>
					<path class="st6" d="M766.41,768.99l-1.01,2.66c-0.13,0.34-0.52,0.52-0.86,0.39l-0.71-0.27c-0.34-0.13-0.52-0.51-0.39-0.86
						l1.01-2.66c0.13-0.34,0.52-0.52,0.86-0.39l0.71,0.27C766.36,768.26,766.54,768.65,766.41,768.99z"/>
				</g>
				<g>
					<path class="st6" d="M763.74,776.03l-1.01,2.66c-0.13,0.34-0.52,0.52-0.86,0.39l-0.71-0.27c-0.34-0.13-0.52-0.51-0.39-0.86
						l1.01-2.66c0.13-0.34,0.52-0.52,0.86-0.39l0.71,0.27C763.7,775.3,763.87,775.68,763.74,776.03z"/>
				</g>
			</g>
			<g>
				<g>
					<path class="st6" d="M779.5,774.49l-0.65,1.72c-0.13,0.34-0.52,0.52-0.86,0.39l-13.27-5.03c-0.34-0.13-0.52-0.51-0.39-0.86
						l0.65-1.72c0.13-0.34,0.52-0.52,0.86-0.39l13.27,5.03C779.45,773.76,779.63,774.14,779.5,774.49z M777.83,775.11l0.18-0.47
						l-12.02-4.56l-0.18,0.47L777.83,775.11z"/>
				</g>
				<g>
					<path class="st6" d="M765.85,768.32l-1.31,3.46c-0.13,0.34-0.52,0.52-0.86,0.39l-0.71-0.27c-0.34-0.13-0.52-0.51-0.39-0.86
						l1.31-3.46c0.13-0.34,0.52-0.52,0.86-0.39l0.71,0.27C765.8,767.59,765.98,767.98,765.85,768.32z"/>
				</g>
			</g>
			<g>
				<path class="st6" d="M754.05,777.96c-0.24,0.62,0.08,1.32,0.7,1.55s1.32-0.08,1.55-0.7c0.24-0.62-0.08-1.32-0.7-1.55
					C754.98,777.03,754.28,777.34,754.05,777.96L754.05,777.96z"/>
			</g>
		</g>
	</g>
	<g class="st1">
		<g id="Rectangle_149_8_">
			
				<rect x="944.16" y="1554.53" transform="matrix(0.1858 -0.9826 0.9826 0.1858 -765.2728 2262.783)" class="st7" width="77.31" height="77.31"/>
			<path d="M1014.14,1639.13l-77.27-14.61l14.61-77.27l77.27,14.61L1014.14,1639.13z M938.43,1623.45l74.65,14.12l14.12-74.65
				l-74.65-14.12L938.43,1623.45z"/>
		</g>
		<g class="st3">
			<path class="st8" d="M950.08,1603.5l2.54,0.48c1.49,0.28,2.64,1.2,2.33,2.85c-0.31,1.64-1.73,2.07-3.21,1.79l-1.82-0.34
				l-0.41,2.14l-0.72-0.14L950.08,1603.5z M950.04,1607.65l1.8,0.34c1.35,0.25,2.19-0.22,2.39-1.29c0.21-1.1-0.4-1.84-1.75-2.1
				l-1.8-0.34L950.04,1607.65z"/>
			<path class="st8" d="M956.97,1604.38l0.69,0.13l-1.36,7.19l-0.69-0.13L956.97,1604.38z"/>
			<path class="st8" d="M958.06,1610.55c0.16-0.86,0.87-1.33,2.24-1.07l1.62,0.31l0.06-0.31c0.17-0.88-0.25-1.44-1.19-1.62
				c-0.65-0.12-1.31-0.02-1.81,0.28l-0.21-0.57c0.6-0.34,1.4-0.45,2.2-0.3c1.33,0.25,1.94,1.06,1.69,2.37l-0.6,3.16l-0.66-0.12
				l0.15-0.79c-0.41,0.47-1.09,0.67-1.91,0.51C958.51,1612.17,957.9,1611.44,958.06,1610.55z M959.85,1611.86
				c0.78,0.15,1.42-0.11,1.81-0.73l0.16-0.83l-1.6-0.3c-0.87-0.16-1.37,0.05-1.48,0.66
				C958.64,1611.25,959.04,1611.71,959.85,1611.86z"/>
			<path class="st8" d="M963.93,1610.5c0.28-1.5,1.58-2.38,3.12-2.09c0.88,0.17,1.53,0.65,1.81,1.39l-0.58,0.25
				c-0.24-0.57-0.73-0.92-1.34-1.04c-1.11-0.21-2.08,0.44-2.31,1.62c-0.23,1.19,0.44,2.14,1.55,2.35c0.61,0.12,1.19-0.03,1.62-0.47
				l0.45,0.45c-0.52,0.58-1.33,0.79-2.19,0.63C964.56,1613.31,963.64,1612.05,963.93,1610.5z"/>
			<path class="st8" d="M974.3,1612.69l-4.26-0.81c-0.13,1.12,0.59,1.95,1.67,2.15c0.63,0.12,1.22-0.01,1.69-0.37l0.3,0.52
				c-0.56,0.46-1.31,0.62-2.13,0.46c-1.57-0.3-2.47-1.6-2.18-3.1c0.27-1.43,1.49-2.4,2.98-2.12c1.42,0.27,2.27,1.54,1.98,3.06
				L974.3,1612.69z M970.13,1611.37l3.62,0.68c0.09-1.03-0.46-1.84-1.49-2.04C971.24,1609.82,970.42,1610.4,970.13,1611.37z"/>
			<path class="st8" d="M974.68,1614.58l0.41-0.48c0.36,0.42,1.01,0.78,1.7,0.91c0.93,0.18,1.42-0.04,1.52-0.58
				c0.03-0.18,0.01-0.35-0.1-0.48c-0.2-0.26-0.54-0.4-1.14-0.63c-0.4-0.16-0.72-0.3-0.95-0.43c-0.47-0.25-0.81-0.7-0.68-1.38
				c0.16-0.85,1.02-1.31,2.29-1.07c0.66,0.12,1.34,0.45,1.71,0.82l-0.4,0.5c-0.36-0.37-0.84-0.61-1.42-0.72
				c-0.88-0.17-1.39,0.09-1.49,0.59c-0.04,0.19,0,0.36,0.11,0.5c0.21,0.28,0.52,0.42,1.16,0.66c0.39,0.15,0.71,0.29,0.93,0.42
				c0.46,0.25,0.79,0.68,0.67,1.34c-0.17,0.89-1.06,1.31-2.38,1.06C975.81,1615.44,975.04,1615.02,974.68,1614.58z"/>
			<path class="st8" d="M982.62,1612l0.11-0.58l0.91,0.17l0.21-1.11l0.69,0.13l-0.21,1.11l1.55,0.29l-0.11,0.58l-1.55-0.29
				l-0.58,3.04c-0.12,0.61,0.13,0.99,0.71,1.1c0.28,0.05,0.58,0.01,0.81-0.12l0.15,0.54c-0.31,0.18-0.73,0.23-1.14,0.16
				c-0.96-0.18-1.39-0.83-1.21-1.77l0.58-3.08L982.62,1612z"/>
			<path class="st8" d="M986.28,1614.73c0.28-1.48,1.58-2.38,3.09-2.1c1.49,0.28,2.39,1.56,2.1,3.08c-0.28,1.49-1.56,2.4-3.08,2.11
				C986.92,1617.54,986,1616.22,986.28,1614.73z M990.77,1615.58c0.22-1.18-0.42-2.14-1.51-2.34c-1.09-0.21-2.05,0.45-2.28,1.63
				s0.44,2.14,1.52,2.35C989.6,1617.42,990.54,1616.76,990.77,1615.58z"/>
			<path class="st8" d="M999.81,1617.51l-4.26-0.81c-0.13,1.12,0.59,1.95,1.67,2.15c0.63,0.12,1.22-0.01,1.69-0.37l0.3,0.52
				c-0.56,0.46-1.31,0.62-2.13,0.46c-1.57-0.3-2.47-1.6-2.18-3.1c0.27-1.43,1.49-2.4,2.98-2.12c1.42,0.27,2.27,1.54,1.98,3.06
				L999.81,1617.51z M995.64,1616.19l3.62,0.68c0.09-1.03-0.46-1.84-1.49-2.04C996.75,1614.64,995.93,1615.22,995.64,1616.19z"/>
			<path class="st8" d="M1000.49,1618.57c0.16-0.86,0.87-1.33,2.24-1.07l1.62,0.31l0.06-0.31c0.17-0.88-0.25-1.44-1.19-1.62
				c-0.65-0.12-1.31-0.02-1.81,0.28l-0.21-0.57c0.6-0.34,1.4-0.45,2.2-0.3c1.33,0.25,1.94,1.06,1.69,2.37l-0.6,3.16l-0.66-0.12
				l0.15-0.79c-0.41,0.47-1.09,0.67-1.91,0.51C1000.93,1620.19,1000.32,1619.47,1000.49,1618.57z M1002.28,1619.89
				c0.78,0.15,1.42-0.11,1.81-0.73l0.16-0.83l-1.6-0.3c-0.87-0.17-1.37,0.05-1.48,0.66
				C1001.06,1619.27,1001.46,1619.73,1002.28,1619.89z"/>
			<path class="st8" d="M1006.42,1616.5l0.11-0.58l0.91,0.17l0.21-1.11l0.69,0.13l-0.21,1.11l1.55,0.29l-0.11,0.58l-1.55-0.29
				l-0.58,3.04c-0.12,0.61,0.13,0.99,0.71,1.1c0.28,0.05,0.58,0.01,0.81-0.12l0.15,0.54c-0.31,0.18-0.73,0.23-1.14,0.16
				c-0.96-0.18-1.39-0.83-1.21-1.77l0.58-3.08L1006.42,1616.5z"/>
		</g>
		<g>
			<g>
				<path class="st9" d="M986.9,1579.28c-0.01,0-0.02,0-0.04-0.01c-0.9-0.22-1.82-0.4-2.73-0.52c-0.27-0.04-0.49-0.23-0.56-0.49
					c-0.08-0.32-0.09-0.64-0.03-0.97c0.23-1.21,1.4-2.01,2.62-1.79c1.21,0.23,2.01,1.4,1.79,2.62c-0.06,0.32-0.19,0.62-0.38,0.89
					C987.41,1579.22,987.15,1579.33,986.9,1579.28z M985.91,1576.82c-0.48-0.09-0.95,0.22-1.05,0.7c0.6,0.09,1.19,0.21,1.78,0.34
					C986.71,1577.37,986.39,1576.91,985.91,1576.82z"/>
			</g>
			<g>
				<path class="st9" d="M998.71,1598.47l-32.63-6.17c-0.36-0.07-0.6-0.42-0.53-0.78c1.72-9.07,10.22-15.17,19.36-13.9
					c0.54,0.07,1.1,0.18,1.64,0.31c8.97,2.14,14.66,10.93,12.94,20C999.42,1598.3,999.08,1598.54,998.71,1598.47z M967,1591.11
					l31.3,5.92c1.2-8.14-3.99-15.88-12.06-17.8c-0.51-0.13-1.01-0.22-1.51-0.29C976.65,1577.82,968.84,1583.24,967,1591.11z"/>
			</g>
			<g>
				<path class="st9" d="M996.72,1602.44l-30.24-5.72c-0.05-0.01-0.1-0.02-0.14-0.04c-0.63-0.28-1.19-0.67-1.68-1.16
					c-0.73-0.75-1.1-1.58-1.29-2.14c-0.07-0.22-0.02-0.47,0.13-0.65c0.16-0.18,0.39-0.26,0.62-0.21l36.31,6.87
					c0.23,0.04,0.42,0.21,0.5,0.43c0.08,0.22,0.04,0.47-0.11,0.65c-0.54,0.66-1.23,1.18-1.98,1.52c-0.63,0.29-1.3,0.44-1.98,0.47
					C996.82,1602.45,996.77,1602.45,996.72,1602.44z M966.81,1595.42l30.08,5.69c0.49-0.03,0.96-0.14,1.41-0.35
					c0.2-0.09,0.4-0.2,0.59-0.33l-33.7-6.37c0.12,0.17,0.26,0.35,0.43,0.52C965.97,1594.94,966.37,1595.22,966.81,1595.42z"/>
			</g>
		</g>
	</g>
	<g class="st1">
		<g id="Rectangle_149-2_7_">
			
				<rect x="807.46" y="1209.54" transform="matrix(0.9934 -0.1144 0.1144 0.9934 -137.2149 104.9694)" class="st10" width="77.31" height="77.31"/>
			<path d="M889.67,1282.76l-78.12,8.99l-8.99-78.12l78.12-8.99L889.67,1282.76z M812.72,1290.27l75.47-8.69l-8.69-75.47
				l-75.47,8.69L812.72,1290.27z"/>
		</g>
		<g class="st3">
			<path class="st11" d="M826.68,1271.9l2.31-7.1l0.7-0.08l3.87,6.39l-0.75,0.09l-1.02-1.71l-3.77,0.43l-0.6,1.9L826.68,1271.9z
				 M828.23,1269.31l3.24-0.37l-2.04-3.44L828.23,1269.31z"/>
			<path class="st11" d="M833.74,1268.52c-0.17-1.49,0.8-2.7,2.32-2.87c0.88-0.1,1.63,0.16,2.1,0.77l-0.47,0.41
				c-0.4-0.46-0.96-0.65-1.56-0.58c-1.11,0.13-1.83,1.02-1.69,2.2c0.14,1.19,1.04,1.88,2.15,1.75c0.61-0.07,1.11-0.37,1.39-0.91
				l0.55,0.29c-0.32,0.7-1.01,1.13-1.87,1.23C835.16,1270.98,833.91,1270.06,833.74,1268.52z"/>
			<path class="st11" d="M838.67,1265.97l-0.07-0.58l0.91-0.1l-0.13-1.11l0.69-0.08l0.13,1.11l1.55-0.18l0.07,0.58l-1.55,0.18
				l0.35,3.03c0.07,0.61,0.42,0.89,0.99,0.82c0.28-0.03,0.55-0.16,0.72-0.35l0.3,0.46c-0.23,0.26-0.62,0.43-1.03,0.48
				c-0.96,0.11-1.55-0.37-1.66-1.3l-0.35-3.06L838.67,1265.97z"/>
			<path class="st11" d="M842.97,1263.27c-0.03-0.26,0.17-0.51,0.45-0.54c0.28-0.03,0.53,0.15,0.56,0.41
				c0.03,0.28-0.16,0.53-0.44,0.56C843.25,1263.74,843.01,1263.54,842.97,1263.27z M843.31,1264.85l0.69-0.08l0.58,5.07l-0.69,0.08
				L843.31,1264.85z"/>
			<path class="st11" d="M844.96,1264.66l0.71-0.08l2.4,4.1l1.43-4.54l0.68-0.08l-1.68,5.33l-0.71,0.08L844.96,1264.66z"/>
			<path class="st11" d="M850.8,1262.37c-0.03-0.26,0.17-0.51,0.45-0.54c0.28-0.03,0.53,0.15,0.56,0.41
				c0.03,0.28-0.16,0.53-0.44,0.56C851.08,1262.84,850.83,1262.64,850.8,1262.37z M851.14,1263.95l0.69-0.08l0.58,5.07l-0.69,0.08
				L851.14,1263.95z"/>
			<path class="st11" d="M853.01,1264.32l-0.07-0.58l0.91-0.1l-0.13-1.11l0.69-0.08l0.13,1.11l1.55-0.18l0.07,0.58l-1.55,0.18
				l0.35,3.03c0.07,0.61,0.42,0.89,0.99,0.82c0.28-0.03,0.55-0.16,0.72-0.35l0.3,0.46c-0.23,0.26-0.62,0.43-1.03,0.48
				c-0.96,0.11-1.55-0.37-1.66-1.3l-0.35-3.06L853.01,1264.32z"/>
			<path class="st11" d="M857.32,1261.62c-0.03-0.26,0.17-0.51,0.45-0.54c0.28-0.03,0.53,0.15,0.56,0.41
				c0.03,0.28-0.16,0.53-0.44,0.56C857.6,1262.08,857.35,1261.89,857.32,1261.62z M857.66,1263.2l0.69-0.08l0.58,5.07l-0.69,0.08
				L857.66,1263.2z"/>
			<path class="st11" d="M864.99,1265.14l-4.25,0.49c0.2,1.09,1.13,1.66,2.2,1.53c0.63-0.07,1.14-0.37,1.48-0.84l0.44,0.4
				c-0.39,0.59-1.05,0.96-1.86,1.05c-1.56,0.18-2.79-0.78-2.96-2.28c-0.16-1.43,0.7-2.69,2.19-2.86c1.42-0.16,2.59,0.79,2.76,2.29
				L864.99,1265.14z M860.69,1265.12l3.6-0.41c-0.21-0.99-0.98-1.6-2-1.48C861.27,1263.34,860.67,1264.12,860.69,1265.12z"/>
			<path class="st11" d="M865.9,1266.8l0.25-0.58c0.46,0.29,1.18,0.44,1.87,0.36c0.93-0.11,1.33-0.46,1.27-0.99
				c-0.02-0.18-0.1-0.33-0.23-0.42c-0.27-0.18-0.62-0.22-1.25-0.26c-0.42-0.03-0.76-0.07-1.02-0.13c-0.52-0.1-0.97-0.42-1.05-1.1
				c-0.1-0.85,0.58-1.53,1.84-1.68c0.66-0.08,1.39,0.04,1.85,0.27l-0.24,0.58c-0.45-0.24-0.97-0.33-1.55-0.26
				c-0.88,0.1-1.28,0.49-1.23,0.99c0.02,0.19,0.11,0.34,0.25,0.44c0.28,0.2,0.61,0.24,1.28,0.28c0.41,0.03,0.75,0.07,1,0.12
				c0.51,0.1,0.95,0.41,1.02,1.06c0.1,0.89-0.62,1.54-1.93,1.69C867.22,1267.29,866.36,1267.11,865.9,1266.8z"/>
		</g>
		<g>
			<g>
				<path class="st11" d="M843.71,1239.58l-9,1.04c-0.23,0.03-0.46-0.02-0.67-0.13l-2.43-1.29c-0.36-0.19-0.61-0.56-0.67-0.98
					c-0.06-0.42,0.08-0.84,0.37-1.13l2.06-2.02c0.19-0.18,0.42-0.3,0.68-0.33l8.98-1.03c0.37-0.04,0.7,0.22,0.74,0.59l0.52,4.54
					C844.34,1239.21,844.08,1239.54,843.71,1239.58z M834.61,1239.29l8.28-0.95l-0.37-3.22l-8.26,0.95l-2.02,1.98L834.61,1239.29z"
					/>
			</g>
			<g>
				<path class="st11" d="M848.67,1257.07c-0.37,0.04-0.7-0.22-0.74-0.59l-2.12-18.44c-0.04-0.37,0.22-0.7,0.59-0.74
					c0.37-0.04,0.7,0.22,0.74,0.59l2.12,18.44C849.3,1256.69,849.04,1257.02,848.67,1257.07z"/>
			</g>
			<g>
				<path class="st11" d="M843.19,1235.04c-0.37,0.04-0.7-0.22-0.74-0.59l-0.9-7.79c-0.04-0.37,0.22-0.7,0.59-0.74l2.91-0.34
					c0.37-0.04,0.7,0.22,0.74,0.59l0.27,2.31c0.04,0.37-0.22,0.7-0.59,0.74s-0.7-0.22-0.74-0.59l-0.19-1.65l-1.59,0.18l0.82,7.13
					C843.82,1234.67,843.55,1235,843.19,1235.04z"/>
			</g>
			<g>
				<path class="st11" d="M846.55,1238.63c-0.37,0.04-0.7-0.22-0.74-0.59l-0.56-4.86c-0.04-0.37,0.22-0.7,0.59-0.74
					c0.37-0.04,0.7,0.22,0.74,0.59l0.56,4.86C847.18,1238.26,846.92,1238.59,846.55,1238.63z"/>
			</g>
			<g>
				<path class="st11" d="M845.76,1257.4c-0.37,0.04-0.7-0.22-0.74-0.59l-2.05-17.82c-0.04-0.37,0.22-0.7,0.59-0.74
					c0.37-0.04,0.7,0.22,0.74,0.59l2.05,17.82C846.39,1257.03,846.13,1257.36,845.76,1257.4z"/>
			</g>
			<g>
				<path class="st11" d="M849.8,1256.94c-0.02,0-0.04,0-0.05,0c-0.37,0.01-0.68-0.27-0.69-0.64c-0.02-0.58,0.05-2.07,1.15-3.35
					c0.54-0.63,1.24-1.1,2.04-1.38c0.35-0.12,0.73,0.06,0.85,0.41c0.12,0.35-0.06,0.73-0.41,0.85c-0.4,0.14-0.99,0.43-1.47,1
					c-0.79,0.92-0.85,2.01-0.83,2.44C850.4,1256.6,850.14,1256.9,849.8,1256.94z"/>
			</g>
			<g>
				<path class="st11" d="M843.82,1257.62c-0.02,0-0.04,0-0.06,0c-0.37,0.01-0.68-0.28-0.69-0.65c-0.01-0.26-0.07-0.76-0.42-1.24
					c-0.29-0.4-0.66-0.61-0.91-0.72c-0.34-0.14-0.5-0.54-0.35-0.87c0.14-0.34,0.53-0.49,0.87-0.35c0.41,0.17,0.99,0.52,1.46,1.16
					c0.56,0.77,0.67,1.58,0.68,1.99C844.42,1257.29,844.16,1257.58,843.82,1257.62z"/>
			</g>
			<g>
				<path class="st11" d="M854.88,1232.74l-11.27,1.3c-0.66,0.08-1.26-0.44-1.34-1.14l-0.38-3.31c-0.08-0.71,0.39-1.34,1.05-1.42
					l11.25-1.3c0.25-0.03,0.52,0.03,0.74,0.17l2.45,1.5c0.35,0.21,0.57,0.59,0.61,1.02c0.04,0.42-0.12,0.83-0.42,1.1l-2.05,1.8
					C855.33,1232.62,855.11,1232.72,854.88,1232.74z M843.59,1232.7l11.08-1.28l2.01-1.77l-2.4-1.45l-11.06,1.27L843.59,1232.7z
					 M854.23,1228.18C854.23,1228.18,854.23,1228.18,854.23,1228.18L854.23,1228.18z"/>
			</g>
		</g>
	</g>
	<path class="st12" d="M605.75,829.12c5.03-8.76,16.29-6.57,32.14-10.99c31.82-8.9,32.32-30.57,58.36-33.83
		c10.71-1.34,7.65,2.69,37.21,6.77c28.19,3.88,42.56,5.68,55.82-1.69c12.43-6.91,10.7-14.29,24.53-20.3
		c2.14-0.93,18.04-7.58,33.83-1.69c15.7,5.86,13.49,17.47,27.91,28.76c15.63,12.23,37.48,12.66,81.19,13.53
		c13.68,0.27,25.55-0.18,37.21,7.61c6.89,4.61,17.41,14.57,15.22,23.68c-1.05,4.38-4.66,6.98-6.77,8.46
		c-9.69,6.79-19.43,3.83-46.52,2.54c-19.43-0.93-25.25,0.07-28.76,0.85c-10.04,2.21-17.79,6.21-22.84,9.3
		c-10.3,1.22-25.63,3.43-43.98,7.61c-25.09,5.72-22.6,7.55-34.68,9.3c-41.32,5.99-79.44-14.19-82.88-16.07
		c-6.07-3.31-9.26-5.72-16.07-7.61c-15.14-4.21-22.58,1.26-43.98,3.38c-4.76,0.47-17.55-0.25-43.13-1.69
		c-21.13-1.19-27.83-2.02-32.14-7.61C603.24,843.96,602.27,835.19,605.75,829.12z"/>
	<path class="st12" d="M42.38,1136.09c9.65-12.72,23.44-6.67,44.3-15.59c25.09-10.72,24.25-27.64,44.3-30.35
		c10.42-1.41,12.55,2.9,33.64,8.2c7.23,1.82,31.94,8.03,56.61,5.74c34.44-3.2,36.14-19.96,59.07-17.23
		c23.9,2.85,22.44,21.11,53.32,27.89c16,3.52,23.09,0.09,45.12,6.56c12.13,3.57,25.97,7.63,27.07,15.59
		c1.45,10.49-20.22,20.81-21.33,21.33c-17.32,8.06-29.96,4.04-47.28,4.87c-28.62,1.38-30.47,14.11-58.55,20.56
		c-37.27,8.56-44.65-11.42-118.13-16.41c-25.12-1.7-37.68-2.56-51.68-1.64c-11.77,0.77-20.65,2.16-35.28,0.82
		c-13.75-1.26-31.93-2.92-35.68-13.08C35.11,1145.93,41.4,1137.39,42.38,1136.09z"/>
	<path class="st12" d="M41.99,1546.33c2.35-10.12,17.96-12.48,54.96-24.81c34.69-11.56,39.84-15.77,43.54-19.7
		c7.5-7.95,8.98-14.58,18.85-19.62c11.27-5.75,22.89-4.01,26.49-3.42c10.68,1.74,16.73,6.46,25.64,11.96
		c13.85,8.55,28.42,17.56,44.44,20.51c24.06,4.44,29.2-8.86,54.7-2.56c10.52,2.6,21.09,7.68,28.2,11.11
		c16.46,7.93,15.84,10.33,25.64,13.67c19.6,6.69,34.99,1.5,36.75,6.84c1.17,3.55-4.79,8.42-5.98,9.4
		c-11.21,9.18-24.46,5.04-44.44,6.84c-16.18,1.46-14.96,4.84-32.48,7.69c-23.84,3.88-28.96-1.92-66.66-3.42
		c-34.51-1.37-32.53,3.4-54.57,0.03c-19.08-2.92-26.98-7.48-47.13-7.72c-13.67-0.17-21.94,1.79-32.48,3.42
		c-16.53,2.56-40.83,4.67-72.64,1.71C42.96,1555.28,40.93,1550.88,41.99,1546.33z"/>
	<path class="st12" d="M776.97,1321.55c29.68-1.22,31.98-4.48,46.61-3.33c22.01,1.73,21.32,9.45,46.61,14.98
		c26.78,5.86,49.62,2.02,71.58-1.66c4.16-0.7,15.53-3.81,38.29-9.99c20.85-5.66,27-7.7,28.37-12.65
		c2.45-8.81-12.15-19.85-14.92-21.86c-13.01-9.47-22.55-7.39-41.75-13.76c-22.49-7.46-18.77-14.18-33.29-16.65
		c-30.99-5.27-43.63,20.11-74.91,14.98c-19.65-3.22-22.08-14.47-36.62-11.65c-15.35,2.97-17.06,16.35-38.29,26.63
		c-15.37,7.44-26.62-0.12-33.29,8.32c-4.24,5.36-5.27,14.27-1.66,19.98C736.19,1318.84,742.03,1322.98,776.97,1321.55z"/>
	<path class="st12" d="M1031.27,1592.38c-61.04-1.24-71.58,17.23-101.87,9.7c-31.14-7.73-28.64-29.4-64.29-36.32
		c-6.15-1.19-28.86-4.95-53.35,4.79c-29.74,11.83-25.5,29.02-52.15,42.45c-36.49,18.39-63.55-4.2-88.53,18.19
		c-8.27,7.41-17.56,20.87-14.55,32.75c4.04,15.94,28.55,22.35,49.72,27.89c22.1,5.78,35.6,5.66,50.94,7.28
		c57.39,6.05,58.67,27.87,103.09,30.32c16.38,0.9,40.03-5.06,87.32-16.98c44.2-11.14,49.04-15.77,71.55-16.98
		c34.42-1.84,38.11,8.18,75.19,8.49c27.7,0.23,82.66-4.89,88.53-27.89c3.31-12.97-9.7-28.83-20.62-36.38
		c-12.42-8.59-18.13-3.67-37.6-9.7c-31.02-9.61-34.42-27.65-65.49-35.17C1050.78,1592.77,1044.28,1592.64,1031.27,1592.38z"/>
	<path class="st13" d="M515.17,659.8v104.82H402.83V659.8h-18.38v1225.53h18.38v-58.58h112.34v58.58h18.38V659.8H515.17z
		 M515.17,783.01v130.72H402.83V783.01H515.17z M402.83,1508.73v-129.3h112.34v129.3H402.83z M515.17,1527.11v132.15H402.83v-132.15
		H515.17z M402.83,1361.05v-130.72h112.34v130.72H402.83z M402.83,1211.94v-130.72h112.34v130.72H402.83z M402.83,1062.83V932.11
		h112.34v130.72H402.83z M402.83,1808.37v-130.72h112.34v130.72H402.83z"/>
	<path class="st14" d="M407.94,937.59c-3.79-2.55-12.59,4.57-13.71,5.5c-0.88,0.73-14.65,12.27-11.05,19.78
		c1.69,3.52,6.38,4.44,7.81,4.72c10.75,2.1,23.01-8.01,22.57-15.18c-0.11-1.72-0.84-1.73-3.06-8.43
		C408.91,939.22,408.97,938.29,407.94,937.59z"/>
	<path class="st14" d="M396.09,965.07c2.76,0.31,5.52,0.62,8.28,0.93c3.57-0.96,7.14-1.92,10.71-2.88c0.42-0.75,1.09-2.22,1.02-4.09
		c-0.08-2.23-1.22-4.67-2.04-4.6c-0.28,0.02-0.66,0.34-1.04,1.86"/>
	<g class="st1">
		<path class="st15" d="M388.83,1393.75c9.32,21.96,18.64,43.91,27.96,65.87c6.31,2.3,12.62,4.59,18.93,6.89
			c0.16,0.96,2.59,17.6-10.41,28.89c-13.16,11.42-29.53,6.44-30.37,6.16c2.25-8.42,4.5-16.84,6.76-25.26
			c-12.71-19.32-25.41-38.64-38.12-57.96C372,1410.14,380.42,1401.95,388.83,1393.75z"/>
		<path class="st16" d="M423.11,1462.87c0.2,1.34,0.5,3.36,0.82,5.82c0.52,4.02,0.78,6.02,0.75,6.87
			c-0.11,3.77-2.02,8.55-6.18,11.53c-4.63,3.31-9.71,2.72-10.95,2.54c1.28-2.24,0.96-5.04-0.75-6.87c-1.57-1.67-4.03-2.25-6.24-1.44
			c-2.96,11.62-5.92,23.25-8.88,34.87c-1.75,2.12-12.83,15.6-18.2,24.07c-0.59,0.94-1.71,2.75-2.19,5.34
			c-1,5.34,1.46,9.81,2.17,11.08c2.11,3.83,5.06,6.01,6.76,7.06c23.95-26.84,47.9-53.68,71.85-80.52
			c-4.46-4.46-8.92-8.91-13.37-13.37c-1.3-1.08-2.87-2.22-4.76-3.28C429.81,1464.27,425.92,1463.3,423.11,1462.87z"/>
		<path class="st17" d="M374.54,1558.42c24.2-27.36,48.4-54.72,72.61-82.08"/>
		<line class="st17" x1="392.48" y1="1513" x2="400.78" y2="1513.47"/>
		<line class="st17" x1="393.86" y1="1506.35" x2="402.15" y2="1506.81"/>
		<line class="st17" x1="395.68" y1="1499.61" x2="403.97" y2="1500.07"/>
	</g>
	<path class="st18" d="M525.38,1136.18"/>
	<path class="st18" d="M525.38,1136.18c0.71,6.96,1.39,13.95,2.05,20.99c2.56,27.54,4.59,54.61,6.13,81.19
		c-1.88,2.93-3.77,5.87-5.65,8.8c-25.43-1.34-50.87-2.67-76.3-4.01c-11.35-3.5-22.71-7.01-34.06-10.51c-2.18-1.5-4.36-3-6.54-4.5
		c0.37-9.83,0.77-22.8,1.02-38.04c0.19-11.52,0.52-32.83,0.02-58.47c-0.42-21.37-1.48-49.23-4.11-82.21
		c37.31,10.03,74.61,20.07,111.92,30.1"/>
	<path class="st14" d="M648.28,987.97c1.88,11.46-0.36,22.52-7.15,27.06c-3.3,2.21-8.5,2.89-18.89,4.26c-4.51,0.59-5.16,0.41-5.45,0
		c-1.25-1.78,3.59-8.83,29.62-31.49"/>
	<path class="st18" d="M519.85,1079.52c18.97,6.63,37.94,13.25,56.92,19.88c12.7-27.54,25.41-55.09,38.11-82.63
		c10.75-0.71,21.5-1.43,32.25-2.14c-9.79,39.9-19.58,79.81-29.38,119.71c-0.32,1.67-2.03,9.58-9.84,14.4
		c-3.97,2.45-7.92,3.11-10.21,3.32c-28.19-5.45-56.39-10.89-84.58-16.34"/>
	<path class="st12" d="M380.94,1289.14c-1.23,1.55-2.46,3.1-3.68,4.65c15.26,47.15,30.51,94.3,45.77,141.45
		c-11.83,9.5-23.67,18.99-35.5,28.49c-31.46-55.17-62.91-110.35-94.37-165.52c-0.69-1.99-1.58-5.47-1.02-9.7
		c1.03-7.86,6.28-12.6,7.77-13.85c5.73-2.14,11.46-4.28,17.18-6.42"/>
	<path class="st12" d="M309.88,1272.88c35.89-13.41,71.77-26.83,107.66-40.24c36.79,4.84,73.58,9.68,110.37,14.52
		c-21.15,20.67-42.3,41.33-63.44,62c-36.41,5.24-72.81,10.49-109.22,15.73"/>
	<g class="st1">
		<path class="st15" d="M525.45,1533.27c1.78,26.73,3.55,53.46,5.33,80.18c2.87,6.07,5.75,12.14,8.62,18.2
			c-0.9,1.13-10.96,13.29-27.57,12.25c-16.9-1.05-25.38-14.81-26.07-15.97c7.52-4.41,15.04-8.82,22.56-13.22
			c-2.8-24.65-5.6-49.3-8.4-73.95C508.43,1538.26,516.94,1535.76,525.45,1533.27z"/>
		<path class="st16" d="M532.99,1620.2c-0.67,1.23-1.78,2.97-3.51,4.71c-1.21,1.22-2.5,2.52-4.37,3.33
			c-2.01,0.87-3.01,0.44-9.87-0.21c-5.32-0.51-7.27-0.49-7.93-1.85c-0.48-0.98,0.21-1.69,0.09-3.3c-0.17-2.41-1.94-4.24-3.42-5.41
			c-10.27,6.19-20.55,12.38-30.82,18.57c-2.73,0.28-20.09,2.08-29.86,4.34c-1.08,0.25-3.15,0.75-5.32,2.26
			c-4.46,3.1-5.85,8.01-6.25,9.4c-1.19,4.2-0.62,7.83-0.15,9.77c35.9-2.26,71.8-4.53,107.7-6.79c-0.04-6.3-0.08-12.61-0.12-18.91
			c-0.16-1.68-0.49-3.6-1.08-5.67C536.77,1625.91,534.68,1622.48,532.99,1620.2z"/>
		<path class="st17" d="M431.28,1654.04c36.45-2.46,72.89-4.91,109.34-7.37"/>
		<line class="st17" x1="475.97" y1="1634.34" x2="481.54" y2="1640.5"/>
		<line class="st17" x1="481.62" y1="1630.57" x2="487.2" y2="1636.73"/>
		<line class="st17" x1="487.65" y1="1627.06" x2="493.23" y2="1633.22"/>
		<path class="st19" d="M426.38,1233.8c33.84,4.45,67.68,8.9,101.52,13.35c-1.63,65.75-3.27,131.5-4.9,197.24
			c4.57,42.54,9.13,85.08,13.7,127.61c-13.93,6.01-27.86,12.03-41.79,18.04c-11.84-44.44-23.69-88.88-35.53-133.31
			c-3.16-48.66-6.33-97.33-9.49-145.99"/>
	</g>
	<path class="st14" d="M498.92,1080.78c0.72-10.46,1.43-20.91,2.15-31.37c3.35,0.74,6.7,1.48,10.04,2.21
		c0.48,0.05,1.2,0.04,1.87-0.34c1.18-0.67,1.5-2.09,1.7-3.05c0.74-3.48,1.25-6.6,1.55-8.59c-1.2-1.06-2.39-2.11-3.59-3.17
		c1.87-0.34,3.74-0.68,5.62-1.02c1.08-2.66,2.15-5.32,3.23-7.97c1.64-0.33,3.27-0.65,4.91-0.98c-1.41-3.4-2.82-6.8-4.22-10.19
		c-0.89-2.06-2.13-5.3-3.06-9.45c-0.81-3.61-0.75-5.1-1.66-7.53c-0.84-2.26-2.54-5.38-6.36-8.57c-2.57-2.62-9.16-8.57-19.29-10.09
		c-12.99-1.94-25.69,4.34-32.45,13.6c-0.77,1.05-2.63,3.75-3.89,7.2c-7.16,19.68,12.75,43.6,15.3,46.58
		c-1.85,3.97-3.71,7.94-5.56,11.9c-12.24,4.44-24.48,8.89-36.72,13.33c-0.92,0.57-2.54,1.76-3.83,3.83
		c-1.18,1.91-2.15,4.66-1.79,6.13c0.94,3.74,12.04,4.95,26.8,3.78c26.04,10.74,52.09,21.48,78.13,32.22
		C518.17,1106.43,508.54,1093.61,498.92,1080.78z"/>
	<g class="st1">
		<line class="st20" x1="948.35" y1="1005.41" x2="925.39" y2="983.55"/>
		<line class="st20" x1="958.07" y1="992.29" x2="917.76" y2="949.26"/>
		<line class="st20" x1="949.98" y1="935.78" x2="931.92" y2="921.52"/>
	</g>
	<path class="st21" d="M446.49,1059.38c1.2,0.16,4.96,0.87,9.01,1.63c6.55,1.24,13.04,2.57,16.11,3.26
		c5.41,1.22,14.84,3.74,28.4,9.24c2.97,2.32,7.22,5.8,12.02,10.33c15.65,14.77,25.71,24.25,24.58,31.26
		c-2.88,17.79-80.31,35.54-113.62,2.72c-3.07-3.02-11.77-11.85-11.74-23.92C411.3,1074.82,433.2,1057.65,446.49,1059.38z"/>
	<path class="st18" d="M444.19,1059.38c2.01,0.35,4.92,0.87,8.43,1.53c6.17,1.17,12.22,2.42,15.06,3.06
		c5.05,1.14,13.88,3.51,26.55,8.68c3.66,0.94,7.32,1.87,10.98,2.81"/>
	<path class="st18" d="M412.62,1106.38c-56.38-32.99-96.99-58.14-102.52-63.64c-3.31-3.29-4.1-7.04-4.1-7.04
		c-1.2-5.51,1.58-9.79,2.07-10.52c25.76-26.22,51.53-52.44,77.29-78.66c5.68,9.26,11.36,18.52,17.04,27.79
		c-12.32,18.97-24.64,37.94-36.96,56.91c17.99,5.99,35.98,11.97,53.97,17.96c4.83,1.61,7.18,2.21,11.75,3.82
		c9.49,3.35,13.46,5.39,16.09,6.89c3.32,1.9,5.91,3.76,7.66,5.11"/>
	<path class="st18" d="M440.85,1048.09c1.88,0.94,4.55,2.29,7.79,3.95c0.86,0.44,1.47,0.75,1.51,0.77
		c13.75,6.86,27.43,8.19,37.75,7.91c0.44-2.16,0.93-4.93,1.3-8.17c0.11-1,0.3-2.77,0.43-4.98c0.24-4.01,0.16-7.19,0.09-9.45
		c-0.45-15.35-1.55-33.57-1.69-35.87c10.49-1.38,20.97-2.75,31.46-4.13c-0.33-2.72-1.23-6.96-3.99-11.19
		c-8.48-12.98-26.31-13.34-29.68-13.4c-4.1-0.08-16.27-0.33-25.64,7.79c-4.94,4.28-7.02,9.41-12.37,33.06
		C445.81,1023.22,443.37,1034.64,440.85,1048.09z"/>
	<path class="st22" d="M483.85,1018.27c-0.39,3.14-0.44,5.95-0.34,8.34c-4.05-0.74-6.92-4.22-6.87-7.97
		c0.06-4.3,3.94-8.06,8.71-7.86C484.76,1012.92,484.2,1015.43,483.85,1018.27z"/>
	<path class="st14" d="M485.35,1010.78c-3.72-1.01-7.54,0.42-9.3,3.26c-2.48,4.01,0.18,9.4,3.52,11.55
		c1.21,0.77,2.41,1.07,3.26,1.19"/>
	<path class="st23" d="M762.85,935.07c-63.9,16.47-127.8,32.93-191.7,49.4c-0.62,0.88-2.14,3.26-2.22,6.67
		c-0.09,3.72,1.58,6.35,2.18,7.21c64.21,4.91,128.41,9.83,192.62,14.74C763.44,987.08,763.14,961.08,762.85,935.07z"/>
	<path class="st24" d="M626.48,971.52c-0.76-0.56-2.39-1.73-4.39-1.43c-3.28,0.49-5.18,4.59-5.9,6.12
		c-3.36,7.21-2.38,17.82,3.74,23.02c1.09,0.92,4.09,3.47,6.83,2.49c4.46-1.6,4.72-11.3,4.8-14.24
		C631.65,984.49,631.9,975.52,626.48,971.52z"/>
	<path class="st25" d="M619.42,986.16c0.5,3.28,1.49,9.61,6.99,13.6c0.96,0.69,1.93,1.23,2.88,1.64l0.04,0.01l6.28,0.53l59.71,5.2
		c-0.29-0.18-0.58-0.38-0.86-0.58c-9.19-6.65-10.85-17.24-11.7-22.7c-0.66-4.23-2.12-14.6,3.89-24.89c0.94-1.61,1.96-3.06,3.02-4.31
		c-20.29,5.42-40.59,10.85-60.88,16.28c-2.66,0.71-5.3,1.41-7.96,2.12C618.31,978.6,619.05,983.88,619.42,986.16z"/>
	<path class="st26" d="M697.09,953.89c-1.43-1.06-4.52-3.27-8.29-2.7c-6.19,0.93-9.8,8.67-11.15,11.57
		c-6.34,13.62-4.5,33.67,7.07,43.5c2.05,1.74,7.73,6.56,12.91,4.7c8.42-3.03,8.92-21.35,9.07-26.91
		C706.85,978.4,707.31,961.44,697.09,953.89z"/>
	<path class="st23" d="M619.42,986.16c0.5,3.28,1.49,9.61,6.99,13.6c0.96,0.69,1.93,1.23,2.88,1.64l0.04,0.01l6.28,0.53l49.05,4.27
		l10.65,0.93c-0.29-0.18-0.58-0.38-0.86-0.58c-9.19-6.65-10.85-17.24-11.7-22.7c-0.66-4.23-2.12-14.6,3.89-24.89
		c0.94-1.61,1.96-3.06,3.02-4.31c-2.94,0.78-5.89,1.57-8.84,2.37c-17.34,4.63-34.69,9.27-52.05,13.92c-2.66,0.71-5.3,1.41-7.96,2.12
		C618.31,978.6,619.05,983.88,619.42,986.16z"/>
	<path class="st27" d="M697.09,953.89c-1.43-1.06-4.52-3.27-8.29-2.7c-6.19,0.93-9.8,8.67-11.15,11.57
		c-6.34,13.62-4.5,33.67,7.07,43.5c2.05,1.74,7.73,6.56,12.91,4.7c8.42-3.03,8.92-21.35,9.07-26.91
		C706.85,978.4,707.31,961.44,697.09,953.89z"/>
	<path class="st23" d="M682.75,983.85c0.85,5.46,2.51,16.05,11.7,22.7c0.28,0.2,0.57,0.41,0.86,0.58
		c22.8,1.99,45.61,3.97,68.42,5.96c-0.3-26.01-0.59-52.01-0.89-78.02c-24.4,6.52-48.78,13.04-73.19,19.58
		c-1.05,1.25-2.07,2.7-3.02,4.31C680.63,969.25,682.1,979.62,682.75,983.85z"/>
	<path class="st24" d="M766.77,935.73c-2.28-1.63-7.2-5.04-13.12-4.28c-9.72,1.24-15.19,12.79-17.24,17.12
		c-9.63,20.33-6.2,50.55,12.27,65.64c3.27,2.67,12.33,10.08,20.44,7.41c13.17-4.34,13.48-31.89,13.57-40.25
		C782.78,972.87,783.06,947.36,766.77,935.73z"/>
	<path class="st28" d="M788.6,974.47c1.34,16.92-5.98,38.27-16.68,39.69c-11.5,1.53-26.11-20.13-27.32-40.41
		c-0.99-16.64,6.71-37.46,17.43-38.68C773.5,933.75,787.06,955.07,788.6,974.47z"/>
	<g class="st1">
		<line class="st20" x1="771.9" y1="945.75" x2="759.28" y2="960.78"/>
		<line class="st20" x1="778.79" y1="953.15" x2="756.94" y2="982.4"/>
		<line class="st20" x1="777.7" y1="988.49" x2="767.56" y2="998.5"/>
	</g>
	<g class="st1">
		<line class="st17" x1="813.64" y1="927.13" x2="799.46" y2="941.71"/>
		<line class="st17" x1="824.61" y1="954.66" x2="807.7" y2="961.34"/>
		<line class="st17" x1="829.21" y1="985.84" x2="806.06" y2="984.43"/>
		<line class="st17" x1="826.02" y1="1014.65" x2="806.06" y2="1008.99"/>
	</g>
	<path class="st22" d="M629.63,1002.13c0.54,1.26,1.38,3.69,1.12,6.78c-0.16,1.94-0.71,3.5-1.17,4.55
		c-3.49,0.21-6.99,0.42-10.48,0.63"/>
	<path class="st14" d="M619.09,1014.08c-0.43-2.75-0.85-5.49-1.28-8.24c1.34-4.56,2.68-9.11,4.03-13.67
		c5.01-0.93,10.01-1.87,15.02-2.8c-0.04,0.96-0.26,2.45-1.2,3.88c-2.64,4.01-8.28,3.57-8.51,3.55c0.67,1.04,1.43,2.41,2.07,4.11
		c0.67,1.78,0.99,3.39,1.16,4.66"/>
	<circle class="st1" cx="510.09" cy="1010.46" r="1.69"/>
</g>
<g id="Vrstva_2" class="st0">
	<g class="st1">
		<path class="st15" d="M404.22,1588.75c-4.75,23.37-9.51,46.75-14.26,70.12c-5.72,3.51-11.45,7.02-17.17,10.53
			c0.04,0.97,0.97,17.76,15.97,26.23c15.17,8.57,30.22,0.42,30.99-0.02c-3.89-7.8-7.77-15.61-11.66-23.41
			c8.6-21.47,17.19-42.93,25.79-64.4C423.98,1601.46,414.1,1595.1,404.22,1588.75z"/>
		<path class="st16" d="M384.42,1663.32c0.07,1.36,0.18,3.39,0.36,5.87c0.3,4.04,0.44,6.06,0.64,6.88
			c0.86,3.67,3.68,7.97,8.35,10.06c5.2,2.32,10.06,0.73,11.24,0.31c-1.7-1.94-1.95-4.75-0.64-6.88c1.2-1.95,3.5-3.01,5.82-2.66
			c5.22,10.8,10.44,21.6,15.66,32.4c2.13,1.73,15.69,12.72,22.63,19.96c0.77,0.8,2.22,2.35,3.22,4.8c2.04,5.03,0.52,9.9,0.09,11.29
			c-1.3,4.17-3.76,6.89-5.21,8.27c-28.82-21.52-57.64-43.04-86.47-64.56c3.48-5.26,6.96-10.51,10.44-15.77
			c1.05-1.31,2.37-2.75,4.01-4.16C378.14,1666.03,381.76,1664.31,384.42,1663.32z"/>
		<path class="st17" d="M451.08,1747.26c-29.17-21.98-58.35-43.96-87.52-65.94"/>
		<line class="st17" x1="424.44" y1="1706.34" x2="416.4" y2="1708.44"/>
		<line class="st17" x1="421.76" y1="1700.09" x2="413.72" y2="1702.2"/>
		<line class="st17" x1="418.63" y1="1693.85" x2="410.6" y2="1695.96"/>
	</g>
	<path class="st18" d="M405.39,1269.34"/>
	<path class="st14" d="M448.15,1296.14c0.07-4.57-10.7-8.06-12.08-8.5c-1.09-0.34-18.28-5.6-22.61,1.51
		c-2.03,3.34-0.24,7.77,0.3,9.12c4.1,10.16,19.26,14.93,25.03,10.65c1.38-1.02,0.99-1.65,5.39-7.16
		C447.31,1297.85,448.13,1297.39,448.15,1296.14z"/>
	<g class="st1">
		<path class="st15" d="M447.07,1287.57c-1,0.71-0.85,2.04-0.82,2.28c0.04,0.29,0.13,1.02,0.71,1.67c1.3,1.45,4.79,2.22,6.08,0.71
			c0.79-0.93,0.55-2.47-0.48-3.6C451.09,1287.04,448.34,1286.66,447.07,1287.57z"/>
		<path class="st15" d="M441.68,1293.64c-1.37,0.93-1.97,3.24-1.15,4.8c0.63,1.2,1.89,1.51,4.05,2.08c2.14,0.57,3.48,0.92,4.64,0.2
			c1.96-1.23,2.35-4.87,0.96-6.27c-0.24-0.25-0.58-0.47-3.85-0.82C442.46,1293.21,442,1293.42,441.68,1293.64z"/>
		<path class="st15" d="M446.03,1302.35c1.26,1.8-0.22,5.66-2.26,6.16c-0.42,0.1-0.71,0.02-3.01-0.93c-3.9-1.62-4.21-1.86-4.44-2.32
			c-0.73-1.47,0-3.81,1.47-4.64c0.77-0.44,1.95-0.19,4.27,0.31C444.4,1301.44,445.58,1301.71,446.03,1302.35z"/>
		<path class="st15" d="M437.03,1308.88c-0.85,0.66-0.77,1.82-0.75,2.03c0.02,0.25,0.08,0.89,0.54,1.45
			c1.04,1.24,3.93,1.82,5.04,0.45c0.69-0.84,0.53-2.2-0.3-3.15C440.39,1308.3,438.12,1308.04,437.03,1308.88z"/>
	</g>
	<path class="st18" d="M351.72,1173.04c-25.64,60.08-43.28,104.47-44.45,112.18c-0.7,4.61,0.9,8.1,0.9,8.1
		c2.32,5.14,7.1,6.92,7.93,7.22c36.17,4.12,72.34,8.23,108.52,12.35c-0.81-9.22-1.63-18.45-2.44-27.67c-23.17-7-46.35-14-69.52-21
		c7.86-29.89,15.72-59.77,23.58-89.66"/>
	<path class="st12" d="M480.29,1491.83c-25.35-46.82-50.7-93.65-76.04-140.47c-32.17,8.51-64.34,17.02-96.51,25.53
		c6.35,7.09,12.69,14.17,19.04,21.26c25.51,30.59,51.02,61.18,76.53,91.76c-9.82,48.58-19.64,97.15-29.45,145.73
		c12.83,8.09,25.67,16.19,38.5,24.28C435,1603.89,457.65,1547.86,480.29,1491.83z"/>
	<g class="st1">
		<path class="st15" d="M290.93,1666.43c-1.78,26.73-3.55,53.46-5.33,80.18c-2.87,6.07-5.75,12.14-8.62,18.2
			c0.9,1.13,10.96,13.29,27.57,12.25c16.9-1.05,25.38-14.81,26.07-15.97c-7.52-4.41-15.04-8.82-22.56-13.22
			c2.8-24.65,5.6-49.3,8.4-73.95C307.95,1671.43,299.44,1668.93,290.93,1666.43z"/>
		<path class="st16" d="M283.39,1753.36c0.67,1.23,1.78,2.97,3.51,4.71c1.21,1.22,2.5,2.52,4.37,3.33c2.01,0.87,3.01,0.44,9.87-0.21
			c5.32-0.51,7.27-0.49,7.93-1.85c0.48-0.98-0.21-1.69-0.09-3.3c0.17-2.41,1.94-4.24,3.42-5.41c10.27,6.19,20.55,12.38,30.82,18.57
			c2.73,0.28,20.09,2.08,29.86,4.34c1.08,0.25,3.15,0.75,5.32,2.26c4.46,3.1,5.85,8.01,6.25,9.4c1.19,4.2,0.62,7.83,0.15,9.77
			c-35.9-2.26-71.8-4.53-107.7-6.79c0.04-6.3,0.08-12.61,0.12-18.91c0.16-1.68,0.49-3.6,1.08-5.67
			C279.62,1759.08,281.7,1755.65,283.39,1753.36z"/>
		<path class="st17" d="M385.1,1787.21c-36.45-2.46-72.89-4.91-109.34-7.37"/>
		<line class="st17" x1="340.42" y1="1767.51" x2="334.84" y2="1773.67"/>
		<line class="st17" x1="334.76" y1="1763.74" x2="329.18" y2="1769.9"/>
		<line class="st17" x1="328.73" y1="1760.23" x2="323.15" y2="1766.38"/>
		<path class="st19" d="M406.44,1360.08c-39.32,6.75-78.64,13.5-117.96,20.25c1.63,65.75,3.27,131.5,4.9,197.24
			c-4.57,42.54-9.13,85.08-13.7,127.61c13.93,6.01,27.86,12.03,41.79,18.04c11.84-44.44,23.69-88.88,35.53-133.31
			c3.16-48.66,6.33-97.33,9.49-145.99"/>
	</g>
	<path class="st18" d="M241.98,1290.85c2.93,6.2,5.82,12.61,8.64,19.24c7.76,18.24,14.05,35.82,19.16,52.47
		c1.8,3.29,3.59,6.57,5.39,9.86c0.33,0.87,1.06,2.41,2.57,3.84c1.75,1.64,3.62,2.25,4.54,2.49c2.07,0.53,4.13,1.06,6.2,1.58
		c35.05-5,70.7-10.85,106.84-17.99c4.6-0.91,9.19-1.82,13.79-2.72c-10.91-38.95-26.17-67.78-37.96-86.64
		c-9.22-14.76-17.86-28.21-33.02-42.3c-24.86-23.12-52.22-33.03-69.45-37.61c4.43,5.19,8.85,10.38,13.28,15.57"/>
	<path class="st22" d="M269.37,1195.7c0.06,0.5-0.56,0.8-3.4,3.37c-1.18,1.07-2.41,2.1-3.66,3.09c-17.95,2.79-26.89,5.29-26.82,7.49
		c0.05,1.61,4.94,3.07,14.66,4.36c7.11-0.52,14.23-1.03,21.34-1.55c4.94-0.51,9.87-1.02,14.81-1.53c-1.11-4-2.21-8-3.32-12
		c-1.8-0.88-3.79-1.73-5.98-2.5c-6.43-2.26-12.34-2.98-17-3.12C267.35,1193.85,269.26,1194.82,269.37,1195.7z"/>
	<path class="st14" d="M274.29,1201.49c-2.53-8.18-5.05-16.35-7.58-24.53c3.27-1.02,6.54-2.04,9.82-3.06
		c0.44-0.2,1.06-0.56,1.46-1.22c0.68-1.15,0.27-2.51-0.03-3.49c-0.95-3.01-2.05-5.78-2.89-7.78c-2.98,0-5.96,0-8.94,0
		c2.86-1.7,5.73-3.39,8.59-5.09c-0.38-2.84-0.77-5.68-1.15-8.52c1.26-1.1,2.52-2.19,3.78-3.29c-2.91-2.25-5.82-4.5-8.72-6.76
		c-1.79-1.35-4.48-3.54-7.35-6.68c-2.49-2.73-3.19-4.06-5.18-5.72c-1.85-1.54-4.87-3.41-9.77-4.29c-3.53-1-12.21-2.9-21.75,0.81
		c-12.24,4.76-20.15,16.51-21.43,27.91c-0.15,1.3-0.43,4.56,0.2,8.19c3.54,20.64,32.7,31.53,36.39,32.86
		c0.36,4.36,0.72,8.73,1.08,13.09c-2.68,2.72-5.35,5.43-8.03,8.15"/>
	<path class="st21" d="M235.48,1210.93c18.38,0.09,36.77,0.17,55.15,0.26c2.84-0.89,7.09-1.73,11.83-0.68
		c12,2.65,21.68,16.27,20.83,25.94c-1.5,17.08-47.75,8.16-91.58,25.17c-2.61,1.01-7.65,2.8-10.56,0.45
		C214.13,1256.41,225.24,1231.06,235.48,1210.93z"/>
	<g id="Group_14_1_" transform="translate(0 306)" class="st1">
		
			<rect id="Rectangle_149_4_" x="301.73" y="806.29" transform="matrix(0.9743 -0.2255 0.2255 0.9743 -185.5931 103.3534)" class="st29" width="116" height="116"/>
		<text transform="matrix(0.2254 0.9742 -0.9742 0.2254 315.3893 826.3751)" class="st8 st30 st31">Places to eat</text>
		<path id="Icon_material-event-note_4_" class="st8" d="M377.49,871.44l-4.95-21.38l-4.38,1.01l4.95,21.38L377.49,871.44z
			 M393.82,872.17l-0.49-2.14l4.38-1.01l-0.99-4.28l-4.38,1.01l-3.96-17.1l4.38-1.01l-0.99-4.28l-4.38,1.01l-0.49-2.14
			c-0.58-2.37-2.98-3.83-5.35-3.24c-0.01,0-0.01,0-0.02,0l-30.68,7.08c-2.4,0.52-3.92,2.89-3.39,5.29c0,0,0,0,0,0l6.93,29.93
			c0.59,2.38,2.99,3.83,5.37,3.26l30.67-7.1C392.81,876.92,394.33,874.56,393.82,872.17z M358.76,880.28l-6.93-29.93l24.1-5.58
			l6.93,29.93L358.76,880.28z M367.25,867.05l-3.46-14.96l-4.38,1.01l3.46,14.96L367.25,867.05z"/>
	</g>
	<g id="Group_91_4_" transform="translate(220 306)" class="st1">
		
			<rect id="Rectangle_149-3_4_" x="137.67" y="867.18" transform="matrix(0.2697 -0.9629 0.9629 0.2697 -747.9997 864.0596)" class="st32" width="116" height="116"/>
		<text transform="matrix(0.9629 0.2697 -0.2697 0.9629 147.5626 945.1296)" class="st6 st30 st31">Attractions</text>
		<path id="Icon_material-event-note-3_4_" class="st6" d="M209.27,912.7l-21.13-5.92l-1.21,4.33l21.13,5.92L209.27,912.7z
			 M217.75,898.72l-2.11-0.59l1.21-4.33l-4.23-1.18l-1.21,4.33l-16.9-4.73l1.21-4.33l-4.23-1.18l-1.21,4.33l-2.11-0.59
			c-2.36-0.63-4.78,0.78-5.41,3.14c0,0.01,0,0.01,0,0.02l-8.51,30.31c-0.69,2.35,0.66,4.82,3.01,5.51c0,0,0,0,0,0l29.58,8.28
			c2.37,0.62,4.8-0.78,5.43-3.15l8.49-30.31C221.44,901.88,220.09,899.42,217.75,898.72z M208.04,933.37l-29.58-8.28l6.67-23.82
			l29.58,8.28L208.04,933.37z M200.51,919.58l-14.79-4.14l-1.21,4.33l14.79,4.14L200.51,919.58z"/>
	</g>
	<path class="st33" d="M234.21,1210.68c4.1-0.21,8.26-0.38,12.47-0.51c14.01-0.42,27.49-0.29,40.38,0.25
		c-1.36-3.83-2.72-7.66-4.09-11.49"/>
	<g id="Group_92_4_" transform="translate(330 306)" class="st1">
		
			<rect id="Rectangle_149-4_4_" x="-56.25" y="882.5" transform="matrix(0.0404 -0.9992 0.9992 0.0404 -938.0522 904.2103)" class="st34" width="116" height="116"/>
		<text transform="matrix(0.9992 0.0404 -0.0404 0.9992 -24.4183 971.6543)" class="st4 st30 st31">Events</text>
		<path id="Icon_material-event-note-4_4_" class="st4" d="M12.11,925.22l-21.92-0.89l-0.18,4.49l21.92,0.89L12.11,925.22z
			 M17.13,909.67l-2.19-0.09l0.18-4.49l-4.38-0.18l-0.18,4.49l-17.54-0.71l0.18-4.49l-4.38-0.18l-0.18,4.49l-2.19-0.09
			c-2.44-0.07-4.48,1.86-4.54,4.3c0,0.01,0,0.01,0,0.02l-1.3,31.46c-0.13,2.45,1.75,4.54,4.2,4.67c0,0,0,0,0,0l30.69,1.24
			c2.45,0.06,4.49-1.87,4.56-4.32l1.27-31.46C21.45,911.89,19.58,909.8,17.13,909.67z M15.68,945.61l-30.69-1.24l1-24.71l30.69,1.24
			L15.68,945.61z M5.17,933.94l-15.35-0.62l-0.18,4.49l15.35,0.62L5.17,933.94z"/>
	</g>
	<path class="st35" d="M350.65,1283.79c1.33-0.35,2.66-0.7,3.99-1.05c2.89-1.51,5.79-3.02,8.68-4.53
		c10.42,0.88,12.89,1.83,12.92,2.6c0.02,0.62-1.56,0.93-6.47,2.55c-9.14,3.01-10.88,4.29-14.04,3.49
		C354.54,1286.54,352.67,1285.81,350.65,1283.79z"/>
	<path class="st14" d="M383.16,1284.28c-2.13-4.04-13.25-1.95-14.68-1.67c-1.12,0.22-18.72,3.85-19.11,12.17
		c-0.18,3.9,3.51,6.93,4.64,7.86c8.47,6.95,24.06,3.86,27.07-2.66c0.72-1.56,0.08-1.92,1.3-8.87
		C383.25,1286.18,383.75,1285.38,383.16,1284.28z"/>
	<path class="st18" d="M270.33,1259.64c1.59,14.54,3.19,29.08,4.78,43.61c26.32-6.78,52.63-13.56,78.95-20.34
		c4.11,9.57,8.22,19.14,12.33,28.71c-58.84,21-102.15,35.02-109.04,35.86c-6.01,0.73-10.8-1.15-10.8-1.15
		c-1.74-0.68-3.54-1.68-5.32-3.1c-3.58-2.86-5.6-6.32-6.61-8.38c-5.83-28.72-11.65-57.43-17.48-86.15
		c-0.16-2.07-0.22-5.23,0.45-8.97c1.21-6.75,4.12-11.51,7.82-17.44c1.65-2.64,4.06-6.23,7.38-10.24"/>
	<path class="st18" d="M226.63,1144.98c10.89-6.87,21.79-13.73,32.68-20.6c-1.98-2.5-5.55-6.29-11.06-8.82
		c-14.11-6.48-28.5,0.95-32.42,3.08c-3.6,1.96-14.29,7.79-18.4,19.48c-0.37,1.05-0.65,2.07-0.83,3.17
		c-1.48,8.83-0.75,21.28,6.5,31.68c11.96,17.15,32.85,17.3,34.6,17.28c2.5-2.33,4.99-4.65,7.49-6.98
		c-4.54-6.58-9.08-13.16-13.62-19.74c0.11-3.46,0.23-6.92,0.34-10.38c2.1,2.04,4.2,4.09,6.3,6.13c1.25-1.02,2.5-2.04,3.74-3.06
		c-3.29-4.88-6.58-9.76-9.87-14.64"/>
	<path class="st18" d="M707.31,1532.89c-31.11-5-62.23-9.99-93.34-14.99c-6.24-60.92-12.47-121.83-18.71-182.75
		c50.97-6.26,101.93-12.51,152.9-18.77C734.55,1388.55,720.93,1460.72,707.31,1532.89z"/>
	<g id="Group_92_2_" transform="translate(330 306)" class="st1">
		
			<rect id="Rectangle_149-4_2_" x="428.32" y="356.6" transform="matrix(0.4768 -0.879 0.879 0.4768 -109.987 644.4199)" class="st34" width="116" height="116"/>
		<text transform="matrix(0.879 0.4768 -0.4768 0.879 449.0513 431.094)" class="st4 st30 st31">Events</text>
		<path id="Icon_material-event-note-4_2_" class="st4" d="M502.36,405.45l-19.29-10.46l-2.14,3.95l19.29,10.46L502.36,405.45z
			 M513.72,393.7l-1.93-1.05l2.14-3.95l-3.86-2.09l-2.14,3.95l-15.43-8.37l2.14-3.95l-3.86-2.09l-2.14,3.95l-1.93-1.05
			c-2.16-1.14-4.84-0.31-5.97,1.86c0,0.01-0.01,0.01-0.01,0.02l-15.03,27.66c-1.2,2.14-0.43,4.85,1.71,6.04c0,0,0,0,0,0l27,14.64
			c2.17,1.13,4.85,0.3,6-1.86l15.01-27.67C516.62,397.61,515.85,394.91,513.72,393.7z M496.57,425.33l-27-14.64l11.79-21.74
			l27,14.64L496.57,425.33z M492.28,410.22l-13.5-7.32l-2.14,3.95l13.5,7.32L492.28,410.22z"/>
	</g>
	<g id="Group_90_3_" transform="translate(110 306)" class="st1">
		
			<rect id="Rectangle_149-2_3_" x="534.12" y="348.35" transform="matrix(0.9607 -0.2775 0.2775 0.9607 -89.5042 180.2603)" class="st36" width="116" height="116"/>
		<text transform="matrix(0.9623 -0.2779 0.2775 0.9607 568.7139 446.4586)" class="st11 st30 st37">Activities</text>
		<path id="Icon_material-event-note-2_3_" class="st11" d="M597.12,388.58l-21.08,6.09l1.25,4.32l21.08-6.09L597.12,388.58z
			 M596.97,372.24l-2.11,0.61l-1.25-4.32l-4.22,1.22l1.25,4.32l-16.86,4.87l-1.25-4.32l-4.22,1.22l1.25,4.32l-2.11,0.61
			c-2.34,0.71-3.66,3.18-2.95,5.52c0,0.01,0,0.01,0,0.02l8.71,30.25c0.65,2.37,3.1,3.75,5.46,3.1c0,0,0,0,0,0l29.51-8.52
			c2.34-0.72,3.67-3.19,2.96-5.54l-8.74-30.25C601.77,372.98,599.33,371.6,596.97,372.24z M606.95,406.8l-29.51,8.52l-6.86-23.76
			l29.51-8.52L606.95,406.8z M593.29,399.04l-14.75,4.26l1.25,4.32l14.75-4.26L593.29,399.04z"/>
	</g>
	<g id="Group_14_3_" transform="translate(0 306)" class="st1">
		<rect id="Rectangle_149_3_" x="674.73" y="440.37" class="st29" width="116" height="116"/>
		<text transform="matrix(1 0 0 1 685.8342 533.0607)" class="st8 st30 st31">Places to eat</text>
		<path id="Icon_material-event-note_3_" class="st8" d="M743.7,482.68h-21.94v4.5h21.94L743.7,482.68z M748.09,466.94h-2.19v-4.5
			h-4.39v4.5h-17.55v-4.5h-4.39v4.5h-2.19c-2.44,0.03-4.4,2.04-4.37,4.48c0,0.01,0,0.01,0,0.02l-0.02,31.48
			c-0.03,2.45,1.93,4.47,4.39,4.5c0,0,0,0,0,0h30.72c2.45-0.04,4.41-2.05,4.38-4.5v-31.48
			C752.49,468.98,750.54,466.98,748.09,466.94z M748.09,502.91h-30.72v-24.74h30.72V502.91z M737.12,491.67h-15.36v4.5h15.36V491.67
			z"/>
	</g>
	<g id="Group_91_2_" transform="translate(220 306)" class="st1">
		<rect id="Rectangle_149-3_2_" x="272.04" y="356.01" class="st32" width="116" height="116"/>
		<text transform="matrix(1 0 0 1 289.0975 446.231)" class="st6 st30 st31">Attractions</text>
		<path id="Icon_material-event-note-3_2_" class="st6" d="M339.78,398.32h-21.94v4.5h21.94L339.78,398.32z M344.17,382.57h-2.19
			v-4.5h-4.39v4.5h-17.55v-4.5h-4.39v4.5h-2.19c-2.44,0.03-4.4,2.04-4.37,4.48c0,0.01,0,0.01,0,0.02l-0.02,31.48
			c-0.03,2.45,1.93,4.47,4.39,4.5c0,0,0,0,0,0h30.72c2.45-0.04,4.41-2.05,4.38-4.5v-31.48
			C348.58,384.62,346.62,382.61,344.17,382.57z M344.17,418.55h-30.72v-24.74h30.72V418.55z M333.2,407.31h-15.36v4.5h15.36V407.31z
			"/>
	</g>
	<g id="Group_90_1_" transform="translate(110 306)" class="st1">
		
			<rect id="Rectangle_149-2_1_" x="348.34" y="434.77" transform="matrix(0.1337 -0.991 0.991 0.1337 -136.3414 829.5667)" class="st36" width="116" height="116"/>
		<text transform="matrix(0.9926 0.1339 -0.1337 0.991 368.8025 520.0333)" class="st11 st30 st37">Activities</text>
		<path id="Icon_material-event-note-2_1_" class="st11" d="M418.09,478.52l-21.74-2.93l-0.6,4.46l21.74,2.93L418.09,478.52z
			 M424.55,463.51l-2.17-0.29l0.6-4.46l-4.35-0.59l-0.6,4.46l-17.39-2.35l0.6-4.46l-4.35-0.59l-0.6,4.46l-2.17-0.29
			c-2.43-0.3-4.63,1.43-4.93,3.86c0,0.01,0,0.01,0,0.02l-4.23,31.2c-0.36,2.43,1.32,4.69,3.75,5.04c0,0,0,0,0,0l30.44,4.11
			c2.43,0.29,4.64-1.44,4.95-3.87l4.21-31.2C428.64,466.13,426.97,463.88,424.55,463.51z M419.73,499.17l-30.44-4.11l3.31-24.51
			l30.44,4.11L419.73,499.17z M410.37,486.56l-15.22-2.05l-0.6,4.46l15.22,2.05L410.37,486.56z"/>
	</g>
	
		<rect id="Rectangle_149_1_" x="376.57" y="780.01" transform="matrix(0.9602 -0.2792 0.2792 0.9602 -216.669 154.6366)" class="st23" width="116" height="116"/>
	<text transform="matrix(0.9602 -0.2792 0.2792 0.9602 399.2232 884.3823)" class="st38 st30 st31">Places to eat</text>
	<path id="Icon_material-event-note_1_" class="st38" d="M440.73,819.89l-21.07,6.12l1.26,4.32l21.07-6.13L440.73,819.89z
		 M440.55,803.55l-2.11,0.61l-1.26-4.32l-4.21,1.23l1.26,4.32l-16.85,4.9l-1.26-4.32l-4.21,1.23l1.26,4.32l-2.11,0.61
		c-2.34,0.71-3.65,3.18-2.94,5.52c0,0.01,0,0.01,0.01,0.02l8.77,30.24c0.66,2.36,3.1,3.75,5.47,3.09c0,0,0,0,0,0l29.5-8.58
		c2.34-0.72,3.66-3.2,2.95-5.54l-8.79-30.23C445.35,804.28,442.91,802.9,440.55,803.55z M450.59,838.09l-29.5,8.58l-6.91-23.75
		l29.5-8.58L450.59,838.09z M436.92,830.36l-14.75,4.29l1.26,4.32l14.75-4.29L436.92,830.36z"/>
	<g id="Group_91_1_" transform="translate(220 306)" class="st1">
		
			<rect id="Rectangle_149-3_1_" x="566.17" y="438.73" transform="matrix(0.2697 -0.9629 0.9629 0.2697 -22.4967 963.7939)" class="st32" width="116" height="116"/>
		<text transform="matrix(0.9629 0.2697 -0.2697 0.9629 576.0677 516.6804)" class="st6 st30 st31">Attractions</text>
		<path id="Icon_material-event-note-3_1_" class="st6" d="M637.78,484.25l-21.13-5.92l-1.21,4.33l21.13,5.92L637.78,484.25z
			 M646.25,470.27l-2.11-0.59l1.21-4.33l-4.23-1.18l-1.21,4.33l-16.9-4.73l1.21-4.33l-4.23-1.18l-1.21,4.33l-2.11-0.59
			c-2.36-0.63-4.78,0.78-5.41,3.14c0,0.01,0,0.01,0,0.02l-8.51,30.31c-0.69,2.35,0.66,4.82,3.01,5.51c0,0,0,0,0,0l29.58,8.28
			c2.37,0.62,4.8-0.78,5.43-3.15l8.49-30.31C649.94,473.43,648.6,470.97,646.25,470.27z M636.55,504.92l-29.58-8.28l6.67-23.82
			l29.58,8.28L636.55,504.92z M629.02,491.13l-14.79-4.14l-1.21,4.33l14.79,4.14L629.02,491.13z"/>
	</g>
	<g id="Group_92_1_" transform="translate(330 306)" class="st1">
		
			<rect id="Rectangle_149-4_1_" x="238.99" y="436.51" transform="matrix(0.6607 -0.7506 0.7506 0.6607 -270.4321 390.6937)" class="st34" width="116" height="116"/>
		<text transform="matrix(0.7506 0.6607 -0.6607 0.7506 256.9703 502.2232)" class="st4 st30 st31">Events</text>
		<path id="Icon_material-event-note-4_1_" class="st4" d="M314.67,489.17l-16.47-14.5l-2.97,3.38l16.47,14.5L314.67,489.17z
			 M328.36,480.25l-1.65-1.45l2.97-3.38l-3.29-2.9l-2.97,3.38l-13.17-11.6l2.97-3.38l-3.29-2.9l-2.97,3.38l-1.65-1.45
			c-1.85-1.59-4.65-1.38-6.24,0.48c0,0-0.01,0.01-0.01,0.01l-20.82,23.62c-1.64,1.82-1.5,4.63,0.32,6.27c0,0,0,0,0,0l23.06,20.3
			c1.86,1.59,4.66,1.37,6.26-0.48l20.8-23.63C330.32,484.7,330.17,481.9,328.36,480.25z M304.59,507.26l-23.06-20.3l16.34-18.57
			l23.06,20.3L304.59,507.26z M303.78,491.57l-11.53-10.15l-2.97,3.38l11.53,10.15L303.78,491.57z"/>
	</g>
	<path class="st18" d="M363.42,863.47c75.57,169.53,151.15,339.06,226.72,508.6c52.43,0,104.85,0,157.28,0
		c55.85-170.2,111.69-340.39,167.54-510.59C731.11,862.14,547.27,862.81,363.42,863.47z"/>
	<rect x="348.11" y="826.77" class="st18" width="581.24" height="48.75"/>
	<path class="st39" d="M640.54,1584.46c-0.02,0.02-0.03,0.03-0.05,0.05c-0.43,0.41-1,0.66-1.59,0.71
		c-5.08,0.73-10.18,1.07-15.17,1.02c-5.37-0.05-8.6-0.67-11.92-2.29c-1.43-0.7-2.74-1.63-3.89-2.77c-2.51-2.49-4.02-5.73-4.26-9.14
		c-0.25-3.67,0.98-7.08,3.47-9.59c0.11-0.11,0.21-0.21,0.32-0.31c2.41-2.26,5.68-3.42,9.09-3.25l0.01-0.15l0.04,0.01
		c0.09-3.38,1.45-6.53,3.84-8.76c0.11-0.1,0.22-0.2,0.33-0.3c2.67-2.32,6.15-3.33,9.8-2.83c3.38,0.46,6.53,2.18,8.85,4.85
		c1.06,1.23,1.91,2.59,2.51,4.06c1.4,3.42,1.81,6.69,1.51,12.05c-0.28,4.98-0.95,10.05-2.01,15.07c-0.09,0.59-0.38,1.14-0.82,1.54
		C640.58,1584.42,640.54,1584.46,640.54,1584.46z"/>
	<path class="st39" d="M697.2,1652.28c-0.02,0-0.05-0.01-0.07-0.02c-0.61-0.14-1.17-0.48-1.56-0.97c-3.63-4-6.95-8.25-9.86-12.64
		c-3.13-4.72-4.5-7.92-5.06-11.78c-0.24-1.66-0.2-3.36,0.11-5.05c0.68-3.68,2.61-6.94,5.44-9.18c3.05-2.41,6.74-3.37,10.4-2.7
		c0.16,0.03,0.31,0.06,0.46,0.09c3.39,0.76,6.33,2.92,8.21,6l0.13-0.08l0.02,0.04c2.99-1.94,6.54-2.62,9.89-1.88
		c0.15,0.03,0.31,0.07,0.46,0.11c3.6,0.95,6.53,3.39,8.26,6.87c1.6,3.23,1.96,7,1.01,10.62c-0.44,1.66-1.13,3.21-2.05,4.62
		c-2.15,3.26-4.75,5.57-9.59,8.51c-4.5,2.73-9.31,5.17-14.3,7.24c-0.57,0.27-1.21,0.35-1.83,0.21
		C697.25,1652.3,697.2,1652.28,697.2,1652.28z"/>
	<path class="st39" d="M670,1703.5c0,0.02-0.01,0.05-0.01,0.07c-0.1,0.62-0.41,1.19-0.87,1.62c-3.79,3.86-7.84,7.41-12.06,10.56
		c-4.54,3.39-7.65,4.95-11.47,5.72c-1.65,0.33-3.35,0.4-5.05,0.18c-3.71-0.47-7.08-2.21-9.47-4.9c-2.58-2.91-3.75-6.54-3.29-10.23
		c0.02-0.16,0.04-0.31,0.07-0.47c0.56-3.43,2.55-6.49,5.52-8.54l-0.09-0.13l0.03-0.02c-2.11-2.88-2.99-6.38-2.44-9.77
		c0.03-0.16,0.05-0.31,0.09-0.47c0.74-3.64,3.01-6.71,6.38-8.64c3.13-1.79,6.88-2.36,10.54-1.62c1.68,0.34,3.27,0.94,4.73,1.79
		c3.38,1.96,5.83,4.42,9.04,9.09c2.99,4.33,5.69,9,8.05,13.86c0.3,0.55,0.41,1.19,0.31,1.81C670.01,1703.45,670,1703.5,670,1703.5z"
		/>
	<circle class="st1" cx="253.51" cy="1139.7" r="1.69"/>
	<g class="st1">
		<path class="st40" d="M243.59,1154.94c0.97,2.9-0.83,6.28-3.25,7.98c-2.95,2.07-7.93,2.44-10.48-0.85
			c-2.52-3.25-1.16-8.16,1.81-10.35C235.62,1148.79,242.21,1150.82,243.59,1154.94z"/>
		<path class="st15" d="M239.57,1151.03c-3.56-1.47-7.44-0.76-9.76,1.69c-1.62,1.71-2.32,4.1-2.03,6.22
			c0.53,3.94,4.52,7.34,9.83,7.78"/>
	</g>
</g>
<g id="Vrstva_3">
	<g>
		<path class="st41" d="M805.54,1733.9H325.03c-6.6,0-12-5.4-12-12V709.68c0-6.6,5.4-12,12-12h480.51c6.6,0,12,5.4,12,12V1721.9
			C817.54,1728.5,812.14,1733.9,805.54,1733.9z"/>
		<path class="st42" d="M764.69,1649.99H365.88c-6.6,0-12-5.4-12-12V758.7c0-6.6,5.4-12,12-12h398.81c6.6,0,12,5.4,12,12v879.29
			C776.69,1644.59,771.29,1649.99,764.69,1649.99z"/>
		<g>
			<defs>
				<path id="SVGID_1_" d="M764.69,1649.99H365.88c-6.6,0-12-5.4-12-12V758.7c0-6.6,5.4-12,12-12h398.81c6.6,0,12,5.4,12,12v879.29
					C776.69,1644.59,771.29,1649.99,764.69,1649.99z"/>
			</defs>
			<clipPath id="SVGID_2_">
				<use xlink:href="#SVGID_1_"  style="overflow:visible;"/>
			</clipPath>
			
				<rect x="595.78" y="719.44" transform="matrix(0.9833 0.1822 -0.1822 0.9833 228.6206 -95.8751)" class="st43" width="80.68" height="953.83"/>
			
				<rect x="701.96" y="751" transform="matrix(0.9833 0.1822 -0.1822 0.9833 235.6715 -109.4927)" class="st43" width="23.6" height="953.83"/>
		</g>
		<path class="st17" d="M764.69,1649.99H365.88c-6.6,0-12-5.4-12-12V758.7c0-6.6,5.4-12,12-12h398.81c6.6,0,12,5.4,12,12v879.29
			C776.69,1644.59,771.29,1649.99,764.69,1649.99z"/>
		<g>
			<path class="st44" d="M565.28,1712.11c-10.59,0-19.21-8.62-19.21-19.21s8.62-19.21,19.21-19.21s19.21,8.62,19.21,19.21
				S575.88,1712.11,565.28,1712.11z M565.28,1682.68c-5.63,0-10.21,4.58-10.21,10.21c0,5.63,4.58,10.21,10.21,10.21
				s10.21-4.58,10.21-10.21C575.5,1687.26,570.92,1682.68,565.28,1682.68z"/>
		</g>
		<path class="st45" d="M208.19,1284.69c1.33-0.34,2.67-0.68,4-1.02c2.9-1.49,5.81-2.98,8.71-4.47c10.42,0.95,12.88,1.92,12.9,2.68
			c0.02,0.62-1.56,0.92-6.48,2.51c-9.16,2.96-10.91,4.22-14.06,3.4C212.05,1287.46,210.19,1286.72,208.19,1284.69z"/>
		<path class="st15" d="M192.73,1304.21c23.62,5.61,42.82,4.19,47.78-5.06c2.37-4.42,2.17-12.04-1.17-14.94
			c-3.2-2.79-7.9-1.76-13.32-0.58c-0.3,0.07-0.64,0.14-0.64,0.14c-1.92,0.44-3.49,0.89-4.64,1.25"/>
		<path class="st15" d="M87.58,1620.94c-2.51,23.58-5.03,47.16-7.54,70.74c-2.22,6.23-4.44,12.46-6.67,18.69
			c6.17,8.82,16.83,13.38,27.38,11.7c10.13-1.61,18.6-8.72,22.03-18.47c-6.75-3.95-13.5-7.9-20.24-11.85
			c4.93-23.95,9.87-47.9,14.8-71.86C107.42,1620.25,97.5,1620.6,87.58,1620.94z"/>
		<path class="st16" d="M78.19,1698.54c0.86,1.06,2.15,2.63,3.75,4.52c2.62,3.09,3.93,4.63,4.57,5.18c2.86,2.45,7.68,4.27,12.68,3.2
			c5.56-1.19,8.55-5.35,9.26-6.38c-2.52-0.56-4.38-2.69-4.57-5.18c-0.18-2.28,1.05-4.49,3.13-5.58
			c10.59,5.64,21.17,11.28,31.76,16.93c2.74,0.14,20.17,1.02,30.05,2.76c1.09,0.19,3.18,0.59,5.43,1.98
			c4.62,2.86,6.26,7.69,6.73,9.06c1.41,4.14,1.03,7.79,0.67,9.75c-35.97-0.37-71.94-0.75-107.91-1.12
			c-0.29-6.3-0.58-12.59-0.87-18.89c0.08-1.68,0.3-3.62,0.78-5.72C74.72,1704.44,76.62,1700.91,78.19,1698.54z"/>
		<path class="st17" d="M181.53,1727c-36.05-0.27-72.1-0.54-108.16-0.81"/>
		<line class="st17" x1="135.87" y1="1709.67" x2="130.63" y2="1716.12"/>
		<path class="st15" d="M-38.59,1618.85c-8.68,25.04-17.53,50.17-26.55,75.39c-2.33,6.52-4.67,13.03-7.01,19.53
			c0.76,0.91,11.11,12.91,27.42,11.06c16.94-1.92,24.29-16.97,24.69-17.82c-7.54-4.16-15.07-8.32-22.61-12.48
			c12.79-24.28,25.57-48.56,38.36-72.83C-15.72,1620.75-27.15,1619.8-38.59,1618.85z"/>
		<path class="st16" d="M-67.05,1701.07c0.85,1.06,2.12,2.65,3.71,4.56c2.59,3.11,3.89,4.67,4.52,5.23
			c2.84,2.48,7.64,4.34,12.65,3.32c5.58-1.14,8.61-5.26,9.32-6.29c-2.51-0.59-4.35-2.73-4.52-5.23c-0.16-2.29,1.1-4.48,3.19-5.55
			c10.53,5.75,21.06,11.49,31.59,17.24c2.74,0.16,20.16,1.22,30.02,3.06c1.09,0.2,3.18,0.62,5.41,2.03
			c4.59,2.91,6.19,7.75,6.64,9.13c1.37,4.15,0.96,7.8,0.57,9.76c-35.96-0.73-71.93-1.46-107.89-2.18c-0.23-6.3-0.46-12.6-0.69-18.9
			c0.09-1.68,0.33-3.62,0.84-5.72C-70.58,1706.94-68.64,1703.43-67.05,1701.07z"/>
		<path class="st17" d="M36,1730.54c-36.04-0.63-72.08-1.27-108.12-1.9"/>
		<line class="st17" x1="-10.22" y1="1713.75" x2="-15.53" y2="1720.14"/>
		<line class="st17" x1="-16.03" y1="1710.22" x2="-21.34" y2="1716.61"/>
		<line class="st17" x1="-22.21" y1="1706.97" x2="-27.51" y2="1713.36"/>
		<line class="st17" x1="129.17" y1="1707.26" x2="124.78" y2="1712.65"/>
		<line class="st17" x1="122.78" y1="1703.61" x2="118.58" y2="1709.46"/>
		<path class="st16" d="M119.01,1199.4c-7.26,19.79-29.04,84.65-0.66,111.36c1.25,1.18,2.6,2.28,4.06,3.31
			c0.05,0.88,0.43,6,4.8,9.63c3.49,2.9,7.36,3.06,8.51,3.06c29.62-6.01,59.23-12.03,88.85-18.04c-2.42-9.31-4.84-18.61-7.26-27.92
			c-20.05,2.16-40.09,4.31-60.14,6.47c0-18.03-1.29-39.65-5.48-63.8c-3.93-22.66-7.16-28.85-9.19-32.17
			c-15.31-25.02-49.54-29.57-63.57-30.64"/>
		<path class="st19" d="M101.34,1329.28c-33.82-3.9-67.63-7.8-101.45-11.7c-7.3,65.36-14.6,130.72-21.89,196.09
			c-13.53,46.64-27.05,93.27-40.58,139.91c12.67,2.89,25.34,5.78,38.01,8.67c21.31-42.57,42.61-85.15,63.92-127.72
			c8.11-39.81,16.22-79.63,24.33-119.44"/>
		<path class="st19" d="M55.67,1454.44c7.05,14.97,14.1,29.95,21.15,44.92c-4.55,49.18-9.11,98.36-13.66,147.54
			c15.26,4.57,30.53,9.14,45.79,13.71c12.2-52.77,24.4-105.55,36.6-158.32c-0.49-2.42-0.99-4.84-1.51-7.27c0,0-0.77-3.65-1.56-7.29
			c-0.59-2.7-18.22-64.88-43.2-149.83"/>
		<path class="st10" d="M86.22,1191.46c3.62-0.25,30.77-1.66,48.19,18.62c16.87,19.64,17.86,51.75,6.41,59.15
			c-9.52,6.15-18.99-10.36-59.91-22.3c-20.98-6.12-33.62-6.19-39.68-17.12c-4.16-7.51-4.29-18.42,0.75-25
			c4.14-5.4,13.13-7.34,30.96-10.99C78.42,1192.7,83.01,1191.94,86.22,1191.46z"/>
		<path class="st16" d="M31.2,1221.29c-2.56,6.87-5.27,13.83-8.15,20.88c-9.07,22.17-18.79,42.7-28.75,61.6
			c-0.04,0.08-0.1,0.21-0.17,0.37c-1.75,3.82-1.95,7.28-2.07,9.68c-0.07,1.43-0.09,3.4,0.16,5.75c1.92,5.05,3.84,10.1,5.76,15.15
			c28.44,8.01,56.88,16.03,85.31,24.04c3.02,0.6,6.63,1.05,10.71,1.04c2.14,0,4.13-0.13,5.95-0.34c1.86-0.1,3.72-0.21,5.57-0.31
			c2.27-2.38,5.71-6.38,8.74-11.97c6.25-11.51,5.33-19.75,8.89-36.96c2.6-12.56,3.73-11.31,7.16-25.58
			c2.74-11.39,4.83-23.92,5.84-37.62"/>
		<g>
			<path class="st15" d="M1037.42,1618.31c2.51,23.58,5.03,47.16,7.54,70.74c2.22,6.23,4.44,12.46,6.67,18.69
				c-6.17,8.82-16.83,13.38-27.38,11.7c-10.13-1.61-18.6-8.72-22.03-18.47c6.75-3.95,13.5-7.9,20.24-11.85
				c-4.93-23.95-9.87-47.9-14.8-71.86C1017.58,1617.62,1027.5,1617.97,1037.42,1618.31z"/>
			<path class="st16" d="M1046.81,1695.91c-0.86,1.06-2.15,2.63-3.75,4.52c-2.62,3.09-3.93,4.63-4.57,5.18
				c-2.86,2.45-7.68,4.27-12.68,3.2c-5.56-1.19-8.55-5.35-9.26-6.38c2.52-0.56,4.38-2.69,4.57-5.18c0.18-2.28-1.05-4.49-3.13-5.58
				c-10.59,5.64-21.17,11.28-31.76,16.93c-2.74,0.14-20.17,1.02-30.05,2.76c-1.09,0.19-3.18,0.59-5.43,1.98
				c-4.62,2.86-6.26,7.69-6.73,9.06c-1.41,4.14-1.03,7.79-0.67,9.75c35.97-0.37,71.94-0.75,107.91-1.12
				c0.29-6.3,0.58-12.59,0.87-18.89c-0.08-1.68-0.3-3.62-0.78-5.72C1050.28,1701.81,1048.38,1698.28,1046.81,1695.91z"/>
			<path class="st17" d="M943.47,1724.37c36.05-0.27,72.1-0.54,108.16-0.81"/>
			<line class="st17" x1="989.13" y1="1707.05" x2="994.37" y2="1713.49"/>
			<path class="st15" d="M1163.59,1616.22c8.68,25.04,17.53,50.17,26.55,75.39c2.33,6.52,4.67,13.03,7.01,19.53
				c-0.76,0.91-11.11,12.91-27.42,11.06c-16.94-1.92-24.29-16.97-24.69-17.82c7.54-4.16,15.07-8.32,22.61-12.48
				c-12.79-24.28-25.57-48.56-38.36-72.83C1140.72,1618.12,1152.15,1617.17,1163.59,1616.22z"/>
			<path class="st16" d="M1192.05,1698.44c-0.85,1.06-2.12,2.65-3.71,4.56c-2.59,3.11-3.89,4.67-4.52,5.23
				c-2.84,2.48-7.64,4.34-12.65,3.32c-5.58-1.14-8.61-5.26-9.32-6.29c2.51-0.59,4.35-2.73,4.52-5.23c0.16-2.29-1.1-4.48-3.19-5.55
				c-10.53,5.75-21.06,11.49-31.59,17.24c-2.74,0.16-20.16,1.22-30.02,3.06c-1.09,0.2-3.18,0.62-5.41,2.03
				c-4.59,2.91-6.19,7.75-6.64,9.13c-1.37,4.15-0.96,7.8-0.57,9.76c35.96-0.73,71.93-1.46,107.89-2.18c0.23-6.3,0.46-12.6,0.69-18.9
				c-0.09-1.68-0.33-3.62-0.84-5.72C1195.58,1704.31,1193.64,1700.8,1192.05,1698.44z"/>
			<path class="st17" d="M1089,1727.91c36.04-0.63,72.08-1.27,108.12-1.9"/>
			<line class="st17" x1="1135.22" y1="1711.12" x2="1140.53" y2="1717.51"/>
			<line class="st17" x1="1141.03" y1="1707.59" x2="1146.34" y2="1713.98"/>
			<line class="st17" x1="1147.21" y1="1704.34" x2="1152.51" y2="1710.73"/>
			<line class="st17" x1="995.83" y1="1704.63" x2="1000.22" y2="1710.02"/>
			<line class="st17" x1="1002.22" y1="1700.98" x2="1006.42" y2="1706.83"/>
		</g>
		<g>
			<path class="st45" d="M70.72,1320.2c0.87,0.97,1.75,1.93,2.62,2.9c2.58,1.81,5.15,3.62,7.73,5.43c3.59,8.97,3.77,11.38,3.1,11.7
				c-0.55,0.26-1.5-0.93-5.02-4.36c-6.56-6.4-8.44-7.35-9.04-10.27C69.88,1324.48,69.75,1322.65,70.72,1320.2z"/>
			<path class="st15" d="M84.44,1345.73c1.13-3.74-1.79-7.21-5.16-11.22c-1.29-1.54-11.63-13.84-18.99-11.11
				c-3.69,1.37-4.86,5.87-5.12,6.88c-2.38,9.21,6.14,21.73,16.36,22.28C76.61,1352.82,83.08,1350.19,84.44,1345.73z"/>
		</g>
		<path class="st16" d="M74.06,1210.15c-13.87,8.19-27.74,16.37-41.61,24.56c12.84,27.48,25.67,54.96,38.51,82.45
			c-6.39,8.67-12.79,17.34-19.18,26.01c-24.16-33.24-48.31-66.47-72.47-99.71c-1.07-1.32-6.01-7.73-4.65-16.81
			c0.69-4.61,2.74-8.06,4.06-9.94c25.86-19.78,51.72-39.57,77.59-59.35"/>
		<path class="st15" d="M124.23,1182.94c3.63-9.83,7.26-19.67,10.89-29.5c3,1.65,6.01,3.3,9.01,4.95c0.45,0.18,1.14,0.38,1.89,0.2
			c1.32-0.31,2.03-1.58,2.49-2.45c1.69-3.13,3.06-5.98,3.9-7.8c-0.85-1.35-1.7-2.7-2.55-4.06c1.89,0.2,3.79,0.4,5.68,0.6
			c1.78-2.25,3.56-4.5,5.34-6.74c1.66,0.15,3.32,0.29,4.99,0.44c-0.39-3.66-0.79-7.31-1.18-10.97c-0.27-2.23-0.56-5.69-0.28-9.93
			c0.24-3.69,0.71-5.11,0.53-7.69c-0.17-2.4-0.92-5.88-3.69-10.01c-1.73-3.23-6.38-10.8-15.67-15.1
			c-11.92-5.52-25.87-3.06-34.97,3.92c-1.04,0.8-3.58,2.86-5.76,5.82c-12.41,16.87-0.03,45.42,1.58,49.01
			c-2.89,3.29-5.79,6.57-8.68,9.86c-13,0.82-25.99,1.64-38.99,2.46c-1.04,0.29-2.94,0.97-4.75,2.6c-1.67,1.5-3.38,3.87-3.44,5.38
			c-0.15,3.86,10.16,8.14,24.66,11.17c20.2,14.41,37.99,18.56,52.16,18.66c0.38,0,0.77,0,1.15,0
			C127.09,1190.14,125.66,1186.54,124.23,1182.94z"/>
		<path class="st16" d="M73,1210.78c-0.39,0.23-14.2,8.38-14.59,8.61c-1.24,0.73-24.71,14.58-25.96,15.32
			c12.83,27.48,25.67,54.97,38.51,82.45c-6.4,8.67-12.79,17.34-19.19,26.01c-24.15-33.24-48.31-66.47-72.47-99.71
			c-1.07-1.32-6.01-7.73-4.65-16.81c0.7-4.61,2.74-8.06,4.06-9.94c24.33-18.78,48.67-37.56,73-56.33c0.65-0.6,1.41-1.23,2.28-1.85
			c1.71-1.22,3.37-2.04,4.76-2.6c10.03-0.65,20.06-1.3,30.09-1.95"/>
		<path class="st10" d="M90.82,1156.23c1.32,1.3,3.31,3.27,5.74,5.68c4.92,4.87,10.02,9.94,11.58,11.5
			c3.96,3.96,10.22,10.4,19.23,20.34c1.89,2.79,4.35,6.64,6.97,11.36c1.5,2.7,14.46,26.15,11.07,28.89
			c-4.44,3.6-42.03-44.36-58.55-35.74c-0.53,0.28-0.38,0.27-1.36,0.85c-11.65,6.91-31.92,7.42-39.68-4.53
			c-4.68-7.2-4.4-18.28,0.75-25c4.14-5.4,13.13-7.34,30.96-10.99C83.01,1157.46,87.6,1156.71,90.82,1156.23z"/>
		<path class="st17" d="M87.03,1154.42c3.14,2.32,6.33,4.81,9.53,7.48c12.61,10.51,22.72,21.49,30.81,31.84c0.38,0,0.77,0,1.15,0"/>
		<path class="st16" d="M130.67,1101.3c12.38,3.53,24.77,7.05,37.15,10.58c0.54-3.14,0.98-8.33-0.82-14.12
			c-4.6-14.83-19.74-20.58-23.94-22.08c-3.86-1.37-15.34-5.44-26.79-0.69c-1.02,0.42-1.98,0.9-2.91,1.49
			c-7.56,4.79-16.34,13.65-19.24,25.99c-4.78,20.35,9.05,36.01,10.23,37.3c3.4,0.31,6.8,0.61,10.2,0.92
			c1.87-7.77,3.74-15.55,5.61-23.32c2.65-2.23,5.3-4.45,7.96-6.68c-0.12,2.93-0.24,5.85-0.36,8.78c1.59,0.25,3.19,0.49,4.78,0.74
			c1.44-5.71,2.87-11.42,4.31-17.12"/>
		<path class="st40" d="M133.84,1121.65c-1.63,2.58-5.39,3.32-8.24,2.52c-3.47-0.98-6.9-4.61-5.96-8.66
			c0.93-4.01,5.6-6.05,9.17-5.14C133.57,1111.59,136.16,1117.99,133.84,1121.65z"/>
		<path class="st15" d="M134.33,1116.07c-1.11-3.68-4.11-6.25-7.47-6.5c-2.35-0.18-4.64,0.79-6.1,2.35
			c-2.72,2.9-2.84,8.14,0.17,12.53"/>
		<path class="st16" d="M1040.8,1225.44c-33.44,10.76-105.09,33.55-112.93,33.15c-1.99-0.1-8.22-0.42-8.2-1.12c0,0,0,0,0,0
			c-5.05-2.54-6.44-7.59-6.67-8.46c-2.79-35.17-5.58-70.34-8.36-105.51c11.15-1.75,22.31-3.51,33.46-5.26
			c3.76,24.89,7.51,49.78,11.27,74.66c11.64-6.66,23.64-13.28,36-19.83c20.51-10.87,30.77-16.31,38.15-19.4
			c9.85-4.12,24.68-9.04,44.44-10.92"/>
		<path class="st19" d="M1103.11,1288.84c-2.81,19.67-5.61,39.33-8.42,58.99l-41.01,147.21c-1.3,22.38-1.62,47.31-0.2,74.33
			c1.53,29.11,4.82,55.61,8.87,79.09c-9.12,1.9-18.31,3.77-27.57,5.62c-6.28,1.25-12.54,2.48-18.77,3.69
			c-12.49-55.3-23.51-111.73-32.9-169.32c-0.45-2.79-0.9-5.57-1.35-8.36v-0.01c6.21-23.99,12.65-48.2,19.32-72.64
			c7.21-26.42,14.52-52.47,21.92-78.17c12.53-4.29,26.66-9.98,41.69-17.59C1079.52,1304.19,1092.32,1296.29,1103.11,1288.84z"/>
		<path class="st19" d="M1028.14,1328.8c32.1-3.74,64.2-7.49,96.31-11.23c7.3,65.36,14.6,130.72,21.89,196.09
			c16.26,44.76,32.52,89.53,48.78,134.29c-14.78,3.98-29.56,7.96-44.33,11.94c-21.93-41.79-43.87-83.58-65.8-125.37
			c-8.11-39.81-16.22-79.63-24.33-119.44"/>
		<path class="st46" d="M1032.23,1173.57c1.75-0.94,3.74-1.85,5.95-2.74c3.43-1.38,6-2.22,7.26-2.62
			c12.41-3.96,13.6-6.34,18.96-6.38c1.85-0.01,2.84,0.26,11.22,3.31c12.9,4.69,19.35,7.04,20.68,7.91
			c7.41,4.85,10.53,13.11,13.53,23.74c7.17,25.41,5.93,46.88,6.13,60c0.23,14.78,1.9,35.55,8.48,60.77
			c-33.82,3.9-67.63,7.8-101.45,11.7c-0.41-3.98-1.06-10.43-1.85-18.37c-6.62-67.3-5.87-64.31-6.46-72.99
			c-1.1-16.19-1.94-17.72-1.02-24.51c0.48-3.55,1.16-6.48,1.76-8.59"/>
		<path class="st15" d="M1028,1178.98c2.26-2.91,4.52-5.82,6.77-8.73c-0.27-7.99-0.54-15.99-0.81-23.98
			c-3.4,0.42-6.8,0.84-10.21,1.26c-0.48,0-1.2-0.07-1.83-0.52c-1.11-0.78-1.29-2.22-1.41-3.2c-0.41-3.53-0.62-6.69-0.73-8.69
			c1.29-0.94,2.58-1.88,3.88-2.82c-1.83-0.52-3.66-1.03-5.5-1.55c-0.82-2.75-1.64-5.49-2.46-8.24c-1.6-0.48-3.2-0.96-4.8-1.44
			c1.72-3.25,3.44-6.5,5.16-9.75c1.08-1.97,2.62-5.08,3.94-9.12c1.15-3.51,1.23-5.01,2.36-7.34c1.05-2.17,3.03-5.12,7.14-7.94
			c2.8-2.36,9.93-7.67,20.15-8.23c13.11-0.71,25.16,6.74,31.03,16.59c0.67,1.12,2.27,3.98,3.2,7.54
			c5.28,20.27-16.8,42.2-19.61,44.94c0.05,5.54,0.1,11.07,0.16,16.61"/>
		<path class="st40" d="M1026.96,1180.47c2.01-1.62,4.02-3.24,6.03-4.86c5.96-4.6,11.91-9.19,17.87-13.79
			c5.19,0.33,10.38,0.67,15.57,1c-3.14,3.87-7.42,8.41-13.09,12.8c-8.44,6.52-16.68,10.17-22.66,12.24
			C1029.45,1185.4,1028.2,1182.93,1026.96,1180.47z"/>
		<path class="st10" d="M1027.79,1246.85c16.83,13.02,66.77-13.54,65.56-34.47c-0.34-5.85-4.59-9.82-6.38-11.49
			c-14.77-13.78-50.38-10.75-61.73,11.23C1019.66,1222.94,1019.04,1240.08,1027.79,1246.85z"/>
		<g>
			<path class="st45" d="M954.11,1238.94c-1.14-0.64-2.27-1.28-3.41-1.92c-2.33-2.11-4.67-4.23-7-6.34
				c-9.54-1.53-11.93-1.17-12.09-0.45c-0.13,0.59,1.24,1.26,5.36,3.93c7.69,4.99,9.03,6.61,12.01,6.56
				C950.12,1240.7,951.93,1240.42,954.11,1238.94z"/>
			<path class="st15" d="M926.19,1231.18c3.39-1.93,7.43,0.16,12.08,2.56c1.79,0.92,16.06,8.29,15.02,16.07
				c-0.52,3.9-4.65,6.03-5.58,6.51c-8.46,4.35-22.55-1.2-25.33-11.05C920.99,1240.38,922.13,1233.48,926.19,1231.18z"/>
		</g>
		<path class="st16" d="M1061.84,1205.74c-11.23,18.38-22.47,36.77-33.7,55.15c-26.08-10.12-52.16-20.23-78.24-30.35
			c-5.84,9.61-11.67,19.21-17.51,28.82c47.48,28.05,83.06,47.95,94.1,53.52c3.36,1.7,9.85,4.93,17.15,3.18
			c4.54-1.09,7.8-3.42,9.55-4.9c15.14-26.71,30.27-53.43,45.41-80.14"/>
		<path class="st16" d="M1094.04,1150.62c-1.96,0.76-4.75,1.85-8.13,3.2c-0.9,0.36-1.53,0.61-1.57,0.63
			c-14.33,5.54-28.08,5.57-38.33,4.33c-0.21-1.9-0.46-4.77-0.53-8.26c-0.12-6.44,0.45-11.3,0.84-14.41
			c1.89-15.24,4.7-33.27,5.06-35.55c-10.31-2.36-20.62-4.72-30.93-7.07c0.59-2.67,1.88-6.81,5.03-10.76
			c9.66-12.12,27.45-10.8,30.81-10.55c4.09,0.3,16.23,1.21,24.8,10.17c4.52,4.73,6.1,10.03,9.2,34.08
			C1091.44,1125.39,1092.8,1136.99,1094.04,1150.62z"/>
		<circle cx="153.06" cy="1119.27" r="1.69"/>
		<circle cx="1029.93" cy="1109.16" r="1.69"/>
		<g>
			<g id="Group_125" transform="translate(-23 -482)">
				<rect id="Rectangle_153" x="248.93" y="1744.08" class="st16" width="524.94" height="86.69"/>
				<text transform="matrix(1 0 0 1 386.9873 1787.4205)" class="st47 st48 st49">Tour de Femme</text>
				<text transform="matrix(1 0 0 1 386.9873 1805.0778)" class="st47 st48 st50">I og omkring Aarhus, Aarhus C</text>
				<text transform="matrix(1 0 0 1 274.6152 1780.9987)" class="st51 st52 st53">May</text>
				<text transform="matrix(1 0 0 1 275.7197 1811.4996)" class="st51 st52 st53">14</text>
				<line id="Line_147" class="st54" x1="354.08" y1="1744.08" x2="354.08" y2="1830.76"/>
			</g>
			<path class="st55" d="M700.67,1318.81c-0.02,0-0.03,0-0.05,0c-0.42,0-0.83-0.14-1.16-0.4c-2.95-2.08-5.74-4.37-8.27-6.81
				c-2.73-2.63-4.09-4.51-5.02-6.95c-0.4-1.05-0.62-2.16-0.67-3.31c-0.09-2.5,0.69-4.91,2.21-6.78c1.64-2.02,3.91-3.18,6.39-3.28
				c0.11,0,0.21-0.01,0.32-0.01c2.32,0,4.56,0.98,6.23,2.72l0.07-0.07l0.02,0.02c1.67-1.7,3.88-2.67,6.18-2.67
				c0.11,0,0.21,0,0.32,0.01c2.48,0.09,4.75,1.26,6.39,3.28c1.52,1.87,2.3,4.28,2.21,6.78c-0.04,1.15-0.27,2.26-0.67,3.31
				c-0.93,2.44-2.29,4.32-5.02,6.95c-2.54,2.44-5.32,4.73-8.27,6.81c-0.33,0.26-0.74,0.4-1.16,0.4
				C700.71,1318.81,700.67,1318.81,700.67,1318.81z"/>
		</g>
		<g>
			<g id="Group_125_1_" transform="translate(-23 -482)">
				<rect id="Rectangle_153_1_" x="449.09" y="1593.06" class="st16" width="524.94" height="86.69"/>
				<text transform="matrix(1 0 0 1 587.1509 1636.4066)" class="st47 st48 st49">Tour de Femme</text>
				<text transform="matrix(1 0 0 1 587.1509 1654.0638)" class="st47 st48 st50">I og omkring Aarhus, Aarhus C</text>
				<text transform="matrix(1 0 0 1 474.7788 1629.9847)" class="st51 st52 st53">May</text>
				<text transform="matrix(1 0 0 1 475.8833 1660.4857)" class="st51 st52 st53">14</text>
				<line id="Line_147_1_" class="st54" x1="554.24" y1="1593.06" x2="554.24" y2="1679.75"/>
			</g>
			<path class="st55" d="M906.83,1166.89c-0.02,0-0.03,0-0.05,0c-0.42,0-0.83-0.14-1.16-0.4c-2.95-2.08-5.74-4.37-8.27-6.81
				c-2.73-2.63-4.09-4.51-5.02-6.95c-0.4-1.05-0.62-2.16-0.67-3.31c-0.09-2.5,0.69-4.91,2.21-6.78c1.64-2.02,3.91-3.18,6.39-3.28
				c0.11,0,0.21-0.01,0.32-0.01c2.32,0,4.56,0.98,6.23,2.72l0.07-0.07l0.02,0.02c1.67-1.7,3.88-2.67,6.18-2.67
				c0.11,0,0.21,0,0.32,0.01c2.48,0.09,4.75,1.26,6.39,3.28c1.52,1.87,2.3,4.28,2.21,6.78c-0.04,1.15-0.27,2.26-0.67,3.31
				c-0.93,2.44-2.29,4.32-5.02,6.95c-2.54,2.44-5.32,4.73-8.27,6.81c-0.33,0.26-0.74,0.4-1.16,0.4
				C906.87,1166.89,906.83,1166.89,906.83,1166.89z"/>
		</g>
		<path class="st17" d="M1026.96,1180.47c0.87,2.58,1.74,5.16,2.62,7.75c8.53-3.17,19.23-8.39,29.72-17.2
			c3.28-2.75,6.16-5.54,8.68-8.25"/>
		<g>
			<path class="st15" d="M918.45,1112.4c1.02,0.68,2.21,0.07,2.42-0.04c0.25-0.14,0.9-0.49,1.3-1.26c0.89-1.73,0.36-5.26-1.51-5.93
				c-1.15-0.41-2.51,0.37-3.19,1.74C916.51,1108.84,917.14,1111.53,918.45,1112.4z"/>
			<path class="st15" d="M926.04,1115.26c1.36,0.95,3.74,0.68,4.9-0.65c0.89-1.02,0.74-2.3,0.5-4.52c-0.24-2.2-0.38-3.58-1.48-4.41
				c-1.85-1.39-5.39-0.45-6.2,1.34c-0.14,0.31-0.23,0.71,0.61,3.89C925.36,1114.68,925.72,1115.04,926.04,1115.26z"/>
			<path class="st15" d="M932.63,1108.08c1.23-1.82,5.37-1.82,6.56-0.1c0.25,0.36,0.28,0.65,0.21,3.14
				c-0.12,4.22-0.23,4.59-0.58,4.98c-1.11,1.2-3.56,1.36-4.86,0.29c-0.68-0.57-0.88-1.75-1.24-4.1
				C932.36,1109.93,932.19,1108.73,932.63,1108.08z"/>
			<path class="st15" d="M941.94,1114.15c0.92,0.56,1.98,0.07,2.16-0.02c0.23-0.11,0.81-0.39,1.16-1.03
				c0.79-1.41,0.29-4.32-1.38-4.87c-1.03-0.34-2.24,0.29-2.84,1.41C940.19,1111.22,940.77,1113.43,941.94,1114.15z"/>
		</g>
		<path class="st40" d="M1057.87,1113.98c0.02,3.16-0.25,5.97-0.63,8.32c4.11-0.26,7.36-3.39,7.74-7.12
			c0.44-4.28-2.98-8.46-7.74-8.82C1057.59,1108.56,1057.85,1111.12,1057.87,1113.98z"/>
		<path class="st15" d="M1057.25,1106.37c3.81-0.57,7.44,1.29,8.86,4.32c2,4.27-1.26,9.32-4.83,11.06c-1.29,0.63-2.52,0.78-3.37,0.8
			"/>
	</g>
</g>
</svg>
