<svg id="Vrstva_2" data-name="Vrstva 2" xmlns="http://www.w3.org/2000/svg" viewBox="0 0 735.38 1156.68"><defs><style>.cls-1,.cls-27,.cls-5{fill:#f4dfcc;}.cls-1,.cls-16,.cls-2,.cls-22,.cls-27,.cls-28,.cls-3,.cls-4,.cls-7{stroke:#000;stroke-width:2px;}.cls-1,.cls-2,.cls-22,.cls-27,.cls-28,.cls-3,.cls-4{stroke-linecap:round;}.cls-1,.cls-2,.cls-3,.cls-4{stroke-linejoin:round;}.cls-2,.cls-28,.cls-6{fill:#c3ebff;}.cls-3{fill:none;}.cls-4{fill:#fff;}.cls-7{fill:#ffe882;}.cls-16,.cls-22,.cls-27,.cls-28,.cls-31,.cls-7{stroke-miterlimit:10;}.cls-17,.cls-23,.cls-29,.cls-8,.cls-9{isolation:isolate;}.cls-17,.cls-23,.cls-9{font-size:14.81px;}.cls-15,.cls-9{fill:#dba200;}.cls-17,.cls-23,.cls-29,.cls-9{font-family:VisitDenmark-Regular, VisitDenmark;}.cls-10{letter-spacing:0em;}.cls-11{letter-spacing:0em;}.cls-12{letter-spacing:-0.02em;}.cls-13{letter-spacing:0em;}.cls-14{letter-spacing:-0.01em;}.cls-16{fill:#a3eabf;}.cls-17,.cls-21{fill:#007554;}.cls-18{letter-spacing:-0.01em;}.cls-19{letter-spacing:-0.01em;}.cls-20{letter-spacing:0em;}.cls-22{fill:#fac5cc;}.cls-23,.cls-26{fill:#9a0035;}.cls-24{letter-spacing:-0.01em;}.cls-25{letter-spacing:-0.02em;}.cls-29{font-size:14.56px;}.cls-29,.cls-30{fill:#00587a;}.cls-31{fill:#df041f;stroke:#1d1d1b;stroke-width:3px;}</style></defs><path class="cls-1" d="M404.22,1588.75q-7.12,35.07-14.26,70.13l-17.17,10.52c0,1,1,17.77,16,26.24,15.17,8.57,30.22.41,31,0q-5.83-11.71-11.66-23.41,12.89-32.2,25.78-64.4Z" transform="translate(-194.97 -639.3)"/><path class="cls-2" d="M384.42,1663.32c.07,1.36.19,3.39.37,5.86.29,4,.44,6.06.63,6.89a15.15,15.15,0,0,0,8.36,10.06,15.41,15.41,0,0,0,11.24.31,5.76,5.76,0,0,1,5.19-9.55q7.83,16.2,15.65,32.4c2.14,1.73,15.69,12.73,22.64,20a14.71,14.71,0,0,1,3.21,4.8c2,5,.52,9.9.09,11.29a19.33,19.33,0,0,1-5.21,8.26L360.12,1689l10.44-15.77a31.88,31.88,0,0,1,4-4.16A32.24,32.24,0,0,1,384.42,1663.32Z" transform="translate(-194.97 -639.3)"/><path class="cls-3" d="M451.08,1747.26l-87.52-65.94" transform="translate(-194.97 -639.3)"/><line class="cls-3" x1="229.46" y1="1067.04" x2="221.43" y2="1069.15"/><line class="cls-3" x1="226.79" y1="1060.79" x2="218.75" y2="1062.9"/><line class="cls-3" x1="223.66" y1="1054.55" x2="215.63" y2="1056.66"/><path class="cls-2" d="M405.39,1269.34" transform="translate(-194.97 -639.3)"/><path class="cls-1" d="M448.15,1296.14c.07-4.57-10.7-8.07-12.09-8.5-1.09-.35-18.27-5.6-22.6,1.51-2,3.33-.25,7.77.3,9.12,4.1,10.16,19.26,14.93,25,10.65,1.39-1,1-1.65,5.4-7.16C447.31,1297.85,448.13,1297.39,448.15,1296.14Z" transform="translate(-194.97 -639.3)"/><path class="cls-1" d="M447.07,1287.57a2.43,2.43,0,0,0-.82,2.27,2.93,2.93,0,0,0,.71,1.67c1.29,1.45,4.78,2.22,6.07.71a2.75,2.75,0,0,0-.48-3.59C451.09,1287,448.34,1286.66,447.07,1287.57Z" transform="translate(-194.97 -639.3)"/><path class="cls-1" d="M441.68,1293.63a4,4,0,0,0-1.15,4.81c.63,1.2,1.89,1.51,4.05,2.08s3.48.93,4.64.2c2-1.23,2.35-4.87,1-6.28-.24-.24-.57-.46-3.85-.81C442.46,1293.21,442,1293.42,441.68,1293.63Z" transform="translate(-194.97 -639.3)"/><path class="cls-1" d="M446,1302.35c1.26,1.81-.22,5.67-2.26,6.17-.42.1-.71,0-3-.93-3.9-1.62-4.21-1.86-4.44-2.33a3.88,3.88,0,0,1,1.47-4.64c.78-.43,1.95-.19,4.27.31S445.58,1301.71,446,1302.35Z" transform="translate(-194.97 -639.3)"/><path class="cls-1" d="M437,1308.88a2.36,2.36,0,0,0-.75,2,2.56,2.56,0,0,0,.54,1.45c1,1.24,3.93,1.82,5.05.45a2.51,2.51,0,0,0-.3-3.15A3.67,3.67,0,0,0,437,1308.88Z" transform="translate(-194.97 -639.3)"/><path class="cls-2" d="M351.72,1173c-25.65,60.08-43.29,104.46-44.45,112.17a15.51,15.51,0,0,0,.9,8.1,14.08,14.08,0,0,0,7.93,7.22l108.52,12.35q-1.23-13.83-2.44-27.67l-69.52-21,23.58-89.66" transform="translate(-194.97 -639.3)"/><path class="cls-4" d="M480.29,1491.83l-76-140.47-96.51,25.53,19,21.26,76.53,91.76q-14.73,72.87-29.45,145.73l38.5,24.29Q446.32,1575.87,480.29,1491.83Z" transform="translate(-194.97 -639.3)"/><path class="cls-1" d="M290.93,1666.43q-2.65,40.1-5.33,80.19-4.31,9.11-8.62,18.2c.9,1.13,11,13.29,27.57,12.25,16.9-1,25.38-14.81,26.07-16l-22.56-13.22,8.4-74Z" transform="translate(-194.97 -639.3)"/><path class="cls-2" d="M283.39,1753.36a21.16,21.16,0,0,0,3.51,4.72,14.21,14.21,0,0,0,4.37,3.33c2,.88,3,.44,9.87-.21,5.33-.51,7.28-.5,7.94-1.85.48-1-.21-1.69-.1-3.3.17-2.41,1.94-4.24,3.42-5.41l30.83,18.57c2.73.27,20.09,2.08,29.86,4.33a15,15,0,0,1,5.32,2.26,16.82,16.82,0,0,1,6.24,9.41,19.45,19.45,0,0,1,.16,9.77l-107.7-6.79.12-18.91a31.73,31.73,0,0,1,1.08-5.67A32.46,32.46,0,0,1,283.39,1753.36Z" transform="translate(-194.97 -639.3)"/><path class="cls-3" d="M385.1,1787.21l-109.34-7.37" transform="translate(-194.97 -639.3)"/><line class="cls-3" x1="145.44" y1="1128.21" x2="139.87" y2="1134.37"/><line class="cls-3" x1="139.79" y1="1124.44" x2="134.21" y2="1130.6"/><line class="cls-3" x1="133.76" y1="1120.93" x2="128.18" y2="1127.09"/><path class="cls-4" d="M406.44,1360.08l-118,20.25q2.44,98.61,4.9,197.24-6.86,63.81-13.7,127.61l41.79,18q17.76-66.66,35.53-133.32,4.74-73,9.49-146" transform="translate(-194.97 -639.3)"/><path class="cls-2" d="M242,1290.85q4.4,9.29,8.63,19.24a537.5,537.5,0,0,1,19.17,52.46q2.69,4.93,5.39,9.86a10.32,10.32,0,0,0,7.11,6.33l6.2,1.59c35-5,70.7-10.85,106.83-18l13.79-2.73a331.28,331.28,0,0,0-38-86.63c-9.23-14.76-17.86-28.21-33-42.3-24.86-23.13-52.22-33-69.45-37.62q6.63,7.79,13.27,15.58" transform="translate(-194.97 -639.3)"/><path class="cls-5" d="M269.37,1195.7c.06.5-.57.8-3.4,3.37-1.18,1.08-2.41,2.1-3.66,3.09q-26.94,4.2-26.83,7.5.09,2.41,14.66,4.36l21.34-1.55,14.81-1.54q-1.65-6-3.32-12a54.24,54.24,0,0,0-6-2.49,56,56,0,0,0-17-3.12C267.35,1193.85,269.26,1194.82,269.37,1195.7Z" transform="translate(-194.97 -639.3)"/><path class="cls-1" d="M274.29,1201.49q-3.78-12.27-7.58-24.53l9.82-3.06a3.19,3.19,0,0,0,1.46-1.23,4.32,4.32,0,0,0,0-3.49c-.95-3-2-5.78-2.89-7.78h-8.94l8.6-5.09c-.39-2.84-.77-5.68-1.16-8.52l3.78-3.29q-4.36-3.37-8.72-6.76a52,52,0,0,1-7.35-6.68c-2.49-2.73-3.19-4.06-5.18-5.71a20.25,20.25,0,0,0-9.77-4.29,33.68,33.68,0,0,0-43.18,28.71,30,30,0,0,0,.19,8.19c3.55,20.64,32.7,31.53,36.4,32.86q.53,6.54,1.07,13.09l-8,8.15" transform="translate(-194.97 -639.3)"/><path class="cls-6" d="M235.48,1210.93l55.15.26a23.08,23.08,0,0,1,11.83-.69c12,2.65,21.68,16.28,20.83,26-1.5,17.08-47.75,8.15-91.58,25.17-2.61,1-7.65,2.8-10.56.45C214.13,1256.41,225.24,1231.06,235.48,1210.93Z" transform="translate(-194.97 -639.3)"/><g id="Group_14" data-name="Group 14"><rect id="Rectangle_149" data-name="Rectangle 149" class="cls-7" x="301.73" y="1112.29" width="116" height="116" transform="translate(-449.55 -528.07) rotate(-13.03)"/><g id="Places_to_eat" data-name="Places to eat" class="cls-8"><text class="cls-9" transform="translate(120.42 493.08) rotate(76.97)">Pl<tspan class="cls-10" x="14.62" y="0">a</tspan><tspan class="cls-11" x="23.38" y="0">ces </tspan><tspan class="cls-12" x="51.78" y="0">t</tspan><tspan class="cls-13" x="57.52" y="0">o </tspan><tspan class="cls-14" x="70.68" y="0">e</tspan><tspan class="cls-13" x="79.4" y="0">at</tspan></text></g><path id="Icon_material-event-note" data-name="Icon material-event-note" class="cls-15" d="M377.49,1177.44l-4.95-21.38-4.38,1,4.95,21.37Zm16.33.73-.5-2.14,4.38-1-1-4.27-4.38,1-3.95-17.1,4.38-1-1-4.28-4.38,1-.5-2.14a4.42,4.42,0,0,0-5.35-3.24h0l-30.68,7.08a4.43,4.43,0,0,0-3.39,5.28h0l6.92,29.93a4.46,4.46,0,0,0,5.37,3.26l30.67-7.1A4.46,4.46,0,0,0,393.82,1178.17Zm-35.06,8.11-6.92-29.93,24.1-5.58,6.92,29.93Zm8.49-13.23-3.47-15-4.38,1,3.46,15Z" transform="translate(-194.97 -639.3)"/></g><g id="Group_91" data-name="Group 91"><rect id="Rectangle_149-3" data-name="Rectangle 149-3" class="cls-16" x="357.67" y="1173.18" width="116" height="116" transform="translate(-1076.97 660.08) rotate(-74.35)"/><g id="Attractions" class="cls-8"><text class="cls-17" transform="translate(172.59 611.83) rotate(15.65)">A<tspan class="cls-18" x="10.62" y="0">t</tspan><tspan x="16.42" y="0">t</tspan><tspan class="cls-19" x="22.43" y="0">r</tspan><tspan class="cls-20" x="28.24" y="0">a</tspan><tspan x="37.01" y="0">ctions</tspan></text></g><path id="Icon_material-event-note-3" data-name="Icon material-event-note-3" class="cls-21" d="M429.27,1218.7l-21.12-5.92-1.22,4.33,21.13,5.92Zm8.48-14-2.12-.59,1.22-4.33-4.23-1.18-1.21,4.33-16.9-4.74,1.21-4.33-4.23-1.18-1.21,4.33-2.11-.59a4.43,4.43,0,0,0-5.42,3.13v0l-8.51,30.31a4.44,4.44,0,0,0,3,5.51h0l29.58,8.29a4.46,4.46,0,0,0,5.43-3.15l8.49-30.31A4.46,4.46,0,0,0,437.75,1204.72ZM428,1239.37l-29.58-8.29,6.67-23.82,29.58,8.29Zm-7.53-13.79-14.79-4.14-1.21,4.33,14.79,4.14Z" transform="translate(-194.97 -639.3)"/></g><path class="cls-3" d="M234.21,1210.68c4.1-.21,8.26-.39,12.47-.51,14-.42,27.49-.29,40.38.25q-2-5.75-4.09-11.49" transform="translate(-194.97 -639.3)"/><g id="Group_92" data-name="Group 92"><rect id="Rectangle_149-4" data-name="Rectangle 149-4" class="cls-22" x="273.75" y="1188.5" width="116" height="116" transform="translate(-1122.12 888.27) rotate(-87.68)"/><g id="Events" class="cls-8"><text class="cls-23" transform="matrix(1, 0.04, -0.04, 1, 110.61, 638.36)"><tspan class="cls-24">E</tspan><tspan class="cls-25" x="9.74" y="0">v</tspan><tspan x="17.55" y="0">ents</tspan></text></g><path id="Icon_material-event-note-4" data-name="Icon material-event-note-4" class="cls-26" d="M342.11,1231.22l-21.92-.89-.18,4.49,21.92.89Zm5-15.55-2.19-.09.18-4.5-4.38-.17-.18,4.49-17.54-.71.18-4.49-4.38-.18-.18,4.49-2.2-.09a4.43,4.43,0,0,0-4.54,4.3v0l-1.3,31.46a4.45,4.45,0,0,0,4.21,4.67h0l30.69,1.24a4.46,4.46,0,0,0,4.56-4.32l1.27-31.45A4.45,4.45,0,0,0,347.13,1215.67Zm-1.45,35.94L315,1250.37l1-24.71,30.69,1.24Zm-10.51-11.67-15.34-.62-.18,4.49,15.34.62Z" transform="translate(-194.97 -639.3)"/></g><path class="cls-27" d="M350.65,1283.79l4-1,8.68-4.53c10.43.88,12.89,1.83,12.92,2.6,0,.61-1.56.93-6.47,2.55-9.14,3-10.88,4.29-14,3.49A11,11,0,0,1,350.65,1283.79Z" transform="translate(-194.97 -639.3)"/><path class="cls-1" d="M383.16,1284.28c-2.13-4-13.25-2-14.68-1.67-1.12.22-18.72,3.85-19.11,12.17-.18,3.9,3.51,6.93,4.64,7.86,8.47,6.94,24.06,3.86,27.07-2.66.72-1.57.08-1.93,1.3-8.87C383.25,1286.18,383.75,1285.38,383.16,1284.28Z" transform="translate(-194.97 -639.3)"/><path class="cls-2" d="M270.33,1259.64q2.39,21.81,4.78,43.61l78.95-20.34,12.33,28.71c-58.84,21-102.15,35-109,35.86a24.64,24.64,0,0,1-10.8-1.15,20.81,20.81,0,0,1-5.33-3.1,24.73,24.73,0,0,1-6.61-8.38q-8.75-43.08-17.48-86.15a35.4,35.4,0,0,1,.45-9c1.21-6.75,4.12-11.51,7.82-17.44a93.55,93.55,0,0,1,7.38-10.24" transform="translate(-194.97 -639.3)"/><path class="cls-2" d="M226.63,1145l32.68-20.6a30.22,30.22,0,0,0-11.06-8.82c-14.11-6.48-28.5,1-32.41,3.09-3.6,2-14.3,7.79-18.41,19.48a18.94,18.94,0,0,0-.83,3.17c-1.48,8.82-.75,21.28,6.5,31.67,12,17.15,32.85,17.3,34.6,17.28l7.49-7-13.62-19.74c.11-3.46.23-6.92.34-10.38l6.3,6.12,3.74-3.06-9.87-14.64" transform="translate(-194.97 -639.3)"/><path class="cls-2" d="M707.31,1532.89l-93.33-15q-9.36-91.37-18.71-182.75l152.9-18.77Z" transform="translate(-194.97 -639.3)"/><g id="Group_92-2" data-name="Group 92"><rect id="Rectangle_149-4-2" data-name="Rectangle 149-4" class="cls-22" x="758.32" y="662.6" width="116" height="116" transform="translate(-401.27 455.31) rotate(-61.53)"/><g id="Events-2" data-name="Events" class="cls-8"><text class="cls-23" transform="translate(584.08 97.8) rotate(28.47)"><tspan class="cls-24">E</tspan><tspan class="cls-25" x="9.74" y="0">v</tspan><tspan x="17.55" y="0">ents</tspan></text></g><path id="Icon_material-event-note-4-2" data-name="Icon material-event-note-4" class="cls-26" d="M832.36,711.45,813.07,701l-2.14,4,19.28,10.46Zm11.36-11.75-1.93-1,2.15-3.95-3.86-2.1-2.15,4-15.42-8.37,2.14-4-3.86-2.1-2.14,4-1.93-1.05a4.42,4.42,0,0,0-6,1.86h0l-15,27.67a4.44,4.44,0,0,0,1.71,6h0l27,14.64a4.45,4.45,0,0,0,6-1.86l15-27.67A4.47,4.47,0,0,0,843.72,699.7Zm-17.15,31.63-27-14.64,11.79-21.75,27,14.65Zm-4.29-15.11-13.5-7.32-2.14,4,13.5,7.32Z" transform="translate(-194.97 -639.3)"/></g><g id="Group_90" data-name="Group 90"><rect id="Rectangle_149-2" data-name="Rectangle 149-2" class="cls-28" x="644.12" y="654.35" width="116" height="116" transform="translate(-365.07 -416.5) rotate(-16.11)"/><g id="Activities" class="cls-8"><text class="cls-29" transform="translate(483.74 113.16) rotate(-16.11)">Activities</text></g><path id="Icon_material-event-note-2" data-name="Icon material-event-note-2" class="cls-30" d="M707.12,694.58,686,700.67l1.25,4.32,21.08-6.09ZM707,678.24l-2.11.61-1.25-4.32-4.22,1.21,1.25,4.32-16.86,4.87-1.25-4.32-4.21,1.22,1.24,4.32-2.1.61a4.44,4.44,0,0,0-3,5.52h0l8.71,30.25a4.45,4.45,0,0,0,5.47,3.11h0l29.51-8.53a4.45,4.45,0,0,0,3-5.53l-8.73-30.25A4.46,4.46,0,0,0,707,678.24Zm10,34.56-29.51,8.53-6.86-23.77L710.09,689ZM703.29,705l-14.75,4.27,1.24,4.32,14.76-4.27Z" transform="translate(-194.97 -639.3)"/></g><g id="Group_14-2" data-name="Group 14"><rect id="Rectangle_149-2-2" data-name="Rectangle 149" class="cls-7" x="479.76" y="107.07" width="116" height="116"/><g id="Places_to_eat-2" data-name="Places to eat" class="cls-8"><text class="cls-9" transform="translate(490.86 199.76)">Pl<tspan class="cls-10" x="14.62" y="0">a</tspan><tspan class="cls-11" x="23.38" y="0">ces </tspan><tspan class="cls-12" x="51.78" y="0">t</tspan><tspan class="cls-13" x="57.52" y="0">o </tspan><tspan class="cls-14" x="70.68" y="0">e</tspan><tspan class="cls-13" x="79.4" y="0">at</tspan></text></g><path id="Icon_material-event-note-2-2" data-name="Icon material-event-note" class="cls-15" d="M743.7,788.68H721.76v4.49H743.7Zm4.39-15.74h-2.2v-4.5H741.5v4.5H724v-4.5h-4.39v4.5h-2.19a4.42,4.42,0,0,0-4.37,4.48h0l0,31.49a4.44,4.44,0,0,0,4.39,4.49h30.72a4.46,4.46,0,0,0,4.38-4.49V777.43A4.45,4.45,0,0,0,748.09,772.94Zm0,36H717.37V784.18h30.72Zm-11-11.24H721.76v4.5h15.36Z" transform="translate(-194.97 -639.3)"/></g><g id="Group_91-2" data-name="Group 91"><rect id="Rectangle_149-3-2" data-name="Rectangle 149-3" class="cls-16" x="297.07" y="22.71" width="116" height="116"/><g id="Attractions-2" data-name="Attractions" class="cls-8"><text class="cls-17" transform="translate(314.13 112.93)">A<tspan class="cls-18" x="10.62" y="0">t</tspan><tspan x="16.42" y="0">t</tspan><tspan class="cls-19" x="22.43" y="0">r</tspan><tspan class="cls-20" x="28.24" y="0">a</tspan><tspan x="37.01" y="0">ctions</tspan></text></g><path id="Icon_material-event-note-3-2" data-name="Icon material-event-note-3" class="cls-21" d="M559.78,704.32H537.84v4.49h21.94Zm4.39-15.75H562v-4.49h-4.39v4.49H540v-4.49h-4.39v4.49h-2.2a4.42,4.42,0,0,0-4.36,4.49h0l0,31.48a4.45,4.45,0,0,0,4.39,4.5h30.72a4.45,4.45,0,0,0,4.38-4.5V693.07A4.45,4.45,0,0,0,564.17,688.57Zm0,36H533.45V699.82h30.72Zm-11-11.24H537.84v4.5H553.2Z" transform="translate(-194.97 -639.3)"/></g><g id="Group_90-2" data-name="Group 90"><rect id="Rectangle_149-2-3" data-name="Rectangle 149-2" class="cls-28" x="458.34" y="740.77" width="116" height="116" transform="translate(-539.27 564.36) rotate(-82.31)"/><g id="Activities-2" data-name="Activities" class="cls-8"><text class="cls-29" transform="translate(283.83 186.73) rotate(7.69)">Activities</text></g><path id="Icon_material-event-note-2-3" data-name="Icon material-event-note-2" class="cls-30" d="M528.09,784.52l-21.74-2.93-.6,4.46L527.49,789Zm6.46-15-2.18-.29.6-4.46-4.35-.59-.6,4.46-17.39-2.35.6-4.45-4.35-.59-.6,4.46-2.17-.3a4.43,4.43,0,0,0-4.93,3.86v0l-4.24,31.19a4.45,4.45,0,0,0,3.75,5h0l30.44,4.1a4.46,4.46,0,0,0,5-3.87l4.21-31.19A4.46,4.46,0,0,0,534.55,769.51Zm-4.82,35.66-30.44-4.11,3.31-24.51,30.44,4.1Zm-9.36-12.61-15.22-2.06-.61,4.46,15.22,2Z" transform="translate(-194.97 -639.3)"/></g><rect id="Rectangle_149-3-3" data-name="Rectangle 149" class="cls-7" x="376.57" y="780.01" width="116" height="116" transform="translate(-411.64 -484.66) rotate(-16.21)"/><g id="Places_to_eat-3" data-name="Places to eat" class="cls-8"><text class="cls-9" transform="translate(204.25 245.08) rotate(-16.21)">Pl<tspan class="cls-10" x="14.62" y="0">a</tspan><tspan class="cls-11" x="23.38" y="0">ces </tspan><tspan class="cls-12" x="51.78" y="0">t</tspan><tspan class="cls-13" x="57.52" y="0">o </tspan><tspan class="cls-14" x="70.68" y="0">e</tspan><tspan class="cls-13" x="79.4" y="0">at</tspan></text></g><path id="Icon_material-event-note-3-3" data-name="Icon material-event-note" class="cls-15" d="M440.73,819.89,419.66,826l1.25,4.32L442,824.2Zm-.18-16.34-2.11.61-1.26-4.32L433,801.07l1.26,4.31-16.86,4.9L416.12,806l-4.22,1.22,1.26,4.32-2.11.61a4.42,4.42,0,0,0-2.94,5.52v0l8.77,30.24a4.45,4.45,0,0,0,5.47,3.09h0l29.5-8.58a4.45,4.45,0,0,0,2.95-5.54L446,806.64A4.44,4.44,0,0,0,440.55,803.55Zm10,34.54-29.49,8.58-6.91-23.75,29.5-8.58Zm-13.67-7.73-14.75,4.29,1.26,4.32,14.74-4.29Z" transform="translate(-194.97 -639.3)"/><g id="Group_91-3" data-name="Group 91"><rect id="Rectangle_149-3-4" data-name="Rectangle 149-3" class="cls-16" x="786.17" y="744.73" width="116" height="116" transform="translate(-351.46 759.81) rotate(-74.35)"/><g id="Attractions-3" data-name="Attractions" class="cls-8"><text class="cls-17" transform="translate(601.1 183.38) rotate(15.65)">A<tspan class="cls-18" x="10.62" y="0">t</tspan><tspan x="16.42" y="0">t</tspan><tspan class="cls-19" x="22.43" y="0">r</tspan><tspan class="cls-20" x="28.24" y="0">a</tspan><tspan x="37.01" y="0">ctions</tspan></text></g><path id="Icon_material-event-note-3-4" data-name="Icon material-event-note-3" class="cls-21" d="M857.78,790.25l-21.13-5.92-1.21,4.33,21.13,5.92Zm8.47-14-2.11-.59,1.21-4.33-4.22-1.18-1.22,4.33L843,769.76l1.21-4.33L840,764.25l-1.21,4.33-2.12-.59a4.42,4.42,0,0,0-5.41,3.14h0l-8.52,30.31a4.44,4.44,0,0,0,3,5.51h0l29.57,8.29a4.46,4.46,0,0,0,5.44-3.15l8.49-30.31A4.46,4.46,0,0,0,866.25,776.27Zm-9.7,34.65L827,802.63l6.67-23.82,29.58,8.29ZM849,797.13,834.23,793,833,797.32l14.79,4.14Z" transform="translate(-194.97 -639.3)"/></g><g id="Group_92-3" data-name="Group 92"><rect id="Rectangle_149-4-3" data-name="Rectangle 149-4" class="cls-22" x="568.99" y="742.51" width="116" height="116" transform="translate(-583.14 102.91) rotate(-48.64)"/><g id="Events-3" data-name="Events" class="cls-8"><text class="cls-23" transform="matrix(0.75, 0.66, -0.66, 0.75, 392, 168.92)"><tspan class="cls-24">E</tspan><tspan class="cls-25" x="9.74" y="0">v</tspan><tspan x="17.55" y="0">ents</tspan></text></g><path id="Icon_material-event-note-4-3" data-name="Icon material-event-note-4" class="cls-26" d="M644.67,795.17l-16.47-14.5-3,3.38,16.47,14.5Zm13.69-8.92-1.65-1.45,3-3.37-3.3-2.9-3,3.37-13.17-11.59,3-3.38-3.3-2.9-3,3.38L635.3,766a4.41,4.41,0,0,0-6.23.48h0l-20.82,23.62a4.43,4.43,0,0,0,.32,6.27h0l23.06,20.3a4.46,4.46,0,0,0,6.26-.48l20.8-23.63A4.46,4.46,0,0,0,658.36,786.25Zm-23.77,27L611.53,793l16.35-18.56,23,20.29Zm-.81-15.69-11.52-10.15-3,3.38L630.81,801Z" transform="translate(-194.97 -639.3)"/></g><path class="cls-2" d="M363.42,863.47l226.72,508.6H747.42Q831.2,1116.77,915,861.48Z" transform="translate(-194.97 -639.3)"/><rect class="cls-2" x="153.14" y="187.48" width="581.24" height="48.75"/><path class="cls-31" d="M640.54,1584.46l0,0a2.76,2.76,0,0,1-1.59.71,101.23,101.23,0,0,1-15.17,1c-5.37-.06-8.6-.68-11.92-2.29a14.69,14.69,0,0,1-3.89-2.77,14.24,14.24,0,0,1-4.26-9.14,12.23,12.23,0,0,1,3.46-9.6l.33-.31a12.37,12.37,0,0,1,9.09-3.26v-.15h0a12.41,12.41,0,0,1,3.84-8.76l.34-.3a12.23,12.23,0,0,1,9.8-2.83,14.24,14.24,0,0,1,8.84,4.84,14.82,14.82,0,0,1,2.51,4.07c1.4,3.42,1.81,6.68,1.51,12a100.18,100.18,0,0,1-2,15.06,2.72,2.72,0,0,1-.81,1.55Z" transform="translate(-194.97 -639.3)"/><path class="cls-31" d="M697.2,1652.28h-.07a2.8,2.8,0,0,1-1.56-1,105.2,105.2,0,0,1-9.86-12.64c-3.13-4.72-4.5-7.91-5.06-11.78a15.59,15.59,0,0,1,.11-5.05,15.17,15.17,0,0,1,5.44-9.18,12.86,12.86,0,0,1,10.4-2.7l.46.1a13,13,0,0,1,8.21,6l.14-.08v0a13,13,0,0,1,9.89-1.87l.46.11a12.84,12.84,0,0,1,8.26,6.87,15.16,15.16,0,0,1,1,10.62,15.46,15.46,0,0,1-2.06,4.61c-2.15,3.26-4.75,5.57-9.59,8.51a105.85,105.85,0,0,1-14.3,7.24,2.79,2.79,0,0,1-1.82.21Z" transform="translate(-194.97 -639.3)"/><path class="cls-31" d="M670,1703.5a.22.22,0,0,0,0,.08,2.89,2.89,0,0,1-.88,1.61,104.84,104.84,0,0,1-12.05,10.56c-4.54,3.4-7.65,5-11.48,5.73a15.82,15.82,0,0,1-5.05.18,15.18,15.18,0,0,1-9.47-4.9,12.84,12.84,0,0,1-3.29-10.23c0-.16,0-.32.07-.47a13,13,0,0,1,5.52-8.54l-.09-.13,0,0a12.94,12.94,0,0,1-2.43-9.76c0-.16,0-.32.08-.47a12.83,12.83,0,0,1,6.39-8.64,15.16,15.16,0,0,1,10.54-1.62,15.71,15.71,0,0,1,4.73,1.78c3.37,2,5.83,4.43,9,9.09a105.86,105.86,0,0,1,8.05,13.87,2.84,2.84,0,0,1,.31,1.81A.56.56,0,0,1,670,1703.5Z" transform="translate(-194.97 -639.3)"/><circle cx="58.54" cy="500.4" r="1.69"/><path class="cls-5" d="M243.59,1154.94c1,2.89-.83,6.27-3.25,8-3,2.07-7.93,2.43-10.48-.85s-1.16-8.16,1.81-10.36C235.62,1148.79,242.21,1150.82,243.59,1154.94Z" transform="translate(-194.97 -639.3)"/><path class="cls-1" d="M239.57,1151a8.79,8.79,0,0,0-9.76,1.69,7.73,7.73,0,0,0-2,6.22c.54,3.94,4.52,7.34,9.83,7.78" transform="translate(-194.97 -639.3)"/></svg>