<svg id="Vrstva_1" data-name="Vrstva 1" xmlns="http://www.w3.org/2000/svg" viewBox="0 0 1148.22 1226.53"><defs><style>.cls-1{fill:#fac5cc;}.cls-2{isolation:isolate;}.cls-3{fill:#9a0035;}.cls-4{fill:#a3eabf;}.cls-5{fill:#007554;}.cls-18,.cls-6{fill:#ffe882;}.cls-19,.cls-22,.cls-7{fill:#dba200;}.cls-8{fill:#dba300;}.cls-14,.cls-9{fill:#c3ebff;}.cls-10{fill:#00587a;}.cls-11{fill:#fff;}.cls-11,.cls-12,.cls-13,.cls-14,.cls-15,.cls-18,.cls-19,.cls-20,.cls-21,.cls-23{stroke:#000;}.cls-11,.cls-13,.cls-14,.cls-15,.cls-16,.cls-23{stroke-linecap:round;}.cls-11,.cls-13,.cls-14,.cls-15,.cls-16{stroke-linejoin:round;}.cls-11,.cls-13,.cls-14,.cls-15,.cls-16,.cls-18,.cls-19,.cls-20,.cls-21,.cls-22,.cls-23{stroke-width:2px;}.cls-12{fill:#999;}.cls-12,.cls-18,.cls-19,.cls-20,.cls-21,.cls-22,.cls-23{stroke-miterlimit:10;}.cls-13,.cls-17{fill:#f4dfcc;}.cls-15,.cls-16{fill:none;}.cls-16{stroke:#fff;}.cls-20{fill:#ff32b9;}.cls-22{stroke:#1d1d1b;}.cls-23{fill:#b1fbff;}</style></defs><g id="Rectangle_149-4" data-name="Rectangle 149-4"><rect class="cls-1" x="66.72" y="382.02" width="77.31" height="77.31"/><path d="M180.86,1119.3H102.23v-78.64h78.63Zm-77.3-1.33h76v-76h-76Z" transform="translate(-36.17 -659.3)"/></g><g id="Events" class="cls-2"><g class="cls-2"><path class="cls-3" d="M126.09,1094.55h4.73v.63h-4v2.45h3.57v.63h-3.57v2.56H131v.63h-4.88Z" transform="translate(-36.17 -659.3)"/><path class="cls-3" d="M131.46,1096.26h.73l1.95,4.42,2-4.42h.69l-2.31,5.19h-.72Z" transform="translate(-36.17 -659.3)"/><path class="cls-3" d="M142.15,1099.07h-4.34a1.92,1.92,0,0,0,2,1.81,2.08,2.08,0,0,0,1.59-.68l.39.45a2.5,2.5,0,0,1-2,.85,2.58,2.58,0,0,1-2.72-2.64,2.53,2.53,0,1,1,5,0Zm-4.34-.52h3.68a1.84,1.84,0,0,0-3.68,0Z" transform="translate(-36.17 -659.3)"/><path class="cls-3" d="M143.59,1101.45v-5.19h.67v1a2.21,2.21,0,0,1,2-1,2,2,0,0,1,2.13,2.22v3h-.7v-2.94a1.45,1.45,0,0,0-1.56-1.65,1.71,1.71,0,0,0-1.82,1.87v2.72Z" transform="translate(-36.17 -659.3)"/><path class="cls-3" d="M149.47,1096.86v-.6h.92v-1.13h.7v1.13h1.58v.6h-1.58V1100a.83.83,0,0,0,.9,1,1.2,1.2,0,0,0,.77-.27l.25.51a1.71,1.71,0,0,1-1.1.36,1.37,1.37,0,0,1-1.52-1.51v-3.13Z" transform="translate(-36.17 -659.3)"/><path class="cls-3" d="M153.56,1100.86l.32-.55a3.1,3.1,0,0,0,1.84.58c.95,0,1.39-.31,1.39-.85a.55.55,0,0,0-.19-.45,2.41,2.41,0,0,0-1.23-.41,7.23,7.23,0,0,1-1-.24,1.22,1.22,0,0,1-.93-1.24c0-.86.76-1.48,2.05-1.48a3.55,3.55,0,0,1,1.83.49l-.3.56a2.6,2.6,0,0,0-1.53-.44c-.9,0-1.35.34-1.35.85a.63.63,0,0,0,.2.48,2.41,2.41,0,0,0,1.26.43,8.52,8.52,0,0,1,1,.24,1.18,1.18,0,0,1,.91,1.19c0,.91-.8,1.48-2.14,1.48A3.55,3.55,0,0,1,153.56,1100.86Z" transform="translate(-36.17 -659.3)"/></g></g><path class="cls-3" d="M158.45,1086.46H124l0-.71v-23.34l.7-.05H129v1.81h.82v-1.81h7.25v1.81h.82v-1.81h7.25v1.81H146v-1.81h7.25v1.81h.82v-1.81h5.05l0,.71v23.35Zm-33.18-1.33h32.55V1063.7H155.4v1.06a.75.75,0,0,1-.75.74h-2a.74.74,0,0,1-.74-.74v-1.06h-4.58v1.06a.75.75,0,0,1-.75.74h-2a.74.74,0,0,1-.74-.74v-1.06h-4.59v1.06a.74.74,0,0,1-.74.74h-2a.74.74,0,0,1-.74-.74v-1.06h-4.59v1.06a.74.74,0,0,1-.74.74h-2a.75.75,0,0,1-.75-.74v-1.06h-2.42Z" transform="translate(-36.17 -659.3)"/><path class="cls-3" d="M154.31,1065.5H153a1.09,1.09,0,0,1-1.09-1.09v-2.76a1.08,1.08,0,0,1,1.09-1.08h1.31a1.08,1.08,0,0,1,1.09,1.08v2.76A1.09,1.09,0,0,1,154.31,1065.5Zm-1.07-1.33h.82v-2.27h-.82Z" transform="translate(-36.17 -659.3)"/><path class="cls-3" d="M130.09,1065.5h-1.31a1.09,1.09,0,0,1-1.09-1.09v-2.76a1.08,1.08,0,0,1,1.09-1.08h1.31a1.08,1.08,0,0,1,1.09,1.08v2.76A1.09,1.09,0,0,1,130.09,1065.5Zm-1.06-1.33h.82v-2.27H129Z" transform="translate(-36.17 -659.3)"/><path class="cls-3" d="M138.16,1065.5h-1.3a1.09,1.09,0,0,1-1.09-1.09v-2.76a1.08,1.08,0,0,1,1.09-1.08h1.3a1.08,1.08,0,0,1,1.09,1.08v2.76A1.09,1.09,0,0,1,138.16,1065.5Zm-1.06-1.33h.82v-2.27h-.82Z" transform="translate(-36.17 -659.3)"/><path class="cls-3" d="M146.24,1065.5h-1.31a1.09,1.09,0,0,1-1.09-1.09v-2.76a1.08,1.08,0,0,1,1.09-1.08h1.31a1.08,1.08,0,0,1,1.09,1.08v2.76A1.09,1.09,0,0,1,146.24,1065.5Zm-1.07-1.33H146v-2.27h-.82Z" transform="translate(-36.17 -659.3)"/><rect class="cls-3" x="88.43" y="408.76" width="33.88" height="1.33"/><rect class="cls-3" x="88.43" y="406.83" width="33.88" height="1.33"/><path class="cls-3" d="M130.27,1074.29h-2a1.15,1.15,0,0,1-1.14-1.15v-1.94a1.15,1.15,0,0,1,1.14-1.15h2a1.15,1.15,0,0,1,1.14,1.15v1.94A1.15,1.15,0,0,1,130.27,1074.29Zm-1.76-1.34h1.57v-1.56h-1.57Z" transform="translate(-36.17 -659.3)"/><path class="cls-3" d="M130.27,1079.05h-2a1.14,1.14,0,0,1-1.14-1.14v-2a1.14,1.14,0,0,1,1.14-1.14h2a1.14,1.14,0,0,1,1.14,1.14v2A1.14,1.14,0,0,1,130.27,1079.05Zm-1.76-1.33h1.57v-1.57h-1.57Z" transform="translate(-36.17 -659.3)"/><path class="cls-3" d="M130.27,1083.82h-2a1.14,1.14,0,0,1-1.14-1.14v-2a1.14,1.14,0,0,1,1.14-1.14h2a1.14,1.14,0,0,1,1.14,1.14v2A1.14,1.14,0,0,1,130.27,1083.82Zm-1.76-1.33h1.57v-1.57h-1.57Z" transform="translate(-36.17 -659.3)"/><path class="cls-3" d="M136.39,1074.29h-1.94a1.16,1.16,0,0,1-1.15-1.15v-1.94a1.16,1.16,0,0,1,1.15-1.15h1.94a1.16,1.16,0,0,1,1.15,1.15v1.94A1.16,1.16,0,0,1,136.39,1074.29Zm-1.75-1.34h1.56v-1.56h-1.56Z" transform="translate(-36.17 -659.3)"/><path class="cls-3" d="M136.39,1079.05h-1.94a1.15,1.15,0,0,1-1.15-1.14v-2a1.15,1.15,0,0,1,1.15-1.14h1.94a1.15,1.15,0,0,1,1.15,1.14v2A1.15,1.15,0,0,1,136.39,1079.05Zm-1.75-1.33h1.56v-1.57h-1.56Z" transform="translate(-36.17 -659.3)"/><path class="cls-3" d="M136.39,1083.82h-1.94a1.15,1.15,0,0,1-1.15-1.14v-2a1.15,1.15,0,0,1,1.15-1.14h1.94a1.15,1.15,0,0,1,1.15,1.14v2A1.15,1.15,0,0,1,136.39,1083.82Zm-1.75-1.33h1.56v-1.57h-1.56Z" transform="translate(-36.17 -659.3)"/><path class="cls-3" d="M142.52,1074.29h-2a1.15,1.15,0,0,1-1.14-1.15v-1.94a1.15,1.15,0,0,1,1.14-1.15h2a1.15,1.15,0,0,1,1.14,1.15v1.94A1.15,1.15,0,0,1,142.52,1074.29Zm-1.76-1.34h1.57v-1.56h-1.57Z" transform="translate(-36.17 -659.3)"/><path class="cls-3" d="M142.52,1079.05h-2a1.14,1.14,0,0,1-1.14-1.14v-2a1.14,1.14,0,0,1,1.14-1.14h2a1.14,1.14,0,0,1,1.14,1.14v2A1.14,1.14,0,0,1,142.52,1079.05Zm-1.76-1.33h1.57v-1.57h-1.57Z" transform="translate(-36.17 -659.3)"/><path class="cls-3" d="M142.52,1083.82h-2a1.14,1.14,0,0,1-1.14-1.14v-2a1.14,1.14,0,0,1,1.14-1.14h2a1.14,1.14,0,0,1,1.14,1.14v2A1.14,1.14,0,0,1,142.52,1083.82Zm-1.76-1.33h1.57v-1.57h-1.57Z" transform="translate(-36.17 -659.3)"/><path class="cls-3" d="M148.64,1074.29H146.7a1.16,1.16,0,0,1-1.15-1.15v-1.94a1.16,1.16,0,0,1,1.15-1.15h1.94a1.16,1.16,0,0,1,1.15,1.15v1.94A1.16,1.16,0,0,1,148.64,1074.29Zm-1.75-1.34h1.56v-1.56h-1.56Z" transform="translate(-36.17 -659.3)"/><path class="cls-3" d="M148.64,1079.05H146.7a1.15,1.15,0,0,1-1.15-1.14v-2a1.15,1.15,0,0,1,1.15-1.14h1.94a1.15,1.15,0,0,1,1.15,1.14v2A1.15,1.15,0,0,1,148.64,1079.05Zm-1.75-1.33h1.56v-1.57h-1.56Z" transform="translate(-36.17 -659.3)"/><path class="cls-3" d="M148.64,1083.82H146.7a1.15,1.15,0,0,1-1.15-1.14v-2a1.15,1.15,0,0,1,1.15-1.14h1.94a1.15,1.15,0,0,1,1.15,1.14v2A1.15,1.15,0,0,1,148.64,1083.82Zm-1.75-1.33h1.56v-1.57h-1.56Z" transform="translate(-36.17 -659.3)"/><path class="cls-3" d="M154.77,1074.29h-2a1.15,1.15,0,0,1-1.14-1.15v-1.94a1.15,1.15,0,0,1,1.14-1.15h2a1.15,1.15,0,0,1,1.14,1.15v1.94A1.15,1.15,0,0,1,154.77,1074.29ZM153,1073h1.57v-1.56H153Z" transform="translate(-36.17 -659.3)"/><path class="cls-3" d="M154.77,1079.05h-2a1.14,1.14,0,0,1-1.14-1.14v-2a1.14,1.14,0,0,1,1.14-1.14h2a1.14,1.14,0,0,1,1.14,1.14v2A1.14,1.14,0,0,1,154.77,1079.05Zm-1.76-1.33h1.57v-1.57H153Z" transform="translate(-36.17 -659.3)"/><path class="cls-3" d="M154.77,1083.82h-2a1.14,1.14,0,0,1-1.14-1.14v-2a1.14,1.14,0,0,1,1.14-1.14h2a1.14,1.14,0,0,1,1.14,1.14v2A1.14,1.14,0,0,1,154.77,1083.82Zm-1.76-1.33h1.57v-1.57H153Z" transform="translate(-36.17 -659.3)"/><g id="Rectangle_149-3" data-name="Rectangle 149-3"><rect class="cls-4" x="733.67" y="746.24" width="77.31" height="77.31" transform="translate(-271.5 569.65) rotate(-69.25)"/><path d="M823,762.06l-27.86,73.53-73.54-27.87,27.87-73.53Zm-28.64,71.81,26.92-71-71-26.92-26.92,71Z" transform="translate(-36.17 -659.3)"/></g><g id="Attractions" class="cls-2"><g class="cls-2"><path class="cls-5" d="M782.74,818l-5.34-5.4.26-.67,7.57-.51-.27.72-2,.12-1.36,3.6,1.43,1.43Zm-1.62-2.6,1.17-3.1-4,.24Z" transform="translate(-36.17 -659.3)"/><path class="cls-5" d="M781,809.62l-.55-.21.33-.87-1.06-.4.25-.66,1.06.4.56-1.47.55.21-.56,1.47,2.9,1.1a.83.83,0,0,0,1.2-.5,1.22,1.22,0,0,0,0-.82l.56,0a1.64,1.64,0,0,1,0,1.15,1.37,1.37,0,0,1-2,.89l-2.93-1.11Z" transform="translate(-36.17 -659.3)"/><path class="cls-5" d="M782.37,806l-.55-.21.33-.87-1.06-.4.25-.66,1.06.41.56-1.48.55.21-.56,1.48,2.9,1.09a.83.83,0,0,0,1.2-.5,1.19,1.19,0,0,0,0-.81l.56-.06a1.62,1.62,0,0,1,0,1.16,1.36,1.36,0,0,1-1.94.88l-2.94-1.11Z" transform="translate(-36.17 -659.3)"/><path class="cls-5" d="M784.71,801a1.94,1.94,0,0,1-.29-2.19l.63.24-.07.15a1.68,1.68,0,0,0,1.17,2.31l2.48.94-.25.65-4.85-1.83.23-.63Z" transform="translate(-36.17 -659.3)"/><path class="cls-5" d="M788.23,799.39c-.82-.31-1.16-1.09-.66-2.39l.58-1.54-.3-.11a1.27,1.27,0,0,0-1.8.89,2.69,2.69,0,0,0,0,1.83l-.6.11a3.29,3.29,0,0,1,.09-2.22,1.84,1.84,0,0,1,2.63-1.25l3,1.14-.24.62-.76-.28a1.92,1.92,0,0,1,.17,2C789.9,799.24,789.08,799.72,788.23,799.39Zm1.6-1.53a1.65,1.65,0,0,0-.4-1.91l-.79-.3-.58,1.52c-.31.83-.18,1.35.4,1.57S789.54,798.64,789.83,797.86Z" transform="translate(-36.17 -659.3)"/><path class="cls-5" d="M789.21,793.61a2.56,2.56,0,0,1-1.52-3.43,2.26,2.26,0,0,1,1.68-1.54l.15.62a1.76,1.76,0,0,0-1.26,1.14,2,2,0,0,0,3.79,1.43,1.74,1.74,0,0,0-.18-1.68l.52-.36a2.28,2.28,0,0,1,.24,2.26A2.56,2.56,0,0,1,789.21,793.61Z" transform="translate(-36.17 -659.3)"/><path class="cls-5" d="M789.2,788l-.55-.21.33-.87-1.06-.4.25-.66,1.06.4.56-1.47.55.21-.56,1.47,2.9,1.1a.83.83,0,0,0,1.2-.5,1.22,1.22,0,0,0,0-.82l.56-.05a1.59,1.59,0,0,1-.05,1.15,1.36,1.36,0,0,1-1.94.89l-2.94-1.11Z" transform="translate(-36.17 -659.3)"/><path class="cls-5" d="M788.77,782.83a.5.5,0,0,1-.28-.65.49.49,0,0,1,.63-.31.51.51,0,0,1,.3.66A.5.5,0,0,1,788.77,782.83Zm1.59.43.24-.65,4.86,1.84-.25.65Z" transform="translate(-36.17 -659.3)"/><path class="cls-5" d="M793.54,782.19a2.57,2.57,0,0,1-1.53-3.41,2.64,2.64,0,0,1,4.94,1.87A2.6,2.6,0,0,1,793.54,782.19Zm1.62-4.27a1.93,1.93,0,1,0,1.21,2.51A1.9,1.9,0,0,0,795.16,777.92Z" transform="translate(-36.17 -659.3)"/><path class="cls-5" d="M798.34,776.83,793.49,775l.24-.62.89.34a2.2,2.2,0,0,1-.23-2.2,2,2,0,0,1,2.83-1.21l2.81,1.07-.24.65L797,772a1.46,1.46,0,0,0-2.11.87,1.71,1.71,0,0,0,1.11,2.36l2.55,1Z" transform="translate(-36.17 -659.3)"/><path class="cls-5" d="M799.9,771.05l-.4-.49a3.16,3.16,0,0,0,1.19-1.52c.34-.89.21-1.41-.3-1.6a.56.56,0,0,0-.49,0,2.49,2.49,0,0,0-.81,1,7.65,7.65,0,0,1-.59.86,1.22,1.22,0,0,1-1.48.44c-.82-.31-1.12-1.24-.66-2.45a3.64,3.64,0,0,1,1.1-1.54l.42.48a2.58,2.58,0,0,0-1,1.28c-.32.84-.15,1.38.33,1.56a.64.64,0,0,0,.51,0c.31-.16.5-.45.85-1a7.13,7.13,0,0,1,.58-.85,1.18,1.18,0,0,1,1.43-.42c.85.32,1.1,1.27.63,2.52A3.52,3.52,0,0,1,799.9,771.05Z" transform="translate(-36.17 -659.3)"/></g></g><path class="cls-5" d="M785.76,771.77l-12.08,31.85a.65.65,0,0,1-.85.39l-2.12-.8a.67.67,0,0,1-.39-.86l12.08-31.86a.67.67,0,0,1,.86-.38l2.11.8A.67.67,0,0,1,785.76,771.77Zm-13.09,30.76,11.6-30.61-.86-.33-11.6,30.61Z" transform="translate(-36.17 -659.3)"/><path class="cls-5" d="M782.87,773l-10.52,27.75a.67.67,0,0,1-.86.39l-1.75-.67a.67.67,0,0,1-.39-.86l10.52-27.75a.67.67,0,0,1,.86-.38l1.75.66A.67.67,0,0,1,782.87,773Zm-11.53,26.65,10-26.5-.5-.19-10,26.5Z" transform="translate(-36.17 -659.3)"/><path class="cls-5" d="M763.18,765.81l-10.34,27.31a.67.67,0,0,1-1.29-.27l.74-15.33a.69.69,0,0,1,.14-.39l9.61-12a.68.68,0,0,1,.85-.16A.65.65,0,0,1,763.18,765.81Zm-10.1,22.9,7.37-19.43-6.84,8.52Z" transform="translate(-36.17 -659.3)"/><path class="cls-5" d="M765.66,766.69l-10.4,27.42a.66.66,0,0,1-.85.38l-2.45-.93a.66.66,0,0,1-.39-.86L762,765.29a.66.66,0,0,1,.86-.39l2.45.93A.67.67,0,0,1,765.66,766.69ZM754.25,793l9.92-26.17-1.2-.46-9.92,26.17Z" transform="translate(-36.17 -659.3)"/><path class="cls-5" d="M771.49,795.6l-.65,1.72a.66.66,0,0,1-.86.39l-13.26-5a.66.66,0,0,1-.39-.86l.65-1.72a.67.67,0,0,1,.86-.38l13.27,5A.67.67,0,0,1,771.49,795.6Zm-1.66.63.18-.48-12-4.55-.18.47Z" transform="translate(-36.17 -659.3)"/><rect class="cls-5" x="753.69" y="789.75" width="5.03" height="2.09" rx="0.67" transform="translate(-287.42 558.39) rotate(-69.25)"/><rect class="cls-5" x="768.38" y="795.32" width="5.03" height="2.09" rx="0.67" transform="translate(-283.14 575.72) rotate(-69.25)"/><rect class="cls-5" x="754.83" y="790.02" width="4.18" height="2.09" rx="0.67" transform="translate(-287.21 559.23) rotate(-69.25)"/><path class="cls-5" d="M774.16,788.56l-.65,1.73a.67.67,0,0,1-.86.38l-13.27-5a.67.67,0,0,1-.38-.86l.65-1.72a.66.66,0,0,1,.86-.39l13.26,5A.65.65,0,0,1,774.16,788.56Zm-1.66.63.18-.47-12-4.56-.18.48Z" transform="translate(-36.17 -659.3)"/><rect class="cls-5" x="756.36" y="782.71" width="5.03" height="2.09" rx="0.67" transform="translate(-279.12 556.34) rotate(-69.25)"/><rect class="cls-5" x="773.72" y="781.24" width="5.03" height="2.09" rx="0.67" transform="translate(-266.53 571.62) rotate(-69.25)"/><rect class="cls-5" x="776.39" y="774.2" width="5.03" height="2.09" rx="0.67" transform="translate(-258.23 569.57) rotate(-69.25)"/><rect class="cls-5" x="771.05" y="788.28" width="5.03" height="2.09" rx="0.67" transform="translate(-274.84 573.67) rotate(-69.25)"/><rect class="cls-5" x="757.5" y="782.98" width="4.18" height="2.09" rx="0.67" transform="translate(-278.91 557.18) rotate(-69.25)"/><path class="cls-5" d="M776.83,781.53l-.65,1.72a.67.67,0,0,1-.86.38l-13.27-5a.67.67,0,0,1-.39-.86l.66-1.72a.65.65,0,0,1,.85-.39l13.27,5A.66.66,0,0,1,776.83,781.53Zm-1.66.62.18-.47-12-4.56-.18.48Z" transform="translate(-36.17 -659.3)"/><rect class="cls-5" x="759.03" y="775.67" width="5.03" height="2.09" rx="0.67" transform="translate(-270.81 554.29) rotate(-69.25)"/><rect class="cls-5" x="762.83" y="768.9" width="4.18" height="2.09" rx="0.67" transform="matrix(0.35, -0.94, 0.94, 0.35, -262.3, 553.08)"/><rect class="cls-5" x="760.17" y="775.94" width="4.18" height="2.09" rx="0.67" transform="translate(-270.61 555.13) rotate(-69.25)"/><path class="cls-5" d="M779.5,774.49l-.66,1.72a.67.67,0,0,1-.86.39l-13.26-5a.67.67,0,0,1-.39-.86L765,769a.67.67,0,0,1,.86-.39l13.27,5A.67.67,0,0,1,779.5,774.49Zm-1.67.62.18-.47-12-4.56-.18.48Z" transform="translate(-36.17 -659.3)"/><rect class="cls-5" x="761.7" y="768.63" width="5.03" height="2.09" rx="0.67" transform="translate(-262.51 552.24) rotate(-69.25)"/><path class="cls-5" d="M754.05,778a1.2,1.2,0,0,0,.69,1.56,1.2,1.2,0,1,0,.86-2.25,1.19,1.19,0,0,0-1.55.69Z" transform="translate(-36.17 -659.3)"/><g id="Rectangle_149" data-name="Rectangle 149"><rect class="cls-6" x="944.16" y="1554.53" width="77.31" height="77.31" transform="translate(-801.45 1603.48) rotate(-79.29)"/><path d="M1014.14,1639.13l-77.27-14.62,14.62-77.27,77.26,14.62Zm-75.71-15.68,74.65,14.12,14.12-74.65-74.65-14.12Z" transform="translate(-36.17 -659.3)"/></g><g id="Places_to_eat" data-name="Places to eat" class="cls-2"><g class="cls-2"><path class="cls-7" d="M950.08,1603.5l2.54.48c1.49.28,2.64,1.2,2.33,2.85s-1.73,2.07-3.21,1.79l-1.82-.34-.41,2.14-.72-.14Zm0,4.15,1.8.34c1.35.25,2.19-.22,2.39-1.3s-.4-1.84-1.75-2.1l-1.8-.34Z" transform="translate(-36.17 -659.3)"/><path class="cls-7" d="M957,1604.38l.69.13-1.36,7.19-.69-.13Z" transform="translate(-36.17 -659.3)"/><path class="cls-7" d="M958.06,1610.55c.17-.86.88-1.33,2.24-1.07l1.62.3.06-.31a1.27,1.27,0,0,0-1.19-1.62,2.69,2.69,0,0,0-1.81.28l-.21-.57a3.24,3.24,0,0,1,2.2-.29,1.83,1.83,0,0,1,1.69,2.36l-.59,3.16-.66-.12.15-.8a2,2,0,0,1-1.91.52C958.51,1612.17,957.9,1611.44,958.06,1610.55Zm1.79,1.31a1.66,1.66,0,0,0,1.82-.73l.16-.83-1.6-.3c-.87-.17-1.37,0-1.48.66S959,1611.71,959.85,1611.86Z" transform="translate(-36.17 -659.3)"/><path class="cls-7" d="M963.93,1610.5a2.55,2.55,0,0,1,3.11-2.09,2.26,2.26,0,0,1,1.81,1.39l-.58.25a1.76,1.76,0,0,0-1.34-1,2,2,0,0,0-.75,4,1.75,1.75,0,0,0,1.62-.47l.45.45a2.29,2.29,0,0,1-2.19.63A2.56,2.56,0,0,1,963.93,1610.5Z" transform="translate(-36.17 -659.3)"/><path class="cls-7" d="M974.3,1612.69l-4.26-.81a1.9,1.9,0,0,0,1.67,2.15,2.05,2.05,0,0,0,1.68-.37l.31.52a2.55,2.55,0,0,1-2.13.46,2.58,2.58,0,0,1-2.18-3.1,2.53,2.53,0,1,1,5,.94Zm-4.17-1.32,3.62.68a1.85,1.85,0,0,0-3.62-.68Z" transform="translate(-36.17 -659.3)"/><path class="cls-7" d="M974.68,1614.58l.41-.49a3.15,3.15,0,0,0,1.7.92c.94.17,1.43,0,1.53-.58a.57.57,0,0,0-.1-.48,2.52,2.52,0,0,0-1.14-.63,6.31,6.31,0,0,1-1-.43,1.21,1.21,0,0,1-.68-1.38c.16-.85,1-1.31,2.29-1.07a3.55,3.55,0,0,1,1.71.81l-.4.5a2.61,2.61,0,0,0-1.42-.72c-.88-.17-1.39.09-1.49.59a.58.58,0,0,0,.11.5c.2.28.52.42,1.16.66q.58.24.93.42a1.17,1.17,0,0,1,.67,1.34c-.17.89-1.06,1.31-2.38,1.06A3.56,3.56,0,0,1,974.68,1614.58Z" transform="translate(-36.17 -659.3)"/><path class="cls-7" d="M982.62,1612l.11-.58.91.17.21-1.11.69.13-.21,1.11,1.55.3-.11.58-1.55-.3-.58,3a.82.82,0,0,0,.71,1.09,1.2,1.2,0,0,0,.8-.11l.15.54a1.67,1.67,0,0,1-1.14.15,1.37,1.37,0,0,1-1.21-1.76l.58-3.09Z" transform="translate(-36.17 -659.3)"/><path class="cls-7" d="M986.28,1614.73a2.55,2.55,0,0,1,3.09-2.09,2.64,2.64,0,0,1-1,5.18A2.59,2.59,0,0,1,986.28,1614.73Zm4.49.85a1.93,1.93,0,1,0-2.27,1.63A1.89,1.89,0,0,0,990.77,1615.58Z" transform="translate(-36.17 -659.3)"/><path class="cls-7" d="M999.81,1617.51l-4.26-.8a1.91,1.91,0,0,0,1.67,2.15,2.05,2.05,0,0,0,1.68-.37l.31.51a2.55,2.55,0,0,1-2.13.47,2.59,2.59,0,0,1-2.18-3.11,2.53,2.53,0,1,1,5,.94Zm-4.17-1.32,3.62.69a1.85,1.85,0,0,0-3.62-.69Z" transform="translate(-36.17 -659.3)"/><path class="cls-7" d="M1000.49,1618.57c.16-.86.87-1.33,2.24-1.07l1.62.31.06-.31a1.28,1.28,0,0,0-1.19-1.62,2.62,2.62,0,0,0-1.81.28l-.22-.57a3.32,3.32,0,0,1,2.21-.3,1.84,1.84,0,0,1,1.69,2.37l-.6,3.16-.66-.13.15-.79a2,2,0,0,1-1.91.51C1000.93,1620.19,1000.32,1619.47,1000.49,1618.57Zm1.79,1.32a1.68,1.68,0,0,0,1.81-.73l.16-.84-1.6-.3c-.87-.17-1.36,0-1.48.66S1001.46,1619.73,1002.28,1619.89Z" transform="translate(-36.17 -659.3)"/><path class="cls-7" d="M1006.42,1616.5l.11-.58.91.18.21-1.12.69.13-.21,1.12,1.55.29-.11.58-1.55-.29-.57,3a.83.83,0,0,0,.7,1.1,1.24,1.24,0,0,0,.81-.12l.15.54a1.7,1.7,0,0,1-1.15.15,1.37,1.37,0,0,1-1.21-1.76l.58-3.08Z" transform="translate(-36.17 -659.3)"/></g></g><path class="cls-8" d="M986.9,1579.28h0a25.26,25.26,0,0,0-2.73-.52.66.66,0,0,1-.56-.49,2.26,2.26,0,0,1,0-1,2.24,2.24,0,0,1,4.4.83,2.21,2.21,0,0,1-.38.89A.66.66,0,0,1,986.9,1579.28Zm-1-2.46a.9.9,0,0,0-1.06.69c.6.09,1.2.21,1.79.34A.91.91,0,0,0,985.91,1576.82Z" transform="translate(-36.17 -659.3)"/><path class="cls-8" d="M998.71,1598.47l-32.63-6.17a.67.67,0,0,1-.53-.78,17.26,17.26,0,0,1,19.36-13.9,15.76,15.76,0,0,1,1.64.31,17.25,17.25,0,0,1,12.94,20A.66.66,0,0,1,998.71,1598.47ZM967,1591.11l31.29,5.92a15.9,15.9,0,0,0-12-17.8,13.83,13.83,0,0,0-1.51-.29A16.14,16.14,0,0,0,967,1591.11Z" transform="translate(-36.17 -659.3)"/><path class="cls-8" d="M996.72,1602.44l-30.23-5.72-.15,0a5.07,5.07,0,0,1-1.67-1.16,5.43,5.43,0,0,1-1.29-2.14.65.65,0,0,1,.13-.65.64.64,0,0,1,.62-.21l36.32,6.87a.65.65,0,0,1,.5.42.68.68,0,0,1-.11.66,5.57,5.57,0,0,1-2,1.52,5.18,5.18,0,0,1-2,.47Zm-29.91-7,30.08,5.69a3.79,3.79,0,0,0,1.41-.34,5.6,5.6,0,0,0,.59-.33l-33.7-6.38a4.09,4.09,0,0,0,.43.52A3.91,3.91,0,0,0,966.81,1595.42Z" transform="translate(-36.17 -659.3)"/><g id="Rectangle_149-2" data-name="Rectangle 149-2"><rect class="cls-9" x="807.46" y="1209.54" width="77.31" height="77.31" transform="translate(-173.39 -554.33) rotate(-6.57)"/><path d="M889.67,1282.76l-78.12,9-9-78.12,78.12-9Zm-76.95,7.51,75.47-8.69-8.69-75.47L804,1214.8Z" transform="translate(-36.17 -659.3)"/></g><g id="Activities" class="cls-2"><g class="cls-2"><path class="cls-10" d="M826.68,1271.9l2.32-7.1.7-.08,3.87,6.39-.75.09-1-1.71-3.77.43-.6,1.9Zm1.55-2.59,3.24-.37-2-3.44Z" transform="translate(-36.17 -659.3)"/><path class="cls-10" d="M833.74,1268.52a2.51,2.51,0,0,1,2.32-2.87,2.21,2.21,0,0,1,2.1.77l-.47.41a1.72,1.72,0,0,0-1.56-.58,2,2,0,0,0,.45,4,1.73,1.73,0,0,0,1.4-.91l.55.28a2.24,2.24,0,0,1-1.88,1.23A2.51,2.51,0,0,1,833.74,1268.52Z" transform="translate(-36.17 -659.3)"/><path class="cls-10" d="M838.67,1266l-.07-.57.91-.11-.13-1.11.69-.08.13,1.11,1.54-.18.07.58-1.55.18.35,3a.82.82,0,0,0,1,.82,1.17,1.17,0,0,0,.72-.35l.3.47a1.69,1.69,0,0,1-1,.48,1.36,1.36,0,0,1-1.66-1.31l-.35-3.06Z" transform="translate(-36.17 -659.3)"/><path class="cls-10" d="M843,1263.27a.51.51,0,1,1,.56.43A.5.5,0,0,1,843,1263.27Zm.34,1.58.69-.08.58,5.07-.68.08Z" transform="translate(-36.17 -659.3)"/><path class="cls-10" d="M845,1264.66l.72-.08,2.4,4.1,1.42-4.54.68-.08-1.68,5.33-.7.08Z" transform="translate(-36.17 -659.3)"/><path class="cls-10" d="M850.8,1262.37a.5.5,0,0,1,.45-.54.49.49,0,0,1,.56.41.51.51,0,0,1-.45.56A.49.49,0,0,1,850.8,1262.37Zm.34,1.58.69-.08.58,5.07-.68.08Z" transform="translate(-36.17 -659.3)"/><path class="cls-10" d="M853,1264.32l-.06-.58.9-.1-.12-1.11.68-.08.13,1.11,1.55-.18.06.58-1.54.18.35,3a.81.81,0,0,0,1,.83,1.15,1.15,0,0,0,.72-.35l.3.47a1.64,1.64,0,0,1-1,.48,1.36,1.36,0,0,1-1.66-1.31l-.35-3.06Z" transform="translate(-36.17 -659.3)"/><path class="cls-10" d="M857.32,1261.62a.5.5,0,0,1,.45-.54.48.48,0,0,1,.55.41.5.5,0,0,1-1,.13Zm.34,1.58.68-.08.59,5.07-.69.08Z" transform="translate(-36.17 -659.3)"/><path class="cls-10" d="M865,1265.14l-4.25.49a1.89,1.89,0,0,0,2.21,1.53,2,2,0,0,0,1.48-.84l.43.4a2.49,2.49,0,0,1-1.86,1,2.55,2.55,0,0,1-3-2.27,2.47,2.47,0,0,1,2.19-2.86,2.44,2.44,0,0,1,2.76,2.29Zm-4.3,0,3.6-.42a1.82,1.82,0,0,0-3.6.42Z" transform="translate(-36.17 -659.3)"/><path class="cls-10" d="M865.9,1266.8l.24-.57a3.07,3.07,0,0,0,1.88.36c.92-.11,1.32-.46,1.26-1a.54.54,0,0,0-.23-.42,2.53,2.53,0,0,0-1.25-.26,6,6,0,0,1-1-.12,1.19,1.19,0,0,1-1-1.1c-.1-.85.57-1.53,1.84-1.68a3.62,3.62,0,0,1,1.85.27l-.24.58a2.54,2.54,0,0,0-1.54-.26c-.88.1-1.29.49-1.23,1a.6.6,0,0,0,.25.44,2.32,2.32,0,0,0,1.28.28,8.31,8.31,0,0,1,1,.12,1.18,1.18,0,0,1,1,1.06c.1.89-.62,1.54-1.93,1.69A3.43,3.43,0,0,1,865.9,1266.8Z" transform="translate(-36.17 -659.3)"/></g></g><path class="cls-10" d="M843.71,1239.58l-9,1a1.13,1.13,0,0,1-.67-.13l-2.43-1.29a1.33,1.33,0,0,1-.3-2.1l2.06-2a1.15,1.15,0,0,1,.68-.33l9-1a.65.65,0,0,1,.73.58l.53,4.54A.67.67,0,0,1,843.71,1239.58Zm-9.1-.29,8.29-1-.37-3.21-8.26,1-2,2Z" transform="translate(-36.17 -659.3)"/><path class="cls-10" d="M848.67,1257.07a.66.66,0,0,1-.73-.59L845.81,1238a.66.66,0,0,1,.59-.73.67.67,0,0,1,.74.58l2.12,18.44A.68.68,0,0,1,848.67,1257.07Z" transform="translate(-36.17 -659.3)"/><path class="cls-10" d="M843.19,1235a.67.67,0,0,1-.74-.58l-.9-7.8a.66.66,0,0,1,.59-.73l2.91-.34a.67.67,0,0,1,.74.59l.26,2.3a.66.66,0,0,1-.58.74.67.67,0,0,1-.74-.58l-.19-1.65-1.59.18.82,7.13A.66.66,0,0,1,843.19,1235Z" transform="translate(-36.17 -659.3)"/><path class="cls-10" d="M846.55,1238.63a.67.67,0,0,1-.74-.59l-.56-4.86a.67.67,0,1,1,1.33-.15l.56,4.86A.67.67,0,0,1,846.55,1238.63Z" transform="translate(-36.17 -659.3)"/><path class="cls-10" d="M845.76,1257.4a.68.68,0,0,1-.74-.58L843,1239a.67.67,0,0,1,.59-.74.68.68,0,0,1,.74.58l2.05,17.82A.67.67,0,0,1,845.76,1257.4Z" transform="translate(-36.17 -659.3)"/><path class="cls-10" d="M849.8,1256.94h0a.67.67,0,0,1-.69-.64,5,5,0,0,1,1.15-3.36,4.81,4.81,0,0,1,2-1.38.67.67,0,0,1,.85.41.67.67,0,0,1-.41.85,3.51,3.51,0,0,0-1.47,1,3.61,3.61,0,0,0-.83,2.44A.68.68,0,0,1,849.8,1256.94Z" transform="translate(-36.17 -659.3)"/><path class="cls-10" d="M843.82,1257.62h-.06a.67.67,0,0,1-.68-.65,2.2,2.2,0,0,0-.43-1.24,2.15,2.15,0,0,0-.91-.72.67.67,0,0,1,.53-1.23,3.53,3.53,0,0,1,2.14,3.15A.67.67,0,0,1,843.82,1257.62Z" transform="translate(-36.17 -659.3)"/><path class="cls-10" d="M854.88,1232.74l-11.26,1.3a1.25,1.25,0,0,1-1.35-1.14l-.38-3.31a1.25,1.25,0,0,1,1.05-1.42l11.25-1.29a1.2,1.2,0,0,1,.74.16l2.44,1.5a1.35,1.35,0,0,1,.19,2.12l-2,1.8A1.1,1.1,0,0,1,854.88,1232.74Zm-11.29,0,11.08-1.28,2-1.76-2.4-1.45-11.06,1.27Zm10.64-4.52Z" transform="translate(-36.17 -659.3)"/><path class="cls-11" d="M605.75,829.12c5-8.75,16.3-6.56,32.14-11,31.82-8.9,32.31-30.57,58.36-33.83,10.7-1.34,7.65,2.69,37.21,6.77,28.19,3.88,42.56,5.67,55.82-1.7,12.43-6.91,10.7-14.28,24.53-20.29,2.13-.93,18-7.59,33.83-1.7s13.49,17.48,27.91,28.76c15.62,12.23,37.48,12.66,81.19,13.53,13.68.27,25.55-.18,37.21,7.61,6.89,4.61,17.41,14.57,15.22,23.68-1,4.39-4.66,7-6.76,8.46-9.69,6.79-19.43,3.83-46.52,2.54-19.43-.93-25.25.07-28.75.85a74.16,74.16,0,0,0-22.84,9.3,421.7,421.7,0,0,0-44,7.61c-25.09,5.72-22.6,7.55-34.67,9.3-41.32,6-79.44-14.19-82.89-16.07-6.07-3.3-9.26-5.72-16.07-7.61-15.13-4.21-22.58,1.26-44,3.39-4.75.47-17.54-.25-43.13-1.7-21.12-1.19-27.83-2-32.14-7.61S602.27,835.19,605.75,829.12Z" transform="translate(-36.17 -659.3)"/><path class="cls-11" d="M42.38,1136.09c9.64-12.71,23.44-6.67,44.3-15.58,25.09-10.73,24.25-27.64,44.3-30.36,10.42-1.41,12.55,2.9,33.63,8.21,7.23,1.81,31.95,8,56.61,5.74,34.44-3.2,36.14-20,59.07-17.23,23.89,2.85,22.44,21.11,53.32,27.89,16,3.52,23.09.09,45.12,6.57,12.14,3.56,26,7.63,27.08,15.58,1.45,10.5-20.23,20.82-21.33,21.33-17.32,8.07-30,4-47.28,4.88-28.62,1.37-30.47,14.11-58.55,20.56-37.27,8.56-44.65-11.42-118.14-16.41-25.12-1.71-37.67-2.56-51.68-1.64-11.77.77-20.65,2.16-35.28.82-13.75-1.26-31.92-2.92-35.68-13.08C35.11,1145.93,41.4,1137.39,42.38,1136.09Z" transform="translate(-36.17 -659.3)"/><path class="cls-11" d="M42,1546.33c2.35-10.12,18-12.48,55-24.81,34.7-11.57,39.84-15.78,43.54-19.7,7.51-8,9-14.58,18.85-19.62,11.27-5.75,22.9-4,26.49-3.42,10.68,1.75,16.74,6.47,25.64,12,13.85,8.55,28.43,17.55,44.44,20.51,24.06,4.44,29.2-8.86,54.7-2.56,10.52,2.59,21.09,7.68,28.2,11.11,16.47,7.92,15.84,10.32,25.64,13.67,19.6,6.69,35,1.5,36.75,6.84,1.17,3.54-4.79,8.42-6,9.4-11.21,9.18-24.47,5-44.44,6.84-16.18,1.45-15,4.84-32.48,7.69-23.84,3.88-29-1.93-66.66-3.42-34.51-1.37-32.52,3.4-54.57,0-19.07-2.92-27-7.48-47.13-7.72-13.67-.17-21.94,1.78-32.48,3.42-16.53,2.56-40.83,4.67-72.64,1.7C43,1555.28,40.93,1550.88,42,1546.33Z" transform="translate(-36.17 -659.3)"/><path class="cls-11" d="M777,1321.55c29.68-1.23,32-4.48,46.61-3.33,22,1.73,21.32,9.45,46.61,15,26.78,5.85,49.62,2,71.58-1.67,4.16-.69,15.53-3.8,38.29-10,20.85-5.67,27-7.7,28.37-12.66,2.44-8.81-12.15-19.85-14.92-21.86-13-9.47-22.54-7.39-41.75-13.76-22.49-7.46-18.77-14.18-33.3-16.65-31-5.27-43.63,20.12-74.91,15-19.65-3.23-22.08-14.47-36.62-11.66-15.35,3-17.06,16.36-38.29,26.64-15.36,7.44-26.62-.12-33.29,8.32-4.24,5.36-5.27,14.27-1.66,20C736.19,1318.84,742,1323,777,1321.55Z" transform="translate(-36.17 -659.3)"/><path class="cls-11" d="M1031.27,1592.38c-61-1.24-71.58,17.22-101.87,9.7-31.14-7.74-28.64-29.4-64.3-36.33-6.14-1.19-28.86-4.94-53.34,4.8-29.74,11.83-25.5,29-52.15,42.44-36.49,18.39-63.55-4.19-88.53,18.2-8.27,7.4-17.57,20.86-14.56,32.74,4,15.94,28.55,22.36,49.73,27.9,22.1,5.78,35.6,5.66,50.93,7.27,57.39,6.06,58.67,27.87,103.09,30.32,16.38.91,40-5.06,87.32-17,44.2-11.14,49-15.77,71.56-17,34.41-1.84,38.11,8.19,75.19,8.49,27.69.23,82.66-4.88,88.53-27.89,3.32-13-9.69-28.83-20.61-36.38-12.42-8.59-18.14-3.68-37.6-9.71-31-9.61-34.43-27.65-65.49-35.17C1050.78,1592.77,1044.28,1592.64,1031.27,1592.38Z" transform="translate(-36.17 -659.3)"/><path class="cls-12" d="M515.17,659.8V764.62H402.83V659.8H384.45V1885.33h18.38v-58.58H515.17v58.58h18.38V659.8Zm0,123.21V913.73H402.83V783ZM402.83,1508.73v-129.3H515.17v129.3Zm112.34,18.38v132.15H402.83V1527.11ZM402.83,1361.05V1230.32H515.17v130.73Zm0-149.11V1081.22H515.17v130.72Zm0-149.11V932.11H515.17v130.72Zm0,745.54V1677.64H515.17v130.73Z" transform="translate(-36.17 -659.3)"/><path class="cls-13" d="M407.94,937.59c-3.8-2.55-12.59,4.57-13.72,5.5-.88.72-14.65,12.27-11.05,19.78,1.69,3.52,6.38,4.43,7.81,4.71,10.75,2.1,23-8,22.57-15.18-.1-1.72-.84-1.73-3.06-8.43C408.91,939.22,409,938.29,407.94,937.59Z" transform="translate(-36.17 -659.3)"/><path class="cls-13" d="M396.09,965.07l8.28.93,10.71-2.88a7.82,7.82,0,0,0,1-4.08c-.09-2.24-1.22-4.67-2.05-4.6-.27,0-.66.34-1,1.86" transform="translate(-36.17 -659.3)"/><path class="cls-13" d="M388.83,1393.75q14,32.94,28,65.87l18.92,6.89c.16,1,2.59,17.6-10.41,28.89s-29.52,6.43-30.37,6.16q3.39-12.63,6.76-25.26l-38.11-58Z" transform="translate(-36.17 -659.3)"/><path class="cls-14" d="M423.11,1462.87c.2,1.34.5,3.36.81,5.82a68.73,68.73,0,0,1,.75,6.87,15.11,15.11,0,0,1-6.18,11.53,15.36,15.36,0,0,1-10.95,2.54,5.76,5.76,0,0,0-7-8.32l-8.88,34.88c-1.74,2.11-12.83,15.59-18.19,24.07a14.81,14.81,0,0,0-2.2,5.34,16.89,16.89,0,0,0,2.17,11.08,19.3,19.3,0,0,0,6.76,7.06l71.84-80.52-13.37-13.36a31.68,31.68,0,0,0-15.57-7Z" transform="translate(-36.17 -659.3)"/><path class="cls-15" d="M374.54,1558.42l72.61-82.08" transform="translate(-36.17 -659.3)"/><line class="cls-15" x1="356.31" y1="853.7" x2="364.6" y2="854.16"/><line class="cls-15" x1="357.69" y1="847.05" x2="365.98" y2="847.51"/><line class="cls-15" x1="359.5" y1="840.31" x2="367.8" y2="840.77"/><path class="cls-14" d="M525.38,1136.18" transform="translate(-36.17 -659.3)"/><path class="cls-14" d="M525.38,1136.18q1.07,10.42,2,21,3.84,41.31,6.13,81.2l-5.65,8.8-76.3-4-34.06-10.51-6.54-4.5c.37-9.83.77-22.8,1-38,.19-11.52.52-32.83,0-58.47-.41-21.37-1.47-49.23-4.1-82.21l111.91,30.1" transform="translate(-36.17 -659.3)"/><path class="cls-13" d="M648.28,988c1.88,11.46-.36,22.52-7.15,27.07-3.31,2.21-8.5,2.89-18.9,4.25-4.5.59-5.15.42-5.44,0-1.26-1.78,3.59-8.82,29.61-31.49" transform="translate(-36.17 -659.3)"/><path class="cls-14" d="M519.85,1079.52l56.92,19.88,38.11-82.63,32.25-2.14-29.37,119.71a22,22,0,0,1-9.84,14.4,23.6,23.6,0,0,1-10.21,3.32l-84.58-16.34" transform="translate(-36.17 -659.3)"/><path class="cls-11" d="M380.94,1289.14l-3.69,4.64q22.89,70.74,45.77,141.46-17.76,14.23-35.5,28.49l-94.37-165.52a21.22,21.22,0,0,1-1-9.7,22.34,22.34,0,0,1,7.76-13.85l17.19-6.43" transform="translate(-36.17 -659.3)"/><path class="cls-11" d="M309.88,1272.88l107.66-40.24,110.36,14.52-63.44,62-109.22,15.73" transform="translate(-36.17 -659.3)"/><path class="cls-13" d="M525.45,1533.27q2.67,40.08,5.33,80.18,4.31,9.1,8.62,18.2c-.9,1.13-11,13.29-27.57,12.25-16.89-1.05-25.38-14.8-26.07-16l22.56-13.22-8.4-74Z" transform="translate(-36.17 -659.3)"/><path class="cls-14" d="M533,1620.2a21.37,21.37,0,0,1-3.51,4.71,13.94,13.94,0,0,1-4.37,3.33c-2,.88-3,.45-9.87-.21-5.33-.51-7.27-.49-7.93-1.85-.48-1,.21-1.68.09-3.3-.17-2.41-1.94-4.24-3.42-5.41L473.15,1636c-2.72.28-20.09,2.08-29.86,4.33a14.84,14.84,0,0,0-5.31,2.26c-4.47,3.1-5.85,8-6.25,9.41a19.3,19.3,0,0,0-.15,9.77L539.27,1655l-.12-18.91a31,31,0,0,0-1.08-5.67A32.07,32.07,0,0,0,533,1620.2Z" transform="translate(-36.17 -659.3)"/><path class="cls-15" d="M431.28,1654l109.34-7.36" transform="translate(-36.17 -659.3)"/><line class="cls-15" x1="439.79" y1="975.04" x2="445.37" y2="981.2"/><line class="cls-15" x1="445.45" y1="971.27" x2="451.02" y2="977.43"/><line class="cls-15" x1="451.48" y1="967.76" x2="457.05" y2="973.91"/><path class="cls-11" d="M426.38,1233.8l101.52,13.36q-2.45,98.63-4.9,197.24,6.86,63.81,13.7,127.62l-41.79,18q-17.76-66.66-35.53-133.31-4.74-73-9.49-146" transform="translate(-36.17 -659.3)"/><path class="cls-13" d="M498.92,1080.78q1.06-15.67,2.15-31.37l10,2.22a3.14,3.14,0,0,0,1.87-.34,4.25,4.25,0,0,0,1.7-3c.74-3.48,1.25-6.61,1.55-8.59l-3.59-3.17,5.62-1q1.61-4,3.23-8l4.9-1q-2.1-5.1-4.22-10.19a53.17,53.17,0,0,1-3.06-9.45c-.81-3.61-.76-5.1-1.66-7.53a20.36,20.36,0,0,0-6.36-8.57,33.68,33.68,0,0,0-51.74,3.51,30.15,30.15,0,0,0-3.89,7.2c-7.16,19.69,12.75,43.6,15.3,46.59L465.2,1060l-36.72,13.33a12,12,0,0,0-3.83,3.83c-1.19,1.91-2.16,4.67-1.79,6.13.94,3.75,12,5,26.8,3.78l78.14,32.22Q513.36,1100,498.92,1080.78Z" transform="translate(-36.17 -659.3)"/><line class="cls-16" x1="912.17" y1="346.11" x2="889.22" y2="324.25"/><line class="cls-16" x1="921.9" y1="332.99" x2="881.59" y2="289.96"/><line class="cls-16" x1="913.81" y1="276.47" x2="895.75" y2="262.22"/><path class="cls-9" d="M446.49,1059.38c1.2.16,5,.87,9,1.64,6.55,1.23,13,2.56,16.11,3.26a180.15,180.15,0,0,1,28.41,9.24c3,2.32,7.21,5.8,12,10.33,15.65,14.77,25.72,24.24,24.58,31.26-2.87,17.78-80.3,35.54-113.61,2.72-3.07-3-11.78-11.85-11.75-23.92C411.3,1074.82,433.2,1057.65,446.49,1059.38Z" transform="translate(-36.17 -659.3)"/><path class="cls-14" d="M444.19,1059.38c2,.35,4.92.86,8.43,1.53,6.16,1.17,12.21,2.42,15.06,3.06a170,170,0,0,1,26.55,8.68l11,2.81" transform="translate(-36.17 -659.3)"/><path class="cls-14" d="M412.62,1106.37c-56.38-33-97-58.13-102.52-63.63a15.52,15.52,0,0,1-4.1-7,14.06,14.06,0,0,1,2.08-10.52l77.29-78.66,17,27.78q-18.48,28.46-37,56.91l54,18c4.83,1.61,7.18,2.21,11.75,3.82,9.49,3.35,13.45,5.39,16.08,6.9a67.8,67.8,0,0,1,7.66,5.1" transform="translate(-36.17 -659.3)"/><path class="cls-14" d="M440.85,1048.09c1.88,1,4.56,2.29,7.8,4l1.5.78a79.41,79.41,0,0,0,37.75,7.91c.45-2.16.93-4.92,1.3-8.17.12-1,.3-2.77.43-5,.24-4,.16-7.19.09-9.45-.44-15.35-1.55-33.57-1.69-35.87l31.46-4.13a26.22,26.22,0,0,0-4-11.19c-8.48-13-26.32-13.34-29.68-13.41-4.1-.08-16.28-.33-25.64,7.79-4.94,4.28-7,9.41-12.37,33.06C445.81,1023.22,443.37,1034.64,440.85,1048.09Z" transform="translate(-36.17 -659.3)"/><path class="cls-17" d="M483.85,1018.27a50.44,50.44,0,0,0-.34,8.34,8,8,0,0,1,1.84-15.83A52,52,0,0,0,483.85,1018.27Z" transform="translate(-36.17 -659.3)"/><path class="cls-13" d="M485.35,1010.78a8.37,8.37,0,0,0-9.3,3.27c-2.48,4,.18,9.4,3.52,11.54a8.06,8.06,0,0,0,3.26,1.19" transform="translate(-36.17 -659.3)"/><path class="cls-18" d="M762.85,935.07l-191.7,49.4a12,12,0,0,0,0,13.88l192.62,14.74Q763.3,974.08,762.85,935.07Z" transform="translate(-36.17 -659.3)"/><path class="cls-19" d="M626.48,971.52a6,6,0,0,0-4.39-1.43c-3.27.5-5.18,4.59-5.9,6.13-3.35,7.2-2.38,17.82,3.75,23,1.08.92,4.09,3.47,6.83,2.48,4.46-1.6,4.72-11.29,4.8-14.24S631.9,975.52,626.48,971.52Z" transform="translate(-36.17 -659.3)"/><path class="cls-20" d="M619.42,986.16c.5,3.27,1.49,9.61,7,13.59a16,16,0,0,0,2.88,1.65h0l6.28.53,59.71,5.19a8.1,8.1,0,0,1-.86-.58c-9.2-6.65-10.85-17.23-11.71-22.7-.65-4.23-2.12-14.6,3.89-24.88a31.26,31.26,0,0,1,3-4.32l-60.89,16.29-7.95,2.12A22.56,22.56,0,0,0,619.42,986.16Z" transform="translate(-36.17 -659.3)"/><path class="cls-21" d="M697.09,953.89c-1.44-1.06-4.52-3.27-8.3-2.7-6.19.93-9.79,8.67-11.15,11.57-6.34,13.62-4.49,33.67,7.08,43.5,2,1.74,7.73,6.56,12.91,4.7,8.42-3,8.91-21.35,9.07-26.91S707.31,961.44,697.09,953.89Z" transform="translate(-36.17 -659.3)"/><path class="cls-18" d="M619.42,986.16c.5,3.27,1.49,9.61,7,13.59a16,16,0,0,0,2.88,1.65h0l6.28.53,49.06,4.27,10.65.92a8.1,8.1,0,0,1-.86-.58c-9.2-6.65-10.85-17.23-11.71-22.7-.65-4.23-2.12-14.6,3.89-24.88a31.26,31.26,0,0,1,3-4.32L680.82,957q-26,6.94-52.05,13.92l-7.95,2.12A22.56,22.56,0,0,0,619.42,986.16Z" transform="translate(-36.17 -659.3)"/><path class="cls-22" d="M697.09,953.89c-1.44-1.06-4.52-3.27-8.3-2.7-6.19.93-9.79,8.67-11.15,11.57-6.34,13.62-4.49,33.67,7.08,43.5,2,1.74,7.73,6.56,12.91,4.7,8.42-3,8.91-21.35,9.07-26.91S707.31,961.44,697.09,953.89Z" transform="translate(-36.17 -659.3)"/><path class="cls-18" d="M682.75,983.85c.86,5.47,2.51,16,11.71,22.7a8.1,8.1,0,0,0,.86.58l68.42,6-.9-78-73.18,19.57a31.26,31.26,0,0,0-3,4.32C680.63,969.25,682.1,979.62,682.75,983.85Z" transform="translate(-36.17 -659.3)"/><path class="cls-19" d="M766.77,935.73c-2.28-1.63-7.2-5-13.12-4.28-9.72,1.24-15.19,12.79-17.24,17.12-9.63,20.33-6.2,50.55,12.27,65.64,3.27,2.68,12.34,10.08,20.44,7.41,13.17-4.33,13.47-31.89,13.57-40.25S783.06,947.36,766.77,935.73Z" transform="translate(-36.17 -659.3)"/><path class="cls-23" d="M788.6,974.47c1.34,16.92-6,38.27-16.68,39.69-11.5,1.53-26.11-20.13-27.32-40.41-1-16.64,6.71-37.46,17.43-38.69C773.5,933.75,787.06,955.07,788.6,974.47Z" transform="translate(-36.17 -659.3)"/><line class="cls-16" x1="735.73" y1="286.45" x2="723.11" y2="301.48"/><line class="cls-16" x1="742.62" y1="293.85" x2="720.77" y2="323.1"/><line class="cls-16" x1="741.52" y1="329.18" x2="731.39" y2="339.2"/><line class="cls-15" x1="777.46" y1="267.83" x2="763.28" y2="282.41"/><line class="cls-15" x1="788.43" y1="295.36" x2="771.53" y2="302.04"/><line class="cls-15" x1="793.04" y1="326.54" x2="769.88" y2="325.13"/><line class="cls-15" x1="789.84" y1="355.35" x2="769.88" y2="349.69"/><path class="cls-17" d="M629.63,1002.13a14.23,14.23,0,0,1,1.11,6.78,14,14,0,0,1-1.17,4.55l-10.48.62" transform="translate(-36.17 -659.3)"/><path class="cls-13" d="M619.09,1014.08q-.65-4.11-1.28-8.24l4-13.66,15-2.81a7.76,7.76,0,0,1-1.21,3.88c-2.64,4-8.27,3.57-8.51,3.55a21.17,21.17,0,0,1,3.23,8.77" transform="translate(-36.17 -659.3)"/><circle cx="473.91" cy="351.16" r="1.69"/></svg>