<svg id="Vrstva_3" data-name="Vrstva 3" xmlns="http://www.w3.org/2000/svg" xmlns:xlink="http://www.w3.org/1999/xlink" viewBox="0 0 1272.06 1042.63"><defs><style>.cls-1,.cls-27,.cls-6{fill:none;}.cls-2{fill:#e6e6e6;}.cls-10,.cls-11,.cls-14,.cls-2,.cls-3,.cls-6,.cls-7,.cls-8,.cls-9{stroke:#000;}.cls-10,.cls-11,.cls-2,.cls-3,.cls-6,.cls-7,.cls-8,.cls-9{stroke-linecap:round;}.cls-10,.cls-11,.cls-2,.cls-3,.cls-6,.cls-9{stroke-linejoin:round;}.cls-10,.cls-11,.cls-14,.cls-2,.cls-28,.cls-3,.cls-6,.cls-7,.cls-8,.cls-9{stroke-width:2px;}.cls-3{fill:#eefbff;}.cls-4{clip-path:url(#clip-path);}.cls-11,.cls-5,.cls-7{fill:#fff;}.cls-14,.cls-28,.cls-7,.cls-8{stroke-miterlimit:10;}.cls-13,.cls-8,.cls-9{fill:#f4dfcc;}.cls-10,.cls-12,.cls-14{fill:#c3ebff;}.cls-15,.cls-16,.cls-21,.cls-25{isolation:isolate;}.cls-16{font-size:19.26px;}.cls-16,.cls-21{fill:#000c17;font-family:Montserrat-Regular, Montserrat;}.cls-17{letter-spacing:-0.06em;}.cls-18{letter-spacing:-0.02em;}.cls-19{letter-spacing:0em;}.cls-20{letter-spacing:0em;}.cls-21{font-size:12.84px;}.cls-22{letter-spacing:-0.01em;}.cls-23{letter-spacing:-0.01em;}.cls-24{letter-spacing:0em;}.cls-25{font-size:25.68px;fill:#022b52;font-family:VisitDenmark-Medium, VisitDenmark;font-weight:500;}.cls-26{letter-spacing:-0.01em;}.cls-27{stroke:#022b52;}.cls-28{fill:#df041f;stroke:#1d1d1b;}</style><clipPath id="clip-path" transform="translate(73.37 -696.32)"><rect class="cls-1" x="354.04" y="746.34" width="422.81" height="903.29" rx="12"/></clipPath></defs><rect class="cls-2" x="386.56" y="1" width="504.51" height="1036.21" rx="12"/><rect class="cls-3" x="427.41" y="50.02" width="422.81" height="903.29" rx="12"/><g class="cls-4"><rect class="cls-5" x="595.94" y="719.07" width="80.68" height="953.83" transform="translate(301.93 -792.23) rotate(10.5)"/><rect class="cls-5" x="702.12" y="750.64" width="23.6" height="953.83" transform="translate(308.98 -805.85) rotate(10.5)"/></g><rect class="cls-6" x="427.41" y="50.02" width="422.81" height="903.29" rx="12"/><path class="cls-7" d="M565.44,1711.75a19.22,19.22,0,1,1,19.22-19.22A19.24,19.24,0,0,1,565.44,1711.75Zm0-29.43a10.22,10.22,0,1,0,10.22,10.21A10.22,10.22,0,0,0,565.44,1682.32Z" transform="translate(73.37 -696.32)"/><path class="cls-8" d="M208.35,1284.32l4-1,8.71-4.47c10.42,1,12.88,1.91,12.9,2.67s-1.56.93-6.48,2.52c-9.16,3-10.91,4.22-14.06,3.4A10.93,10.93,0,0,1,208.35,1284.32Z" transform="translate(73.37 -696.32)"/><path class="cls-9" d="M192.89,1303.85c23.62,5.61,42.83,4.18,47.79-5.06,2.37-4.42,2.17-12-1.17-15s-7.91-1.76-13.33-.58l-.64.14c-1.92.44-3.49.89-4.64,1.25" transform="translate(73.37 -696.32)"/><path class="cls-9" d="M87.74,1620.58Q84,1656,80.2,1691.33L73.53,1710a28,28,0,0,0,49.41-6.77l-20.25-11.85q7.41-35.93,14.81-71.85Z" transform="translate(73.37 -696.32)"/><path class="cls-10" d="M78.35,1698.18c.85,1.06,2.15,2.63,3.75,4.52,2.62,3.09,3.93,4.63,4.58,5.19a15.13,15.13,0,0,0,12.68,3.19,15.39,15.39,0,0,0,9.25-6.38,5.75,5.75,0,0,1-1.43-10.77l31.75,16.93c2.74.13,20.17,1,30,2.76a14.82,14.82,0,0,1,5.43,2,16.83,16.83,0,0,1,6.73,9.06,19.41,19.41,0,0,1,.67,9.75L73.9,1733.29,73,1714.4a31.07,31.07,0,0,1,.78-5.73A32.27,32.27,0,0,1,78.35,1698.18Z" transform="translate(73.37 -696.32)"/><path class="cls-6" d="M181.69,1726.64l-108.16-.81" transform="translate(73.37 -696.32)"/><line class="cls-6" x1="209.41" y1="1012.99" x2="204.16" y2="1019.43"/><path class="cls-9" d="M-38.43,1618.48q-13,37.56-26.55,75.4-3.49,9.78-7,19.53c.75.91,11.11,12.91,27.42,11.06,16.94-1.92,24.29-17,24.69-17.82l-22.61-12.48q19.17-36.42,38.36-72.83Z" transform="translate(73.37 -696.32)"/><path class="cls-10" d="M-66.89,1700.71c.84,1.06,2.12,2.65,3.71,4.56,2.59,3.11,3.88,4.67,4.52,5.23A15.15,15.15,0,0,0-46,1713.82a15.38,15.38,0,0,0,9.32-6.3,5.82,5.82,0,0,1-4.52-5.22,5.83,5.83,0,0,1,3.18-5.56L-6.44,1714c2.74.16,20.16,1.22,30,3.06a14.77,14.77,0,0,1,5.41,2,16.83,16.83,0,0,1,6.64,9.13,19.24,19.24,0,0,1,.57,9.75l-107.89-2.18q-.33-9.45-.68-18.9a31.28,31.28,0,0,1,.84-5.71A32.22,32.22,0,0,1-66.89,1700.71Z" transform="translate(73.37 -696.32)"/><path class="cls-6" d="M36.16,1730.18-72,1728.28" transform="translate(73.37 -696.32)"/><line class="cls-6" x1="63.31" y1="1017.06" x2="58.01" y2="1023.45"/><line class="cls-6" x1="57.5" y1="1013.54" x2="52.19" y2="1019.93"/><line class="cls-6" x1="51.33" y1="1010.28" x2="46.02" y2="1016.67"/><line class="cls-6" x1="202.7" y1="1010.58" x2="198.31" y2="1015.97"/><line class="cls-6" x1="196.31" y1="1006.93" x2="192.11" y2="1012.77"/><path class="cls-10" d="M119.17,1199c-7.26,19.79-29,84.64-.66,111.36a36.78,36.78,0,0,0,4.06,3.31,13.82,13.82,0,0,0,4.79,9.63,13.64,13.64,0,0,0,8.51,3.06l88.85-18-7.26-27.92-60.14,6.47a374,374,0,0,0-5.48-63.8c-3.92-22.66-7.16-28.85-9.19-32.17-15.31-25-49.54-29.57-63.57-30.64" transform="translate(73.37 -696.32)"/><path class="cls-11" d="M101.5,1328.91.05,1317.21l-21.9,196.09q-20.28,69.95-40.58,139.91l38,8.67,63.92-127.72,24.33-119.44" transform="translate(73.37 -696.32)"/><path class="cls-11" d="M55.83,1454.08,77,1499q-6.84,73.79-13.66,147.55l45.79,13.7,36.6-158.32q-.74-3.63-1.5-7.27s-.77-3.64-1.56-7.28c-.59-2.7-18.22-64.88-43.2-149.83" transform="translate(73.37 -696.32)"/><path class="cls-12" d="M86.38,1191.1c3.63-.25,30.77-1.66,48.19,18.62,16.87,19.63,17.86,51.75,6.41,59.15-9.52,6.15-19-10.37-59.92-22.3-21-6.12-33.61-6.19-39.68-17.12-4.16-7.52-4.29-18.42.76-25,4.13-5.4,13.13-7.34,31-11C78.58,1192.33,83.17,1191.58,86.38,1191.1Z" transform="translate(73.37 -696.32)"/><path class="cls-10" d="M31.36,1220.93q-3.83,10.3-8.15,20.89c-9.07,22.16-18.79,42.7-28.75,61.6l-.17.37a25,25,0,0,0-2.08,9.67,38.26,38.26,0,0,0,.16,5.75l5.76,15.15,85.32,24a55,55,0,0,0,16.66.71l5.57-.32a56.14,56.14,0,0,0,8.74-12c6.25-11.51,5.34-19.74,8.9-37,2.59-12.56,3.73-11.31,7.16-25.58a235.23,235.23,0,0,0,5.84-37.62" transform="translate(73.37 -696.32)"/><path class="cls-9" d="M1037.58,1618q3.76,35.37,7.54,70.75,3.33,9.35,6.67,18.69a28,28,0,0,1-49.41-6.77l20.25-11.85q-7.41-35.93-14.81-71.85Z" transform="translate(73.37 -696.32)"/><path class="cls-10" d="M1047,1695.55c-.85,1.06-2.15,2.63-3.75,4.52-2.62,3.09-3.93,4.63-4.58,5.19a15.14,15.14,0,0,1-12.68,3.19,15.42,15.42,0,0,1-9.26-6.38,5.75,5.75,0,0,0,1.44-10.77l-31.75,16.93c-2.74.13-20.17,1-30,2.76a14.82,14.82,0,0,0-5.43,2,16.86,16.86,0,0,0-6.73,9.06,19.41,19.41,0,0,0-.67,9.75l107.91-1.12.87-18.89a31.07,31.07,0,0,0-.78-5.73A32.27,32.27,0,0,0,1047,1695.55Z" transform="translate(73.37 -696.32)"/><path class="cls-6" d="M943.63,1724l108.16-.81" transform="translate(73.37 -696.32)"/><line class="cls-6" x1="1062.66" y1="1010.36" x2="1067.9" y2="1016.8"/><path class="cls-9" d="M1163.75,1615.85q13,37.56,26.54,75.4,3.51,9.78,7,19.53c-.75.91-11.11,12.91-27.42,11.06-16.94-1.92-24.29-17-24.69-17.82l22.61-12.48-38.36-72.83Z" transform="translate(73.37 -696.32)"/><path class="cls-10" d="M1192.21,1698.08c-.84,1.07-2.12,2.65-3.71,4.56-2.59,3.11-3.88,4.67-4.52,5.23a15.15,15.15,0,0,1-12.65,3.32,15.34,15.34,0,0,1-9.32-6.3,5.75,5.75,0,0,0,1.33-10.78l-31.58,17.24c-2.74.16-20.16,1.22-30,3.06a14.77,14.77,0,0,0-5.41,2,16.83,16.83,0,0,0-6.64,9.13,19.38,19.38,0,0,0-.58,9.75l107.89-2.18.69-18.89a31.25,31.25,0,0,0-.84-5.72A32.22,32.22,0,0,0,1192.21,1698.08Z" transform="translate(73.37 -696.32)"/><path class="cls-6" d="M1089.16,1727.55l108.12-1.9" transform="translate(73.37 -696.32)"/><line class="cls-6" x1="1208.75" y1="1014.43" x2="1214.06" y2="1020.82"/><line class="cls-6" x1="1214.56" y1="1010.91" x2="1219.87" y2="1017.3"/><line class="cls-6" x1="1220.74" y1="1007.65" x2="1226.05" y2="1014.04"/><line class="cls-6" x1="1069.36" y1="1007.95" x2="1073.75" y2="1013.34"/><line class="cls-6" x1="1075.76" y1="1004.3" x2="1079.96" y2="1010.14"/><path class="cls-8" d="M70.88,1319.84c.88,1,1.75,1.94,2.63,2.9l7.72,5.44c3.59,9,3.77,11.38,3.1,11.69s-1.5-.93-5-4.36c-6.55-6.4-8.43-7.35-9-10.27A9.27,9.27,0,0,1,70.88,1319.84Z" transform="translate(73.37 -696.32)"/><path class="cls-9" d="M84.6,1345.37c1.13-3.74-1.79-7.22-5.16-11.23-1.29-1.54-11.63-13.84-19-11.11-3.69,1.37-4.85,5.87-5.11,6.88-2.38,9.21,6.14,21.74,16.35,22.28C76.76,1352.46,83.24,1349.83,84.6,1345.37Z" transform="translate(73.37 -696.32)"/><path class="cls-10" d="M74.22,1209.79l-41.61,24.56,38.5,82.45-19.18,26-72.47-99.71a22,22,0,0,1-4.65-16.81,23.57,23.57,0,0,1,4.06-9.94L56.46,1157" transform="translate(73.37 -696.32)"/><path class="cls-9" d="M124.39,1182.58l10.89-29.5,9,5a3.2,3.2,0,0,0,1.89.2,4.32,4.32,0,0,0,2.49-2.45c1.69-3.13,3.06-6,3.9-7.81l-2.55-4,5.67.6,5.35-6.74,5,.44q-.59-5.49-1.18-11a53.13,53.13,0,0,1-.28-9.93c.23-3.69.71-5.11.52-7.7a20.36,20.36,0,0,0-3.69-10,33.66,33.66,0,0,0-50.63-11.18,29.75,29.75,0,0,0-5.77,5.81c-12.41,16.88,0,45.43,1.58,49l-8.68,9.86-39,2.46a11.91,11.91,0,0,0-4.76,2.6c-1.67,1.5-3.38,3.87-3.44,5.38-.15,3.85,10.16,8.14,24.66,11.16,20.2,14.42,38,18.56,52.16,18.67h1.15Z" transform="translate(73.37 -696.32)"/><path class="cls-10" d="M73.16,1210.42,58.56,1219l-25.95,15.32q19.24,41.22,38.51,82.45l-19.19,26q-36.22-49.86-72.47-99.71a22,22,0,0,1-4.65-16.81,23.63,23.63,0,0,1,4.06-9.94l73-56.33a21.94,21.94,0,0,1,2.28-1.85,22.7,22.7,0,0,1,4.76-2.6l30.09-2" transform="translate(73.37 -696.32)"/><path class="cls-6" d="M87.19,1154.06c3.14,2.32,6.33,4.81,9.53,7.48a209.49,209.49,0,0,1,30.81,31.84h1.15" transform="translate(73.37 -696.32)"/><path class="cls-10" d="M130.83,1100.94,168,1111.52a30.32,30.32,0,0,0-.82-14.12c-4.59-14.83-19.73-20.59-23.94-22.08-3.86-1.37-15.34-5.44-26.79-.69a19,19,0,0,0-2.91,1.49c-7.56,4.8-16.34,13.65-19.24,26-4.79,20.35,9,36,10.23,37.3l10.19.91,5.61-23.32q4-3.33,8-6.68l-.36,8.78,4.78.75q2.16-8.56,4.31-17.13" transform="translate(73.37 -696.32)"/><path class="cls-13" d="M134,1121.29c-1.63,2.58-5.39,3.32-8.24,2.52-3.47-1-6.9-4.61-6-8.66s5.6-6.05,9.17-5.14C133.73,1111.23,136.32,1117.63,134,1121.29Z" transform="translate(73.37 -696.32)"/><path class="cls-9" d="M134.49,1115.71a8.77,8.77,0,0,0-7.47-6.5,7.69,7.69,0,0,0-6.1,2.35c-2.72,2.9-2.84,8.14.17,12.53" transform="translate(73.37 -696.32)"/><path class="cls-10" d="M1041,1225.08c-33.44,10.76-105.09,33.55-112.93,33.15-2-.1-8.22-.41-8.19-1.12h0a13.42,13.42,0,0,1-6.67-8.46q-4.18-52.76-8.36-105.5l33.46-5.26q5.63,37.33,11.26,74.66,17.47-10,36-19.83c20.51-10.87,30.77-16.31,38.16-19.4a151.23,151.23,0,0,1,44.44-10.92" transform="translate(73.37 -696.32)"/><path class="cls-11" d="M1103.27,1288.48q-4.23,29.51-8.43,59l-41,147.21a674,674,0,0,0,8.68,153.42q-13.68,2.85-27.57,5.62-9.43,1.88-18.78,3.68-18.74-82.94-32.89-169.31-.69-4.18-1.36-8.36h0q9.33-36,19.32-72.64,10.82-39.63,21.93-78.17a327.37,327.37,0,0,0,80.11-40.43Z" transform="translate(73.37 -696.32)"/><path class="cls-11" d="M1028.3,1328.44l96.3-11.23,21.9,196.09,48.78,134.29-44.34,11.94-65.8-125.37-24.33-119.44" transform="translate(73.37 -696.32)"/><path class="cls-14" d="M1032.39,1173.21a60.06,60.06,0,0,1,5.95-2.74c3.43-1.39,6-2.22,7.26-2.63,12.41-4,13.6-6.33,19-6.37,1.86,0,2.84.26,11.23,3.31,12.89,4.7,19.34,7,20.68,7.92,7.41,4.85,10.53,13.11,13.53,23.74,7.17,25.41,5.93,46.88,6.13,60a254.93,254.93,0,0,0,8.47,60.77l-101.44,11.7c-.41-4-1.07-10.43-1.85-18.37-6.62-67.3-5.87-64.31-6.46-73-1.09-16.19-1.94-17.72-1-24.51a62.22,62.22,0,0,1,1.76-8.59" transform="translate(73.37 -696.32)"/><path class="cls-9" d="M1028.16,1178.62l6.78-8.73-.81-24-10.21,1.26a3.12,3.12,0,0,1-1.83-.52,4.31,4.31,0,0,1-1.41-3.2c-.41-3.53-.62-6.69-.73-8.69l3.87-2.82-5.49-1.55q-1.23-4.11-2.47-8.24l-4.79-1.44,5.16-9.75a52.33,52.33,0,0,0,3.94-9.11c1.15-3.52,1.23-5,2.36-7.35a20.42,20.42,0,0,1,7.14-7.93,33.67,33.67,0,0,1,51.18,8.37,29.61,29.61,0,0,1,3.19,7.53c5.28,20.27-16.79,42.21-19.61,44.94l.16,16.61" transform="translate(73.37 -696.32)"/><path class="cls-13" d="M1027.11,1180.11l6-4.86,17.87-13.79,15.57,1a78.69,78.69,0,0,1-13.08,12.79,79.86,79.86,0,0,1-22.66,12.25Q1029,1183.8,1027.11,1180.11Z" transform="translate(73.37 -696.32)"/><path class="cls-12" d="M1028,1246.48c16.84,13,66.77-13.53,65.56-34.46-.33-5.85-4.59-9.82-6.38-11.49-14.77-13.78-50.38-10.75-61.73,11.23C1019.82,1222.57,1019.2,1239.72,1028,1246.48Z" transform="translate(73.37 -696.32)"/><path class="cls-8" d="M954.26,1238.58l-3.4-1.92-7-6.34c-9.54-1.53-11.93-1.18-12.09-.45s1.24,1.25,5.37,3.93c7.68,5,9,6.61,12,6.56A9.24,9.24,0,0,0,954.26,1238.58Z" transform="translate(73.37 -696.32)"/><path class="cls-9" d="M926.35,1230.82c3.39-1.93,7.42.15,12.08,2.56,1.79.92,16.06,8.29,15,16.07-.52,3.9-4.65,6-5.58,6.51-8.46,4.35-22.56-1.21-25.34-11C921.15,1240,922.29,1233.12,926.35,1230.82Z" transform="translate(73.37 -696.32)"/><path class="cls-10" d="M1062,1205.38q-16.85,27.57-33.7,55.15l-78.24-30.35L932.55,1259c47.48,28.06,83.06,48,94.11,53.53,3.36,1.69,9.84,4.93,17.15,3.18a23.54,23.54,0,0,0,9.55-4.9l45.41-80.15" transform="translate(73.37 -696.32)"/><path class="cls-10" d="M1094.2,1150.26c-2,.76-4.75,1.85-8.13,3.2l-1.58.63a79.45,79.45,0,0,1-38.32,4.33c-.21-1.9-.46-4.77-.53-8.26a97.43,97.43,0,0,1,.84-14.41c1.89-15.24,4.71-33.27,5.06-35.55l-30.93-7.08a26.28,26.28,0,0,1,5-10.76c9.66-12.12,27.45-10.8,30.81-10.55,4.08.3,16.23,1.2,24.79,10.16,4.52,4.73,6.1,10,9.2,34.09C1091.6,1125,1093,1136.63,1094.2,1150.26Z" transform="translate(73.37 -696.32)"/><circle cx="226.59" cy="422.58" r="1.69"/><circle cx="1103.46" cy="412.47" r="1.69"/><g id="Group_125" data-name="Group 125"><rect id="Rectangle_153" data-name="Rectangle 153" class="cls-10" x="299.46" y="565.39" width="524.94" height="86.69"/><g id="Tour_de_Femme" data-name="Tour de Femme" class="cls-15"><text class="cls-16" transform="translate(437.52 608.74)"><tspan class="cls-17">T</tspan><tspan x="10" y="0">our de </tspan><tspan class="cls-18" x="77.55" y="0">F</tspan><tspan class="cls-19" x="89.4" y="0">em</tspan><tspan class="cls-20" x="121.48" y="0">m</tspan><tspan class="cls-19" x="141.95" y="0">e</tspan></text></g><g id="I_og_omkring_Aarhus_Aarhus_C" data-name="I og omkring Aarhus Aarhus C" class="cls-15"><text class="cls-21" transform="translate(437.52 626.39)">I og om<tspan class="cls-22" x="49.15" y="0">kr</tspan><tspan x="61.81" y="0">i</tspan><tspan class="cls-20" x="65.26" y="0">n</tspan><tspan x="73.98" y="0">g Aa</tspan><tspan class="cls-23" x="102.94" y="0">r</tspan><tspan x="107.99" y="0">hus, Aa</tspan><tspan class="cls-23" x="154.48" y="0">r</tspan><tspan class="cls-24" x="159.53" y="0">hus C</tspan></text></g><g id="May" class="cls-15"><text class="cls-25" transform="translate(325.15 602.31)">M<tspan class="cls-26" x="24.53" y="0">a</tspan><tspan x="39.63" y="0">y</tspan></text></g><g id="_14" data-name=" 14" class="cls-15"><text class="cls-25" transform="translate(326.25 632.82)">14</text></g><line id="Line_147" data-name="Line 147" class="cls-27" x1="404.61" y1="565.39" x2="404.61" y2="652.08"/></g><path class="cls-28" d="M700.83,1318.44h-.05a1.88,1.88,0,0,1-1.16-.4,71.14,71.14,0,0,1-8.27-6.81c-2.73-2.62-4.09-4.51-5-7a10.26,10.26,0,0,1-.66-3.31,10.09,10.09,0,0,1,2.21-6.78,8.58,8.58,0,0,1,6.39-3.28h.31a8.65,8.65,0,0,1,6.23,2.72l.08-.08,0,0a8.67,8.67,0,0,1,6.17-2.66h.32a8.6,8.6,0,0,1,6.39,3.28A10.14,10.14,0,0,1,716,1301a10.53,10.53,0,0,1-.66,3.31c-.93,2.44-2.29,4.33-5,7A70.42,70.42,0,0,1,702,1318a1.88,1.88,0,0,1-1.16.4Z" transform="translate(73.37 -696.32)"/><g id="Group_125-2" data-name="Group 125"><rect id="Rectangle_153-2" data-name="Rectangle 153" class="cls-10" x="499.63" y="414.38" width="524.94" height="86.69"/><g id="Tour_de_Femme-2" data-name="Tour de Femme" class="cls-15"><text class="cls-16" transform="translate(637.68 457.72)"><tspan class="cls-17">T</tspan><tspan x="10" y="0">our de </tspan><tspan class="cls-18" x="77.55" y="0">F</tspan><tspan class="cls-19" x="89.4" y="0">em</tspan><tspan class="cls-20" x="121.48" y="0">m</tspan><tspan class="cls-19" x="141.95" y="0">e</tspan></text></g><g id="I_og_omkring_Aarhus_Aarhus_C-2" data-name="I og omkring Aarhus Aarhus C" class="cls-15"><text class="cls-21" transform="translate(637.68 475.38)">I og om<tspan class="cls-22" x="49.15" y="0">kr</tspan><tspan x="61.81" y="0">i</tspan><tspan class="cls-20" x="65.26" y="0">n</tspan><tspan x="73.98" y="0">g Aa</tspan><tspan class="cls-23" x="102.94" y="0">r</tspan><tspan x="107.99" y="0">hus, Aa</tspan><tspan class="cls-23" x="154.48" y="0">r</tspan><tspan class="cls-24" x="159.53" y="0">hus C</tspan></text></g><g id="May-2" data-name="May" class="cls-15"><text class="cls-25" transform="translate(525.31 451.3)">M<tspan class="cls-26" x="24.53" y="0">a</tspan><tspan x="39.63" y="0">y</tspan></text></g><g id="_14-2" data-name=" 14" class="cls-15"><text class="cls-25" transform="translate(526.42 481.8)">14</text></g><line id="Line_147-2" data-name="Line 147" class="cls-27" x1="604.77" y1="414.38" x2="604.77" y2="501.07"/></g><path class="cls-28" d="M907,1166.53h0a1.94,1.94,0,0,1-1.16-.4,71.32,71.32,0,0,1-8.27-6.81c-2.73-2.63-4.09-4.51-5-7a10.61,10.61,0,0,1-.67-3.32,10.21,10.21,0,0,1,2.21-6.78,8.6,8.6,0,0,1,6.4-3.27h.31a8.69,8.69,0,0,1,6.23,2.72l.08-.07v0a8.66,8.66,0,0,1,6.18-2.67h.32a8.6,8.6,0,0,1,6.39,3.27,10.16,10.16,0,0,1,2.21,6.78,10.33,10.33,0,0,1-.67,3.32c-.92,2.44-2.28,4.32-5,7a71.43,71.43,0,0,1-8.28,6.81,1.94,1.94,0,0,1-1.16.4Z" transform="translate(73.37 -696.32)"/><path class="cls-6" d="M1027.11,1180.11q1.32,3.87,2.62,7.74a98.77,98.77,0,0,0,38.4-25.45" transform="translate(73.37 -696.32)"/><path class="cls-9" d="M918.6,1112a2.47,2.47,0,0,0,2.43,0,3.05,3.05,0,0,0,1.3-1.26c.89-1.73.36-5.26-1.51-5.93a2.78,2.78,0,0,0-3.19,1.74C916.67,1108.48,917.3,1111.17,918.6,1112Z" transform="translate(73.37 -696.32)"/><path class="cls-9" d="M926.2,1114.9a4,4,0,0,0,4.9-.65c.89-1,.74-2.3.5-4.52s-.39-3.58-1.48-4.41c-1.85-1.39-5.39-.45-6.21,1.35-.14.31-.23.7.62,3.89C925.52,1114.32,925.88,1114.68,926.2,1114.9Z" transform="translate(73.37 -696.32)"/><path class="cls-9" d="M932.79,1107.72c1.23-1.83,5.37-1.82,6.56-.1.25.36.28.66.21,3.15-.12,4.22-.23,4.59-.59,5a3.87,3.87,0,0,1-4.85.29c-.69-.57-.88-1.75-1.24-4.1S932.35,1108.37,932.79,1107.72Z" transform="translate(73.37 -696.32)"/><path class="cls-9" d="M942.1,1113.79a2.34,2.34,0,0,0,2.16,0,2.51,2.51,0,0,0,1.16-1c.79-1.42.3-4.32-1.38-4.87a2.49,2.49,0,0,0-2.84,1.4A3.68,3.68,0,0,0,942.1,1113.79Z" transform="translate(73.37 -696.32)"/><path class="cls-13" d="M1058,1113.62a51.49,51.49,0,0,1-.62,8.32,8,8,0,0,0,0-15.93A51.91,51.91,0,0,1,1058,1113.62Z" transform="translate(73.37 -696.32)"/><path class="cls-9" d="M1057.41,1106a8.35,8.35,0,0,1,8.86,4.32c2,4.27-1.27,9.32-4.84,11.06a8,8,0,0,1-3.37.8" transform="translate(73.37 -696.32)"/></svg>